%TF.GenerationSoftware,KiCad,Pcbnew,4.0.7*%
%TF.CreationDate,2018-07-08T22:20:32+02:00*%
%TF.ProjectId,Elemental-pHAT,456C656D656E74616C2D704841542E6B,rev?*%
%TF.FileFunction,Soldermask,Bot*%
%FSLAX46Y46*%
G04 Gerber Fmt 4.6, Leading zero omitted, Abs format (unit mm)*
G04 Created by KiCad (PCBNEW 4.0.7) date 07/08/18 22:20:32*
%MOMM*%
%LPD*%
G01*
G04 APERTURE LIST*
%ADD10C,0.127000*%
%ADD11C,0.150000*%
%ADD12C,6.100000*%
%ADD13C,2.850000*%
%ADD14R,1.827200X1.827200*%
%ADD15C,1.827200*%
%ADD16R,3.300000X1.600000*%
%ADD17R,1.350000X1.600000*%
%ADD18R,1.700000X1.700000*%
%ADD19C,1.700000*%
%ADD20R,1.800000X1.800000*%
%ADD21O,1.800000X1.800000*%
%ADD22C,1.550000*%
%ADD23O,2.000000X1.300000*%
%ADD24R,1.800000X1.300000*%
%ADD25O,1.800000X1.300000*%
%ADD26R,1.600000X1.400000*%
%ADD27R,2.100000X3.900000*%
%ADD28R,2.100000X1.600000*%
G04 APERTURE END LIST*
D10*
X111125000Y-118491000D02*
X170053000Y-118491000D01*
X110617000Y-88519000D02*
X111125000Y-88519000D01*
X110617000Y-88519000D02*
G75*
G03X108077000Y-91313000I127000J-2667000D01*
G01*
X108077000Y-115443000D02*
X108077000Y-91313000D01*
X111125000Y-118491000D02*
X110871000Y-118491000D01*
X108077000Y-115443000D02*
G75*
G03X110871000Y-118491000I2921000J-127000D01*
G01*
X170053000Y-118491000D02*
G75*
G03X173101000Y-115443000I0J3048000D01*
G01*
X173101000Y-91440000D02*
X173101000Y-115443000D01*
X173101000Y-91440000D02*
G75*
G03X170180000Y-88519000I-2921000J0D01*
G01*
X111125000Y-88519000D02*
X170180000Y-88519000D01*
D11*
X159131000Y-107188000D02*
X158877000Y-107188000D01*
X159131000Y-105410000D02*
X158877000Y-105410000D01*
X159004000Y-107188000D02*
X159004000Y-105410000D01*
X158115000Y-106616500D02*
X158115000Y-105918000D01*
X158369000Y-105600500D02*
X158369000Y-106997500D01*
X158496000Y-107061000D02*
X158496000Y-105537000D01*
X158623000Y-105473500D02*
X158623000Y-107124500D01*
X158750000Y-107124500D02*
X158750000Y-105473500D01*
X158877000Y-105410000D02*
X158877000Y-107188000D01*
X158877000Y-107188000D02*
G75*
G02X157988000Y-106299000I0J889000D01*
G01*
X157988000Y-106299000D02*
G75*
G02X158877000Y-105410000I889000J0D01*
G01*
X159893000Y-105918000D02*
X159893000Y-106680000D01*
X159639000Y-106997500D02*
X159639000Y-105600500D01*
X159512000Y-105537000D02*
X159512000Y-107061000D01*
X159385000Y-107124500D02*
X159385000Y-105473500D01*
X159258000Y-105473500D02*
X159258000Y-107124500D01*
X159131000Y-105410000D02*
X159131000Y-107188000D01*
X160020000Y-106299000D02*
G75*
G02X159131000Y-107188000I-889000J0D01*
G01*
X159131000Y-105410000D02*
G75*
G02X160020000Y-106299000I0J-889000D01*
G01*
X159131000Y-105156000D02*
X158877000Y-105156000D01*
X159131000Y-103378000D02*
X158877000Y-103378000D01*
X159004000Y-105156000D02*
X159004000Y-103378000D01*
X158115000Y-104584500D02*
X158115000Y-103886000D01*
X158369000Y-103568500D02*
X158369000Y-104965500D01*
X158496000Y-105029000D02*
X158496000Y-103505000D01*
X158623000Y-103441500D02*
X158623000Y-105092500D01*
X158750000Y-105092500D02*
X158750000Y-103441500D01*
X158877000Y-103378000D02*
X158877000Y-105156000D01*
X158877000Y-105156000D02*
G75*
G02X157988000Y-104267000I0J889000D01*
G01*
X157988000Y-104267000D02*
G75*
G02X158877000Y-103378000I889000J0D01*
G01*
X159893000Y-103886000D02*
X159893000Y-104648000D01*
X159639000Y-104965500D02*
X159639000Y-103568500D01*
X159512000Y-103505000D02*
X159512000Y-105029000D01*
X159385000Y-105092500D02*
X159385000Y-103441500D01*
X159258000Y-103441500D02*
X159258000Y-105092500D01*
X159131000Y-103378000D02*
X159131000Y-105156000D01*
X160020000Y-104267000D02*
G75*
G02X159131000Y-105156000I-889000J0D01*
G01*
X159131000Y-103378000D02*
G75*
G02X160020000Y-104267000I0J-889000D01*
G01*
X159131000Y-103124000D02*
X158877000Y-103124000D01*
X159131000Y-101346000D02*
X158877000Y-101346000D01*
X159004000Y-103124000D02*
X159004000Y-101346000D01*
X158115000Y-102552500D02*
X158115000Y-101854000D01*
X158369000Y-101536500D02*
X158369000Y-102933500D01*
X158496000Y-102997000D02*
X158496000Y-101473000D01*
X158623000Y-101409500D02*
X158623000Y-103060500D01*
X158750000Y-103060500D02*
X158750000Y-101409500D01*
X158877000Y-101346000D02*
X158877000Y-103124000D01*
X158877000Y-103124000D02*
G75*
G02X157988000Y-102235000I0J889000D01*
G01*
X157988000Y-102235000D02*
G75*
G02X158877000Y-101346000I889000J0D01*
G01*
X159893000Y-101854000D02*
X159893000Y-102616000D01*
X159639000Y-102933500D02*
X159639000Y-101536500D01*
X159512000Y-101473000D02*
X159512000Y-102997000D01*
X159385000Y-103060500D02*
X159385000Y-101409500D01*
X159258000Y-101409500D02*
X159258000Y-103060500D01*
X159131000Y-101346000D02*
X159131000Y-103124000D01*
X160020000Y-102235000D02*
G75*
G02X159131000Y-103124000I-889000J0D01*
G01*
X159131000Y-101346000D02*
G75*
G02X160020000Y-102235000I0J-889000D01*
G01*
X159131000Y-101092000D02*
X158877000Y-101092000D01*
X159131000Y-99314000D02*
X158877000Y-99314000D01*
X159004000Y-101092000D02*
X159004000Y-99314000D01*
X158115000Y-100520500D02*
X158115000Y-99822000D01*
X158369000Y-99504500D02*
X158369000Y-100901500D01*
X158496000Y-100965000D02*
X158496000Y-99441000D01*
X158623000Y-99377500D02*
X158623000Y-101028500D01*
X158750000Y-101028500D02*
X158750000Y-99377500D01*
X158877000Y-99314000D02*
X158877000Y-101092000D01*
X158877000Y-101092000D02*
G75*
G02X157988000Y-100203000I0J889000D01*
G01*
X157988000Y-100203000D02*
G75*
G02X158877000Y-99314000I889000J0D01*
G01*
X159893000Y-99822000D02*
X159893000Y-100584000D01*
X159639000Y-100901500D02*
X159639000Y-99504500D01*
X159512000Y-99441000D02*
X159512000Y-100965000D01*
X159385000Y-101028500D02*
X159385000Y-99377500D01*
X159258000Y-99377500D02*
X159258000Y-101028500D01*
X159131000Y-99314000D02*
X159131000Y-101092000D01*
X160020000Y-100203000D02*
G75*
G02X159131000Y-101092000I-889000J0D01*
G01*
X159131000Y-99314000D02*
G75*
G02X160020000Y-100203000I0J-889000D01*
G01*
X159131000Y-99060000D02*
X158877000Y-99060000D01*
X159131000Y-97282000D02*
X158877000Y-97282000D01*
X159004000Y-99060000D02*
X159004000Y-97282000D01*
X158115000Y-98488500D02*
X158115000Y-97790000D01*
X158369000Y-97472500D02*
X158369000Y-98869500D01*
X158496000Y-98933000D02*
X158496000Y-97409000D01*
X158623000Y-97345500D02*
X158623000Y-98996500D01*
X158750000Y-98996500D02*
X158750000Y-97345500D01*
X158877000Y-97282000D02*
X158877000Y-99060000D01*
X158877000Y-99060000D02*
G75*
G02X157988000Y-98171000I0J889000D01*
G01*
X157988000Y-98171000D02*
G75*
G02X158877000Y-97282000I889000J0D01*
G01*
X159893000Y-97790000D02*
X159893000Y-98552000D01*
X159639000Y-98869500D02*
X159639000Y-97472500D01*
X159512000Y-97409000D02*
X159512000Y-98933000D01*
X159385000Y-98996500D02*
X159385000Y-97345500D01*
X159258000Y-97345500D02*
X159258000Y-98996500D01*
X159131000Y-97282000D02*
X159131000Y-99060000D01*
X160020000Y-98171000D02*
G75*
G02X159131000Y-99060000I-889000J0D01*
G01*
X159131000Y-97282000D02*
G75*
G02X160020000Y-98171000I0J-889000D01*
G01*
X159131000Y-97028000D02*
X158877000Y-97028000D01*
X159131000Y-95250000D02*
X158877000Y-95250000D01*
X159004000Y-97028000D02*
X159004000Y-95250000D01*
X158115000Y-96456500D02*
X158115000Y-95758000D01*
X158369000Y-95440500D02*
X158369000Y-96837500D01*
X158496000Y-96901000D02*
X158496000Y-95377000D01*
X158623000Y-95313500D02*
X158623000Y-96964500D01*
X158750000Y-96964500D02*
X158750000Y-95313500D01*
X158877000Y-95250000D02*
X158877000Y-97028000D01*
X158877000Y-97028000D02*
G75*
G02X157988000Y-96139000I0J889000D01*
G01*
X157988000Y-96139000D02*
G75*
G02X158877000Y-95250000I889000J0D01*
G01*
X159893000Y-95758000D02*
X159893000Y-96520000D01*
X159639000Y-96837500D02*
X159639000Y-95440500D01*
X159512000Y-95377000D02*
X159512000Y-96901000D01*
X159385000Y-96964500D02*
X159385000Y-95313500D01*
X159258000Y-95313500D02*
X159258000Y-96964500D01*
X159131000Y-95250000D02*
X159131000Y-97028000D01*
X160020000Y-96139000D02*
G75*
G02X159131000Y-97028000I-889000J0D01*
G01*
X159131000Y-95250000D02*
G75*
G02X160020000Y-96139000I0J-889000D01*
G01*
D12*
X169589000Y-92005000D03*
X169589000Y-115005000D03*
X111589000Y-92005000D03*
D13*
X111589000Y-115005000D03*
X169589000Y-92005000D03*
X111589000Y-92005000D03*
X169589000Y-115005000D03*
D14*
X116459000Y-93275000D03*
D15*
X116459000Y-90735000D03*
X118999000Y-93275000D03*
X118999000Y-90735000D03*
X121539000Y-93275000D03*
X121539000Y-90735000D03*
X124079000Y-93275000D03*
X124079000Y-90735000D03*
X126619000Y-93275000D03*
X126619000Y-90735000D03*
X129159000Y-93275000D03*
X129159000Y-90735000D03*
X131699000Y-93275000D03*
X131699000Y-90735000D03*
X134239000Y-93275000D03*
X134239000Y-90735000D03*
X136779000Y-93275000D03*
X136779000Y-90735000D03*
X139319000Y-93275000D03*
X139319000Y-90735000D03*
X141859000Y-93275000D03*
X141859000Y-90735000D03*
X144399000Y-93275000D03*
X144399000Y-90735000D03*
X146939000Y-93275000D03*
X146939000Y-90735000D03*
X149479000Y-93275000D03*
X149479000Y-90735000D03*
X152019000Y-93275000D03*
X152019000Y-90735000D03*
X154559000Y-93275000D03*
X154559000Y-90735000D03*
X157099000Y-93275000D03*
X157099000Y-90735000D03*
X159639000Y-93275000D03*
X159639000Y-90735000D03*
X162179000Y-93275000D03*
X162179000Y-90735000D03*
X164719000Y-93275000D03*
X164719000Y-90735000D03*
D12*
X111589000Y-115005000D03*
D16*
X119793000Y-97409000D03*
X123793000Y-97409000D03*
D17*
X116332000Y-95905000D03*
X116332000Y-98405000D03*
X116332000Y-102850000D03*
X116332000Y-100350000D03*
D16*
X119793000Y-107569000D03*
X123793000Y-107569000D03*
D18*
X137414000Y-99695000D03*
D19*
X133614000Y-99695000D03*
D20*
X151892000Y-110109000D03*
D21*
X151892000Y-112649000D03*
X151892000Y-115189000D03*
D20*
X134747000Y-110109000D03*
D21*
X134747000Y-112649000D03*
X134747000Y-115189000D03*
D20*
X117475000Y-110109000D03*
D21*
X117475000Y-112649000D03*
X117475000Y-115189000D03*
D20*
X154686000Y-110109000D03*
D21*
X154686000Y-112649000D03*
X154686000Y-115189000D03*
D20*
X137541000Y-110109000D03*
D21*
X137541000Y-112649000D03*
X137541000Y-115189000D03*
D20*
X120269000Y-110109000D03*
D21*
X120269000Y-112649000D03*
X120269000Y-115189000D03*
D20*
X157480000Y-110109000D03*
D21*
X157480000Y-112649000D03*
X157480000Y-115189000D03*
D20*
X140335000Y-110109000D03*
D21*
X140335000Y-112649000D03*
X140335000Y-115189000D03*
D20*
X123063000Y-110109000D03*
D21*
X123063000Y-112649000D03*
X123063000Y-115189000D03*
D22*
X112205000Y-96687000D03*
X112205000Y-101687000D03*
D23*
X109505000Y-95687000D03*
X109505000Y-102687000D03*
D20*
X160274000Y-110109000D03*
D21*
X160274000Y-112649000D03*
X160274000Y-115189000D03*
D20*
X143129000Y-110109000D03*
D21*
X143129000Y-112649000D03*
X143129000Y-115189000D03*
D20*
X125857000Y-110109000D03*
D21*
X125857000Y-112649000D03*
X125857000Y-115189000D03*
D20*
X114808000Y-107823000D03*
D21*
X112268000Y-107823000D03*
X109728000Y-107823000D03*
D20*
X163068000Y-110109000D03*
D21*
X163068000Y-112649000D03*
X163068000Y-115189000D03*
D20*
X145923000Y-110109000D03*
D21*
X145923000Y-112649000D03*
X145923000Y-115189000D03*
D20*
X128524000Y-110109000D03*
D21*
X128524000Y-112649000D03*
X128524000Y-115189000D03*
D20*
X114808000Y-105156000D03*
D21*
X112268000Y-105156000D03*
X109728000Y-105156000D03*
D24*
X167513000Y-104267000D03*
D25*
X167513000Y-102267000D03*
X167513000Y-100267000D03*
X167513000Y-98267000D03*
D10*
G36*
X159104000Y-106949000D02*
X159104000Y-105649000D01*
X159904000Y-105749000D01*
X159904000Y-106849000D01*
X159104000Y-106949000D01*
X159104000Y-106949000D01*
G37*
G36*
X158904000Y-105649000D02*
X158904000Y-106949000D01*
X158104000Y-106849000D01*
X158104000Y-105749000D01*
X158904000Y-105649000D01*
X158904000Y-105649000D01*
G37*
G36*
X159104000Y-104917000D02*
X159104000Y-103617000D01*
X159904000Y-103717000D01*
X159904000Y-104817000D01*
X159104000Y-104917000D01*
X159104000Y-104917000D01*
G37*
G36*
X158904000Y-103617000D02*
X158904000Y-104917000D01*
X158104000Y-104817000D01*
X158104000Y-103717000D01*
X158904000Y-103617000D01*
X158904000Y-103617000D01*
G37*
G36*
X159104000Y-102885000D02*
X159104000Y-101585000D01*
X159904000Y-101685000D01*
X159904000Y-102785000D01*
X159104000Y-102885000D01*
X159104000Y-102885000D01*
G37*
G36*
X158904000Y-101585000D02*
X158904000Y-102885000D01*
X158104000Y-102785000D01*
X158104000Y-101685000D01*
X158904000Y-101585000D01*
X158904000Y-101585000D01*
G37*
G36*
X159104000Y-100853000D02*
X159104000Y-99553000D01*
X159904000Y-99653000D01*
X159904000Y-100753000D01*
X159104000Y-100853000D01*
X159104000Y-100853000D01*
G37*
G36*
X158904000Y-99553000D02*
X158904000Y-100853000D01*
X158104000Y-100753000D01*
X158104000Y-99653000D01*
X158904000Y-99553000D01*
X158904000Y-99553000D01*
G37*
G36*
X159104000Y-98821000D02*
X159104000Y-97521000D01*
X159904000Y-97621000D01*
X159904000Y-98721000D01*
X159104000Y-98821000D01*
X159104000Y-98821000D01*
G37*
G36*
X158904000Y-97521000D02*
X158904000Y-98821000D01*
X158104000Y-98721000D01*
X158104000Y-97621000D01*
X158904000Y-97521000D01*
X158904000Y-97521000D01*
G37*
G36*
X159104000Y-96789000D02*
X159104000Y-95489000D01*
X159904000Y-95589000D01*
X159904000Y-96689000D01*
X159104000Y-96789000D01*
X159104000Y-96789000D01*
G37*
G36*
X158904000Y-95489000D02*
X158904000Y-96789000D01*
X158104000Y-96689000D01*
X158104000Y-95589000D01*
X158904000Y-95489000D01*
X158904000Y-95489000D01*
G37*
D26*
X161464000Y-106299000D03*
X164164000Y-106299000D03*
X161464000Y-104267000D03*
X164164000Y-104267000D03*
X161464000Y-102235000D03*
X164164000Y-102235000D03*
X161464000Y-100203000D03*
X164164000Y-100203000D03*
X161464000Y-98171000D03*
X164164000Y-98171000D03*
X161464000Y-96139000D03*
X164164000Y-96139000D03*
D27*
X125324000Y-102616000D03*
D28*
X119024000Y-102616000D03*
X119024000Y-100316000D03*
X119024000Y-104916000D03*
M02*
