%TF.GenerationSoftware,KiCad,Pcbnew,4.0.7*%
%TF.CreationDate,2018-07-08T22:20:32+02:00*%
%TF.ProjectId,Elemental-pHAT,456C656D656E74616C2D704841542E6B,rev?*%
%TF.FileFunction,Copper,L2,Bot,Signal*%
%FSLAX46Y46*%
G04 Gerber Fmt 4.6, Leading zero omitted, Abs format (unit mm)*
G04 Created by KiCad (PCBNEW 4.0.7) date 07/08/18 22:20:32*
%MOMM*%
%LPD*%
G01*
G04 APERTURE LIST*
%ADD10C,0.127000*%
%ADD11C,0.150000*%
%ADD12R,1.727200X1.727200*%
%ADD13C,1.727200*%
%ADD14R,3.200000X1.500000*%
%ADD15R,1.250000X1.500000*%
%ADD16R,1.600000X1.600000*%
%ADD17C,1.600000*%
%ADD18R,1.700000X1.700000*%
%ADD19O,1.700000X1.700000*%
%ADD20C,1.450000*%
%ADD21O,1.900000X1.200000*%
%ADD22R,1.700000X1.200000*%
%ADD23O,1.700000X1.200000*%
%ADD24R,1.500000X1.300000*%
%ADD25R,2.000000X3.800000*%
%ADD26R,2.000000X1.500000*%
%ADD27C,0.685800*%
%ADD28C,0.254000*%
%ADD29C,0.200000*%
%ADD30C,0.300000*%
%ADD31C,0.250000*%
%ADD32C,0.400000*%
G04 APERTURE END LIST*
D10*
X111125000Y-118491000D02*
X170053000Y-118491000D01*
X110617000Y-88519000D02*
X111125000Y-88519000D01*
X110617000Y-88519000D02*
G75*
G03X108077000Y-91313000I127000J-2667000D01*
G01*
X108077000Y-115443000D02*
X108077000Y-91313000D01*
X111125000Y-118491000D02*
X110871000Y-118491000D01*
X108077000Y-115443000D02*
G75*
G03X110871000Y-118491000I2921000J-127000D01*
G01*
X170053000Y-118491000D02*
G75*
G03X173101000Y-115443000I0J3048000D01*
G01*
X173101000Y-91440000D02*
X173101000Y-115443000D01*
X173101000Y-91440000D02*
G75*
G03X170180000Y-88519000I-2921000J0D01*
G01*
X111125000Y-88519000D02*
X170180000Y-88519000D01*
D11*
X159258000Y-106959400D02*
X159258000Y-105638600D01*
X159258000Y-105638600D02*
X159359600Y-105638600D01*
X159359600Y-105638600D02*
X159359600Y-106959400D01*
X159359600Y-106959400D02*
X159461200Y-106959400D01*
X159461200Y-106959400D02*
X159461200Y-105689400D01*
X159461200Y-105689400D02*
X159562800Y-105689400D01*
X159562800Y-105689400D02*
X159562800Y-106857800D01*
X159562800Y-106857800D02*
X159664400Y-106807000D01*
X159664400Y-106807000D02*
X159664400Y-105841800D01*
X159664400Y-105841800D02*
X159766000Y-105943400D01*
X159766000Y-105943400D02*
X159766000Y-106654600D01*
X159766000Y-106654600D02*
X159816800Y-106603800D01*
X159816800Y-106603800D02*
X159816800Y-106045000D01*
X158546800Y-105689400D02*
X158445200Y-105689400D01*
X158445200Y-105689400D02*
X158445200Y-106807000D01*
X158445200Y-106807000D02*
X158343600Y-106807000D01*
X158343600Y-106807000D02*
X158343600Y-105841800D01*
X158343600Y-105841800D02*
X158292800Y-105841800D01*
X158292800Y-105841800D02*
X158292800Y-106705400D01*
X158292800Y-106705400D02*
X158242000Y-106705400D01*
X158242000Y-106705400D02*
X158242000Y-105994200D01*
X158242000Y-105994200D02*
X158191200Y-105994200D01*
X158191200Y-105994200D02*
X158191200Y-106553000D01*
X158750000Y-107010200D02*
X158750000Y-105638600D01*
X158750000Y-105638600D02*
X158648400Y-105638600D01*
X158648400Y-105638600D02*
X158648400Y-106959400D01*
X158648400Y-106959400D02*
X158546800Y-106959400D01*
X158546800Y-106959400D02*
X158546800Y-105689400D01*
X158546800Y-105689400D02*
X158496000Y-105689400D01*
X158851600Y-107061000D02*
X158851600Y-105537000D01*
X159156400Y-107061000D02*
X159156400Y-105537000D01*
X159156400Y-105537000D02*
G75*
G02X159918400Y-106299000I0J-762000D01*
G01*
X159918400Y-106299000D02*
G75*
G02X159156400Y-107061000I-762000J0D01*
G01*
X158851600Y-107061000D02*
G75*
G02X158089600Y-106299000I0J762000D01*
G01*
X158089600Y-106299000D02*
G75*
G02X158851600Y-105537000I762000J0D01*
G01*
X159258000Y-104927400D02*
X159258000Y-103606600D01*
X159258000Y-103606600D02*
X159359600Y-103606600D01*
X159359600Y-103606600D02*
X159359600Y-104927400D01*
X159359600Y-104927400D02*
X159461200Y-104927400D01*
X159461200Y-104927400D02*
X159461200Y-103657400D01*
X159461200Y-103657400D02*
X159562800Y-103657400D01*
X159562800Y-103657400D02*
X159562800Y-104825800D01*
X159562800Y-104825800D02*
X159664400Y-104775000D01*
X159664400Y-104775000D02*
X159664400Y-103809800D01*
X159664400Y-103809800D02*
X159766000Y-103911400D01*
X159766000Y-103911400D02*
X159766000Y-104622600D01*
X159766000Y-104622600D02*
X159816800Y-104571800D01*
X159816800Y-104571800D02*
X159816800Y-104013000D01*
X158546800Y-103657400D02*
X158445200Y-103657400D01*
X158445200Y-103657400D02*
X158445200Y-104775000D01*
X158445200Y-104775000D02*
X158343600Y-104775000D01*
X158343600Y-104775000D02*
X158343600Y-103809800D01*
X158343600Y-103809800D02*
X158292800Y-103809800D01*
X158292800Y-103809800D02*
X158292800Y-104673400D01*
X158292800Y-104673400D02*
X158242000Y-104673400D01*
X158242000Y-104673400D02*
X158242000Y-103962200D01*
X158242000Y-103962200D02*
X158191200Y-103962200D01*
X158191200Y-103962200D02*
X158191200Y-104521000D01*
X158750000Y-104978200D02*
X158750000Y-103606600D01*
X158750000Y-103606600D02*
X158648400Y-103606600D01*
X158648400Y-103606600D02*
X158648400Y-104927400D01*
X158648400Y-104927400D02*
X158546800Y-104927400D01*
X158546800Y-104927400D02*
X158546800Y-103657400D01*
X158546800Y-103657400D02*
X158496000Y-103657400D01*
X158851600Y-105029000D02*
X158851600Y-103505000D01*
X159156400Y-105029000D02*
X159156400Y-103505000D01*
X159156400Y-103505000D02*
G75*
G02X159918400Y-104267000I0J-762000D01*
G01*
X159918400Y-104267000D02*
G75*
G02X159156400Y-105029000I-762000J0D01*
G01*
X158851600Y-105029000D02*
G75*
G02X158089600Y-104267000I0J762000D01*
G01*
X158089600Y-104267000D02*
G75*
G02X158851600Y-103505000I762000J0D01*
G01*
X159258000Y-102895400D02*
X159258000Y-101574600D01*
X159258000Y-101574600D02*
X159359600Y-101574600D01*
X159359600Y-101574600D02*
X159359600Y-102895400D01*
X159359600Y-102895400D02*
X159461200Y-102895400D01*
X159461200Y-102895400D02*
X159461200Y-101625400D01*
X159461200Y-101625400D02*
X159562800Y-101625400D01*
X159562800Y-101625400D02*
X159562800Y-102793800D01*
X159562800Y-102793800D02*
X159664400Y-102743000D01*
X159664400Y-102743000D02*
X159664400Y-101777800D01*
X159664400Y-101777800D02*
X159766000Y-101879400D01*
X159766000Y-101879400D02*
X159766000Y-102590600D01*
X159766000Y-102590600D02*
X159816800Y-102539800D01*
X159816800Y-102539800D02*
X159816800Y-101981000D01*
X158546800Y-101625400D02*
X158445200Y-101625400D01*
X158445200Y-101625400D02*
X158445200Y-102743000D01*
X158445200Y-102743000D02*
X158343600Y-102743000D01*
X158343600Y-102743000D02*
X158343600Y-101777800D01*
X158343600Y-101777800D02*
X158292800Y-101777800D01*
X158292800Y-101777800D02*
X158292800Y-102641400D01*
X158292800Y-102641400D02*
X158242000Y-102641400D01*
X158242000Y-102641400D02*
X158242000Y-101930200D01*
X158242000Y-101930200D02*
X158191200Y-101930200D01*
X158191200Y-101930200D02*
X158191200Y-102489000D01*
X158750000Y-102946200D02*
X158750000Y-101574600D01*
X158750000Y-101574600D02*
X158648400Y-101574600D01*
X158648400Y-101574600D02*
X158648400Y-102895400D01*
X158648400Y-102895400D02*
X158546800Y-102895400D01*
X158546800Y-102895400D02*
X158546800Y-101625400D01*
X158546800Y-101625400D02*
X158496000Y-101625400D01*
X158851600Y-102997000D02*
X158851600Y-101473000D01*
X159156400Y-102997000D02*
X159156400Y-101473000D01*
X159156400Y-101473000D02*
G75*
G02X159918400Y-102235000I0J-762000D01*
G01*
X159918400Y-102235000D02*
G75*
G02X159156400Y-102997000I-762000J0D01*
G01*
X158851600Y-102997000D02*
G75*
G02X158089600Y-102235000I0J762000D01*
G01*
X158089600Y-102235000D02*
G75*
G02X158851600Y-101473000I762000J0D01*
G01*
X159258000Y-100863400D02*
X159258000Y-99542600D01*
X159258000Y-99542600D02*
X159359600Y-99542600D01*
X159359600Y-99542600D02*
X159359600Y-100863400D01*
X159359600Y-100863400D02*
X159461200Y-100863400D01*
X159461200Y-100863400D02*
X159461200Y-99593400D01*
X159461200Y-99593400D02*
X159562800Y-99593400D01*
X159562800Y-99593400D02*
X159562800Y-100761800D01*
X159562800Y-100761800D02*
X159664400Y-100711000D01*
X159664400Y-100711000D02*
X159664400Y-99745800D01*
X159664400Y-99745800D02*
X159766000Y-99847400D01*
X159766000Y-99847400D02*
X159766000Y-100558600D01*
X159766000Y-100558600D02*
X159816800Y-100507800D01*
X159816800Y-100507800D02*
X159816800Y-99949000D01*
X158546800Y-99593400D02*
X158445200Y-99593400D01*
X158445200Y-99593400D02*
X158445200Y-100711000D01*
X158445200Y-100711000D02*
X158343600Y-100711000D01*
X158343600Y-100711000D02*
X158343600Y-99745800D01*
X158343600Y-99745800D02*
X158292800Y-99745800D01*
X158292800Y-99745800D02*
X158292800Y-100609400D01*
X158292800Y-100609400D02*
X158242000Y-100609400D01*
X158242000Y-100609400D02*
X158242000Y-99898200D01*
X158242000Y-99898200D02*
X158191200Y-99898200D01*
X158191200Y-99898200D02*
X158191200Y-100457000D01*
X158750000Y-100914200D02*
X158750000Y-99542600D01*
X158750000Y-99542600D02*
X158648400Y-99542600D01*
X158648400Y-99542600D02*
X158648400Y-100863400D01*
X158648400Y-100863400D02*
X158546800Y-100863400D01*
X158546800Y-100863400D02*
X158546800Y-99593400D01*
X158546800Y-99593400D02*
X158496000Y-99593400D01*
X158851600Y-100965000D02*
X158851600Y-99441000D01*
X159156400Y-100965000D02*
X159156400Y-99441000D01*
X159156400Y-99441000D02*
G75*
G02X159918400Y-100203000I0J-762000D01*
G01*
X159918400Y-100203000D02*
G75*
G02X159156400Y-100965000I-762000J0D01*
G01*
X158851600Y-100965000D02*
G75*
G02X158089600Y-100203000I0J762000D01*
G01*
X158089600Y-100203000D02*
G75*
G02X158851600Y-99441000I762000J0D01*
G01*
X159258000Y-98831400D02*
X159258000Y-97510600D01*
X159258000Y-97510600D02*
X159359600Y-97510600D01*
X159359600Y-97510600D02*
X159359600Y-98831400D01*
X159359600Y-98831400D02*
X159461200Y-98831400D01*
X159461200Y-98831400D02*
X159461200Y-97561400D01*
X159461200Y-97561400D02*
X159562800Y-97561400D01*
X159562800Y-97561400D02*
X159562800Y-98729800D01*
X159562800Y-98729800D02*
X159664400Y-98679000D01*
X159664400Y-98679000D02*
X159664400Y-97713800D01*
X159664400Y-97713800D02*
X159766000Y-97815400D01*
X159766000Y-97815400D02*
X159766000Y-98526600D01*
X159766000Y-98526600D02*
X159816800Y-98475800D01*
X159816800Y-98475800D02*
X159816800Y-97917000D01*
X158546800Y-97561400D02*
X158445200Y-97561400D01*
X158445200Y-97561400D02*
X158445200Y-98679000D01*
X158445200Y-98679000D02*
X158343600Y-98679000D01*
X158343600Y-98679000D02*
X158343600Y-97713800D01*
X158343600Y-97713800D02*
X158292800Y-97713800D01*
X158292800Y-97713800D02*
X158292800Y-98577400D01*
X158292800Y-98577400D02*
X158242000Y-98577400D01*
X158242000Y-98577400D02*
X158242000Y-97866200D01*
X158242000Y-97866200D02*
X158191200Y-97866200D01*
X158191200Y-97866200D02*
X158191200Y-98425000D01*
X158750000Y-98882200D02*
X158750000Y-97510600D01*
X158750000Y-97510600D02*
X158648400Y-97510600D01*
X158648400Y-97510600D02*
X158648400Y-98831400D01*
X158648400Y-98831400D02*
X158546800Y-98831400D01*
X158546800Y-98831400D02*
X158546800Y-97561400D01*
X158546800Y-97561400D02*
X158496000Y-97561400D01*
X158851600Y-98933000D02*
X158851600Y-97409000D01*
X159156400Y-98933000D02*
X159156400Y-97409000D01*
X159156400Y-97409000D02*
G75*
G02X159918400Y-98171000I0J-762000D01*
G01*
X159918400Y-98171000D02*
G75*
G02X159156400Y-98933000I-762000J0D01*
G01*
X158851600Y-98933000D02*
G75*
G02X158089600Y-98171000I0J762000D01*
G01*
X158089600Y-98171000D02*
G75*
G02X158851600Y-97409000I762000J0D01*
G01*
X159258000Y-96799400D02*
X159258000Y-95478600D01*
X159258000Y-95478600D02*
X159359600Y-95478600D01*
X159359600Y-95478600D02*
X159359600Y-96799400D01*
X159359600Y-96799400D02*
X159461200Y-96799400D01*
X159461200Y-96799400D02*
X159461200Y-95529400D01*
X159461200Y-95529400D02*
X159562800Y-95529400D01*
X159562800Y-95529400D02*
X159562800Y-96697800D01*
X159562800Y-96697800D02*
X159664400Y-96647000D01*
X159664400Y-96647000D02*
X159664400Y-95681800D01*
X159664400Y-95681800D02*
X159766000Y-95783400D01*
X159766000Y-95783400D02*
X159766000Y-96494600D01*
X159766000Y-96494600D02*
X159816800Y-96443800D01*
X159816800Y-96443800D02*
X159816800Y-95885000D01*
X158546800Y-95529400D02*
X158445200Y-95529400D01*
X158445200Y-95529400D02*
X158445200Y-96647000D01*
X158445200Y-96647000D02*
X158343600Y-96647000D01*
X158343600Y-96647000D02*
X158343600Y-95681800D01*
X158343600Y-95681800D02*
X158292800Y-95681800D01*
X158292800Y-95681800D02*
X158292800Y-96545400D01*
X158292800Y-96545400D02*
X158242000Y-96545400D01*
X158242000Y-96545400D02*
X158242000Y-95834200D01*
X158242000Y-95834200D02*
X158191200Y-95834200D01*
X158191200Y-95834200D02*
X158191200Y-96393000D01*
X158750000Y-96850200D02*
X158750000Y-95478600D01*
X158750000Y-95478600D02*
X158648400Y-95478600D01*
X158648400Y-95478600D02*
X158648400Y-96799400D01*
X158648400Y-96799400D02*
X158546800Y-96799400D01*
X158546800Y-96799400D02*
X158546800Y-95529400D01*
X158546800Y-95529400D02*
X158496000Y-95529400D01*
X158851600Y-96901000D02*
X158851600Y-95377000D01*
X159156400Y-96901000D02*
X159156400Y-95377000D01*
X159156400Y-95377000D02*
G75*
G02X159918400Y-96139000I0J-762000D01*
G01*
X159918400Y-96139000D02*
G75*
G02X159156400Y-96901000I-762000J0D01*
G01*
X158851600Y-96901000D02*
G75*
G02X158089600Y-96139000I0J762000D01*
G01*
X158089600Y-96139000D02*
G75*
G02X158851600Y-95377000I762000J0D01*
G01*
D12*
X116459000Y-93275000D03*
D13*
X116459000Y-90735000D03*
X118999000Y-93275000D03*
X118999000Y-90735000D03*
X121539000Y-93275000D03*
X121539000Y-90735000D03*
X124079000Y-93275000D03*
X124079000Y-90735000D03*
X126619000Y-93275000D03*
X126619000Y-90735000D03*
X129159000Y-93275000D03*
X129159000Y-90735000D03*
X131699000Y-93275000D03*
X131699000Y-90735000D03*
X134239000Y-93275000D03*
X134239000Y-90735000D03*
X136779000Y-93275000D03*
X136779000Y-90735000D03*
X139319000Y-93275000D03*
X139319000Y-90735000D03*
X141859000Y-93275000D03*
X141859000Y-90735000D03*
X144399000Y-93275000D03*
X144399000Y-90735000D03*
X146939000Y-93275000D03*
X146939000Y-90735000D03*
X149479000Y-93275000D03*
X149479000Y-90735000D03*
X152019000Y-93275000D03*
X152019000Y-90735000D03*
X154559000Y-93275000D03*
X154559000Y-90735000D03*
X157099000Y-93275000D03*
X157099000Y-90735000D03*
X159639000Y-93275000D03*
X159639000Y-90735000D03*
X162179000Y-93275000D03*
X162179000Y-90735000D03*
X164719000Y-93275000D03*
X164719000Y-90735000D03*
D14*
X119793000Y-97409000D03*
X123793000Y-97409000D03*
D15*
X116332000Y-95905000D03*
X116332000Y-98405000D03*
X116332000Y-102850000D03*
X116332000Y-100350000D03*
D14*
X119793000Y-107569000D03*
X123793000Y-107569000D03*
D16*
X137414000Y-99695000D03*
D17*
X133614000Y-99695000D03*
D18*
X151892000Y-110109000D03*
D19*
X151892000Y-112649000D03*
X151892000Y-115189000D03*
D18*
X134747000Y-110109000D03*
D19*
X134747000Y-112649000D03*
X134747000Y-115189000D03*
D18*
X117475000Y-110109000D03*
D19*
X117475000Y-112649000D03*
X117475000Y-115189000D03*
D18*
X154686000Y-110109000D03*
D19*
X154686000Y-112649000D03*
X154686000Y-115189000D03*
D18*
X137541000Y-110109000D03*
D19*
X137541000Y-112649000D03*
X137541000Y-115189000D03*
D18*
X120269000Y-110109000D03*
D19*
X120269000Y-112649000D03*
X120269000Y-115189000D03*
D18*
X157480000Y-110109000D03*
D19*
X157480000Y-112649000D03*
X157480000Y-115189000D03*
D18*
X140335000Y-110109000D03*
D19*
X140335000Y-112649000D03*
X140335000Y-115189000D03*
D18*
X123063000Y-110109000D03*
D19*
X123063000Y-112649000D03*
X123063000Y-115189000D03*
D20*
X112205000Y-96687000D03*
X112205000Y-101687000D03*
D21*
X109505000Y-95687000D03*
X109505000Y-102687000D03*
D18*
X160274000Y-110109000D03*
D19*
X160274000Y-112649000D03*
X160274000Y-115189000D03*
D18*
X143129000Y-110109000D03*
D19*
X143129000Y-112649000D03*
X143129000Y-115189000D03*
D18*
X125857000Y-110109000D03*
D19*
X125857000Y-112649000D03*
X125857000Y-115189000D03*
D18*
X114808000Y-107823000D03*
D19*
X112268000Y-107823000D03*
X109728000Y-107823000D03*
D18*
X163068000Y-110109000D03*
D19*
X163068000Y-112649000D03*
X163068000Y-115189000D03*
D18*
X145923000Y-110109000D03*
D19*
X145923000Y-112649000D03*
X145923000Y-115189000D03*
D18*
X128524000Y-110109000D03*
D19*
X128524000Y-112649000D03*
X128524000Y-115189000D03*
D18*
X114808000Y-105156000D03*
D19*
X112268000Y-105156000D03*
X109728000Y-105156000D03*
D22*
X167513000Y-104267000D03*
D23*
X167513000Y-102267000D03*
X167513000Y-100267000D03*
X167513000Y-98267000D03*
D10*
G36*
X159204000Y-106849000D02*
X159204000Y-105749000D01*
X159804000Y-105849000D01*
X159804000Y-106749000D01*
X159204000Y-106849000D01*
X159204000Y-106849000D01*
G37*
G36*
X158804000Y-105749000D02*
X158804000Y-106849000D01*
X158204000Y-106749000D01*
X158204000Y-105849000D01*
X158804000Y-105749000D01*
X158804000Y-105749000D01*
G37*
G36*
X159204000Y-104817000D02*
X159204000Y-103717000D01*
X159804000Y-103817000D01*
X159804000Y-104717000D01*
X159204000Y-104817000D01*
X159204000Y-104817000D01*
G37*
G36*
X158804000Y-103717000D02*
X158804000Y-104817000D01*
X158204000Y-104717000D01*
X158204000Y-103817000D01*
X158804000Y-103717000D01*
X158804000Y-103717000D01*
G37*
G36*
X159204000Y-102785000D02*
X159204000Y-101685000D01*
X159804000Y-101785000D01*
X159804000Y-102685000D01*
X159204000Y-102785000D01*
X159204000Y-102785000D01*
G37*
G36*
X158804000Y-101685000D02*
X158804000Y-102785000D01*
X158204000Y-102685000D01*
X158204000Y-101785000D01*
X158804000Y-101685000D01*
X158804000Y-101685000D01*
G37*
G36*
X159204000Y-100753000D02*
X159204000Y-99653000D01*
X159804000Y-99753000D01*
X159804000Y-100653000D01*
X159204000Y-100753000D01*
X159204000Y-100753000D01*
G37*
G36*
X158804000Y-99653000D02*
X158804000Y-100753000D01*
X158204000Y-100653000D01*
X158204000Y-99753000D01*
X158804000Y-99653000D01*
X158804000Y-99653000D01*
G37*
G36*
X159204000Y-98721000D02*
X159204000Y-97621000D01*
X159804000Y-97721000D01*
X159804000Y-98621000D01*
X159204000Y-98721000D01*
X159204000Y-98721000D01*
G37*
G36*
X158804000Y-97621000D02*
X158804000Y-98721000D01*
X158204000Y-98621000D01*
X158204000Y-97721000D01*
X158804000Y-97621000D01*
X158804000Y-97621000D01*
G37*
G36*
X159204000Y-96689000D02*
X159204000Y-95589000D01*
X159804000Y-95689000D01*
X159804000Y-96589000D01*
X159204000Y-96689000D01*
X159204000Y-96689000D01*
G37*
G36*
X158804000Y-95589000D02*
X158804000Y-96689000D01*
X158204000Y-96589000D01*
X158204000Y-95689000D01*
X158804000Y-95589000D01*
X158804000Y-95589000D01*
G37*
D24*
X161464000Y-106299000D03*
X164164000Y-106299000D03*
X161464000Y-104267000D03*
X164164000Y-104267000D03*
X161464000Y-102235000D03*
X164164000Y-102235000D03*
X161464000Y-100203000D03*
X164164000Y-100203000D03*
X161464000Y-98171000D03*
X164164000Y-98171000D03*
X161464000Y-96139000D03*
X164164000Y-96139000D03*
D25*
X125324000Y-102616000D03*
D26*
X119024000Y-102616000D03*
X119024000Y-100316000D03*
X119024000Y-104916000D03*
D27*
X149479000Y-96139000D03*
X148209000Y-97282000D03*
X157480000Y-96520000D03*
X149225000Y-113792000D03*
X113792000Y-94742000D03*
X113030000Y-111633000D03*
X131318000Y-112141000D03*
X135382000Y-96647000D03*
X133858000Y-104013000D03*
X114681000Y-96139000D03*
X160909000Y-107950000D03*
X157607000Y-108077000D03*
X152273000Y-105537000D03*
X113919000Y-100457000D03*
X121793000Y-98933000D03*
X114554000Y-101600000D03*
X147066000Y-108204000D03*
X149225000Y-109220000D03*
X111125000Y-109728000D03*
X157099000Y-107061000D03*
X156210000Y-104521000D03*
X155321000Y-100076000D03*
X151257000Y-98044000D03*
X153797000Y-100203000D03*
X144018000Y-95504000D03*
X122874282Y-92259703D03*
X141732059Y-101143429D03*
X141761883Y-96998117D03*
X139573000Y-105537000D03*
X147955000Y-107061000D03*
X162814000Y-106299000D03*
X146685000Y-103632000D03*
X156972000Y-103886000D03*
X162814000Y-104267000D03*
X145796000Y-103124000D03*
X156972000Y-102743000D03*
X162814000Y-102235000D03*
X162814000Y-100203000D03*
X157353000Y-101092000D03*
X144653000Y-103251000D03*
X143637000Y-103759000D03*
X156464000Y-100203000D03*
X162814000Y-98171000D03*
X147574000Y-95885000D03*
X124333000Y-94996000D03*
X127508994Y-98747716D03*
X128303621Y-94807100D03*
X136779000Y-90735000D03*
X132242905Y-99404415D03*
D28*
X149479000Y-96139000D02*
X149352000Y-96139000D01*
X149352000Y-96139000D02*
X148209000Y-97282000D01*
X157607000Y-96393000D02*
X157480000Y-96520000D01*
X131191000Y-112649000D02*
X131191000Y-112268000D01*
X131191000Y-112268000D02*
X131318000Y-112141000D01*
X133858000Y-103886000D02*
X133858000Y-104013000D01*
D29*
X119793000Y-97409000D02*
X119793000Y-97885000D01*
X119793000Y-97885000D02*
X119024000Y-98654000D01*
X119024000Y-98654000D02*
X119024000Y-100316000D01*
X116332000Y-95905000D02*
X118892000Y-95905000D01*
X118892000Y-95905000D02*
X119793000Y-96806000D01*
X119793000Y-96806000D02*
X119793000Y-97409000D01*
X114915000Y-95905000D02*
X116332000Y-95905000D01*
X114681000Y-96139000D02*
X114915000Y-95905000D01*
D28*
X156972000Y-108077000D02*
X157607000Y-108077000D01*
X154559000Y-105664000D02*
X156972000Y-108077000D01*
X152400000Y-105664000D02*
X154559000Y-105664000D01*
X152273000Y-105537000D02*
X152400000Y-105664000D01*
D30*
X113934099Y-96932099D02*
X115407000Y-98405000D01*
X122943000Y-97409000D02*
X120284999Y-94750999D01*
X120284999Y-94750999D02*
X114926001Y-94750999D01*
X123793000Y-97409000D02*
X122943000Y-97409000D01*
X113934099Y-95742901D02*
X113934099Y-96932099D01*
X114926001Y-94750999D02*
X113934099Y-95742901D01*
X115407000Y-98405000D02*
X116332000Y-98405000D01*
X116713000Y-105537000D02*
X117334000Y-104916000D01*
X117334000Y-104916000D02*
X119024000Y-104916000D01*
X116713000Y-108204000D02*
X116713000Y-105537000D01*
X117348000Y-108839000D02*
X116713000Y-108204000D01*
X121673000Y-108839000D02*
X117348000Y-108839000D01*
X123793000Y-107569000D02*
X122943000Y-107569000D01*
X122943000Y-107569000D02*
X121673000Y-108839000D01*
D29*
X164164000Y-104267000D02*
X164164000Y-106299000D01*
X164164000Y-104267000D02*
X167513000Y-104267000D01*
X164164000Y-102235000D02*
X164164000Y-104267000D01*
X164164000Y-100203000D02*
X164164000Y-102235000D01*
X164164000Y-98171000D02*
X164164000Y-100203000D01*
X164164000Y-96139000D02*
X164164000Y-98171000D01*
X164719000Y-93275000D02*
X164719000Y-94361000D01*
X164164000Y-94916000D02*
X164164000Y-96139000D01*
X164719000Y-94361000D02*
X164164000Y-94916000D01*
X123793000Y-97409000D02*
X124460000Y-97409000D01*
X116332000Y-100350000D02*
X114026000Y-100350000D01*
X114026000Y-100350000D02*
X113919000Y-100457000D01*
X116332000Y-100350000D02*
X116332000Y-98405000D01*
D30*
X112288000Y-102850000D02*
X110982001Y-104155999D01*
X110982001Y-104155999D02*
X110982001Y-106568999D01*
X110982001Y-106568999D02*
X110577999Y-106973001D01*
X110577999Y-106973001D02*
X109728000Y-107823000D01*
X116332000Y-102850000D02*
X112288000Y-102850000D01*
X119024000Y-102616000D02*
X124079000Y-102616000D01*
X124079000Y-102616000D02*
X125324000Y-102616000D01*
X119793000Y-106519000D02*
X123696000Y-102616000D01*
X119793000Y-107569000D02*
X119793000Y-106519000D01*
X123696000Y-102616000D02*
X124079000Y-102616000D01*
D29*
X116332000Y-102850000D02*
X118790000Y-102850000D01*
X118790000Y-102850000D02*
X119024000Y-102616000D01*
D31*
X169291000Y-102945000D02*
X169291000Y-106426000D01*
X169291000Y-106426000D02*
X163068000Y-112649000D01*
X167513000Y-102267000D02*
X168613000Y-102267000D01*
X168613000Y-102267000D02*
X169291000Y-102945000D01*
X158504000Y-106299000D02*
X158504000Y-106899000D01*
X158709001Y-111419999D02*
X158329999Y-111799001D01*
X158504000Y-106899000D02*
X158709001Y-107104001D01*
X158709001Y-107104001D02*
X158709001Y-111419999D01*
X158329999Y-111799001D02*
X157480000Y-112649000D01*
X158504000Y-104267000D02*
X158504000Y-106299000D01*
X158504000Y-102235000D02*
X158504000Y-104267000D01*
X158504000Y-100203000D02*
X158504000Y-102235000D01*
X158504000Y-98171000D02*
X158504000Y-100203000D01*
X158504000Y-96139000D02*
X158504000Y-98171000D01*
X121793000Y-99979202D02*
X121793000Y-98933000D01*
X114554000Y-101600000D02*
X117565800Y-101600000D01*
X117565800Y-101600000D02*
X117720799Y-101445001D01*
X117720799Y-101445001D02*
X120327201Y-101445001D01*
X120327201Y-101445001D02*
X121793000Y-99979202D01*
D32*
X138938000Y-108204000D02*
X137414000Y-106680000D01*
X137414000Y-106680000D02*
X137414000Y-99695000D01*
X147066000Y-108204000D02*
X138938000Y-108204000D01*
D31*
X126787093Y-99736093D02*
X135976001Y-108925001D01*
X135976001Y-108925001D02*
X135976001Y-110957001D01*
X135976001Y-110957001D02*
X136438999Y-111419999D01*
X136438999Y-111419999D02*
X138130921Y-111419999D01*
X138130921Y-111419999D02*
X139105999Y-112395077D01*
X139105999Y-112395077D02*
X139105999Y-113238921D01*
X139105999Y-113238921D02*
X139745079Y-113878001D01*
X139745079Y-113878001D02*
X147022999Y-113878001D01*
X147022999Y-113878001D02*
X150792000Y-110109000D01*
X150792000Y-110109000D02*
X151892000Y-110109000D01*
X125476000Y-96012000D02*
X126787093Y-97323093D01*
X126787093Y-97323093D02*
X126787093Y-99736093D01*
X124280586Y-96012000D02*
X125476000Y-96012000D01*
X124079000Y-93275000D02*
X123215401Y-94138599D01*
X123215401Y-94138599D02*
X123215401Y-94946815D01*
X123215401Y-94946815D02*
X124280586Y-96012000D01*
X151892000Y-110109000D02*
X151182414Y-110109000D01*
X149225000Y-109220000D02*
X145923000Y-112522000D01*
X145923000Y-112522000D02*
X145923000Y-112649000D01*
D32*
X114427000Y-109601000D02*
X111252000Y-109601000D01*
X111252000Y-109601000D02*
X111125000Y-109728000D01*
X115570000Y-115213922D02*
X115570000Y-110744000D01*
X115570000Y-110744000D02*
X114427000Y-109601000D01*
X132274919Y-113919000D02*
X129700918Y-116493001D01*
X129700918Y-116493001D02*
X116849079Y-116493001D01*
X116849079Y-116493001D02*
X115570000Y-115213922D01*
X134747000Y-112649000D02*
X133544919Y-112649000D01*
X133544919Y-112649000D02*
X132274919Y-113919000D01*
D31*
X155867101Y-106083101D02*
X156845000Y-107061000D01*
X156845000Y-107061000D02*
X157099000Y-107061000D01*
X156210000Y-104521000D02*
X155867101Y-104863899D01*
X155867101Y-104863899D02*
X155867101Y-106083101D01*
X153289000Y-98044000D02*
X155321000Y-100076000D01*
X151257000Y-98044000D02*
X153289000Y-98044000D01*
X153797000Y-100203000D02*
X144653000Y-100203000D01*
X144653000Y-100203000D02*
X142915099Y-101940901D01*
X142915099Y-101940901D02*
X142915099Y-104434099D01*
X142915099Y-104434099D02*
X144820099Y-106339099D01*
X144820099Y-106339099D02*
X153964099Y-106339099D01*
X153964099Y-106339099D02*
X157480000Y-109855000D01*
X157480000Y-109855000D02*
X157480000Y-110109000D01*
X160274000Y-110109000D02*
X162593001Y-107789999D01*
X165989000Y-106556202D02*
X167356000Y-106556202D01*
X166899470Y-103287999D02*
X165961601Y-102350130D01*
X162593001Y-107789999D02*
X164755203Y-107789999D01*
X164755203Y-107789999D02*
X165989000Y-106556202D01*
X168666201Y-103287999D02*
X166899470Y-103287999D01*
X165961601Y-92678551D02*
X165260651Y-91977601D01*
X167356000Y-106556202D02*
X168742001Y-105170201D01*
X165260651Y-91977601D02*
X155801601Y-91977601D01*
X155801601Y-91977601D02*
X155422599Y-91598599D01*
X168742001Y-105170201D02*
X168742001Y-103363799D01*
X168742001Y-103363799D02*
X168666201Y-103287999D01*
X165961601Y-102350130D02*
X165961601Y-92678551D01*
X155422599Y-91598599D02*
X154559000Y-90735000D01*
X116459000Y-92161400D02*
X116642799Y-91977601D01*
X135915401Y-92411401D02*
X136779000Y-93275000D01*
X116642799Y-91977601D02*
X122135449Y-91977601D01*
X131102551Y-91977601D02*
X135481601Y-91977601D01*
X130456399Y-91331449D02*
X131102551Y-91977601D01*
X129755449Y-89492399D02*
X130456399Y-90193349D01*
X130456399Y-90193349D02*
X130456399Y-91331449D01*
X123482551Y-89492399D02*
X129755449Y-89492399D01*
X116459000Y-93275000D02*
X116459000Y-92161400D01*
X122135449Y-91977601D02*
X122781601Y-91331449D01*
X122781601Y-91331449D02*
X122781601Y-90193349D01*
X135481601Y-91977601D02*
X135915401Y-92411401D01*
X122781601Y-90193349D02*
X123482551Y-89492399D01*
D28*
X165986601Y-91691601D02*
X165986601Y-91818601D01*
D30*
X145666601Y-92671349D02*
X145666601Y-94198813D01*
X150082651Y-92007399D02*
X146330551Y-92007399D01*
X150746601Y-90934399D02*
X150746601Y-91343449D01*
X150751399Y-90929601D02*
X150746601Y-90934399D01*
X150751399Y-90126551D02*
X150751399Y-90929601D01*
X146330551Y-92007399D02*
X145666601Y-92671349D01*
X151410551Y-89467399D02*
X150751399Y-90126551D01*
X165986601Y-90126551D02*
X165327449Y-89467399D01*
X165986601Y-91691601D02*
X165986601Y-90126551D01*
X150746601Y-91343449D02*
X150082651Y-92007399D01*
X165327449Y-89467399D02*
X151410551Y-89467399D01*
X144361414Y-95504000D02*
X144018000Y-95504000D01*
X145666601Y-94198813D02*
X144361414Y-95504000D01*
D28*
X168656000Y-99187000D02*
X168656000Y-99374000D01*
X168910000Y-98933000D02*
X168656000Y-99187000D01*
X168910000Y-96774000D02*
X168910000Y-98933000D01*
X166467603Y-94331603D02*
X168910000Y-96774000D01*
X166467603Y-92299603D02*
X166467603Y-94331603D01*
X165986601Y-91818601D02*
X166467603Y-92299603D01*
D30*
X167513000Y-100267000D02*
X167763000Y-100267000D01*
X167763000Y-100267000D02*
X168656000Y-99374000D01*
X168656000Y-99374000D02*
X168767010Y-99262990D01*
X121539000Y-93275000D02*
X121858985Y-93275000D01*
X122531383Y-92602602D02*
X122874282Y-92259703D01*
X121858985Y-93275000D02*
X122531383Y-92602602D01*
D31*
X141761883Y-96998117D02*
X141732059Y-101143429D01*
X141761883Y-101189117D02*
X141732059Y-101159293D01*
X141732059Y-101159293D02*
X141732059Y-101143429D01*
D29*
X161464000Y-106299000D02*
X162814000Y-106299000D01*
X139573000Y-106172000D02*
X139573000Y-105537000D01*
X140462000Y-107061000D02*
X139573000Y-106172000D01*
X147955000Y-107061000D02*
X140462000Y-107061000D01*
X161464000Y-106299000D02*
X159504000Y-106299000D01*
X161464000Y-104267000D02*
X162814000Y-104267000D01*
X156718000Y-103632000D02*
X146685000Y-103632000D01*
X156972000Y-103886000D02*
X156718000Y-103632000D01*
X161464000Y-104267000D02*
X159504000Y-104267000D01*
X161464000Y-102235000D02*
X162814000Y-102235000D01*
X146050000Y-102870000D02*
X145796000Y-103124000D01*
X156845000Y-102870000D02*
X146050000Y-102870000D01*
X156972000Y-102743000D02*
X156845000Y-102870000D01*
X159504000Y-102235000D02*
X161464000Y-102235000D01*
X162814000Y-100203000D02*
X161464000Y-100203000D01*
X156210000Y-102235000D02*
X157353000Y-101092000D01*
X145669000Y-102235000D02*
X156210000Y-102235000D01*
X144653000Y-103251000D02*
X145669000Y-102235000D01*
X159504000Y-100203000D02*
X161464000Y-100203000D01*
X161464000Y-98171000D02*
X162814000Y-98171000D01*
X143637000Y-102997000D02*
X143637000Y-103759000D01*
X145034000Y-101600000D02*
X143637000Y-102997000D01*
X155067000Y-101600000D02*
X145034000Y-101600000D01*
X156464000Y-100203000D02*
X155067000Y-101600000D01*
X159504000Y-98171000D02*
X161464000Y-98171000D01*
X147574000Y-95885000D02*
X148590000Y-94869000D01*
X159504000Y-95242000D02*
X159504000Y-96139000D01*
X148590000Y-94869000D02*
X159131000Y-94869000D01*
X159131000Y-94869000D02*
X159504000Y-95242000D01*
X159504000Y-96139000D02*
X161464000Y-96139000D01*
X124675899Y-94653101D02*
X124333000Y-94996000D01*
X125401399Y-93927601D02*
X124675899Y-94653101D01*
X126034551Y-92057399D02*
X125401399Y-92690551D01*
X127836601Y-92057399D02*
X126034551Y-92057399D01*
X125401399Y-92690551D02*
X125401399Y-93927601D01*
X129159000Y-90735000D02*
X127836601Y-92057399D01*
X128303621Y-94807100D02*
X128303621Y-97953089D01*
X127851893Y-98404817D02*
X127508994Y-98747716D01*
X128303621Y-97953089D02*
X127851893Y-98404817D01*
D31*
X134747000Y-95250000D02*
X132242905Y-97754095D01*
X132242905Y-98919482D02*
X132242905Y-99404415D01*
X132242905Y-97754095D02*
X132242905Y-98919482D01*
D29*
X140589000Y-93980000D02*
X139319000Y-95250000D01*
X141859000Y-90735000D02*
X140589000Y-92005000D01*
X139319000Y-95250000D02*
X134747000Y-95250000D01*
X140589000Y-92005000D02*
X140589000Y-93980000D01*
D28*
G36*
X171164025Y-89064352D02*
X171998242Y-89621758D01*
X172555648Y-90455975D01*
X172758100Y-91473771D01*
X172758100Y-115409229D01*
X172545981Y-116475625D01*
X171961044Y-117351044D01*
X171085625Y-117935981D01*
X170019229Y-118148100D01*
X110912311Y-118148100D01*
X109910547Y-117903163D01*
X109100461Y-117309410D01*
X108579259Y-116450850D01*
X108419900Y-115416732D01*
X108419900Y-115352758D01*
X109832696Y-115352758D01*
X110099468Y-115998395D01*
X110593007Y-116492796D01*
X111238178Y-116760694D01*
X111936758Y-116761304D01*
X112582395Y-116494532D01*
X113076796Y-116000993D01*
X113344694Y-115355822D01*
X113345304Y-114657242D01*
X113078532Y-114011605D01*
X112584993Y-113517204D01*
X111939822Y-113249306D01*
X111241242Y-113248696D01*
X110595605Y-113515468D01*
X110101204Y-114009007D01*
X109833306Y-114654178D01*
X109832696Y-115352758D01*
X108419900Y-115352758D01*
X108419900Y-111776361D01*
X112305975Y-111776361D01*
X112415950Y-112042521D01*
X112619408Y-112246335D01*
X112885376Y-112356774D01*
X113173361Y-112357025D01*
X113439521Y-112247050D01*
X113643335Y-112043592D01*
X113753774Y-111777624D01*
X113754025Y-111489639D01*
X113644050Y-111223479D01*
X113440592Y-111019665D01*
X113174624Y-110909226D01*
X112886639Y-110908975D01*
X112620479Y-111018950D01*
X112416665Y-111222408D01*
X112306226Y-111488376D01*
X112305975Y-111776361D01*
X108419900Y-111776361D01*
X108419900Y-105131883D01*
X108497000Y-105131883D01*
X108497000Y-105180117D01*
X108590704Y-105651200D01*
X108857552Y-106050565D01*
X109256917Y-106317413D01*
X109728000Y-106411117D01*
X110199083Y-106317413D01*
X110451001Y-106149086D01*
X110451001Y-106349051D01*
X110148522Y-106651530D01*
X109728000Y-106567883D01*
X109256917Y-106661587D01*
X108857552Y-106928435D01*
X108590704Y-107327800D01*
X108497000Y-107798883D01*
X108497000Y-107847117D01*
X108590704Y-108318200D01*
X108857552Y-108717565D01*
X109256917Y-108984413D01*
X109728000Y-109078117D01*
X110199083Y-108984413D01*
X110598448Y-108717565D01*
X110865296Y-108318200D01*
X110959000Y-107847117D01*
X110959000Y-107798883D01*
X110883356Y-107418592D01*
X111357475Y-106944473D01*
X111472581Y-106772204D01*
X111513001Y-106568999D01*
X111513001Y-106127706D01*
X111796917Y-106317413D01*
X112268000Y-106411117D01*
X112739083Y-106317413D01*
X113138448Y-106050565D01*
X113405296Y-105651200D01*
X113499000Y-105180117D01*
X113499000Y-105131883D01*
X113405296Y-104660800D01*
X113138448Y-104261435D01*
X112739083Y-103994587D01*
X112268000Y-103900883D01*
X111918556Y-103970392D01*
X112507947Y-103381000D01*
X115318536Y-103381000D01*
X115318536Y-103600000D01*
X115345103Y-103741190D01*
X115428546Y-103870865D01*
X115496851Y-103917536D01*
X113958000Y-103917536D01*
X113816810Y-103944103D01*
X113687135Y-104027546D01*
X113600141Y-104154866D01*
X113569536Y-104306000D01*
X113569536Y-106006000D01*
X113596103Y-106147190D01*
X113679546Y-106276865D01*
X113806866Y-106363859D01*
X113958000Y-106394464D01*
X115658000Y-106394464D01*
X115799190Y-106367897D01*
X115928865Y-106284454D01*
X116015859Y-106157134D01*
X116046464Y-106006000D01*
X116046464Y-105201750D01*
X117389000Y-105201750D01*
X117389000Y-105792310D01*
X117485673Y-106025699D01*
X117664302Y-106204327D01*
X117897691Y-106301000D01*
X118738250Y-106301000D01*
X118897000Y-106142250D01*
X118897000Y-105043000D01*
X117547750Y-105043000D01*
X117389000Y-105201750D01*
X116046464Y-105201750D01*
X116046464Y-104306000D01*
X116019897Y-104164810D01*
X115936454Y-104035135D01*
X115868149Y-103988464D01*
X116957000Y-103988464D01*
X117098190Y-103961897D01*
X117227865Y-103878454D01*
X117314859Y-103751134D01*
X117345464Y-103600000D01*
X117345464Y-103331000D01*
X117635536Y-103331000D01*
X117635536Y-103366000D01*
X117662103Y-103507190D01*
X117723778Y-103603037D01*
X117664302Y-103627673D01*
X117485673Y-103806301D01*
X117389000Y-104039690D01*
X117389000Y-104630250D01*
X117547750Y-104789000D01*
X118897000Y-104789000D01*
X118897000Y-104769000D01*
X119151000Y-104769000D01*
X119151000Y-104789000D01*
X119171000Y-104789000D01*
X119171000Y-105043000D01*
X119151000Y-105043000D01*
X119151000Y-106142250D01*
X119309750Y-106301000D01*
X119312306Y-106301000D01*
X119302420Y-106315795D01*
X119279597Y-106430536D01*
X118193000Y-106430536D01*
X118051810Y-106457103D01*
X117922135Y-106540546D01*
X117835141Y-106667866D01*
X117804536Y-106819000D01*
X117804536Y-108319000D01*
X117831103Y-108460190D01*
X117914546Y-108589865D01*
X118041866Y-108676859D01*
X118193000Y-108707464D01*
X121393000Y-108707464D01*
X121534190Y-108680897D01*
X121630037Y-108619222D01*
X121654673Y-108678699D01*
X121833302Y-108857327D01*
X122016012Y-108933008D01*
X121942135Y-108980546D01*
X121855141Y-109107866D01*
X121824536Y-109259000D01*
X121824536Y-110959000D01*
X121851103Y-111100190D01*
X121934546Y-111229865D01*
X122061866Y-111316859D01*
X122213000Y-111347464D01*
X123913000Y-111347464D01*
X124054190Y-111320897D01*
X124183865Y-111237454D01*
X124270859Y-111110134D01*
X124301464Y-110959000D01*
X124301464Y-109259000D01*
X124274897Y-109117810D01*
X124191454Y-108988135D01*
X124141496Y-108954000D01*
X124777389Y-108954000D01*
X124736135Y-108980546D01*
X124649141Y-109107866D01*
X124618536Y-109259000D01*
X124618536Y-110959000D01*
X124645103Y-111100190D01*
X124728546Y-111229865D01*
X124855866Y-111316859D01*
X125007000Y-111347464D01*
X126707000Y-111347464D01*
X126848190Y-111320897D01*
X126977865Y-111237454D01*
X127064859Y-111110134D01*
X127095464Y-110959000D01*
X127095464Y-109259000D01*
X127285536Y-109259000D01*
X127285536Y-110959000D01*
X127312103Y-111100190D01*
X127395546Y-111229865D01*
X127522866Y-111316859D01*
X127674000Y-111347464D01*
X129374000Y-111347464D01*
X129515190Y-111320897D01*
X129644865Y-111237454D01*
X129731859Y-111110134D01*
X129762464Y-110959000D01*
X129762464Y-109259000D01*
X129735897Y-109117810D01*
X129652454Y-108988135D01*
X129525134Y-108901141D01*
X129374000Y-108870536D01*
X127674000Y-108870536D01*
X127532810Y-108897103D01*
X127403135Y-108980546D01*
X127316141Y-109107866D01*
X127285536Y-109259000D01*
X127095464Y-109259000D01*
X127068897Y-109117810D01*
X126985454Y-108988135D01*
X126858134Y-108901141D01*
X126707000Y-108870536D01*
X125720809Y-108870536D01*
X125752698Y-108857327D01*
X125931327Y-108678699D01*
X126028000Y-108445310D01*
X126028000Y-107854750D01*
X125869250Y-107696000D01*
X123920000Y-107696000D01*
X123920000Y-107716000D01*
X123666000Y-107716000D01*
X123666000Y-107696000D01*
X123646000Y-107696000D01*
X123646000Y-107442000D01*
X123666000Y-107442000D01*
X123666000Y-106342750D01*
X123920000Y-106342750D01*
X123920000Y-107442000D01*
X125869250Y-107442000D01*
X126028000Y-107283250D01*
X126028000Y-106692690D01*
X125931327Y-106459301D01*
X125752698Y-106280673D01*
X125519309Y-106184000D01*
X124078750Y-106184000D01*
X123920000Y-106342750D01*
X123666000Y-106342750D01*
X123507250Y-106184000D01*
X122066691Y-106184000D01*
X121833302Y-106280673D01*
X121654673Y-106459301D01*
X121629695Y-106519602D01*
X121544134Y-106461141D01*
X121393000Y-106430536D01*
X120632412Y-106430536D01*
X123915947Y-103147000D01*
X123935536Y-103147000D01*
X123935536Y-104516000D01*
X123962103Y-104657190D01*
X124045546Y-104786865D01*
X124172866Y-104873859D01*
X124324000Y-104904464D01*
X126324000Y-104904464D01*
X126465190Y-104877897D01*
X126594865Y-104794454D01*
X126681859Y-104667134D01*
X126712464Y-104516000D01*
X126712464Y-100716000D01*
X126685897Y-100574810D01*
X126602454Y-100445135D01*
X126475134Y-100358141D01*
X126324000Y-100327536D01*
X124324000Y-100327536D01*
X124182810Y-100354103D01*
X124053135Y-100437546D01*
X123966141Y-100564866D01*
X123935536Y-100716000D01*
X123935536Y-102085000D01*
X123696005Y-102085000D01*
X123696000Y-102084999D01*
X123695995Y-102085000D01*
X120412464Y-102085000D01*
X120412464Y-101934041D01*
X120520839Y-101912484D01*
X120684997Y-101802797D01*
X122150796Y-100336998D01*
X122260483Y-100172840D01*
X122299000Y-99979202D01*
X122299000Y-99450740D01*
X122406335Y-99343592D01*
X122516774Y-99077624D01*
X122517021Y-98794000D01*
X123507250Y-98794000D01*
X123666000Y-98635250D01*
X123666000Y-97536000D01*
X123920000Y-97536000D01*
X123920000Y-98635250D01*
X124078750Y-98794000D01*
X125519309Y-98794000D01*
X125752698Y-98697327D01*
X125931327Y-98518699D01*
X126028000Y-98285310D01*
X126028000Y-97694750D01*
X125869250Y-97536000D01*
X123920000Y-97536000D01*
X123666000Y-97536000D01*
X123646000Y-97536000D01*
X123646000Y-97282000D01*
X123666000Y-97282000D01*
X123666000Y-97262000D01*
X123920000Y-97262000D01*
X123920000Y-97282000D01*
X125869250Y-97282000D01*
X125949829Y-97201421D01*
X126281093Y-97532685D01*
X126281093Y-99736093D01*
X126319610Y-99929731D01*
X126429297Y-100093889D01*
X135205944Y-108870536D01*
X133897000Y-108870536D01*
X133755810Y-108897103D01*
X133626135Y-108980546D01*
X133539141Y-109107866D01*
X133508536Y-109259000D01*
X133508536Y-110959000D01*
X133535103Y-111100190D01*
X133618546Y-111229865D01*
X133745866Y-111316859D01*
X133897000Y-111347464D01*
X135597000Y-111347464D01*
X135642341Y-111338933D01*
X136081203Y-111777795D01*
X136245361Y-111887482D01*
X136438999Y-111925999D01*
X136547914Y-111925999D01*
X136379587Y-112177917D01*
X136285883Y-112649000D01*
X136379587Y-113120083D01*
X136646435Y-113519448D01*
X137045800Y-113786296D01*
X137084947Y-113794083D01*
X136659642Y-113993817D01*
X136269355Y-114422076D01*
X136144000Y-114724729D01*
X136018645Y-114422076D01*
X135628358Y-113993817D01*
X135203053Y-113794083D01*
X135242200Y-113786296D01*
X135641565Y-113519448D01*
X135908413Y-113120083D01*
X136002117Y-112649000D01*
X135908413Y-112177917D01*
X135641565Y-111778552D01*
X135242200Y-111511704D01*
X134771117Y-111418000D01*
X134722883Y-111418000D01*
X134251800Y-111511704D01*
X133852435Y-111778552D01*
X133659031Y-112068000D01*
X133544919Y-112068000D01*
X133322580Y-112112226D01*
X133134090Y-112238171D01*
X129917424Y-115454837D01*
X129844155Y-115316000D01*
X128651000Y-115316000D01*
X128651000Y-115336000D01*
X128397000Y-115336000D01*
X128397000Y-115316000D01*
X127203845Y-115316000D01*
X127190500Y-115341287D01*
X127177155Y-115316000D01*
X125984000Y-115316000D01*
X125984000Y-115336000D01*
X125730000Y-115336000D01*
X125730000Y-115316000D01*
X124536845Y-115316000D01*
X124460000Y-115461613D01*
X124383155Y-115316000D01*
X123190000Y-115316000D01*
X123190000Y-115336000D01*
X122936000Y-115336000D01*
X122936000Y-115316000D01*
X121742845Y-115316000D01*
X121666000Y-115461613D01*
X121589155Y-115316000D01*
X120396000Y-115316000D01*
X120396000Y-115336000D01*
X120142000Y-115336000D01*
X120142000Y-115316000D01*
X118948845Y-115316000D01*
X118872000Y-115461613D01*
X118795155Y-115316000D01*
X117602000Y-115316000D01*
X117602000Y-115336000D01*
X117348000Y-115336000D01*
X117348000Y-115316000D01*
X117328000Y-115316000D01*
X117328000Y-115062000D01*
X117348000Y-115062000D01*
X117348000Y-115042000D01*
X117602000Y-115042000D01*
X117602000Y-115062000D01*
X118795155Y-115062000D01*
X118872000Y-114916387D01*
X118948845Y-115062000D01*
X120142000Y-115062000D01*
X120142000Y-115042000D01*
X120396000Y-115042000D01*
X120396000Y-115062000D01*
X121589155Y-115062000D01*
X121666000Y-114916387D01*
X121742845Y-115062000D01*
X122936000Y-115062000D01*
X122936000Y-115042000D01*
X123190000Y-115042000D01*
X123190000Y-115062000D01*
X124383155Y-115062000D01*
X124460000Y-114916387D01*
X124536845Y-115062000D01*
X125730000Y-115062000D01*
X125730000Y-115042000D01*
X125984000Y-115042000D01*
X125984000Y-115062000D01*
X127177155Y-115062000D01*
X127190500Y-115036713D01*
X127203845Y-115062000D01*
X128397000Y-115062000D01*
X128397000Y-115042000D01*
X128651000Y-115042000D01*
X128651000Y-115062000D01*
X129844155Y-115062000D01*
X129965476Y-114832110D01*
X129795645Y-114422076D01*
X129405358Y-113993817D01*
X128980053Y-113794083D01*
X129019200Y-113786296D01*
X129418565Y-113519448D01*
X129685413Y-113120083D01*
X129779117Y-112649000D01*
X129706586Y-112284361D01*
X130593975Y-112284361D01*
X130683000Y-112499818D01*
X130683000Y-112649000D01*
X130721669Y-112843403D01*
X130831790Y-113008210D01*
X130996597Y-113118331D01*
X131191000Y-113157000D01*
X131385403Y-113118331D01*
X131550210Y-113008210D01*
X131660331Y-112843403D01*
X131673462Y-112777387D01*
X131727521Y-112755050D01*
X131931335Y-112551592D01*
X132041774Y-112285624D01*
X132042025Y-111997639D01*
X131932050Y-111731479D01*
X131728592Y-111527665D01*
X131462624Y-111417226D01*
X131174639Y-111416975D01*
X130908479Y-111526950D01*
X130704665Y-111730408D01*
X130594226Y-111996376D01*
X130593975Y-112284361D01*
X129706586Y-112284361D01*
X129685413Y-112177917D01*
X129418565Y-111778552D01*
X129019200Y-111511704D01*
X128548117Y-111418000D01*
X128499883Y-111418000D01*
X128028800Y-111511704D01*
X127629435Y-111778552D01*
X127362587Y-112177917D01*
X127268883Y-112649000D01*
X127362587Y-113120083D01*
X127629435Y-113519448D01*
X128028800Y-113786296D01*
X128067947Y-113794083D01*
X127642642Y-113993817D01*
X127252355Y-114422076D01*
X127190500Y-114571417D01*
X127128645Y-114422076D01*
X126738358Y-113993817D01*
X126313053Y-113794083D01*
X126352200Y-113786296D01*
X126751565Y-113519448D01*
X127018413Y-113120083D01*
X127112117Y-112649000D01*
X127018413Y-112177917D01*
X126751565Y-111778552D01*
X126352200Y-111511704D01*
X125881117Y-111418000D01*
X125832883Y-111418000D01*
X125361800Y-111511704D01*
X124962435Y-111778552D01*
X124695587Y-112177917D01*
X124601883Y-112649000D01*
X124695587Y-113120083D01*
X124962435Y-113519448D01*
X125361800Y-113786296D01*
X125400947Y-113794083D01*
X124975642Y-113993817D01*
X124585355Y-114422076D01*
X124460000Y-114724729D01*
X124334645Y-114422076D01*
X123944358Y-113993817D01*
X123519053Y-113794083D01*
X123558200Y-113786296D01*
X123957565Y-113519448D01*
X124224413Y-113120083D01*
X124318117Y-112649000D01*
X124224413Y-112177917D01*
X123957565Y-111778552D01*
X123558200Y-111511704D01*
X123087117Y-111418000D01*
X123038883Y-111418000D01*
X122567800Y-111511704D01*
X122168435Y-111778552D01*
X121901587Y-112177917D01*
X121807883Y-112649000D01*
X121901587Y-113120083D01*
X122168435Y-113519448D01*
X122567800Y-113786296D01*
X122606947Y-113794083D01*
X122181642Y-113993817D01*
X121791355Y-114422076D01*
X121666000Y-114724729D01*
X121540645Y-114422076D01*
X121150358Y-113993817D01*
X120725053Y-113794083D01*
X120764200Y-113786296D01*
X121163565Y-113519448D01*
X121430413Y-113120083D01*
X121524117Y-112649000D01*
X121430413Y-112177917D01*
X121163565Y-111778552D01*
X120764200Y-111511704D01*
X120293117Y-111418000D01*
X120244883Y-111418000D01*
X119773800Y-111511704D01*
X119374435Y-111778552D01*
X119107587Y-112177917D01*
X119013883Y-112649000D01*
X119107587Y-113120083D01*
X119374435Y-113519448D01*
X119773800Y-113786296D01*
X119812947Y-113794083D01*
X119387642Y-113993817D01*
X118997355Y-114422076D01*
X118872000Y-114724729D01*
X118746645Y-114422076D01*
X118356358Y-113993817D01*
X117931053Y-113794083D01*
X117970200Y-113786296D01*
X118369565Y-113519448D01*
X118636413Y-113120083D01*
X118730117Y-112649000D01*
X118636413Y-112177917D01*
X118369565Y-111778552D01*
X117970200Y-111511704D01*
X117499117Y-111418000D01*
X117450883Y-111418000D01*
X116979800Y-111511704D01*
X116580435Y-111778552D01*
X116313587Y-112177917D01*
X116219883Y-112649000D01*
X116313587Y-113120083D01*
X116580435Y-113519448D01*
X116979800Y-113786296D01*
X117018947Y-113794083D01*
X116593642Y-113993817D01*
X116203355Y-114422076D01*
X116151000Y-114548480D01*
X116151000Y-110744000D01*
X116106774Y-110521661D01*
X115980829Y-110333171D01*
X114906658Y-109259000D01*
X116236536Y-109259000D01*
X116236536Y-110959000D01*
X116263103Y-111100190D01*
X116346546Y-111229865D01*
X116473866Y-111316859D01*
X116625000Y-111347464D01*
X118325000Y-111347464D01*
X118466190Y-111320897D01*
X118595865Y-111237454D01*
X118682859Y-111110134D01*
X118713464Y-110959000D01*
X118713464Y-109259000D01*
X119030536Y-109259000D01*
X119030536Y-110959000D01*
X119057103Y-111100190D01*
X119140546Y-111229865D01*
X119267866Y-111316859D01*
X119419000Y-111347464D01*
X121119000Y-111347464D01*
X121260190Y-111320897D01*
X121389865Y-111237454D01*
X121476859Y-111110134D01*
X121507464Y-110959000D01*
X121507464Y-109259000D01*
X121480897Y-109117810D01*
X121397454Y-108988135D01*
X121270134Y-108901141D01*
X121119000Y-108870536D01*
X119419000Y-108870536D01*
X119277810Y-108897103D01*
X119148135Y-108980546D01*
X119061141Y-109107866D01*
X119030536Y-109259000D01*
X118713464Y-109259000D01*
X118686897Y-109117810D01*
X118603454Y-108988135D01*
X118476134Y-108901141D01*
X118325000Y-108870536D01*
X116625000Y-108870536D01*
X116483810Y-108897103D01*
X116354135Y-108980546D01*
X116267141Y-109107866D01*
X116236536Y-109259000D01*
X114906658Y-109259000D01*
X114837829Y-109190171D01*
X114649339Y-109064226D01*
X114635453Y-109061464D01*
X115658000Y-109061464D01*
X115799190Y-109034897D01*
X115928865Y-108951454D01*
X116015859Y-108824134D01*
X116046464Y-108673000D01*
X116046464Y-106973000D01*
X116019897Y-106831810D01*
X115936454Y-106702135D01*
X115809134Y-106615141D01*
X115658000Y-106584536D01*
X113958000Y-106584536D01*
X113816810Y-106611103D01*
X113687135Y-106694546D01*
X113600141Y-106821866D01*
X113569536Y-106973000D01*
X113569536Y-108673000D01*
X113596103Y-108814190D01*
X113679546Y-108943865D01*
X113790973Y-109020000D01*
X112560175Y-109020000D01*
X112739083Y-108984413D01*
X113138448Y-108717565D01*
X113405296Y-108318200D01*
X113499000Y-107847117D01*
X113499000Y-107798883D01*
X113405296Y-107327800D01*
X113138448Y-106928435D01*
X112739083Y-106661587D01*
X112268000Y-106567883D01*
X111796917Y-106661587D01*
X111397552Y-106928435D01*
X111130704Y-107327800D01*
X111037000Y-107798883D01*
X111037000Y-107847117D01*
X111130704Y-108318200D01*
X111397552Y-108717565D01*
X111796917Y-108984413D01*
X111975825Y-109020000D01*
X111307612Y-109020000D01*
X111269624Y-109004226D01*
X110981639Y-109003975D01*
X110715479Y-109113950D01*
X110511665Y-109317408D01*
X110401226Y-109583376D01*
X110400975Y-109871361D01*
X110510950Y-110137521D01*
X110714408Y-110341335D01*
X110980376Y-110451774D01*
X111268361Y-110452025D01*
X111534521Y-110342050D01*
X111694851Y-110182000D01*
X114186342Y-110182000D01*
X114989000Y-110984658D01*
X114989000Y-115213922D01*
X115033226Y-115436261D01*
X115159171Y-115624751D01*
X116438250Y-116903830D01*
X116626740Y-117029775D01*
X116849079Y-117074001D01*
X129700918Y-117074001D01*
X129923257Y-117029775D01*
X130111747Y-116903830D01*
X131469687Y-115545890D01*
X133305524Y-115545890D01*
X133475355Y-115955924D01*
X133865642Y-116384183D01*
X134390108Y-116630486D01*
X134620000Y-116509819D01*
X134620000Y-115316000D01*
X134874000Y-115316000D01*
X134874000Y-116509819D01*
X135103892Y-116630486D01*
X135628358Y-116384183D01*
X136018645Y-115955924D01*
X136144000Y-115653271D01*
X136269355Y-115955924D01*
X136659642Y-116384183D01*
X137184108Y-116630486D01*
X137414000Y-116509819D01*
X137414000Y-115316000D01*
X137668000Y-115316000D01*
X137668000Y-116509819D01*
X137897892Y-116630486D01*
X138422358Y-116384183D01*
X138812645Y-115955924D01*
X138938000Y-115653271D01*
X139063355Y-115955924D01*
X139453642Y-116384183D01*
X139978108Y-116630486D01*
X140208000Y-116509819D01*
X140208000Y-115316000D01*
X140462000Y-115316000D01*
X140462000Y-116509819D01*
X140691892Y-116630486D01*
X141216358Y-116384183D01*
X141606645Y-115955924D01*
X141732000Y-115653271D01*
X141857355Y-115955924D01*
X142247642Y-116384183D01*
X142772108Y-116630486D01*
X143002000Y-116509819D01*
X143002000Y-115316000D01*
X143256000Y-115316000D01*
X143256000Y-116509819D01*
X143485892Y-116630486D01*
X144010358Y-116384183D01*
X144400645Y-115955924D01*
X144526000Y-115653271D01*
X144651355Y-115955924D01*
X145041642Y-116384183D01*
X145566108Y-116630486D01*
X145796000Y-116509819D01*
X145796000Y-115316000D01*
X146050000Y-115316000D01*
X146050000Y-116509819D01*
X146279892Y-116630486D01*
X146804358Y-116384183D01*
X147194645Y-115955924D01*
X147364476Y-115545890D01*
X150450524Y-115545890D01*
X150620355Y-115955924D01*
X151010642Y-116384183D01*
X151535108Y-116630486D01*
X151765000Y-116509819D01*
X151765000Y-115316000D01*
X152019000Y-115316000D01*
X152019000Y-116509819D01*
X152248892Y-116630486D01*
X152773358Y-116384183D01*
X153163645Y-115955924D01*
X153289000Y-115653271D01*
X153414355Y-115955924D01*
X153804642Y-116384183D01*
X154329108Y-116630486D01*
X154559000Y-116509819D01*
X154559000Y-115316000D01*
X154813000Y-115316000D01*
X154813000Y-116509819D01*
X155042892Y-116630486D01*
X155567358Y-116384183D01*
X155957645Y-115955924D01*
X156083000Y-115653271D01*
X156208355Y-115955924D01*
X156598642Y-116384183D01*
X157123108Y-116630486D01*
X157353000Y-116509819D01*
X157353000Y-115316000D01*
X157607000Y-115316000D01*
X157607000Y-116509819D01*
X157836892Y-116630486D01*
X158361358Y-116384183D01*
X158751645Y-115955924D01*
X158877000Y-115653271D01*
X159002355Y-115955924D01*
X159392642Y-116384183D01*
X159917108Y-116630486D01*
X160147000Y-116509819D01*
X160147000Y-115316000D01*
X160401000Y-115316000D01*
X160401000Y-116509819D01*
X160630892Y-116630486D01*
X161155358Y-116384183D01*
X161545645Y-115955924D01*
X161671000Y-115653271D01*
X161796355Y-115955924D01*
X162186642Y-116384183D01*
X162711108Y-116630486D01*
X162941000Y-116509819D01*
X162941000Y-115316000D01*
X163195000Y-115316000D01*
X163195000Y-116509819D01*
X163424892Y-116630486D01*
X163949358Y-116384183D01*
X164339645Y-115955924D01*
X164509476Y-115545890D01*
X164407554Y-115352758D01*
X167832696Y-115352758D01*
X168099468Y-115998395D01*
X168593007Y-116492796D01*
X169238178Y-116760694D01*
X169936758Y-116761304D01*
X170582395Y-116494532D01*
X171076796Y-116000993D01*
X171344694Y-115355822D01*
X171345304Y-114657242D01*
X171078532Y-114011605D01*
X170584993Y-113517204D01*
X169939822Y-113249306D01*
X169241242Y-113248696D01*
X168595605Y-113515468D01*
X168101204Y-114009007D01*
X167833306Y-114654178D01*
X167832696Y-115352758D01*
X164407554Y-115352758D01*
X164388155Y-115316000D01*
X163195000Y-115316000D01*
X162941000Y-115316000D01*
X161747845Y-115316000D01*
X161671000Y-115461613D01*
X161594155Y-115316000D01*
X160401000Y-115316000D01*
X160147000Y-115316000D01*
X158953845Y-115316000D01*
X158877000Y-115461613D01*
X158800155Y-115316000D01*
X157607000Y-115316000D01*
X157353000Y-115316000D01*
X156159845Y-115316000D01*
X156083000Y-115461613D01*
X156006155Y-115316000D01*
X154813000Y-115316000D01*
X154559000Y-115316000D01*
X153365845Y-115316000D01*
X153289000Y-115461613D01*
X153212155Y-115316000D01*
X152019000Y-115316000D01*
X151765000Y-115316000D01*
X150571845Y-115316000D01*
X150450524Y-115545890D01*
X147364476Y-115545890D01*
X147243155Y-115316000D01*
X146050000Y-115316000D01*
X145796000Y-115316000D01*
X144602845Y-115316000D01*
X144526000Y-115461613D01*
X144449155Y-115316000D01*
X143256000Y-115316000D01*
X143002000Y-115316000D01*
X141808845Y-115316000D01*
X141732000Y-115461613D01*
X141655155Y-115316000D01*
X140462000Y-115316000D01*
X140208000Y-115316000D01*
X139014845Y-115316000D01*
X138938000Y-115461613D01*
X138861155Y-115316000D01*
X137668000Y-115316000D01*
X137414000Y-115316000D01*
X136220845Y-115316000D01*
X136144000Y-115461613D01*
X136067155Y-115316000D01*
X134874000Y-115316000D01*
X134620000Y-115316000D01*
X133426845Y-115316000D01*
X133305524Y-115545890D01*
X131469687Y-115545890D01*
X133709719Y-113305858D01*
X133852435Y-113519448D01*
X134251800Y-113786296D01*
X134290947Y-113794083D01*
X133865642Y-113993817D01*
X133475355Y-114422076D01*
X133305524Y-114832110D01*
X133426845Y-115062000D01*
X134620000Y-115062000D01*
X134620000Y-115042000D01*
X134874000Y-115042000D01*
X134874000Y-115062000D01*
X136067155Y-115062000D01*
X136144000Y-114916387D01*
X136220845Y-115062000D01*
X137414000Y-115062000D01*
X137414000Y-115042000D01*
X137668000Y-115042000D01*
X137668000Y-115062000D01*
X138861155Y-115062000D01*
X138938000Y-114916387D01*
X139014845Y-115062000D01*
X140208000Y-115062000D01*
X140208000Y-115042000D01*
X140462000Y-115042000D01*
X140462000Y-115062000D01*
X141655155Y-115062000D01*
X141732000Y-114916387D01*
X141808845Y-115062000D01*
X143002000Y-115062000D01*
X143002000Y-115042000D01*
X143256000Y-115042000D01*
X143256000Y-115062000D01*
X144449155Y-115062000D01*
X144526000Y-114916387D01*
X144602845Y-115062000D01*
X145796000Y-115062000D01*
X145796000Y-115042000D01*
X146050000Y-115042000D01*
X146050000Y-115062000D01*
X147243155Y-115062000D01*
X147364476Y-114832110D01*
X147194645Y-114422076D01*
X147138930Y-114360941D01*
X147216637Y-114345484D01*
X147380795Y-114235797D01*
X147681231Y-113935361D01*
X148500975Y-113935361D01*
X148610950Y-114201521D01*
X148814408Y-114405335D01*
X149080376Y-114515774D01*
X149368361Y-114516025D01*
X149634521Y-114406050D01*
X149838335Y-114202592D01*
X149948774Y-113936624D01*
X149949025Y-113648639D01*
X149839050Y-113382479D01*
X149635592Y-113178665D01*
X149369624Y-113068226D01*
X149081639Y-113067975D01*
X148815479Y-113177950D01*
X148611665Y-113381408D01*
X148501226Y-113647376D01*
X148500975Y-113935361D01*
X147681231Y-113935361D01*
X150654178Y-110962414D01*
X150680103Y-111100190D01*
X150763546Y-111229865D01*
X150890866Y-111316859D01*
X151042000Y-111347464D01*
X152742000Y-111347464D01*
X152883190Y-111320897D01*
X153012865Y-111237454D01*
X153099859Y-111110134D01*
X153130464Y-110959000D01*
X153130464Y-109259000D01*
X153447536Y-109259000D01*
X153447536Y-110959000D01*
X153474103Y-111100190D01*
X153557546Y-111229865D01*
X153684866Y-111316859D01*
X153836000Y-111347464D01*
X155536000Y-111347464D01*
X155677190Y-111320897D01*
X155806865Y-111237454D01*
X155893859Y-111110134D01*
X155924464Y-110959000D01*
X155924464Y-109259000D01*
X155897897Y-109117810D01*
X155814454Y-108988135D01*
X155687134Y-108901141D01*
X155536000Y-108870536D01*
X153836000Y-108870536D01*
X153694810Y-108897103D01*
X153565135Y-108980546D01*
X153478141Y-109107866D01*
X153447536Y-109259000D01*
X153130464Y-109259000D01*
X153103897Y-109117810D01*
X153020454Y-108988135D01*
X152893134Y-108901141D01*
X152742000Y-108870536D01*
X151042000Y-108870536D01*
X150900810Y-108897103D01*
X150771135Y-108980546D01*
X150684141Y-109107866D01*
X150653536Y-109259000D01*
X150653536Y-109630542D01*
X150598362Y-109641517D01*
X150434204Y-109751204D01*
X147089153Y-113096255D01*
X147178117Y-112649000D01*
X147084413Y-112177917D01*
X147043662Y-112116930D01*
X149216699Y-109943893D01*
X149368361Y-109944025D01*
X149634521Y-109834050D01*
X149838335Y-109630592D01*
X149948774Y-109364624D01*
X149949025Y-109076639D01*
X149839050Y-108810479D01*
X149635592Y-108606665D01*
X149369624Y-108496226D01*
X149081639Y-108495975D01*
X148815479Y-108605950D01*
X148611665Y-108809408D01*
X148501226Y-109075376D01*
X148501093Y-109228315D01*
X147161464Y-110567944D01*
X147161464Y-109259000D01*
X147134897Y-109117810D01*
X147051454Y-108988135D01*
X146963166Y-108927810D01*
X147209361Y-108928025D01*
X147475521Y-108818050D01*
X147679335Y-108614592D01*
X147789774Y-108348624D01*
X147790025Y-108060639D01*
X147680050Y-107794479D01*
X147571237Y-107685475D01*
X147810376Y-107784774D01*
X148098361Y-107785025D01*
X148364521Y-107675050D01*
X148568335Y-107471592D01*
X148678774Y-107205624D01*
X148679025Y-106917639D01*
X148649052Y-106845099D01*
X153754507Y-106845099D01*
X156241536Y-109332128D01*
X156241536Y-110959000D01*
X156268103Y-111100190D01*
X156351546Y-111229865D01*
X156478866Y-111316859D01*
X156630000Y-111347464D01*
X158065944Y-111347464D01*
X157913898Y-111499510D01*
X157504117Y-111418000D01*
X157455883Y-111418000D01*
X156984800Y-111511704D01*
X156585435Y-111778552D01*
X156318587Y-112177917D01*
X156224883Y-112649000D01*
X156318587Y-113120083D01*
X156585435Y-113519448D01*
X156984800Y-113786296D01*
X157023947Y-113794083D01*
X156598642Y-113993817D01*
X156208355Y-114422076D01*
X156083000Y-114724729D01*
X155957645Y-114422076D01*
X155567358Y-113993817D01*
X155142053Y-113794083D01*
X155181200Y-113786296D01*
X155580565Y-113519448D01*
X155847413Y-113120083D01*
X155941117Y-112649000D01*
X155847413Y-112177917D01*
X155580565Y-111778552D01*
X155181200Y-111511704D01*
X154710117Y-111418000D01*
X154661883Y-111418000D01*
X154190800Y-111511704D01*
X153791435Y-111778552D01*
X153524587Y-112177917D01*
X153430883Y-112649000D01*
X153524587Y-113120083D01*
X153791435Y-113519448D01*
X154190800Y-113786296D01*
X154229947Y-113794083D01*
X153804642Y-113993817D01*
X153414355Y-114422076D01*
X153289000Y-114724729D01*
X153163645Y-114422076D01*
X152773358Y-113993817D01*
X152348053Y-113794083D01*
X152387200Y-113786296D01*
X152786565Y-113519448D01*
X153053413Y-113120083D01*
X153147117Y-112649000D01*
X153053413Y-112177917D01*
X152786565Y-111778552D01*
X152387200Y-111511704D01*
X151916117Y-111418000D01*
X151867883Y-111418000D01*
X151396800Y-111511704D01*
X150997435Y-111778552D01*
X150730587Y-112177917D01*
X150636883Y-112649000D01*
X150730587Y-113120083D01*
X150997435Y-113519448D01*
X151396800Y-113786296D01*
X151435947Y-113794083D01*
X151010642Y-113993817D01*
X150620355Y-114422076D01*
X150450524Y-114832110D01*
X150571845Y-115062000D01*
X151765000Y-115062000D01*
X151765000Y-115042000D01*
X152019000Y-115042000D01*
X152019000Y-115062000D01*
X153212155Y-115062000D01*
X153289000Y-114916387D01*
X153365845Y-115062000D01*
X154559000Y-115062000D01*
X154559000Y-115042000D01*
X154813000Y-115042000D01*
X154813000Y-115062000D01*
X156006155Y-115062000D01*
X156083000Y-114916387D01*
X156159845Y-115062000D01*
X157353000Y-115062000D01*
X157353000Y-115042000D01*
X157607000Y-115042000D01*
X157607000Y-115062000D01*
X158800155Y-115062000D01*
X158877000Y-114916387D01*
X158953845Y-115062000D01*
X160147000Y-115062000D01*
X160147000Y-115042000D01*
X160401000Y-115042000D01*
X160401000Y-115062000D01*
X161594155Y-115062000D01*
X161671000Y-114916387D01*
X161747845Y-115062000D01*
X162941000Y-115062000D01*
X162941000Y-115042000D01*
X163195000Y-115042000D01*
X163195000Y-115062000D01*
X164388155Y-115062000D01*
X164509476Y-114832110D01*
X164339645Y-114422076D01*
X163949358Y-113993817D01*
X163524053Y-113794083D01*
X163563200Y-113786296D01*
X163962565Y-113519448D01*
X164229413Y-113120083D01*
X164323117Y-112649000D01*
X164233604Y-112198988D01*
X169648796Y-106783796D01*
X169758483Y-106619638D01*
X169797000Y-106426000D01*
X169797000Y-102945000D01*
X169758483Y-102751362D01*
X169648796Y-102587204D01*
X168970796Y-101909204D01*
X168806638Y-101799517D01*
X168613000Y-101761000D01*
X168606187Y-101761000D01*
X168480789Y-101573328D01*
X168162529Y-101360674D01*
X167787117Y-101286000D01*
X167238883Y-101286000D01*
X166863471Y-101360674D01*
X166545211Y-101573328D01*
X166467601Y-101689480D01*
X166467601Y-100844520D01*
X166545211Y-100960672D01*
X166863471Y-101173326D01*
X167238883Y-101248000D01*
X167787117Y-101248000D01*
X168162529Y-101173326D01*
X168480789Y-100960672D01*
X168693443Y-100642412D01*
X168768117Y-100267000D01*
X168725948Y-100055000D01*
X169031471Y-99749476D01*
X169031474Y-99749474D01*
X169142484Y-99638464D01*
X169257590Y-99466195D01*
X169298011Y-99262990D01*
X169295883Y-99252292D01*
X169379331Y-99127404D01*
X169393254Y-99057405D01*
X169418000Y-98933000D01*
X169418000Y-96774000D01*
X169379331Y-96579597D01*
X169269210Y-96414790D01*
X166975603Y-94121183D01*
X166975603Y-92352758D01*
X167832696Y-92352758D01*
X168099468Y-92998395D01*
X168593007Y-93492796D01*
X169238178Y-93760694D01*
X169936758Y-93761304D01*
X170582395Y-93494532D01*
X171076796Y-93000993D01*
X171344694Y-92355822D01*
X171345304Y-91657242D01*
X171078532Y-91011605D01*
X170584993Y-90517204D01*
X169939822Y-90249306D01*
X169241242Y-90248696D01*
X168595605Y-90515468D01*
X168101204Y-91009007D01*
X167833306Y-91654178D01*
X167832696Y-92352758D01*
X166975603Y-92352758D01*
X166975603Y-92299603D01*
X166936934Y-92105200D01*
X166936532Y-92104599D01*
X166826814Y-91940393D01*
X166517601Y-91631181D01*
X166517601Y-90126556D01*
X166517602Y-90126551D01*
X166477181Y-89923346D01*
X166423410Y-89842872D01*
X166362075Y-89751077D01*
X166362072Y-89751075D01*
X165702923Y-89091925D01*
X165530654Y-88976819D01*
X165327449Y-88936399D01*
X151410556Y-88936399D01*
X151410551Y-88936398D01*
X151219180Y-88974465D01*
X151207346Y-88976819D01*
X151035077Y-89091925D01*
X151035075Y-89091928D01*
X150375925Y-89751077D01*
X150327595Y-89823409D01*
X150184930Y-89680495D01*
X149727652Y-89490617D01*
X149232520Y-89490185D01*
X148774912Y-89679264D01*
X148424495Y-90029070D01*
X148234617Y-90486348D01*
X148234185Y-90981480D01*
X148423264Y-91439088D01*
X148460510Y-91476399D01*
X147957974Y-91476399D01*
X147993505Y-91440930D01*
X148183383Y-90983652D01*
X148183815Y-90488520D01*
X147994736Y-90030912D01*
X147644930Y-89680495D01*
X147187652Y-89490617D01*
X146692520Y-89490185D01*
X146234912Y-89679264D01*
X145884495Y-90029070D01*
X145694617Y-90486348D01*
X145694185Y-90981480D01*
X145883264Y-91439088D01*
X146027475Y-91583551D01*
X145955077Y-91631925D01*
X145291127Y-92295875D01*
X145246641Y-92362453D01*
X145104930Y-92220495D01*
X144647652Y-92030617D01*
X144152520Y-92030185D01*
X143694912Y-92219264D01*
X143344495Y-92569070D01*
X143154617Y-93026348D01*
X143154185Y-93521480D01*
X143343264Y-93979088D01*
X143693070Y-94329505D01*
X144150348Y-94519383D01*
X144594695Y-94519771D01*
X144283887Y-94830579D01*
X144162624Y-94780226D01*
X143874639Y-94779975D01*
X143608479Y-94889950D01*
X143404665Y-95093408D01*
X143294226Y-95359376D01*
X143293975Y-95647361D01*
X143403950Y-95913521D01*
X143607408Y-96117335D01*
X143873376Y-96227774D01*
X144161361Y-96228025D01*
X144427521Y-96118050D01*
X144547870Y-95997912D01*
X144564619Y-95994580D01*
X144736888Y-95879474D01*
X146042075Y-94574287D01*
X146110966Y-94471184D01*
X146146741Y-94581516D01*
X146707030Y-94785248D01*
X147302635Y-94759058D01*
X147731259Y-94581516D01*
X147813200Y-94328805D01*
X146939000Y-93454605D01*
X146924858Y-93468748D01*
X146745253Y-93289143D01*
X146759395Y-93275000D01*
X146745253Y-93260858D01*
X146924858Y-93081253D01*
X146939000Y-93095395D01*
X146953143Y-93081253D01*
X147132748Y-93260858D01*
X147118605Y-93275000D01*
X147992805Y-94149200D01*
X148245516Y-94067259D01*
X148345772Y-93791542D01*
X148423264Y-93979088D01*
X148773070Y-94329505D01*
X148913942Y-94388000D01*
X148590000Y-94388000D01*
X148405929Y-94424614D01*
X148298502Y-94496395D01*
X148249882Y-94528882D01*
X147617626Y-95161138D01*
X147430639Y-95160975D01*
X147164479Y-95270950D01*
X146960665Y-95474408D01*
X146850226Y-95740376D01*
X146849975Y-96028361D01*
X146959950Y-96294521D01*
X147163408Y-96498335D01*
X147429376Y-96608774D01*
X147717361Y-96609025D01*
X147983521Y-96499050D01*
X148187335Y-96295592D01*
X148297774Y-96029624D01*
X148297938Y-95841298D01*
X148789236Y-95350000D01*
X158027227Y-95350000D01*
X157933135Y-95410546D01*
X157846141Y-95537866D01*
X157815536Y-95689000D01*
X157815536Y-95740780D01*
X157800014Y-95778254D01*
X157800014Y-95778255D01*
X157783331Y-95862127D01*
X157624624Y-95796226D01*
X157336639Y-95795975D01*
X157070479Y-95905950D01*
X156866665Y-96109408D01*
X156756226Y-96375376D01*
X156755975Y-96663361D01*
X156865950Y-96929521D01*
X157069408Y-97133335D01*
X157335376Y-97243774D01*
X157623361Y-97244025D01*
X157889521Y-97134050D01*
X157998000Y-97025760D01*
X157998000Y-97400807D01*
X157933135Y-97442546D01*
X157846141Y-97569866D01*
X157815536Y-97721000D01*
X157815536Y-97772780D01*
X157800014Y-97810254D01*
X157800014Y-97810255D01*
X157742010Y-98101860D01*
X157742010Y-98240140D01*
X157800014Y-98531745D01*
X157800014Y-98531746D01*
X157815536Y-98569220D01*
X157815536Y-98621000D01*
X157823815Y-98700774D01*
X157884805Y-98842402D01*
X157996091Y-98949143D01*
X157998000Y-98949872D01*
X157998000Y-99432807D01*
X157933135Y-99474546D01*
X157846141Y-99601866D01*
X157815536Y-99753000D01*
X157815536Y-99804780D01*
X157811744Y-99813936D01*
X157800014Y-99842255D01*
X157742010Y-100133860D01*
X157742010Y-100272140D01*
X157787943Y-100503058D01*
X157763592Y-100478665D01*
X157497624Y-100368226D01*
X157209639Y-100367975D01*
X157173045Y-100383095D01*
X157187774Y-100347624D01*
X157188025Y-100059639D01*
X157078050Y-99793479D01*
X156874592Y-99589665D01*
X156608624Y-99479226D01*
X156320639Y-99478975D01*
X156054479Y-99588950D01*
X155947246Y-99695996D01*
X155935050Y-99666479D01*
X155731592Y-99462665D01*
X155465624Y-99352226D01*
X155312685Y-99352093D01*
X153646796Y-97686204D01*
X153482638Y-97576517D01*
X153289000Y-97538000D01*
X151774740Y-97538000D01*
X151667592Y-97430665D01*
X151401624Y-97320226D01*
X151113639Y-97319975D01*
X150847479Y-97429950D01*
X150643665Y-97633408D01*
X150533226Y-97899376D01*
X150532975Y-98187361D01*
X150642950Y-98453521D01*
X150846408Y-98657335D01*
X151112376Y-98767774D01*
X151400361Y-98768025D01*
X151666521Y-98658050D01*
X151774760Y-98550000D01*
X153079408Y-98550000D01*
X154056217Y-99526809D01*
X153941624Y-99479226D01*
X153653639Y-99478975D01*
X153387479Y-99588950D01*
X153279240Y-99697000D01*
X144653000Y-99697000D01*
X144459362Y-99735517D01*
X144295204Y-99845204D01*
X142557303Y-101583105D01*
X142447616Y-101747263D01*
X142409099Y-101940901D01*
X142409099Y-104434099D01*
X142447616Y-104627737D01*
X142557303Y-104791895D01*
X144345408Y-106580000D01*
X140661236Y-106580000D01*
X140107513Y-106026277D01*
X140186335Y-105947592D01*
X140296774Y-105681624D01*
X140297025Y-105393639D01*
X140187050Y-105127479D01*
X139983592Y-104923665D01*
X139717624Y-104813226D01*
X139429639Y-104812975D01*
X139163479Y-104922950D01*
X138959665Y-105126408D01*
X138849226Y-105392376D01*
X138848975Y-105680361D01*
X138958950Y-105946521D01*
X139092000Y-106079804D01*
X139092000Y-106172000D01*
X139125238Y-106339099D01*
X139128614Y-106356071D01*
X139232882Y-106512118D01*
X140121882Y-107401118D01*
X140277929Y-107505386D01*
X140462000Y-107542000D01*
X146772527Y-107542000D01*
X146656479Y-107589950D01*
X146623371Y-107623000D01*
X139178658Y-107623000D01*
X137995000Y-106439342D01*
X137995000Y-101286790D01*
X141008034Y-101286790D01*
X141118009Y-101552950D01*
X141321467Y-101756764D01*
X141587435Y-101867203D01*
X141875420Y-101867454D01*
X142141580Y-101757479D01*
X142345394Y-101554021D01*
X142455833Y-101288053D01*
X142456084Y-101000068D01*
X142346109Y-100733908D01*
X142241771Y-100629387D01*
X142264144Y-97519589D01*
X142358536Y-97425361D01*
X147484975Y-97425361D01*
X147594950Y-97691521D01*
X147798408Y-97895335D01*
X148064376Y-98005774D01*
X148352361Y-98006025D01*
X148618521Y-97896050D01*
X148822335Y-97692592D01*
X148932774Y-97426624D01*
X148932905Y-97276515D01*
X149346635Y-96862785D01*
X149622361Y-96863025D01*
X149888521Y-96753050D01*
X150092335Y-96549592D01*
X150202774Y-96283624D01*
X150203025Y-95995639D01*
X150093050Y-95729479D01*
X149889592Y-95525665D01*
X149623624Y-95415226D01*
X149335639Y-95414975D01*
X149069479Y-95524950D01*
X148865665Y-95728408D01*
X148755226Y-95994376D01*
X148755206Y-96017374D01*
X148214475Y-96558105D01*
X148065639Y-96557975D01*
X147799479Y-96667950D01*
X147595665Y-96871408D01*
X147485226Y-97137376D01*
X147484975Y-97425361D01*
X142358536Y-97425361D01*
X142375218Y-97408709D01*
X142485657Y-97142741D01*
X142485908Y-96854756D01*
X142375933Y-96588596D01*
X142172475Y-96384782D01*
X141906507Y-96274343D01*
X141618522Y-96274092D01*
X141352362Y-96384067D01*
X141148548Y-96587525D01*
X141038109Y-96853493D01*
X141037858Y-97141478D01*
X141147833Y-97407638D01*
X141252171Y-97512159D01*
X141229798Y-100621957D01*
X141118724Y-100732837D01*
X141008285Y-100998805D01*
X141008034Y-101286790D01*
X137995000Y-101286790D01*
X137995000Y-100883464D01*
X138214000Y-100883464D01*
X138355190Y-100856897D01*
X138484865Y-100773454D01*
X138571859Y-100646134D01*
X138602464Y-100495000D01*
X138602464Y-98895000D01*
X138575897Y-98753810D01*
X138492454Y-98624135D01*
X138365134Y-98537141D01*
X138214000Y-98506536D01*
X136614000Y-98506536D01*
X136472810Y-98533103D01*
X136343135Y-98616546D01*
X136256141Y-98743866D01*
X136225536Y-98895000D01*
X136225536Y-100495000D01*
X136252103Y-100636190D01*
X136335546Y-100765865D01*
X136462866Y-100852859D01*
X136614000Y-100883464D01*
X136833000Y-100883464D01*
X136833000Y-106680000D01*
X136877226Y-106902339D01*
X137003171Y-107090829D01*
X138527171Y-108614829D01*
X138715661Y-108740774D01*
X138938000Y-108785000D01*
X146623129Y-108785000D01*
X146655408Y-108817335D01*
X146793555Y-108874699D01*
X146773000Y-108870536D01*
X145073000Y-108870536D01*
X144931810Y-108897103D01*
X144802135Y-108980546D01*
X144715141Y-109107866D01*
X144684536Y-109259000D01*
X144684536Y-110959000D01*
X144711103Y-111100190D01*
X144794546Y-111229865D01*
X144921866Y-111316859D01*
X145073000Y-111347464D01*
X146381944Y-111347464D01*
X146250968Y-111478440D01*
X145947117Y-111418000D01*
X145898883Y-111418000D01*
X145427800Y-111511704D01*
X145028435Y-111778552D01*
X144761587Y-112177917D01*
X144667883Y-112649000D01*
X144761587Y-113120083D01*
X144929914Y-113372001D01*
X144122086Y-113372001D01*
X144290413Y-113120083D01*
X144384117Y-112649000D01*
X144290413Y-112177917D01*
X144023565Y-111778552D01*
X143624200Y-111511704D01*
X143153117Y-111418000D01*
X143104883Y-111418000D01*
X142633800Y-111511704D01*
X142234435Y-111778552D01*
X141967587Y-112177917D01*
X141873883Y-112649000D01*
X141967587Y-113120083D01*
X142135914Y-113372001D01*
X141328086Y-113372001D01*
X141496413Y-113120083D01*
X141590117Y-112649000D01*
X141496413Y-112177917D01*
X141229565Y-111778552D01*
X140830200Y-111511704D01*
X140359117Y-111418000D01*
X140310883Y-111418000D01*
X139839800Y-111511704D01*
X139440435Y-111778552D01*
X139346159Y-111919645D01*
X138662719Y-111236205D01*
X138748859Y-111110134D01*
X138779464Y-110959000D01*
X138779464Y-109259000D01*
X139096536Y-109259000D01*
X139096536Y-110959000D01*
X139123103Y-111100190D01*
X139206546Y-111229865D01*
X139333866Y-111316859D01*
X139485000Y-111347464D01*
X141185000Y-111347464D01*
X141326190Y-111320897D01*
X141455865Y-111237454D01*
X141542859Y-111110134D01*
X141573464Y-110959000D01*
X141573464Y-109259000D01*
X141890536Y-109259000D01*
X141890536Y-110959000D01*
X141917103Y-111100190D01*
X142000546Y-111229865D01*
X142127866Y-111316859D01*
X142279000Y-111347464D01*
X143979000Y-111347464D01*
X144120190Y-111320897D01*
X144249865Y-111237454D01*
X144336859Y-111110134D01*
X144367464Y-110959000D01*
X144367464Y-109259000D01*
X144340897Y-109117810D01*
X144257454Y-108988135D01*
X144130134Y-108901141D01*
X143979000Y-108870536D01*
X142279000Y-108870536D01*
X142137810Y-108897103D01*
X142008135Y-108980546D01*
X141921141Y-109107866D01*
X141890536Y-109259000D01*
X141573464Y-109259000D01*
X141546897Y-109117810D01*
X141463454Y-108988135D01*
X141336134Y-108901141D01*
X141185000Y-108870536D01*
X139485000Y-108870536D01*
X139343810Y-108897103D01*
X139214135Y-108980546D01*
X139127141Y-109107866D01*
X139096536Y-109259000D01*
X138779464Y-109259000D01*
X138752897Y-109117810D01*
X138669454Y-108988135D01*
X138542134Y-108901141D01*
X138391000Y-108870536D01*
X136691000Y-108870536D01*
X136549810Y-108897103D01*
X136482001Y-108940737D01*
X136482001Y-108925001D01*
X136443484Y-108731363D01*
X136333797Y-108567205D01*
X131922953Y-104156361D01*
X133133975Y-104156361D01*
X133243950Y-104422521D01*
X133447408Y-104626335D01*
X133713376Y-104736774D01*
X134001361Y-104737025D01*
X134267521Y-104627050D01*
X134471335Y-104423592D01*
X134581774Y-104157624D01*
X134582025Y-103869639D01*
X134472050Y-103603479D01*
X134268592Y-103399665D01*
X134002624Y-103289226D01*
X133714639Y-103288975D01*
X133448479Y-103398950D01*
X133244665Y-103602408D01*
X133134226Y-103868376D01*
X133133975Y-104156361D01*
X131922953Y-104156361D01*
X128469337Y-100702745D01*
X132785861Y-100702745D01*
X132859995Y-100948864D01*
X133397223Y-101141965D01*
X133967454Y-101114778D01*
X134368005Y-100948864D01*
X134442139Y-100702745D01*
X133614000Y-99874605D01*
X132785861Y-100702745D01*
X128469337Y-100702745D01*
X127314368Y-99547776D01*
X131518880Y-99547776D01*
X131628855Y-99813936D01*
X131832313Y-100017750D01*
X132098281Y-100128189D01*
X132227296Y-100128301D01*
X132360136Y-100449005D01*
X132606255Y-100523139D01*
X133434395Y-99695000D01*
X133793605Y-99695000D01*
X134621745Y-100523139D01*
X134867864Y-100449005D01*
X135060965Y-99911777D01*
X135033778Y-99341546D01*
X134867864Y-98940995D01*
X134621745Y-98866861D01*
X133793605Y-99695000D01*
X133434395Y-99695000D01*
X133420253Y-99680858D01*
X133599858Y-99501252D01*
X133614000Y-99515395D01*
X134442139Y-98687255D01*
X134368005Y-98441136D01*
X133830777Y-98248035D01*
X133260546Y-98275222D01*
X132859995Y-98441136D01*
X132785861Y-98687253D01*
X132748905Y-98650297D01*
X132748905Y-97963687D01*
X133922231Y-96790361D01*
X134657975Y-96790361D01*
X134767950Y-97056521D01*
X134971408Y-97260335D01*
X135237376Y-97370774D01*
X135525361Y-97371025D01*
X135791521Y-97261050D01*
X135995335Y-97057592D01*
X136105774Y-96791624D01*
X136106025Y-96503639D01*
X135996050Y-96237479D01*
X135792592Y-96033665D01*
X135526624Y-95923226D01*
X135238639Y-95922975D01*
X134972479Y-96032950D01*
X134768665Y-96236408D01*
X134658226Y-96502376D01*
X134657975Y-96790361D01*
X133922231Y-96790361D01*
X134981592Y-95731000D01*
X139319000Y-95731000D01*
X139503071Y-95694386D01*
X139659118Y-95590118D01*
X140929118Y-94320119D01*
X141015158Y-94191352D01*
X141153070Y-94329505D01*
X141610348Y-94519383D01*
X142105480Y-94519815D01*
X142563088Y-94330736D01*
X142913505Y-93980930D01*
X143103383Y-93523652D01*
X143103815Y-93028520D01*
X142914736Y-92570912D01*
X142564930Y-92220495D01*
X142107652Y-92030617D01*
X141612520Y-92030185D01*
X141154912Y-92219264D01*
X141070000Y-92304028D01*
X141070000Y-92204236D01*
X141387421Y-91886816D01*
X141610348Y-91979383D01*
X142105480Y-91979815D01*
X142563088Y-91790736D01*
X142913505Y-91440930D01*
X143103383Y-90983652D01*
X143103384Y-90981480D01*
X143154185Y-90981480D01*
X143343264Y-91439088D01*
X143693070Y-91789505D01*
X144150348Y-91979383D01*
X144645480Y-91979815D01*
X145103088Y-91790736D01*
X145453505Y-91440930D01*
X145643383Y-90983652D01*
X145643815Y-90488520D01*
X145454736Y-90030912D01*
X145104930Y-89680495D01*
X144647652Y-89490617D01*
X144152520Y-89490185D01*
X143694912Y-89679264D01*
X143344495Y-90029070D01*
X143154617Y-90486348D01*
X143154185Y-90981480D01*
X143103384Y-90981480D01*
X143103815Y-90488520D01*
X142914736Y-90030912D01*
X142564930Y-89680495D01*
X142107652Y-89490617D01*
X141612520Y-89490185D01*
X141154912Y-89679264D01*
X140804495Y-90029070D01*
X140732797Y-90201739D01*
X140625516Y-89942741D01*
X140372805Y-89860800D01*
X139498605Y-90735000D01*
X139512748Y-90749143D01*
X139333143Y-90928748D01*
X139319000Y-90914605D01*
X138444800Y-91788805D01*
X138526741Y-92041516D01*
X138802458Y-92141772D01*
X138614912Y-92219264D01*
X138264495Y-92569070D01*
X138074617Y-93026348D01*
X138074185Y-93521480D01*
X138263264Y-93979088D01*
X138613070Y-94329505D01*
X139070348Y-94519383D01*
X139369120Y-94519644D01*
X139119764Y-94769000D01*
X134872683Y-94769000D01*
X134747000Y-94744000D01*
X134553362Y-94782517D01*
X134389204Y-94892204D01*
X131885109Y-97396299D01*
X131775422Y-97560457D01*
X131736905Y-97754095D01*
X131736905Y-98886675D01*
X131629570Y-98993823D01*
X131519131Y-99259791D01*
X131518880Y-99547776D01*
X127314368Y-99547776D01*
X127293093Y-99526501D01*
X127293093Y-99441893D01*
X127364370Y-99471490D01*
X127652355Y-99471741D01*
X127918515Y-99361766D01*
X128122329Y-99158308D01*
X128232768Y-98892340D01*
X128232932Y-98704014D01*
X128643739Y-98293207D01*
X128665864Y-98260095D01*
X128748007Y-98137160D01*
X128784621Y-97953089D01*
X128784621Y-95349796D01*
X128916956Y-95217692D01*
X129027395Y-94951724D01*
X129027646Y-94663739D01*
X128968020Y-94519433D01*
X129405480Y-94519815D01*
X129863088Y-94330736D01*
X130213505Y-93980930D01*
X130403383Y-93523652D01*
X130403815Y-93028520D01*
X130214736Y-92570912D01*
X129864930Y-92220495D01*
X129407652Y-92030617D01*
X128912520Y-92030185D01*
X128454912Y-92219264D01*
X128104495Y-92569070D01*
X128032797Y-92741739D01*
X127940047Y-92517822D01*
X128020672Y-92501785D01*
X128176719Y-92397517D01*
X128687421Y-91886816D01*
X128910348Y-91979383D01*
X129405480Y-91979815D01*
X129863088Y-91790736D01*
X130045048Y-91609094D01*
X130098603Y-91689245D01*
X130744755Y-92335397D01*
X130824919Y-92388961D01*
X130644495Y-92569070D01*
X130454617Y-93026348D01*
X130454185Y-93521480D01*
X130643264Y-93979088D01*
X130993070Y-94329505D01*
X131450348Y-94519383D01*
X131945480Y-94519815D01*
X132403088Y-94330736D01*
X132753505Y-93980930D01*
X132943383Y-93523652D01*
X132943815Y-93028520D01*
X132754736Y-92570912D01*
X132667577Y-92483601D01*
X133270113Y-92483601D01*
X133184495Y-92569070D01*
X132994617Y-93026348D01*
X132994185Y-93521480D01*
X133183264Y-93979088D01*
X133533070Y-94329505D01*
X133990348Y-94519383D01*
X134485480Y-94519815D01*
X134943088Y-94330736D01*
X135293505Y-93980930D01*
X135483383Y-93523652D01*
X135483815Y-93028520D01*
X135294736Y-92570912D01*
X135207577Y-92483601D01*
X135272009Y-92483601D01*
X135616811Y-92828403D01*
X135534617Y-93026348D01*
X135534185Y-93521480D01*
X135723264Y-93979088D01*
X136073070Y-94329505D01*
X136530348Y-94519383D01*
X137025480Y-94519815D01*
X137483088Y-94330736D01*
X137833505Y-93980930D01*
X138023383Y-93523652D01*
X138023815Y-93028520D01*
X137834736Y-92570912D01*
X137484930Y-92220495D01*
X137027652Y-92030617D01*
X136532520Y-92030185D01*
X136332446Y-92112854D01*
X135839397Y-91619805D01*
X135675239Y-91510118D01*
X135481601Y-91471601D01*
X135262780Y-91471601D01*
X135293505Y-91440930D01*
X135483383Y-90983652D01*
X135483384Y-90981480D01*
X135534185Y-90981480D01*
X135723264Y-91439088D01*
X136073070Y-91789505D01*
X136530348Y-91979383D01*
X137025480Y-91979815D01*
X137483088Y-91790736D01*
X137833505Y-91440930D01*
X137905203Y-91268261D01*
X138012484Y-91527259D01*
X138265195Y-91609200D01*
X139139395Y-90735000D01*
X138265195Y-89860800D01*
X138012484Y-89942741D01*
X137912228Y-90218458D01*
X137834736Y-90030912D01*
X137485629Y-89681195D01*
X138444800Y-89681195D01*
X139319000Y-90555395D01*
X140193200Y-89681195D01*
X140111259Y-89428484D01*
X139550970Y-89224752D01*
X138955365Y-89250942D01*
X138526741Y-89428484D01*
X138444800Y-89681195D01*
X137485629Y-89681195D01*
X137484930Y-89680495D01*
X137027652Y-89490617D01*
X136532520Y-89490185D01*
X136074912Y-89679264D01*
X135724495Y-90029070D01*
X135534617Y-90486348D01*
X135534185Y-90981480D01*
X135483384Y-90981480D01*
X135483815Y-90488520D01*
X135294736Y-90030912D01*
X134944930Y-89680495D01*
X134487652Y-89490617D01*
X133992520Y-89490185D01*
X133534912Y-89679264D01*
X133184495Y-90029070D01*
X133112797Y-90201739D01*
X133005516Y-89942741D01*
X132752805Y-89860800D01*
X131878605Y-90735000D01*
X131892748Y-90749143D01*
X131713143Y-90928748D01*
X131699000Y-90914605D01*
X131684858Y-90928748D01*
X131505253Y-90749143D01*
X131519395Y-90735000D01*
X131505253Y-90720858D01*
X131684858Y-90541253D01*
X131699000Y-90555395D01*
X132573200Y-89681195D01*
X132491259Y-89428484D01*
X131930970Y-89224752D01*
X131335365Y-89250942D01*
X130906741Y-89428484D01*
X130824801Y-89681193D01*
X130710133Y-89566525D01*
X130627650Y-89649008D01*
X130113245Y-89134603D01*
X129949087Y-89024916D01*
X129755449Y-88986399D01*
X123482551Y-88986399D01*
X123288913Y-89024916D01*
X123124755Y-89134603D01*
X122610350Y-89649008D01*
X122527867Y-89566525D01*
X122413199Y-89681193D01*
X122331259Y-89428484D01*
X121770970Y-89224752D01*
X121175365Y-89250942D01*
X120746741Y-89428484D01*
X120664800Y-89681195D01*
X121539000Y-90555395D01*
X121553143Y-90541253D01*
X121732748Y-90720858D01*
X121718605Y-90735000D01*
X121732748Y-90749143D01*
X121553143Y-90928748D01*
X121539000Y-90914605D01*
X121524858Y-90928748D01*
X121345253Y-90749143D01*
X121359395Y-90735000D01*
X120485195Y-89860800D01*
X120232484Y-89942741D01*
X120132228Y-90218458D01*
X120054736Y-90030912D01*
X119704930Y-89680495D01*
X119247652Y-89490617D01*
X118752520Y-89490185D01*
X118294912Y-89679264D01*
X117944495Y-90029070D01*
X117754617Y-90486348D01*
X117754185Y-90981480D01*
X117943264Y-91439088D01*
X117975720Y-91471601D01*
X117482780Y-91471601D01*
X117513505Y-91440930D01*
X117703383Y-90983652D01*
X117703815Y-90488520D01*
X117514736Y-90030912D01*
X117164930Y-89680495D01*
X116707652Y-89490617D01*
X116212520Y-89490185D01*
X115754912Y-89679264D01*
X115404495Y-90029070D01*
X115214617Y-90486348D01*
X115214185Y-90981480D01*
X115403264Y-91439088D01*
X115753070Y-91789505D01*
X116032967Y-91905728D01*
X115991517Y-91967762D01*
X115980542Y-92022936D01*
X115595400Y-92022936D01*
X115454210Y-92049503D01*
X115324535Y-92132946D01*
X115237541Y-92260266D01*
X115206936Y-92411400D01*
X115206936Y-94138600D01*
X115233503Y-94279790D01*
X115316946Y-94409465D01*
X115444266Y-94496459D01*
X115595400Y-94527064D01*
X117322600Y-94527064D01*
X117463790Y-94500497D01*
X117593465Y-94417054D01*
X117680459Y-94289734D01*
X117711064Y-94138600D01*
X117711064Y-92483601D01*
X118030113Y-92483601D01*
X117944495Y-92569070D01*
X117754617Y-93026348D01*
X117754185Y-93521480D01*
X117943264Y-93979088D01*
X118293070Y-94329505D01*
X118750348Y-94519383D01*
X119245480Y-94519815D01*
X119703088Y-94330736D01*
X120053505Y-93980930D01*
X120243383Y-93523652D01*
X120243815Y-93028520D01*
X120054736Y-92570912D01*
X119967577Y-92483601D01*
X120570113Y-92483601D01*
X120484495Y-92569070D01*
X120294617Y-93026348D01*
X120294185Y-93521480D01*
X120483264Y-93979088D01*
X120833070Y-94329505D01*
X121290348Y-94519383D01*
X121785480Y-94519815D01*
X122243088Y-94330736D01*
X122593505Y-93980930D01*
X122783383Y-93523652D01*
X122783752Y-93101181D01*
X122834596Y-93050336D01*
X122834185Y-93521480D01*
X122916854Y-93721554D01*
X122857605Y-93780803D01*
X122747918Y-93944961D01*
X122709401Y-94138599D01*
X122709401Y-94946815D01*
X122747918Y-95140453D01*
X122857605Y-95304611D01*
X123665998Y-96113004D01*
X123665998Y-96182748D01*
X123507250Y-96024000D01*
X122066691Y-96024000D01*
X121833302Y-96120673D01*
X121654673Y-96299301D01*
X121629695Y-96359602D01*
X121544134Y-96301141D01*
X121393000Y-96270536D01*
X119937773Y-96270536D01*
X119232118Y-95564882D01*
X119076071Y-95460614D01*
X119052759Y-95455977D01*
X118892000Y-95424000D01*
X117345464Y-95424000D01*
X117345464Y-95155000D01*
X117318897Y-95013810D01*
X117235454Y-94884135D01*
X117108134Y-94797141D01*
X116957000Y-94766536D01*
X115707000Y-94766536D01*
X115565810Y-94793103D01*
X115436135Y-94876546D01*
X115349141Y-95003866D01*
X115318536Y-95155000D01*
X115318536Y-95424000D01*
X114915000Y-95424000D01*
X114868858Y-95433178D01*
X114825624Y-95415226D01*
X114537639Y-95414975D01*
X114271479Y-95524950D01*
X114067665Y-95728408D01*
X113957226Y-95994376D01*
X113956975Y-96282361D01*
X114066950Y-96548521D01*
X114270408Y-96752335D01*
X114536376Y-96862774D01*
X114824361Y-96863025D01*
X115090521Y-96753050D01*
X115294335Y-96549592D01*
X115318536Y-96491309D01*
X115318536Y-96655000D01*
X115345103Y-96796190D01*
X115428546Y-96925865D01*
X115555866Y-97012859D01*
X115591130Y-97020000D01*
X115580690Y-97020000D01*
X115347301Y-97116673D01*
X115168673Y-97295302D01*
X115072000Y-97528691D01*
X115072000Y-98119250D01*
X115230750Y-98278000D01*
X116205000Y-98278000D01*
X116205000Y-98258000D01*
X116459000Y-98258000D01*
X116459000Y-98278000D01*
X117433250Y-98278000D01*
X117592000Y-98119250D01*
X117592000Y-97528691D01*
X117495327Y-97295302D01*
X117316699Y-97116673D01*
X117083310Y-97020000D01*
X117081699Y-97020000D01*
X117098190Y-97016897D01*
X117227865Y-96933454D01*
X117314859Y-96806134D01*
X117345464Y-96655000D01*
X117345464Y-96386000D01*
X117918408Y-96386000D01*
X117835141Y-96507866D01*
X117804536Y-96659000D01*
X117804536Y-98159000D01*
X117831103Y-98300190D01*
X117914546Y-98429865D01*
X118041866Y-98516859D01*
X118193000Y-98547464D01*
X118564191Y-98547464D01*
X118543000Y-98654000D01*
X118543000Y-99177536D01*
X118024000Y-99177536D01*
X117882810Y-99204103D01*
X117753135Y-99287546D01*
X117666141Y-99414866D01*
X117635536Y-99566000D01*
X117635536Y-100955961D01*
X117592000Y-100964621D01*
X117592000Y-100635750D01*
X117433250Y-100477000D01*
X116459000Y-100477000D01*
X116459000Y-100497000D01*
X116205000Y-100497000D01*
X116205000Y-100477000D01*
X115230750Y-100477000D01*
X115072000Y-100635750D01*
X115072000Y-101094000D01*
X115071740Y-101094000D01*
X114964592Y-100986665D01*
X114698624Y-100876226D01*
X114410639Y-100875975D01*
X114144479Y-100985950D01*
X113940665Y-101189408D01*
X113830226Y-101455376D01*
X113829975Y-101743361D01*
X113939950Y-102009521D01*
X114143408Y-102213335D01*
X114397879Y-102319000D01*
X113137384Y-102319000D01*
X113142075Y-102314317D01*
X113310808Y-101907962D01*
X113311192Y-101467968D01*
X113143168Y-101061320D01*
X112832317Y-100749925D01*
X112425962Y-100581192D01*
X111985968Y-100580808D01*
X111579320Y-100748832D01*
X111267925Y-101059683D01*
X111099192Y-101466038D01*
X111098808Y-101906032D01*
X111266832Y-102312680D01*
X111577683Y-102624075D01*
X111708612Y-102678441D01*
X110606527Y-103780525D01*
X110491421Y-103952794D01*
X110451001Y-104155999D01*
X110451001Y-104162914D01*
X110199083Y-103994587D01*
X109728000Y-103900883D01*
X109256917Y-103994587D01*
X108857552Y-104261435D01*
X108590704Y-104660800D01*
X108497000Y-105131883D01*
X108419900Y-105131883D01*
X108419900Y-103357696D01*
X108435252Y-103380672D01*
X108753512Y-103593326D01*
X109128924Y-103668000D01*
X109881076Y-103668000D01*
X110256488Y-103593326D01*
X110574748Y-103380672D01*
X110787402Y-103062412D01*
X110862076Y-102687000D01*
X110787402Y-102311588D01*
X110574748Y-101993328D01*
X110256488Y-101780674D01*
X109881076Y-101706000D01*
X109128924Y-101706000D01*
X108753512Y-101780674D01*
X108435252Y-101993328D01*
X108419900Y-102016304D01*
X108419900Y-98690750D01*
X115072000Y-98690750D01*
X115072000Y-99281309D01*
X115111844Y-99377500D01*
X115072000Y-99473691D01*
X115072000Y-100064250D01*
X115230750Y-100223000D01*
X116205000Y-100223000D01*
X116205000Y-98532000D01*
X116459000Y-98532000D01*
X116459000Y-100223000D01*
X117433250Y-100223000D01*
X117592000Y-100064250D01*
X117592000Y-99473691D01*
X117552156Y-99377500D01*
X117592000Y-99281309D01*
X117592000Y-98690750D01*
X117433250Y-98532000D01*
X116459000Y-98532000D01*
X116205000Y-98532000D01*
X115230750Y-98532000D01*
X115072000Y-98690750D01*
X108419900Y-98690750D01*
X108419900Y-96906032D01*
X111098808Y-96906032D01*
X111266832Y-97312680D01*
X111577683Y-97624075D01*
X111984038Y-97792808D01*
X112424032Y-97793192D01*
X112830680Y-97625168D01*
X113142075Y-97314317D01*
X113310808Y-96907962D01*
X113311192Y-96467968D01*
X113143168Y-96061320D01*
X112832317Y-95749925D01*
X112425962Y-95581192D01*
X111985968Y-95580808D01*
X111579320Y-95748832D01*
X111267925Y-96059683D01*
X111099192Y-96466038D01*
X111098808Y-96906032D01*
X108419900Y-96906032D01*
X108419900Y-96357696D01*
X108435252Y-96380672D01*
X108753512Y-96593326D01*
X109128924Y-96668000D01*
X109881076Y-96668000D01*
X110256488Y-96593326D01*
X110574748Y-96380672D01*
X110787402Y-96062412D01*
X110862076Y-95687000D01*
X110787402Y-95311588D01*
X110574748Y-94993328D01*
X110413164Y-94885361D01*
X113067975Y-94885361D01*
X113177950Y-95151521D01*
X113381408Y-95355335D01*
X113647376Y-95465774D01*
X113935361Y-95466025D01*
X114201521Y-95356050D01*
X114405335Y-95152592D01*
X114515774Y-94886624D01*
X114516025Y-94598639D01*
X114406050Y-94332479D01*
X114202592Y-94128665D01*
X113936624Y-94018226D01*
X113648639Y-94017975D01*
X113382479Y-94127950D01*
X113178665Y-94331408D01*
X113068226Y-94597376D01*
X113067975Y-94885361D01*
X110413164Y-94885361D01*
X110256488Y-94780674D01*
X109881076Y-94706000D01*
X109128924Y-94706000D01*
X108753512Y-94780674D01*
X108435252Y-94993328D01*
X108419900Y-95016304D01*
X108419900Y-92352758D01*
X109832696Y-92352758D01*
X110099468Y-92998395D01*
X110593007Y-93492796D01*
X111238178Y-93760694D01*
X111936758Y-93761304D01*
X112582395Y-93494532D01*
X113076796Y-93000993D01*
X113344694Y-92355822D01*
X113345304Y-91657242D01*
X113078532Y-91011605D01*
X112584993Y-90517204D01*
X111939822Y-90249306D01*
X111241242Y-90248696D01*
X110595605Y-90515468D01*
X110101204Y-91009007D01*
X109833306Y-91654178D01*
X109832696Y-92352758D01*
X108419900Y-92352758D01*
X108419900Y-91338556D01*
X108560416Y-90400991D01*
X109027039Y-89625129D01*
X109755057Y-89086889D01*
X110659033Y-88861900D01*
X170146228Y-88861900D01*
X171164025Y-89064352D01*
X171164025Y-89064352D01*
G37*
X171164025Y-89064352D02*
X171998242Y-89621758D01*
X172555648Y-90455975D01*
X172758100Y-91473771D01*
X172758100Y-115409229D01*
X172545981Y-116475625D01*
X171961044Y-117351044D01*
X171085625Y-117935981D01*
X170019229Y-118148100D01*
X110912311Y-118148100D01*
X109910547Y-117903163D01*
X109100461Y-117309410D01*
X108579259Y-116450850D01*
X108419900Y-115416732D01*
X108419900Y-115352758D01*
X109832696Y-115352758D01*
X110099468Y-115998395D01*
X110593007Y-116492796D01*
X111238178Y-116760694D01*
X111936758Y-116761304D01*
X112582395Y-116494532D01*
X113076796Y-116000993D01*
X113344694Y-115355822D01*
X113345304Y-114657242D01*
X113078532Y-114011605D01*
X112584993Y-113517204D01*
X111939822Y-113249306D01*
X111241242Y-113248696D01*
X110595605Y-113515468D01*
X110101204Y-114009007D01*
X109833306Y-114654178D01*
X109832696Y-115352758D01*
X108419900Y-115352758D01*
X108419900Y-111776361D01*
X112305975Y-111776361D01*
X112415950Y-112042521D01*
X112619408Y-112246335D01*
X112885376Y-112356774D01*
X113173361Y-112357025D01*
X113439521Y-112247050D01*
X113643335Y-112043592D01*
X113753774Y-111777624D01*
X113754025Y-111489639D01*
X113644050Y-111223479D01*
X113440592Y-111019665D01*
X113174624Y-110909226D01*
X112886639Y-110908975D01*
X112620479Y-111018950D01*
X112416665Y-111222408D01*
X112306226Y-111488376D01*
X112305975Y-111776361D01*
X108419900Y-111776361D01*
X108419900Y-105131883D01*
X108497000Y-105131883D01*
X108497000Y-105180117D01*
X108590704Y-105651200D01*
X108857552Y-106050565D01*
X109256917Y-106317413D01*
X109728000Y-106411117D01*
X110199083Y-106317413D01*
X110451001Y-106149086D01*
X110451001Y-106349051D01*
X110148522Y-106651530D01*
X109728000Y-106567883D01*
X109256917Y-106661587D01*
X108857552Y-106928435D01*
X108590704Y-107327800D01*
X108497000Y-107798883D01*
X108497000Y-107847117D01*
X108590704Y-108318200D01*
X108857552Y-108717565D01*
X109256917Y-108984413D01*
X109728000Y-109078117D01*
X110199083Y-108984413D01*
X110598448Y-108717565D01*
X110865296Y-108318200D01*
X110959000Y-107847117D01*
X110959000Y-107798883D01*
X110883356Y-107418592D01*
X111357475Y-106944473D01*
X111472581Y-106772204D01*
X111513001Y-106568999D01*
X111513001Y-106127706D01*
X111796917Y-106317413D01*
X112268000Y-106411117D01*
X112739083Y-106317413D01*
X113138448Y-106050565D01*
X113405296Y-105651200D01*
X113499000Y-105180117D01*
X113499000Y-105131883D01*
X113405296Y-104660800D01*
X113138448Y-104261435D01*
X112739083Y-103994587D01*
X112268000Y-103900883D01*
X111918556Y-103970392D01*
X112507947Y-103381000D01*
X115318536Y-103381000D01*
X115318536Y-103600000D01*
X115345103Y-103741190D01*
X115428546Y-103870865D01*
X115496851Y-103917536D01*
X113958000Y-103917536D01*
X113816810Y-103944103D01*
X113687135Y-104027546D01*
X113600141Y-104154866D01*
X113569536Y-104306000D01*
X113569536Y-106006000D01*
X113596103Y-106147190D01*
X113679546Y-106276865D01*
X113806866Y-106363859D01*
X113958000Y-106394464D01*
X115658000Y-106394464D01*
X115799190Y-106367897D01*
X115928865Y-106284454D01*
X116015859Y-106157134D01*
X116046464Y-106006000D01*
X116046464Y-105201750D01*
X117389000Y-105201750D01*
X117389000Y-105792310D01*
X117485673Y-106025699D01*
X117664302Y-106204327D01*
X117897691Y-106301000D01*
X118738250Y-106301000D01*
X118897000Y-106142250D01*
X118897000Y-105043000D01*
X117547750Y-105043000D01*
X117389000Y-105201750D01*
X116046464Y-105201750D01*
X116046464Y-104306000D01*
X116019897Y-104164810D01*
X115936454Y-104035135D01*
X115868149Y-103988464D01*
X116957000Y-103988464D01*
X117098190Y-103961897D01*
X117227865Y-103878454D01*
X117314859Y-103751134D01*
X117345464Y-103600000D01*
X117345464Y-103331000D01*
X117635536Y-103331000D01*
X117635536Y-103366000D01*
X117662103Y-103507190D01*
X117723778Y-103603037D01*
X117664302Y-103627673D01*
X117485673Y-103806301D01*
X117389000Y-104039690D01*
X117389000Y-104630250D01*
X117547750Y-104789000D01*
X118897000Y-104789000D01*
X118897000Y-104769000D01*
X119151000Y-104769000D01*
X119151000Y-104789000D01*
X119171000Y-104789000D01*
X119171000Y-105043000D01*
X119151000Y-105043000D01*
X119151000Y-106142250D01*
X119309750Y-106301000D01*
X119312306Y-106301000D01*
X119302420Y-106315795D01*
X119279597Y-106430536D01*
X118193000Y-106430536D01*
X118051810Y-106457103D01*
X117922135Y-106540546D01*
X117835141Y-106667866D01*
X117804536Y-106819000D01*
X117804536Y-108319000D01*
X117831103Y-108460190D01*
X117914546Y-108589865D01*
X118041866Y-108676859D01*
X118193000Y-108707464D01*
X121393000Y-108707464D01*
X121534190Y-108680897D01*
X121630037Y-108619222D01*
X121654673Y-108678699D01*
X121833302Y-108857327D01*
X122016012Y-108933008D01*
X121942135Y-108980546D01*
X121855141Y-109107866D01*
X121824536Y-109259000D01*
X121824536Y-110959000D01*
X121851103Y-111100190D01*
X121934546Y-111229865D01*
X122061866Y-111316859D01*
X122213000Y-111347464D01*
X123913000Y-111347464D01*
X124054190Y-111320897D01*
X124183865Y-111237454D01*
X124270859Y-111110134D01*
X124301464Y-110959000D01*
X124301464Y-109259000D01*
X124274897Y-109117810D01*
X124191454Y-108988135D01*
X124141496Y-108954000D01*
X124777389Y-108954000D01*
X124736135Y-108980546D01*
X124649141Y-109107866D01*
X124618536Y-109259000D01*
X124618536Y-110959000D01*
X124645103Y-111100190D01*
X124728546Y-111229865D01*
X124855866Y-111316859D01*
X125007000Y-111347464D01*
X126707000Y-111347464D01*
X126848190Y-111320897D01*
X126977865Y-111237454D01*
X127064859Y-111110134D01*
X127095464Y-110959000D01*
X127095464Y-109259000D01*
X127285536Y-109259000D01*
X127285536Y-110959000D01*
X127312103Y-111100190D01*
X127395546Y-111229865D01*
X127522866Y-111316859D01*
X127674000Y-111347464D01*
X129374000Y-111347464D01*
X129515190Y-111320897D01*
X129644865Y-111237454D01*
X129731859Y-111110134D01*
X129762464Y-110959000D01*
X129762464Y-109259000D01*
X129735897Y-109117810D01*
X129652454Y-108988135D01*
X129525134Y-108901141D01*
X129374000Y-108870536D01*
X127674000Y-108870536D01*
X127532810Y-108897103D01*
X127403135Y-108980546D01*
X127316141Y-109107866D01*
X127285536Y-109259000D01*
X127095464Y-109259000D01*
X127068897Y-109117810D01*
X126985454Y-108988135D01*
X126858134Y-108901141D01*
X126707000Y-108870536D01*
X125720809Y-108870536D01*
X125752698Y-108857327D01*
X125931327Y-108678699D01*
X126028000Y-108445310D01*
X126028000Y-107854750D01*
X125869250Y-107696000D01*
X123920000Y-107696000D01*
X123920000Y-107716000D01*
X123666000Y-107716000D01*
X123666000Y-107696000D01*
X123646000Y-107696000D01*
X123646000Y-107442000D01*
X123666000Y-107442000D01*
X123666000Y-106342750D01*
X123920000Y-106342750D01*
X123920000Y-107442000D01*
X125869250Y-107442000D01*
X126028000Y-107283250D01*
X126028000Y-106692690D01*
X125931327Y-106459301D01*
X125752698Y-106280673D01*
X125519309Y-106184000D01*
X124078750Y-106184000D01*
X123920000Y-106342750D01*
X123666000Y-106342750D01*
X123507250Y-106184000D01*
X122066691Y-106184000D01*
X121833302Y-106280673D01*
X121654673Y-106459301D01*
X121629695Y-106519602D01*
X121544134Y-106461141D01*
X121393000Y-106430536D01*
X120632412Y-106430536D01*
X123915947Y-103147000D01*
X123935536Y-103147000D01*
X123935536Y-104516000D01*
X123962103Y-104657190D01*
X124045546Y-104786865D01*
X124172866Y-104873859D01*
X124324000Y-104904464D01*
X126324000Y-104904464D01*
X126465190Y-104877897D01*
X126594865Y-104794454D01*
X126681859Y-104667134D01*
X126712464Y-104516000D01*
X126712464Y-100716000D01*
X126685897Y-100574810D01*
X126602454Y-100445135D01*
X126475134Y-100358141D01*
X126324000Y-100327536D01*
X124324000Y-100327536D01*
X124182810Y-100354103D01*
X124053135Y-100437546D01*
X123966141Y-100564866D01*
X123935536Y-100716000D01*
X123935536Y-102085000D01*
X123696005Y-102085000D01*
X123696000Y-102084999D01*
X123695995Y-102085000D01*
X120412464Y-102085000D01*
X120412464Y-101934041D01*
X120520839Y-101912484D01*
X120684997Y-101802797D01*
X122150796Y-100336998D01*
X122260483Y-100172840D01*
X122299000Y-99979202D01*
X122299000Y-99450740D01*
X122406335Y-99343592D01*
X122516774Y-99077624D01*
X122517021Y-98794000D01*
X123507250Y-98794000D01*
X123666000Y-98635250D01*
X123666000Y-97536000D01*
X123920000Y-97536000D01*
X123920000Y-98635250D01*
X124078750Y-98794000D01*
X125519309Y-98794000D01*
X125752698Y-98697327D01*
X125931327Y-98518699D01*
X126028000Y-98285310D01*
X126028000Y-97694750D01*
X125869250Y-97536000D01*
X123920000Y-97536000D01*
X123666000Y-97536000D01*
X123646000Y-97536000D01*
X123646000Y-97282000D01*
X123666000Y-97282000D01*
X123666000Y-97262000D01*
X123920000Y-97262000D01*
X123920000Y-97282000D01*
X125869250Y-97282000D01*
X125949829Y-97201421D01*
X126281093Y-97532685D01*
X126281093Y-99736093D01*
X126319610Y-99929731D01*
X126429297Y-100093889D01*
X135205944Y-108870536D01*
X133897000Y-108870536D01*
X133755810Y-108897103D01*
X133626135Y-108980546D01*
X133539141Y-109107866D01*
X133508536Y-109259000D01*
X133508536Y-110959000D01*
X133535103Y-111100190D01*
X133618546Y-111229865D01*
X133745866Y-111316859D01*
X133897000Y-111347464D01*
X135597000Y-111347464D01*
X135642341Y-111338933D01*
X136081203Y-111777795D01*
X136245361Y-111887482D01*
X136438999Y-111925999D01*
X136547914Y-111925999D01*
X136379587Y-112177917D01*
X136285883Y-112649000D01*
X136379587Y-113120083D01*
X136646435Y-113519448D01*
X137045800Y-113786296D01*
X137084947Y-113794083D01*
X136659642Y-113993817D01*
X136269355Y-114422076D01*
X136144000Y-114724729D01*
X136018645Y-114422076D01*
X135628358Y-113993817D01*
X135203053Y-113794083D01*
X135242200Y-113786296D01*
X135641565Y-113519448D01*
X135908413Y-113120083D01*
X136002117Y-112649000D01*
X135908413Y-112177917D01*
X135641565Y-111778552D01*
X135242200Y-111511704D01*
X134771117Y-111418000D01*
X134722883Y-111418000D01*
X134251800Y-111511704D01*
X133852435Y-111778552D01*
X133659031Y-112068000D01*
X133544919Y-112068000D01*
X133322580Y-112112226D01*
X133134090Y-112238171D01*
X129917424Y-115454837D01*
X129844155Y-115316000D01*
X128651000Y-115316000D01*
X128651000Y-115336000D01*
X128397000Y-115336000D01*
X128397000Y-115316000D01*
X127203845Y-115316000D01*
X127190500Y-115341287D01*
X127177155Y-115316000D01*
X125984000Y-115316000D01*
X125984000Y-115336000D01*
X125730000Y-115336000D01*
X125730000Y-115316000D01*
X124536845Y-115316000D01*
X124460000Y-115461613D01*
X124383155Y-115316000D01*
X123190000Y-115316000D01*
X123190000Y-115336000D01*
X122936000Y-115336000D01*
X122936000Y-115316000D01*
X121742845Y-115316000D01*
X121666000Y-115461613D01*
X121589155Y-115316000D01*
X120396000Y-115316000D01*
X120396000Y-115336000D01*
X120142000Y-115336000D01*
X120142000Y-115316000D01*
X118948845Y-115316000D01*
X118872000Y-115461613D01*
X118795155Y-115316000D01*
X117602000Y-115316000D01*
X117602000Y-115336000D01*
X117348000Y-115336000D01*
X117348000Y-115316000D01*
X117328000Y-115316000D01*
X117328000Y-115062000D01*
X117348000Y-115062000D01*
X117348000Y-115042000D01*
X117602000Y-115042000D01*
X117602000Y-115062000D01*
X118795155Y-115062000D01*
X118872000Y-114916387D01*
X118948845Y-115062000D01*
X120142000Y-115062000D01*
X120142000Y-115042000D01*
X120396000Y-115042000D01*
X120396000Y-115062000D01*
X121589155Y-115062000D01*
X121666000Y-114916387D01*
X121742845Y-115062000D01*
X122936000Y-115062000D01*
X122936000Y-115042000D01*
X123190000Y-115042000D01*
X123190000Y-115062000D01*
X124383155Y-115062000D01*
X124460000Y-114916387D01*
X124536845Y-115062000D01*
X125730000Y-115062000D01*
X125730000Y-115042000D01*
X125984000Y-115042000D01*
X125984000Y-115062000D01*
X127177155Y-115062000D01*
X127190500Y-115036713D01*
X127203845Y-115062000D01*
X128397000Y-115062000D01*
X128397000Y-115042000D01*
X128651000Y-115042000D01*
X128651000Y-115062000D01*
X129844155Y-115062000D01*
X129965476Y-114832110D01*
X129795645Y-114422076D01*
X129405358Y-113993817D01*
X128980053Y-113794083D01*
X129019200Y-113786296D01*
X129418565Y-113519448D01*
X129685413Y-113120083D01*
X129779117Y-112649000D01*
X129706586Y-112284361D01*
X130593975Y-112284361D01*
X130683000Y-112499818D01*
X130683000Y-112649000D01*
X130721669Y-112843403D01*
X130831790Y-113008210D01*
X130996597Y-113118331D01*
X131191000Y-113157000D01*
X131385403Y-113118331D01*
X131550210Y-113008210D01*
X131660331Y-112843403D01*
X131673462Y-112777387D01*
X131727521Y-112755050D01*
X131931335Y-112551592D01*
X132041774Y-112285624D01*
X132042025Y-111997639D01*
X131932050Y-111731479D01*
X131728592Y-111527665D01*
X131462624Y-111417226D01*
X131174639Y-111416975D01*
X130908479Y-111526950D01*
X130704665Y-111730408D01*
X130594226Y-111996376D01*
X130593975Y-112284361D01*
X129706586Y-112284361D01*
X129685413Y-112177917D01*
X129418565Y-111778552D01*
X129019200Y-111511704D01*
X128548117Y-111418000D01*
X128499883Y-111418000D01*
X128028800Y-111511704D01*
X127629435Y-111778552D01*
X127362587Y-112177917D01*
X127268883Y-112649000D01*
X127362587Y-113120083D01*
X127629435Y-113519448D01*
X128028800Y-113786296D01*
X128067947Y-113794083D01*
X127642642Y-113993817D01*
X127252355Y-114422076D01*
X127190500Y-114571417D01*
X127128645Y-114422076D01*
X126738358Y-113993817D01*
X126313053Y-113794083D01*
X126352200Y-113786296D01*
X126751565Y-113519448D01*
X127018413Y-113120083D01*
X127112117Y-112649000D01*
X127018413Y-112177917D01*
X126751565Y-111778552D01*
X126352200Y-111511704D01*
X125881117Y-111418000D01*
X125832883Y-111418000D01*
X125361800Y-111511704D01*
X124962435Y-111778552D01*
X124695587Y-112177917D01*
X124601883Y-112649000D01*
X124695587Y-113120083D01*
X124962435Y-113519448D01*
X125361800Y-113786296D01*
X125400947Y-113794083D01*
X124975642Y-113993817D01*
X124585355Y-114422076D01*
X124460000Y-114724729D01*
X124334645Y-114422076D01*
X123944358Y-113993817D01*
X123519053Y-113794083D01*
X123558200Y-113786296D01*
X123957565Y-113519448D01*
X124224413Y-113120083D01*
X124318117Y-112649000D01*
X124224413Y-112177917D01*
X123957565Y-111778552D01*
X123558200Y-111511704D01*
X123087117Y-111418000D01*
X123038883Y-111418000D01*
X122567800Y-111511704D01*
X122168435Y-111778552D01*
X121901587Y-112177917D01*
X121807883Y-112649000D01*
X121901587Y-113120083D01*
X122168435Y-113519448D01*
X122567800Y-113786296D01*
X122606947Y-113794083D01*
X122181642Y-113993817D01*
X121791355Y-114422076D01*
X121666000Y-114724729D01*
X121540645Y-114422076D01*
X121150358Y-113993817D01*
X120725053Y-113794083D01*
X120764200Y-113786296D01*
X121163565Y-113519448D01*
X121430413Y-113120083D01*
X121524117Y-112649000D01*
X121430413Y-112177917D01*
X121163565Y-111778552D01*
X120764200Y-111511704D01*
X120293117Y-111418000D01*
X120244883Y-111418000D01*
X119773800Y-111511704D01*
X119374435Y-111778552D01*
X119107587Y-112177917D01*
X119013883Y-112649000D01*
X119107587Y-113120083D01*
X119374435Y-113519448D01*
X119773800Y-113786296D01*
X119812947Y-113794083D01*
X119387642Y-113993817D01*
X118997355Y-114422076D01*
X118872000Y-114724729D01*
X118746645Y-114422076D01*
X118356358Y-113993817D01*
X117931053Y-113794083D01*
X117970200Y-113786296D01*
X118369565Y-113519448D01*
X118636413Y-113120083D01*
X118730117Y-112649000D01*
X118636413Y-112177917D01*
X118369565Y-111778552D01*
X117970200Y-111511704D01*
X117499117Y-111418000D01*
X117450883Y-111418000D01*
X116979800Y-111511704D01*
X116580435Y-111778552D01*
X116313587Y-112177917D01*
X116219883Y-112649000D01*
X116313587Y-113120083D01*
X116580435Y-113519448D01*
X116979800Y-113786296D01*
X117018947Y-113794083D01*
X116593642Y-113993817D01*
X116203355Y-114422076D01*
X116151000Y-114548480D01*
X116151000Y-110744000D01*
X116106774Y-110521661D01*
X115980829Y-110333171D01*
X114906658Y-109259000D01*
X116236536Y-109259000D01*
X116236536Y-110959000D01*
X116263103Y-111100190D01*
X116346546Y-111229865D01*
X116473866Y-111316859D01*
X116625000Y-111347464D01*
X118325000Y-111347464D01*
X118466190Y-111320897D01*
X118595865Y-111237454D01*
X118682859Y-111110134D01*
X118713464Y-110959000D01*
X118713464Y-109259000D01*
X119030536Y-109259000D01*
X119030536Y-110959000D01*
X119057103Y-111100190D01*
X119140546Y-111229865D01*
X119267866Y-111316859D01*
X119419000Y-111347464D01*
X121119000Y-111347464D01*
X121260190Y-111320897D01*
X121389865Y-111237454D01*
X121476859Y-111110134D01*
X121507464Y-110959000D01*
X121507464Y-109259000D01*
X121480897Y-109117810D01*
X121397454Y-108988135D01*
X121270134Y-108901141D01*
X121119000Y-108870536D01*
X119419000Y-108870536D01*
X119277810Y-108897103D01*
X119148135Y-108980546D01*
X119061141Y-109107866D01*
X119030536Y-109259000D01*
X118713464Y-109259000D01*
X118686897Y-109117810D01*
X118603454Y-108988135D01*
X118476134Y-108901141D01*
X118325000Y-108870536D01*
X116625000Y-108870536D01*
X116483810Y-108897103D01*
X116354135Y-108980546D01*
X116267141Y-109107866D01*
X116236536Y-109259000D01*
X114906658Y-109259000D01*
X114837829Y-109190171D01*
X114649339Y-109064226D01*
X114635453Y-109061464D01*
X115658000Y-109061464D01*
X115799190Y-109034897D01*
X115928865Y-108951454D01*
X116015859Y-108824134D01*
X116046464Y-108673000D01*
X116046464Y-106973000D01*
X116019897Y-106831810D01*
X115936454Y-106702135D01*
X115809134Y-106615141D01*
X115658000Y-106584536D01*
X113958000Y-106584536D01*
X113816810Y-106611103D01*
X113687135Y-106694546D01*
X113600141Y-106821866D01*
X113569536Y-106973000D01*
X113569536Y-108673000D01*
X113596103Y-108814190D01*
X113679546Y-108943865D01*
X113790973Y-109020000D01*
X112560175Y-109020000D01*
X112739083Y-108984413D01*
X113138448Y-108717565D01*
X113405296Y-108318200D01*
X113499000Y-107847117D01*
X113499000Y-107798883D01*
X113405296Y-107327800D01*
X113138448Y-106928435D01*
X112739083Y-106661587D01*
X112268000Y-106567883D01*
X111796917Y-106661587D01*
X111397552Y-106928435D01*
X111130704Y-107327800D01*
X111037000Y-107798883D01*
X111037000Y-107847117D01*
X111130704Y-108318200D01*
X111397552Y-108717565D01*
X111796917Y-108984413D01*
X111975825Y-109020000D01*
X111307612Y-109020000D01*
X111269624Y-109004226D01*
X110981639Y-109003975D01*
X110715479Y-109113950D01*
X110511665Y-109317408D01*
X110401226Y-109583376D01*
X110400975Y-109871361D01*
X110510950Y-110137521D01*
X110714408Y-110341335D01*
X110980376Y-110451774D01*
X111268361Y-110452025D01*
X111534521Y-110342050D01*
X111694851Y-110182000D01*
X114186342Y-110182000D01*
X114989000Y-110984658D01*
X114989000Y-115213922D01*
X115033226Y-115436261D01*
X115159171Y-115624751D01*
X116438250Y-116903830D01*
X116626740Y-117029775D01*
X116849079Y-117074001D01*
X129700918Y-117074001D01*
X129923257Y-117029775D01*
X130111747Y-116903830D01*
X131469687Y-115545890D01*
X133305524Y-115545890D01*
X133475355Y-115955924D01*
X133865642Y-116384183D01*
X134390108Y-116630486D01*
X134620000Y-116509819D01*
X134620000Y-115316000D01*
X134874000Y-115316000D01*
X134874000Y-116509819D01*
X135103892Y-116630486D01*
X135628358Y-116384183D01*
X136018645Y-115955924D01*
X136144000Y-115653271D01*
X136269355Y-115955924D01*
X136659642Y-116384183D01*
X137184108Y-116630486D01*
X137414000Y-116509819D01*
X137414000Y-115316000D01*
X137668000Y-115316000D01*
X137668000Y-116509819D01*
X137897892Y-116630486D01*
X138422358Y-116384183D01*
X138812645Y-115955924D01*
X138938000Y-115653271D01*
X139063355Y-115955924D01*
X139453642Y-116384183D01*
X139978108Y-116630486D01*
X140208000Y-116509819D01*
X140208000Y-115316000D01*
X140462000Y-115316000D01*
X140462000Y-116509819D01*
X140691892Y-116630486D01*
X141216358Y-116384183D01*
X141606645Y-115955924D01*
X141732000Y-115653271D01*
X141857355Y-115955924D01*
X142247642Y-116384183D01*
X142772108Y-116630486D01*
X143002000Y-116509819D01*
X143002000Y-115316000D01*
X143256000Y-115316000D01*
X143256000Y-116509819D01*
X143485892Y-116630486D01*
X144010358Y-116384183D01*
X144400645Y-115955924D01*
X144526000Y-115653271D01*
X144651355Y-115955924D01*
X145041642Y-116384183D01*
X145566108Y-116630486D01*
X145796000Y-116509819D01*
X145796000Y-115316000D01*
X146050000Y-115316000D01*
X146050000Y-116509819D01*
X146279892Y-116630486D01*
X146804358Y-116384183D01*
X147194645Y-115955924D01*
X147364476Y-115545890D01*
X150450524Y-115545890D01*
X150620355Y-115955924D01*
X151010642Y-116384183D01*
X151535108Y-116630486D01*
X151765000Y-116509819D01*
X151765000Y-115316000D01*
X152019000Y-115316000D01*
X152019000Y-116509819D01*
X152248892Y-116630486D01*
X152773358Y-116384183D01*
X153163645Y-115955924D01*
X153289000Y-115653271D01*
X153414355Y-115955924D01*
X153804642Y-116384183D01*
X154329108Y-116630486D01*
X154559000Y-116509819D01*
X154559000Y-115316000D01*
X154813000Y-115316000D01*
X154813000Y-116509819D01*
X155042892Y-116630486D01*
X155567358Y-116384183D01*
X155957645Y-115955924D01*
X156083000Y-115653271D01*
X156208355Y-115955924D01*
X156598642Y-116384183D01*
X157123108Y-116630486D01*
X157353000Y-116509819D01*
X157353000Y-115316000D01*
X157607000Y-115316000D01*
X157607000Y-116509819D01*
X157836892Y-116630486D01*
X158361358Y-116384183D01*
X158751645Y-115955924D01*
X158877000Y-115653271D01*
X159002355Y-115955924D01*
X159392642Y-116384183D01*
X159917108Y-116630486D01*
X160147000Y-116509819D01*
X160147000Y-115316000D01*
X160401000Y-115316000D01*
X160401000Y-116509819D01*
X160630892Y-116630486D01*
X161155358Y-116384183D01*
X161545645Y-115955924D01*
X161671000Y-115653271D01*
X161796355Y-115955924D01*
X162186642Y-116384183D01*
X162711108Y-116630486D01*
X162941000Y-116509819D01*
X162941000Y-115316000D01*
X163195000Y-115316000D01*
X163195000Y-116509819D01*
X163424892Y-116630486D01*
X163949358Y-116384183D01*
X164339645Y-115955924D01*
X164509476Y-115545890D01*
X164407554Y-115352758D01*
X167832696Y-115352758D01*
X168099468Y-115998395D01*
X168593007Y-116492796D01*
X169238178Y-116760694D01*
X169936758Y-116761304D01*
X170582395Y-116494532D01*
X171076796Y-116000993D01*
X171344694Y-115355822D01*
X171345304Y-114657242D01*
X171078532Y-114011605D01*
X170584993Y-113517204D01*
X169939822Y-113249306D01*
X169241242Y-113248696D01*
X168595605Y-113515468D01*
X168101204Y-114009007D01*
X167833306Y-114654178D01*
X167832696Y-115352758D01*
X164407554Y-115352758D01*
X164388155Y-115316000D01*
X163195000Y-115316000D01*
X162941000Y-115316000D01*
X161747845Y-115316000D01*
X161671000Y-115461613D01*
X161594155Y-115316000D01*
X160401000Y-115316000D01*
X160147000Y-115316000D01*
X158953845Y-115316000D01*
X158877000Y-115461613D01*
X158800155Y-115316000D01*
X157607000Y-115316000D01*
X157353000Y-115316000D01*
X156159845Y-115316000D01*
X156083000Y-115461613D01*
X156006155Y-115316000D01*
X154813000Y-115316000D01*
X154559000Y-115316000D01*
X153365845Y-115316000D01*
X153289000Y-115461613D01*
X153212155Y-115316000D01*
X152019000Y-115316000D01*
X151765000Y-115316000D01*
X150571845Y-115316000D01*
X150450524Y-115545890D01*
X147364476Y-115545890D01*
X147243155Y-115316000D01*
X146050000Y-115316000D01*
X145796000Y-115316000D01*
X144602845Y-115316000D01*
X144526000Y-115461613D01*
X144449155Y-115316000D01*
X143256000Y-115316000D01*
X143002000Y-115316000D01*
X141808845Y-115316000D01*
X141732000Y-115461613D01*
X141655155Y-115316000D01*
X140462000Y-115316000D01*
X140208000Y-115316000D01*
X139014845Y-115316000D01*
X138938000Y-115461613D01*
X138861155Y-115316000D01*
X137668000Y-115316000D01*
X137414000Y-115316000D01*
X136220845Y-115316000D01*
X136144000Y-115461613D01*
X136067155Y-115316000D01*
X134874000Y-115316000D01*
X134620000Y-115316000D01*
X133426845Y-115316000D01*
X133305524Y-115545890D01*
X131469687Y-115545890D01*
X133709719Y-113305858D01*
X133852435Y-113519448D01*
X134251800Y-113786296D01*
X134290947Y-113794083D01*
X133865642Y-113993817D01*
X133475355Y-114422076D01*
X133305524Y-114832110D01*
X133426845Y-115062000D01*
X134620000Y-115062000D01*
X134620000Y-115042000D01*
X134874000Y-115042000D01*
X134874000Y-115062000D01*
X136067155Y-115062000D01*
X136144000Y-114916387D01*
X136220845Y-115062000D01*
X137414000Y-115062000D01*
X137414000Y-115042000D01*
X137668000Y-115042000D01*
X137668000Y-115062000D01*
X138861155Y-115062000D01*
X138938000Y-114916387D01*
X139014845Y-115062000D01*
X140208000Y-115062000D01*
X140208000Y-115042000D01*
X140462000Y-115042000D01*
X140462000Y-115062000D01*
X141655155Y-115062000D01*
X141732000Y-114916387D01*
X141808845Y-115062000D01*
X143002000Y-115062000D01*
X143002000Y-115042000D01*
X143256000Y-115042000D01*
X143256000Y-115062000D01*
X144449155Y-115062000D01*
X144526000Y-114916387D01*
X144602845Y-115062000D01*
X145796000Y-115062000D01*
X145796000Y-115042000D01*
X146050000Y-115042000D01*
X146050000Y-115062000D01*
X147243155Y-115062000D01*
X147364476Y-114832110D01*
X147194645Y-114422076D01*
X147138930Y-114360941D01*
X147216637Y-114345484D01*
X147380795Y-114235797D01*
X147681231Y-113935361D01*
X148500975Y-113935361D01*
X148610950Y-114201521D01*
X148814408Y-114405335D01*
X149080376Y-114515774D01*
X149368361Y-114516025D01*
X149634521Y-114406050D01*
X149838335Y-114202592D01*
X149948774Y-113936624D01*
X149949025Y-113648639D01*
X149839050Y-113382479D01*
X149635592Y-113178665D01*
X149369624Y-113068226D01*
X149081639Y-113067975D01*
X148815479Y-113177950D01*
X148611665Y-113381408D01*
X148501226Y-113647376D01*
X148500975Y-113935361D01*
X147681231Y-113935361D01*
X150654178Y-110962414D01*
X150680103Y-111100190D01*
X150763546Y-111229865D01*
X150890866Y-111316859D01*
X151042000Y-111347464D01*
X152742000Y-111347464D01*
X152883190Y-111320897D01*
X153012865Y-111237454D01*
X153099859Y-111110134D01*
X153130464Y-110959000D01*
X153130464Y-109259000D01*
X153447536Y-109259000D01*
X153447536Y-110959000D01*
X153474103Y-111100190D01*
X153557546Y-111229865D01*
X153684866Y-111316859D01*
X153836000Y-111347464D01*
X155536000Y-111347464D01*
X155677190Y-111320897D01*
X155806865Y-111237454D01*
X155893859Y-111110134D01*
X155924464Y-110959000D01*
X155924464Y-109259000D01*
X155897897Y-109117810D01*
X155814454Y-108988135D01*
X155687134Y-108901141D01*
X155536000Y-108870536D01*
X153836000Y-108870536D01*
X153694810Y-108897103D01*
X153565135Y-108980546D01*
X153478141Y-109107866D01*
X153447536Y-109259000D01*
X153130464Y-109259000D01*
X153103897Y-109117810D01*
X153020454Y-108988135D01*
X152893134Y-108901141D01*
X152742000Y-108870536D01*
X151042000Y-108870536D01*
X150900810Y-108897103D01*
X150771135Y-108980546D01*
X150684141Y-109107866D01*
X150653536Y-109259000D01*
X150653536Y-109630542D01*
X150598362Y-109641517D01*
X150434204Y-109751204D01*
X147089153Y-113096255D01*
X147178117Y-112649000D01*
X147084413Y-112177917D01*
X147043662Y-112116930D01*
X149216699Y-109943893D01*
X149368361Y-109944025D01*
X149634521Y-109834050D01*
X149838335Y-109630592D01*
X149948774Y-109364624D01*
X149949025Y-109076639D01*
X149839050Y-108810479D01*
X149635592Y-108606665D01*
X149369624Y-108496226D01*
X149081639Y-108495975D01*
X148815479Y-108605950D01*
X148611665Y-108809408D01*
X148501226Y-109075376D01*
X148501093Y-109228315D01*
X147161464Y-110567944D01*
X147161464Y-109259000D01*
X147134897Y-109117810D01*
X147051454Y-108988135D01*
X146963166Y-108927810D01*
X147209361Y-108928025D01*
X147475521Y-108818050D01*
X147679335Y-108614592D01*
X147789774Y-108348624D01*
X147790025Y-108060639D01*
X147680050Y-107794479D01*
X147571237Y-107685475D01*
X147810376Y-107784774D01*
X148098361Y-107785025D01*
X148364521Y-107675050D01*
X148568335Y-107471592D01*
X148678774Y-107205624D01*
X148679025Y-106917639D01*
X148649052Y-106845099D01*
X153754507Y-106845099D01*
X156241536Y-109332128D01*
X156241536Y-110959000D01*
X156268103Y-111100190D01*
X156351546Y-111229865D01*
X156478866Y-111316859D01*
X156630000Y-111347464D01*
X158065944Y-111347464D01*
X157913898Y-111499510D01*
X157504117Y-111418000D01*
X157455883Y-111418000D01*
X156984800Y-111511704D01*
X156585435Y-111778552D01*
X156318587Y-112177917D01*
X156224883Y-112649000D01*
X156318587Y-113120083D01*
X156585435Y-113519448D01*
X156984800Y-113786296D01*
X157023947Y-113794083D01*
X156598642Y-113993817D01*
X156208355Y-114422076D01*
X156083000Y-114724729D01*
X155957645Y-114422076D01*
X155567358Y-113993817D01*
X155142053Y-113794083D01*
X155181200Y-113786296D01*
X155580565Y-113519448D01*
X155847413Y-113120083D01*
X155941117Y-112649000D01*
X155847413Y-112177917D01*
X155580565Y-111778552D01*
X155181200Y-111511704D01*
X154710117Y-111418000D01*
X154661883Y-111418000D01*
X154190800Y-111511704D01*
X153791435Y-111778552D01*
X153524587Y-112177917D01*
X153430883Y-112649000D01*
X153524587Y-113120083D01*
X153791435Y-113519448D01*
X154190800Y-113786296D01*
X154229947Y-113794083D01*
X153804642Y-113993817D01*
X153414355Y-114422076D01*
X153289000Y-114724729D01*
X153163645Y-114422076D01*
X152773358Y-113993817D01*
X152348053Y-113794083D01*
X152387200Y-113786296D01*
X152786565Y-113519448D01*
X153053413Y-113120083D01*
X153147117Y-112649000D01*
X153053413Y-112177917D01*
X152786565Y-111778552D01*
X152387200Y-111511704D01*
X151916117Y-111418000D01*
X151867883Y-111418000D01*
X151396800Y-111511704D01*
X150997435Y-111778552D01*
X150730587Y-112177917D01*
X150636883Y-112649000D01*
X150730587Y-113120083D01*
X150997435Y-113519448D01*
X151396800Y-113786296D01*
X151435947Y-113794083D01*
X151010642Y-113993817D01*
X150620355Y-114422076D01*
X150450524Y-114832110D01*
X150571845Y-115062000D01*
X151765000Y-115062000D01*
X151765000Y-115042000D01*
X152019000Y-115042000D01*
X152019000Y-115062000D01*
X153212155Y-115062000D01*
X153289000Y-114916387D01*
X153365845Y-115062000D01*
X154559000Y-115062000D01*
X154559000Y-115042000D01*
X154813000Y-115042000D01*
X154813000Y-115062000D01*
X156006155Y-115062000D01*
X156083000Y-114916387D01*
X156159845Y-115062000D01*
X157353000Y-115062000D01*
X157353000Y-115042000D01*
X157607000Y-115042000D01*
X157607000Y-115062000D01*
X158800155Y-115062000D01*
X158877000Y-114916387D01*
X158953845Y-115062000D01*
X160147000Y-115062000D01*
X160147000Y-115042000D01*
X160401000Y-115042000D01*
X160401000Y-115062000D01*
X161594155Y-115062000D01*
X161671000Y-114916387D01*
X161747845Y-115062000D01*
X162941000Y-115062000D01*
X162941000Y-115042000D01*
X163195000Y-115042000D01*
X163195000Y-115062000D01*
X164388155Y-115062000D01*
X164509476Y-114832110D01*
X164339645Y-114422076D01*
X163949358Y-113993817D01*
X163524053Y-113794083D01*
X163563200Y-113786296D01*
X163962565Y-113519448D01*
X164229413Y-113120083D01*
X164323117Y-112649000D01*
X164233604Y-112198988D01*
X169648796Y-106783796D01*
X169758483Y-106619638D01*
X169797000Y-106426000D01*
X169797000Y-102945000D01*
X169758483Y-102751362D01*
X169648796Y-102587204D01*
X168970796Y-101909204D01*
X168806638Y-101799517D01*
X168613000Y-101761000D01*
X168606187Y-101761000D01*
X168480789Y-101573328D01*
X168162529Y-101360674D01*
X167787117Y-101286000D01*
X167238883Y-101286000D01*
X166863471Y-101360674D01*
X166545211Y-101573328D01*
X166467601Y-101689480D01*
X166467601Y-100844520D01*
X166545211Y-100960672D01*
X166863471Y-101173326D01*
X167238883Y-101248000D01*
X167787117Y-101248000D01*
X168162529Y-101173326D01*
X168480789Y-100960672D01*
X168693443Y-100642412D01*
X168768117Y-100267000D01*
X168725948Y-100055000D01*
X169031471Y-99749476D01*
X169031474Y-99749474D01*
X169142484Y-99638464D01*
X169257590Y-99466195D01*
X169298011Y-99262990D01*
X169295883Y-99252292D01*
X169379331Y-99127404D01*
X169393254Y-99057405D01*
X169418000Y-98933000D01*
X169418000Y-96774000D01*
X169379331Y-96579597D01*
X169269210Y-96414790D01*
X166975603Y-94121183D01*
X166975603Y-92352758D01*
X167832696Y-92352758D01*
X168099468Y-92998395D01*
X168593007Y-93492796D01*
X169238178Y-93760694D01*
X169936758Y-93761304D01*
X170582395Y-93494532D01*
X171076796Y-93000993D01*
X171344694Y-92355822D01*
X171345304Y-91657242D01*
X171078532Y-91011605D01*
X170584993Y-90517204D01*
X169939822Y-90249306D01*
X169241242Y-90248696D01*
X168595605Y-90515468D01*
X168101204Y-91009007D01*
X167833306Y-91654178D01*
X167832696Y-92352758D01*
X166975603Y-92352758D01*
X166975603Y-92299603D01*
X166936934Y-92105200D01*
X166936532Y-92104599D01*
X166826814Y-91940393D01*
X166517601Y-91631181D01*
X166517601Y-90126556D01*
X166517602Y-90126551D01*
X166477181Y-89923346D01*
X166423410Y-89842872D01*
X166362075Y-89751077D01*
X166362072Y-89751075D01*
X165702923Y-89091925D01*
X165530654Y-88976819D01*
X165327449Y-88936399D01*
X151410556Y-88936399D01*
X151410551Y-88936398D01*
X151219180Y-88974465D01*
X151207346Y-88976819D01*
X151035077Y-89091925D01*
X151035075Y-89091928D01*
X150375925Y-89751077D01*
X150327595Y-89823409D01*
X150184930Y-89680495D01*
X149727652Y-89490617D01*
X149232520Y-89490185D01*
X148774912Y-89679264D01*
X148424495Y-90029070D01*
X148234617Y-90486348D01*
X148234185Y-90981480D01*
X148423264Y-91439088D01*
X148460510Y-91476399D01*
X147957974Y-91476399D01*
X147993505Y-91440930D01*
X148183383Y-90983652D01*
X148183815Y-90488520D01*
X147994736Y-90030912D01*
X147644930Y-89680495D01*
X147187652Y-89490617D01*
X146692520Y-89490185D01*
X146234912Y-89679264D01*
X145884495Y-90029070D01*
X145694617Y-90486348D01*
X145694185Y-90981480D01*
X145883264Y-91439088D01*
X146027475Y-91583551D01*
X145955077Y-91631925D01*
X145291127Y-92295875D01*
X145246641Y-92362453D01*
X145104930Y-92220495D01*
X144647652Y-92030617D01*
X144152520Y-92030185D01*
X143694912Y-92219264D01*
X143344495Y-92569070D01*
X143154617Y-93026348D01*
X143154185Y-93521480D01*
X143343264Y-93979088D01*
X143693070Y-94329505D01*
X144150348Y-94519383D01*
X144594695Y-94519771D01*
X144283887Y-94830579D01*
X144162624Y-94780226D01*
X143874639Y-94779975D01*
X143608479Y-94889950D01*
X143404665Y-95093408D01*
X143294226Y-95359376D01*
X143293975Y-95647361D01*
X143403950Y-95913521D01*
X143607408Y-96117335D01*
X143873376Y-96227774D01*
X144161361Y-96228025D01*
X144427521Y-96118050D01*
X144547870Y-95997912D01*
X144564619Y-95994580D01*
X144736888Y-95879474D01*
X146042075Y-94574287D01*
X146110966Y-94471184D01*
X146146741Y-94581516D01*
X146707030Y-94785248D01*
X147302635Y-94759058D01*
X147731259Y-94581516D01*
X147813200Y-94328805D01*
X146939000Y-93454605D01*
X146924858Y-93468748D01*
X146745253Y-93289143D01*
X146759395Y-93275000D01*
X146745253Y-93260858D01*
X146924858Y-93081253D01*
X146939000Y-93095395D01*
X146953143Y-93081253D01*
X147132748Y-93260858D01*
X147118605Y-93275000D01*
X147992805Y-94149200D01*
X148245516Y-94067259D01*
X148345772Y-93791542D01*
X148423264Y-93979088D01*
X148773070Y-94329505D01*
X148913942Y-94388000D01*
X148590000Y-94388000D01*
X148405929Y-94424614D01*
X148298502Y-94496395D01*
X148249882Y-94528882D01*
X147617626Y-95161138D01*
X147430639Y-95160975D01*
X147164479Y-95270950D01*
X146960665Y-95474408D01*
X146850226Y-95740376D01*
X146849975Y-96028361D01*
X146959950Y-96294521D01*
X147163408Y-96498335D01*
X147429376Y-96608774D01*
X147717361Y-96609025D01*
X147983521Y-96499050D01*
X148187335Y-96295592D01*
X148297774Y-96029624D01*
X148297938Y-95841298D01*
X148789236Y-95350000D01*
X158027227Y-95350000D01*
X157933135Y-95410546D01*
X157846141Y-95537866D01*
X157815536Y-95689000D01*
X157815536Y-95740780D01*
X157800014Y-95778254D01*
X157800014Y-95778255D01*
X157783331Y-95862127D01*
X157624624Y-95796226D01*
X157336639Y-95795975D01*
X157070479Y-95905950D01*
X156866665Y-96109408D01*
X156756226Y-96375376D01*
X156755975Y-96663361D01*
X156865950Y-96929521D01*
X157069408Y-97133335D01*
X157335376Y-97243774D01*
X157623361Y-97244025D01*
X157889521Y-97134050D01*
X157998000Y-97025760D01*
X157998000Y-97400807D01*
X157933135Y-97442546D01*
X157846141Y-97569866D01*
X157815536Y-97721000D01*
X157815536Y-97772780D01*
X157800014Y-97810254D01*
X157800014Y-97810255D01*
X157742010Y-98101860D01*
X157742010Y-98240140D01*
X157800014Y-98531745D01*
X157800014Y-98531746D01*
X157815536Y-98569220D01*
X157815536Y-98621000D01*
X157823815Y-98700774D01*
X157884805Y-98842402D01*
X157996091Y-98949143D01*
X157998000Y-98949872D01*
X157998000Y-99432807D01*
X157933135Y-99474546D01*
X157846141Y-99601866D01*
X157815536Y-99753000D01*
X157815536Y-99804780D01*
X157811744Y-99813936D01*
X157800014Y-99842255D01*
X157742010Y-100133860D01*
X157742010Y-100272140D01*
X157787943Y-100503058D01*
X157763592Y-100478665D01*
X157497624Y-100368226D01*
X157209639Y-100367975D01*
X157173045Y-100383095D01*
X157187774Y-100347624D01*
X157188025Y-100059639D01*
X157078050Y-99793479D01*
X156874592Y-99589665D01*
X156608624Y-99479226D01*
X156320639Y-99478975D01*
X156054479Y-99588950D01*
X155947246Y-99695996D01*
X155935050Y-99666479D01*
X155731592Y-99462665D01*
X155465624Y-99352226D01*
X155312685Y-99352093D01*
X153646796Y-97686204D01*
X153482638Y-97576517D01*
X153289000Y-97538000D01*
X151774740Y-97538000D01*
X151667592Y-97430665D01*
X151401624Y-97320226D01*
X151113639Y-97319975D01*
X150847479Y-97429950D01*
X150643665Y-97633408D01*
X150533226Y-97899376D01*
X150532975Y-98187361D01*
X150642950Y-98453521D01*
X150846408Y-98657335D01*
X151112376Y-98767774D01*
X151400361Y-98768025D01*
X151666521Y-98658050D01*
X151774760Y-98550000D01*
X153079408Y-98550000D01*
X154056217Y-99526809D01*
X153941624Y-99479226D01*
X153653639Y-99478975D01*
X153387479Y-99588950D01*
X153279240Y-99697000D01*
X144653000Y-99697000D01*
X144459362Y-99735517D01*
X144295204Y-99845204D01*
X142557303Y-101583105D01*
X142447616Y-101747263D01*
X142409099Y-101940901D01*
X142409099Y-104434099D01*
X142447616Y-104627737D01*
X142557303Y-104791895D01*
X144345408Y-106580000D01*
X140661236Y-106580000D01*
X140107513Y-106026277D01*
X140186335Y-105947592D01*
X140296774Y-105681624D01*
X140297025Y-105393639D01*
X140187050Y-105127479D01*
X139983592Y-104923665D01*
X139717624Y-104813226D01*
X139429639Y-104812975D01*
X139163479Y-104922950D01*
X138959665Y-105126408D01*
X138849226Y-105392376D01*
X138848975Y-105680361D01*
X138958950Y-105946521D01*
X139092000Y-106079804D01*
X139092000Y-106172000D01*
X139125238Y-106339099D01*
X139128614Y-106356071D01*
X139232882Y-106512118D01*
X140121882Y-107401118D01*
X140277929Y-107505386D01*
X140462000Y-107542000D01*
X146772527Y-107542000D01*
X146656479Y-107589950D01*
X146623371Y-107623000D01*
X139178658Y-107623000D01*
X137995000Y-106439342D01*
X137995000Y-101286790D01*
X141008034Y-101286790D01*
X141118009Y-101552950D01*
X141321467Y-101756764D01*
X141587435Y-101867203D01*
X141875420Y-101867454D01*
X142141580Y-101757479D01*
X142345394Y-101554021D01*
X142455833Y-101288053D01*
X142456084Y-101000068D01*
X142346109Y-100733908D01*
X142241771Y-100629387D01*
X142264144Y-97519589D01*
X142358536Y-97425361D01*
X147484975Y-97425361D01*
X147594950Y-97691521D01*
X147798408Y-97895335D01*
X148064376Y-98005774D01*
X148352361Y-98006025D01*
X148618521Y-97896050D01*
X148822335Y-97692592D01*
X148932774Y-97426624D01*
X148932905Y-97276515D01*
X149346635Y-96862785D01*
X149622361Y-96863025D01*
X149888521Y-96753050D01*
X150092335Y-96549592D01*
X150202774Y-96283624D01*
X150203025Y-95995639D01*
X150093050Y-95729479D01*
X149889592Y-95525665D01*
X149623624Y-95415226D01*
X149335639Y-95414975D01*
X149069479Y-95524950D01*
X148865665Y-95728408D01*
X148755226Y-95994376D01*
X148755206Y-96017374D01*
X148214475Y-96558105D01*
X148065639Y-96557975D01*
X147799479Y-96667950D01*
X147595665Y-96871408D01*
X147485226Y-97137376D01*
X147484975Y-97425361D01*
X142358536Y-97425361D01*
X142375218Y-97408709D01*
X142485657Y-97142741D01*
X142485908Y-96854756D01*
X142375933Y-96588596D01*
X142172475Y-96384782D01*
X141906507Y-96274343D01*
X141618522Y-96274092D01*
X141352362Y-96384067D01*
X141148548Y-96587525D01*
X141038109Y-96853493D01*
X141037858Y-97141478D01*
X141147833Y-97407638D01*
X141252171Y-97512159D01*
X141229798Y-100621957D01*
X141118724Y-100732837D01*
X141008285Y-100998805D01*
X141008034Y-101286790D01*
X137995000Y-101286790D01*
X137995000Y-100883464D01*
X138214000Y-100883464D01*
X138355190Y-100856897D01*
X138484865Y-100773454D01*
X138571859Y-100646134D01*
X138602464Y-100495000D01*
X138602464Y-98895000D01*
X138575897Y-98753810D01*
X138492454Y-98624135D01*
X138365134Y-98537141D01*
X138214000Y-98506536D01*
X136614000Y-98506536D01*
X136472810Y-98533103D01*
X136343135Y-98616546D01*
X136256141Y-98743866D01*
X136225536Y-98895000D01*
X136225536Y-100495000D01*
X136252103Y-100636190D01*
X136335546Y-100765865D01*
X136462866Y-100852859D01*
X136614000Y-100883464D01*
X136833000Y-100883464D01*
X136833000Y-106680000D01*
X136877226Y-106902339D01*
X137003171Y-107090829D01*
X138527171Y-108614829D01*
X138715661Y-108740774D01*
X138938000Y-108785000D01*
X146623129Y-108785000D01*
X146655408Y-108817335D01*
X146793555Y-108874699D01*
X146773000Y-108870536D01*
X145073000Y-108870536D01*
X144931810Y-108897103D01*
X144802135Y-108980546D01*
X144715141Y-109107866D01*
X144684536Y-109259000D01*
X144684536Y-110959000D01*
X144711103Y-111100190D01*
X144794546Y-111229865D01*
X144921866Y-111316859D01*
X145073000Y-111347464D01*
X146381944Y-111347464D01*
X146250968Y-111478440D01*
X145947117Y-111418000D01*
X145898883Y-111418000D01*
X145427800Y-111511704D01*
X145028435Y-111778552D01*
X144761587Y-112177917D01*
X144667883Y-112649000D01*
X144761587Y-113120083D01*
X144929914Y-113372001D01*
X144122086Y-113372001D01*
X144290413Y-113120083D01*
X144384117Y-112649000D01*
X144290413Y-112177917D01*
X144023565Y-111778552D01*
X143624200Y-111511704D01*
X143153117Y-111418000D01*
X143104883Y-111418000D01*
X142633800Y-111511704D01*
X142234435Y-111778552D01*
X141967587Y-112177917D01*
X141873883Y-112649000D01*
X141967587Y-113120083D01*
X142135914Y-113372001D01*
X141328086Y-113372001D01*
X141496413Y-113120083D01*
X141590117Y-112649000D01*
X141496413Y-112177917D01*
X141229565Y-111778552D01*
X140830200Y-111511704D01*
X140359117Y-111418000D01*
X140310883Y-111418000D01*
X139839800Y-111511704D01*
X139440435Y-111778552D01*
X139346159Y-111919645D01*
X138662719Y-111236205D01*
X138748859Y-111110134D01*
X138779464Y-110959000D01*
X138779464Y-109259000D01*
X139096536Y-109259000D01*
X139096536Y-110959000D01*
X139123103Y-111100190D01*
X139206546Y-111229865D01*
X139333866Y-111316859D01*
X139485000Y-111347464D01*
X141185000Y-111347464D01*
X141326190Y-111320897D01*
X141455865Y-111237454D01*
X141542859Y-111110134D01*
X141573464Y-110959000D01*
X141573464Y-109259000D01*
X141890536Y-109259000D01*
X141890536Y-110959000D01*
X141917103Y-111100190D01*
X142000546Y-111229865D01*
X142127866Y-111316859D01*
X142279000Y-111347464D01*
X143979000Y-111347464D01*
X144120190Y-111320897D01*
X144249865Y-111237454D01*
X144336859Y-111110134D01*
X144367464Y-110959000D01*
X144367464Y-109259000D01*
X144340897Y-109117810D01*
X144257454Y-108988135D01*
X144130134Y-108901141D01*
X143979000Y-108870536D01*
X142279000Y-108870536D01*
X142137810Y-108897103D01*
X142008135Y-108980546D01*
X141921141Y-109107866D01*
X141890536Y-109259000D01*
X141573464Y-109259000D01*
X141546897Y-109117810D01*
X141463454Y-108988135D01*
X141336134Y-108901141D01*
X141185000Y-108870536D01*
X139485000Y-108870536D01*
X139343810Y-108897103D01*
X139214135Y-108980546D01*
X139127141Y-109107866D01*
X139096536Y-109259000D01*
X138779464Y-109259000D01*
X138752897Y-109117810D01*
X138669454Y-108988135D01*
X138542134Y-108901141D01*
X138391000Y-108870536D01*
X136691000Y-108870536D01*
X136549810Y-108897103D01*
X136482001Y-108940737D01*
X136482001Y-108925001D01*
X136443484Y-108731363D01*
X136333797Y-108567205D01*
X131922953Y-104156361D01*
X133133975Y-104156361D01*
X133243950Y-104422521D01*
X133447408Y-104626335D01*
X133713376Y-104736774D01*
X134001361Y-104737025D01*
X134267521Y-104627050D01*
X134471335Y-104423592D01*
X134581774Y-104157624D01*
X134582025Y-103869639D01*
X134472050Y-103603479D01*
X134268592Y-103399665D01*
X134002624Y-103289226D01*
X133714639Y-103288975D01*
X133448479Y-103398950D01*
X133244665Y-103602408D01*
X133134226Y-103868376D01*
X133133975Y-104156361D01*
X131922953Y-104156361D01*
X128469337Y-100702745D01*
X132785861Y-100702745D01*
X132859995Y-100948864D01*
X133397223Y-101141965D01*
X133967454Y-101114778D01*
X134368005Y-100948864D01*
X134442139Y-100702745D01*
X133614000Y-99874605D01*
X132785861Y-100702745D01*
X128469337Y-100702745D01*
X127314368Y-99547776D01*
X131518880Y-99547776D01*
X131628855Y-99813936D01*
X131832313Y-100017750D01*
X132098281Y-100128189D01*
X132227296Y-100128301D01*
X132360136Y-100449005D01*
X132606255Y-100523139D01*
X133434395Y-99695000D01*
X133793605Y-99695000D01*
X134621745Y-100523139D01*
X134867864Y-100449005D01*
X135060965Y-99911777D01*
X135033778Y-99341546D01*
X134867864Y-98940995D01*
X134621745Y-98866861D01*
X133793605Y-99695000D01*
X133434395Y-99695000D01*
X133420253Y-99680858D01*
X133599858Y-99501252D01*
X133614000Y-99515395D01*
X134442139Y-98687255D01*
X134368005Y-98441136D01*
X133830777Y-98248035D01*
X133260546Y-98275222D01*
X132859995Y-98441136D01*
X132785861Y-98687253D01*
X132748905Y-98650297D01*
X132748905Y-97963687D01*
X133922231Y-96790361D01*
X134657975Y-96790361D01*
X134767950Y-97056521D01*
X134971408Y-97260335D01*
X135237376Y-97370774D01*
X135525361Y-97371025D01*
X135791521Y-97261050D01*
X135995335Y-97057592D01*
X136105774Y-96791624D01*
X136106025Y-96503639D01*
X135996050Y-96237479D01*
X135792592Y-96033665D01*
X135526624Y-95923226D01*
X135238639Y-95922975D01*
X134972479Y-96032950D01*
X134768665Y-96236408D01*
X134658226Y-96502376D01*
X134657975Y-96790361D01*
X133922231Y-96790361D01*
X134981592Y-95731000D01*
X139319000Y-95731000D01*
X139503071Y-95694386D01*
X139659118Y-95590118D01*
X140929118Y-94320119D01*
X141015158Y-94191352D01*
X141153070Y-94329505D01*
X141610348Y-94519383D01*
X142105480Y-94519815D01*
X142563088Y-94330736D01*
X142913505Y-93980930D01*
X143103383Y-93523652D01*
X143103815Y-93028520D01*
X142914736Y-92570912D01*
X142564930Y-92220495D01*
X142107652Y-92030617D01*
X141612520Y-92030185D01*
X141154912Y-92219264D01*
X141070000Y-92304028D01*
X141070000Y-92204236D01*
X141387421Y-91886816D01*
X141610348Y-91979383D01*
X142105480Y-91979815D01*
X142563088Y-91790736D01*
X142913505Y-91440930D01*
X143103383Y-90983652D01*
X143103384Y-90981480D01*
X143154185Y-90981480D01*
X143343264Y-91439088D01*
X143693070Y-91789505D01*
X144150348Y-91979383D01*
X144645480Y-91979815D01*
X145103088Y-91790736D01*
X145453505Y-91440930D01*
X145643383Y-90983652D01*
X145643815Y-90488520D01*
X145454736Y-90030912D01*
X145104930Y-89680495D01*
X144647652Y-89490617D01*
X144152520Y-89490185D01*
X143694912Y-89679264D01*
X143344495Y-90029070D01*
X143154617Y-90486348D01*
X143154185Y-90981480D01*
X143103384Y-90981480D01*
X143103815Y-90488520D01*
X142914736Y-90030912D01*
X142564930Y-89680495D01*
X142107652Y-89490617D01*
X141612520Y-89490185D01*
X141154912Y-89679264D01*
X140804495Y-90029070D01*
X140732797Y-90201739D01*
X140625516Y-89942741D01*
X140372805Y-89860800D01*
X139498605Y-90735000D01*
X139512748Y-90749143D01*
X139333143Y-90928748D01*
X139319000Y-90914605D01*
X138444800Y-91788805D01*
X138526741Y-92041516D01*
X138802458Y-92141772D01*
X138614912Y-92219264D01*
X138264495Y-92569070D01*
X138074617Y-93026348D01*
X138074185Y-93521480D01*
X138263264Y-93979088D01*
X138613070Y-94329505D01*
X139070348Y-94519383D01*
X139369120Y-94519644D01*
X139119764Y-94769000D01*
X134872683Y-94769000D01*
X134747000Y-94744000D01*
X134553362Y-94782517D01*
X134389204Y-94892204D01*
X131885109Y-97396299D01*
X131775422Y-97560457D01*
X131736905Y-97754095D01*
X131736905Y-98886675D01*
X131629570Y-98993823D01*
X131519131Y-99259791D01*
X131518880Y-99547776D01*
X127314368Y-99547776D01*
X127293093Y-99526501D01*
X127293093Y-99441893D01*
X127364370Y-99471490D01*
X127652355Y-99471741D01*
X127918515Y-99361766D01*
X128122329Y-99158308D01*
X128232768Y-98892340D01*
X128232932Y-98704014D01*
X128643739Y-98293207D01*
X128665864Y-98260095D01*
X128748007Y-98137160D01*
X128784621Y-97953089D01*
X128784621Y-95349796D01*
X128916956Y-95217692D01*
X129027395Y-94951724D01*
X129027646Y-94663739D01*
X128968020Y-94519433D01*
X129405480Y-94519815D01*
X129863088Y-94330736D01*
X130213505Y-93980930D01*
X130403383Y-93523652D01*
X130403815Y-93028520D01*
X130214736Y-92570912D01*
X129864930Y-92220495D01*
X129407652Y-92030617D01*
X128912520Y-92030185D01*
X128454912Y-92219264D01*
X128104495Y-92569070D01*
X128032797Y-92741739D01*
X127940047Y-92517822D01*
X128020672Y-92501785D01*
X128176719Y-92397517D01*
X128687421Y-91886816D01*
X128910348Y-91979383D01*
X129405480Y-91979815D01*
X129863088Y-91790736D01*
X130045048Y-91609094D01*
X130098603Y-91689245D01*
X130744755Y-92335397D01*
X130824919Y-92388961D01*
X130644495Y-92569070D01*
X130454617Y-93026348D01*
X130454185Y-93521480D01*
X130643264Y-93979088D01*
X130993070Y-94329505D01*
X131450348Y-94519383D01*
X131945480Y-94519815D01*
X132403088Y-94330736D01*
X132753505Y-93980930D01*
X132943383Y-93523652D01*
X132943815Y-93028520D01*
X132754736Y-92570912D01*
X132667577Y-92483601D01*
X133270113Y-92483601D01*
X133184495Y-92569070D01*
X132994617Y-93026348D01*
X132994185Y-93521480D01*
X133183264Y-93979088D01*
X133533070Y-94329505D01*
X133990348Y-94519383D01*
X134485480Y-94519815D01*
X134943088Y-94330736D01*
X135293505Y-93980930D01*
X135483383Y-93523652D01*
X135483815Y-93028520D01*
X135294736Y-92570912D01*
X135207577Y-92483601D01*
X135272009Y-92483601D01*
X135616811Y-92828403D01*
X135534617Y-93026348D01*
X135534185Y-93521480D01*
X135723264Y-93979088D01*
X136073070Y-94329505D01*
X136530348Y-94519383D01*
X137025480Y-94519815D01*
X137483088Y-94330736D01*
X137833505Y-93980930D01*
X138023383Y-93523652D01*
X138023815Y-93028520D01*
X137834736Y-92570912D01*
X137484930Y-92220495D01*
X137027652Y-92030617D01*
X136532520Y-92030185D01*
X136332446Y-92112854D01*
X135839397Y-91619805D01*
X135675239Y-91510118D01*
X135481601Y-91471601D01*
X135262780Y-91471601D01*
X135293505Y-91440930D01*
X135483383Y-90983652D01*
X135483384Y-90981480D01*
X135534185Y-90981480D01*
X135723264Y-91439088D01*
X136073070Y-91789505D01*
X136530348Y-91979383D01*
X137025480Y-91979815D01*
X137483088Y-91790736D01*
X137833505Y-91440930D01*
X137905203Y-91268261D01*
X138012484Y-91527259D01*
X138265195Y-91609200D01*
X139139395Y-90735000D01*
X138265195Y-89860800D01*
X138012484Y-89942741D01*
X137912228Y-90218458D01*
X137834736Y-90030912D01*
X137485629Y-89681195D01*
X138444800Y-89681195D01*
X139319000Y-90555395D01*
X140193200Y-89681195D01*
X140111259Y-89428484D01*
X139550970Y-89224752D01*
X138955365Y-89250942D01*
X138526741Y-89428484D01*
X138444800Y-89681195D01*
X137485629Y-89681195D01*
X137484930Y-89680495D01*
X137027652Y-89490617D01*
X136532520Y-89490185D01*
X136074912Y-89679264D01*
X135724495Y-90029070D01*
X135534617Y-90486348D01*
X135534185Y-90981480D01*
X135483384Y-90981480D01*
X135483815Y-90488520D01*
X135294736Y-90030912D01*
X134944930Y-89680495D01*
X134487652Y-89490617D01*
X133992520Y-89490185D01*
X133534912Y-89679264D01*
X133184495Y-90029070D01*
X133112797Y-90201739D01*
X133005516Y-89942741D01*
X132752805Y-89860800D01*
X131878605Y-90735000D01*
X131892748Y-90749143D01*
X131713143Y-90928748D01*
X131699000Y-90914605D01*
X131684858Y-90928748D01*
X131505253Y-90749143D01*
X131519395Y-90735000D01*
X131505253Y-90720858D01*
X131684858Y-90541253D01*
X131699000Y-90555395D01*
X132573200Y-89681195D01*
X132491259Y-89428484D01*
X131930970Y-89224752D01*
X131335365Y-89250942D01*
X130906741Y-89428484D01*
X130824801Y-89681193D01*
X130710133Y-89566525D01*
X130627650Y-89649008D01*
X130113245Y-89134603D01*
X129949087Y-89024916D01*
X129755449Y-88986399D01*
X123482551Y-88986399D01*
X123288913Y-89024916D01*
X123124755Y-89134603D01*
X122610350Y-89649008D01*
X122527867Y-89566525D01*
X122413199Y-89681193D01*
X122331259Y-89428484D01*
X121770970Y-89224752D01*
X121175365Y-89250942D01*
X120746741Y-89428484D01*
X120664800Y-89681195D01*
X121539000Y-90555395D01*
X121553143Y-90541253D01*
X121732748Y-90720858D01*
X121718605Y-90735000D01*
X121732748Y-90749143D01*
X121553143Y-90928748D01*
X121539000Y-90914605D01*
X121524858Y-90928748D01*
X121345253Y-90749143D01*
X121359395Y-90735000D01*
X120485195Y-89860800D01*
X120232484Y-89942741D01*
X120132228Y-90218458D01*
X120054736Y-90030912D01*
X119704930Y-89680495D01*
X119247652Y-89490617D01*
X118752520Y-89490185D01*
X118294912Y-89679264D01*
X117944495Y-90029070D01*
X117754617Y-90486348D01*
X117754185Y-90981480D01*
X117943264Y-91439088D01*
X117975720Y-91471601D01*
X117482780Y-91471601D01*
X117513505Y-91440930D01*
X117703383Y-90983652D01*
X117703815Y-90488520D01*
X117514736Y-90030912D01*
X117164930Y-89680495D01*
X116707652Y-89490617D01*
X116212520Y-89490185D01*
X115754912Y-89679264D01*
X115404495Y-90029070D01*
X115214617Y-90486348D01*
X115214185Y-90981480D01*
X115403264Y-91439088D01*
X115753070Y-91789505D01*
X116032967Y-91905728D01*
X115991517Y-91967762D01*
X115980542Y-92022936D01*
X115595400Y-92022936D01*
X115454210Y-92049503D01*
X115324535Y-92132946D01*
X115237541Y-92260266D01*
X115206936Y-92411400D01*
X115206936Y-94138600D01*
X115233503Y-94279790D01*
X115316946Y-94409465D01*
X115444266Y-94496459D01*
X115595400Y-94527064D01*
X117322600Y-94527064D01*
X117463790Y-94500497D01*
X117593465Y-94417054D01*
X117680459Y-94289734D01*
X117711064Y-94138600D01*
X117711064Y-92483601D01*
X118030113Y-92483601D01*
X117944495Y-92569070D01*
X117754617Y-93026348D01*
X117754185Y-93521480D01*
X117943264Y-93979088D01*
X118293070Y-94329505D01*
X118750348Y-94519383D01*
X119245480Y-94519815D01*
X119703088Y-94330736D01*
X120053505Y-93980930D01*
X120243383Y-93523652D01*
X120243815Y-93028520D01*
X120054736Y-92570912D01*
X119967577Y-92483601D01*
X120570113Y-92483601D01*
X120484495Y-92569070D01*
X120294617Y-93026348D01*
X120294185Y-93521480D01*
X120483264Y-93979088D01*
X120833070Y-94329505D01*
X121290348Y-94519383D01*
X121785480Y-94519815D01*
X122243088Y-94330736D01*
X122593505Y-93980930D01*
X122783383Y-93523652D01*
X122783752Y-93101181D01*
X122834596Y-93050336D01*
X122834185Y-93521480D01*
X122916854Y-93721554D01*
X122857605Y-93780803D01*
X122747918Y-93944961D01*
X122709401Y-94138599D01*
X122709401Y-94946815D01*
X122747918Y-95140453D01*
X122857605Y-95304611D01*
X123665998Y-96113004D01*
X123665998Y-96182748D01*
X123507250Y-96024000D01*
X122066691Y-96024000D01*
X121833302Y-96120673D01*
X121654673Y-96299301D01*
X121629695Y-96359602D01*
X121544134Y-96301141D01*
X121393000Y-96270536D01*
X119937773Y-96270536D01*
X119232118Y-95564882D01*
X119076071Y-95460614D01*
X119052759Y-95455977D01*
X118892000Y-95424000D01*
X117345464Y-95424000D01*
X117345464Y-95155000D01*
X117318897Y-95013810D01*
X117235454Y-94884135D01*
X117108134Y-94797141D01*
X116957000Y-94766536D01*
X115707000Y-94766536D01*
X115565810Y-94793103D01*
X115436135Y-94876546D01*
X115349141Y-95003866D01*
X115318536Y-95155000D01*
X115318536Y-95424000D01*
X114915000Y-95424000D01*
X114868858Y-95433178D01*
X114825624Y-95415226D01*
X114537639Y-95414975D01*
X114271479Y-95524950D01*
X114067665Y-95728408D01*
X113957226Y-95994376D01*
X113956975Y-96282361D01*
X114066950Y-96548521D01*
X114270408Y-96752335D01*
X114536376Y-96862774D01*
X114824361Y-96863025D01*
X115090521Y-96753050D01*
X115294335Y-96549592D01*
X115318536Y-96491309D01*
X115318536Y-96655000D01*
X115345103Y-96796190D01*
X115428546Y-96925865D01*
X115555866Y-97012859D01*
X115591130Y-97020000D01*
X115580690Y-97020000D01*
X115347301Y-97116673D01*
X115168673Y-97295302D01*
X115072000Y-97528691D01*
X115072000Y-98119250D01*
X115230750Y-98278000D01*
X116205000Y-98278000D01*
X116205000Y-98258000D01*
X116459000Y-98258000D01*
X116459000Y-98278000D01*
X117433250Y-98278000D01*
X117592000Y-98119250D01*
X117592000Y-97528691D01*
X117495327Y-97295302D01*
X117316699Y-97116673D01*
X117083310Y-97020000D01*
X117081699Y-97020000D01*
X117098190Y-97016897D01*
X117227865Y-96933454D01*
X117314859Y-96806134D01*
X117345464Y-96655000D01*
X117345464Y-96386000D01*
X117918408Y-96386000D01*
X117835141Y-96507866D01*
X117804536Y-96659000D01*
X117804536Y-98159000D01*
X117831103Y-98300190D01*
X117914546Y-98429865D01*
X118041866Y-98516859D01*
X118193000Y-98547464D01*
X118564191Y-98547464D01*
X118543000Y-98654000D01*
X118543000Y-99177536D01*
X118024000Y-99177536D01*
X117882810Y-99204103D01*
X117753135Y-99287546D01*
X117666141Y-99414866D01*
X117635536Y-99566000D01*
X117635536Y-100955961D01*
X117592000Y-100964621D01*
X117592000Y-100635750D01*
X117433250Y-100477000D01*
X116459000Y-100477000D01*
X116459000Y-100497000D01*
X116205000Y-100497000D01*
X116205000Y-100477000D01*
X115230750Y-100477000D01*
X115072000Y-100635750D01*
X115072000Y-101094000D01*
X115071740Y-101094000D01*
X114964592Y-100986665D01*
X114698624Y-100876226D01*
X114410639Y-100875975D01*
X114144479Y-100985950D01*
X113940665Y-101189408D01*
X113830226Y-101455376D01*
X113829975Y-101743361D01*
X113939950Y-102009521D01*
X114143408Y-102213335D01*
X114397879Y-102319000D01*
X113137384Y-102319000D01*
X113142075Y-102314317D01*
X113310808Y-101907962D01*
X113311192Y-101467968D01*
X113143168Y-101061320D01*
X112832317Y-100749925D01*
X112425962Y-100581192D01*
X111985968Y-100580808D01*
X111579320Y-100748832D01*
X111267925Y-101059683D01*
X111099192Y-101466038D01*
X111098808Y-101906032D01*
X111266832Y-102312680D01*
X111577683Y-102624075D01*
X111708612Y-102678441D01*
X110606527Y-103780525D01*
X110491421Y-103952794D01*
X110451001Y-104155999D01*
X110451001Y-104162914D01*
X110199083Y-103994587D01*
X109728000Y-103900883D01*
X109256917Y-103994587D01*
X108857552Y-104261435D01*
X108590704Y-104660800D01*
X108497000Y-105131883D01*
X108419900Y-105131883D01*
X108419900Y-103357696D01*
X108435252Y-103380672D01*
X108753512Y-103593326D01*
X109128924Y-103668000D01*
X109881076Y-103668000D01*
X110256488Y-103593326D01*
X110574748Y-103380672D01*
X110787402Y-103062412D01*
X110862076Y-102687000D01*
X110787402Y-102311588D01*
X110574748Y-101993328D01*
X110256488Y-101780674D01*
X109881076Y-101706000D01*
X109128924Y-101706000D01*
X108753512Y-101780674D01*
X108435252Y-101993328D01*
X108419900Y-102016304D01*
X108419900Y-98690750D01*
X115072000Y-98690750D01*
X115072000Y-99281309D01*
X115111844Y-99377500D01*
X115072000Y-99473691D01*
X115072000Y-100064250D01*
X115230750Y-100223000D01*
X116205000Y-100223000D01*
X116205000Y-98532000D01*
X116459000Y-98532000D01*
X116459000Y-100223000D01*
X117433250Y-100223000D01*
X117592000Y-100064250D01*
X117592000Y-99473691D01*
X117552156Y-99377500D01*
X117592000Y-99281309D01*
X117592000Y-98690750D01*
X117433250Y-98532000D01*
X116459000Y-98532000D01*
X116205000Y-98532000D01*
X115230750Y-98532000D01*
X115072000Y-98690750D01*
X108419900Y-98690750D01*
X108419900Y-96906032D01*
X111098808Y-96906032D01*
X111266832Y-97312680D01*
X111577683Y-97624075D01*
X111984038Y-97792808D01*
X112424032Y-97793192D01*
X112830680Y-97625168D01*
X113142075Y-97314317D01*
X113310808Y-96907962D01*
X113311192Y-96467968D01*
X113143168Y-96061320D01*
X112832317Y-95749925D01*
X112425962Y-95581192D01*
X111985968Y-95580808D01*
X111579320Y-95748832D01*
X111267925Y-96059683D01*
X111099192Y-96466038D01*
X111098808Y-96906032D01*
X108419900Y-96906032D01*
X108419900Y-96357696D01*
X108435252Y-96380672D01*
X108753512Y-96593326D01*
X109128924Y-96668000D01*
X109881076Y-96668000D01*
X110256488Y-96593326D01*
X110574748Y-96380672D01*
X110787402Y-96062412D01*
X110862076Y-95687000D01*
X110787402Y-95311588D01*
X110574748Y-94993328D01*
X110413164Y-94885361D01*
X113067975Y-94885361D01*
X113177950Y-95151521D01*
X113381408Y-95355335D01*
X113647376Y-95465774D01*
X113935361Y-95466025D01*
X114201521Y-95356050D01*
X114405335Y-95152592D01*
X114515774Y-94886624D01*
X114516025Y-94598639D01*
X114406050Y-94332479D01*
X114202592Y-94128665D01*
X113936624Y-94018226D01*
X113648639Y-94017975D01*
X113382479Y-94127950D01*
X113178665Y-94331408D01*
X113068226Y-94597376D01*
X113067975Y-94885361D01*
X110413164Y-94885361D01*
X110256488Y-94780674D01*
X109881076Y-94706000D01*
X109128924Y-94706000D01*
X108753512Y-94780674D01*
X108435252Y-94993328D01*
X108419900Y-95016304D01*
X108419900Y-92352758D01*
X109832696Y-92352758D01*
X110099468Y-92998395D01*
X110593007Y-93492796D01*
X111238178Y-93760694D01*
X111936758Y-93761304D01*
X112582395Y-93494532D01*
X113076796Y-93000993D01*
X113344694Y-92355822D01*
X113345304Y-91657242D01*
X113078532Y-91011605D01*
X112584993Y-90517204D01*
X111939822Y-90249306D01*
X111241242Y-90248696D01*
X110595605Y-90515468D01*
X110101204Y-91009007D01*
X109833306Y-91654178D01*
X109832696Y-92352758D01*
X108419900Y-92352758D01*
X108419900Y-91338556D01*
X108560416Y-90400991D01*
X109027039Y-89625129D01*
X109755057Y-89086889D01*
X110659033Y-88861900D01*
X170146228Y-88861900D01*
X171164025Y-89064352D01*
G36*
X160325536Y-106949000D02*
X160352103Y-107090190D01*
X160435546Y-107219865D01*
X160562866Y-107306859D01*
X160714000Y-107337464D01*
X162214000Y-107337464D01*
X162355190Y-107310897D01*
X162484865Y-107227454D01*
X162571859Y-107100134D01*
X162593873Y-106991423D01*
X162669376Y-107022774D01*
X162779000Y-107022870D01*
X162779000Y-107075310D01*
X162865442Y-107283999D01*
X162593001Y-107283999D01*
X162399363Y-107322516D01*
X162255270Y-107418796D01*
X162235205Y-107432203D01*
X160796872Y-108870536D01*
X159424000Y-108870536D01*
X159282810Y-108897103D01*
X159215001Y-108940737D01*
X159215001Y-107408590D01*
X159225540Y-107408590D01*
X159517145Y-107350586D01*
X159517146Y-107350586D01*
X159644900Y-107297669D01*
X159892109Y-107132488D01*
X159901742Y-107122855D01*
X159945190Y-107110897D01*
X160074865Y-107027454D01*
X160161859Y-106900134D01*
X160186186Y-106780000D01*
X160325536Y-106780000D01*
X160325536Y-106949000D01*
X160325536Y-106949000D01*
G37*
X160325536Y-106949000D02*
X160352103Y-107090190D01*
X160435546Y-107219865D01*
X160562866Y-107306859D01*
X160714000Y-107337464D01*
X162214000Y-107337464D01*
X162355190Y-107310897D01*
X162484865Y-107227454D01*
X162571859Y-107100134D01*
X162593873Y-106991423D01*
X162669376Y-107022774D01*
X162779000Y-107022870D01*
X162779000Y-107075310D01*
X162865442Y-107283999D01*
X162593001Y-107283999D01*
X162399363Y-107322516D01*
X162255270Y-107418796D01*
X162235205Y-107432203D01*
X160796872Y-108870536D01*
X159424000Y-108870536D01*
X159282810Y-108897103D01*
X159215001Y-108940737D01*
X159215001Y-107408590D01*
X159225540Y-107408590D01*
X159517145Y-107350586D01*
X159517146Y-107350586D01*
X159644900Y-107297669D01*
X159892109Y-107132488D01*
X159901742Y-107122855D01*
X159945190Y-107110897D01*
X160074865Y-107027454D01*
X160161859Y-106900134D01*
X160186186Y-106780000D01*
X160325536Y-106780000D01*
X160325536Y-106949000D01*
G36*
X157846141Y-101633866D02*
X157815536Y-101785000D01*
X157815536Y-101836780D01*
X157803433Y-101866000D01*
X157800014Y-101874255D01*
X157742010Y-102165860D01*
X157742010Y-102304140D01*
X157800014Y-102595745D01*
X157800014Y-102595746D01*
X157815536Y-102633220D01*
X157815536Y-102685000D01*
X157823815Y-102764774D01*
X157884805Y-102906402D01*
X157996091Y-103013143D01*
X157998000Y-103013872D01*
X157998000Y-103496807D01*
X157933135Y-103538546D01*
X157846141Y-103665866D01*
X157815536Y-103817000D01*
X157815536Y-103868780D01*
X157800014Y-103906254D01*
X157800014Y-103906255D01*
X157742010Y-104197860D01*
X157742010Y-104336140D01*
X157800014Y-104627745D01*
X157800014Y-104627746D01*
X157815536Y-104665220D01*
X157815536Y-104717000D01*
X157823815Y-104796774D01*
X157884805Y-104938402D01*
X157996091Y-105045143D01*
X157998000Y-105045872D01*
X157998000Y-105528807D01*
X157933135Y-105570546D01*
X157846141Y-105697866D01*
X157815536Y-105849000D01*
X157815536Y-105900780D01*
X157807575Y-105920000D01*
X157800014Y-105938255D01*
X157742010Y-106229860D01*
X157742010Y-106368140D01*
X157800014Y-106659745D01*
X157800014Y-106659746D01*
X157815536Y-106697220D01*
X157815536Y-106749000D01*
X157823815Y-106828774D01*
X157884805Y-106970402D01*
X157996091Y-107077143D01*
X158036506Y-107092585D01*
X158036517Y-107092638D01*
X158146204Y-107256796D01*
X158203001Y-107313593D01*
X158203001Y-108870536D01*
X157211128Y-108870536D01*
X154321895Y-105981303D01*
X154157737Y-105871616D01*
X153964099Y-105833099D01*
X145029691Y-105833099D01*
X143679529Y-104482937D01*
X143780361Y-104483025D01*
X144046521Y-104373050D01*
X144250335Y-104169592D01*
X144357282Y-103912034D01*
X144508376Y-103974774D01*
X144796361Y-103975025D01*
X145062521Y-103865050D01*
X145266335Y-103661592D01*
X145279103Y-103630844D01*
X145385408Y-103737335D01*
X145651376Y-103847774D01*
X145939361Y-103848025D01*
X145983469Y-103829800D01*
X146070950Y-104041521D01*
X146274408Y-104245335D01*
X146540376Y-104355774D01*
X146828361Y-104356025D01*
X147094521Y-104246050D01*
X147227804Y-104113000D01*
X155595589Y-104113000D01*
X155486226Y-104376376D01*
X155486083Y-104540858D01*
X155399618Y-104670261D01*
X155361101Y-104863899D01*
X155361101Y-106083101D01*
X155399618Y-106276739D01*
X155509305Y-106440897D01*
X156446942Y-107378534D01*
X156484950Y-107470521D01*
X156688408Y-107674335D01*
X156954376Y-107784774D01*
X157242361Y-107785025D01*
X157508521Y-107675050D01*
X157712335Y-107471592D01*
X157822774Y-107205624D01*
X157823025Y-106917639D01*
X157713050Y-106651479D01*
X157509592Y-106447665D01*
X157243624Y-106337226D01*
X156955639Y-106336975D01*
X156871381Y-106371789D01*
X156373101Y-105873509D01*
X156373101Y-105236869D01*
X156619521Y-105135050D01*
X156823335Y-104931592D01*
X156933774Y-104665624D01*
X156933823Y-104609867D01*
X157115361Y-104610025D01*
X157381521Y-104500050D01*
X157585335Y-104296592D01*
X157695774Y-104030624D01*
X157696025Y-103742639D01*
X157586050Y-103476479D01*
X157424250Y-103314396D01*
X157585335Y-103153592D01*
X157695774Y-102887624D01*
X157696025Y-102599639D01*
X157586050Y-102333479D01*
X157382592Y-102129665D01*
X157116624Y-102019226D01*
X157106019Y-102019217D01*
X157309374Y-101815862D01*
X157496361Y-101816025D01*
X157762521Y-101706050D01*
X157870405Y-101598354D01*
X157846141Y-101633866D01*
X157846141Y-101633866D01*
G37*
X157846141Y-101633866D02*
X157815536Y-101785000D01*
X157815536Y-101836780D01*
X157803433Y-101866000D01*
X157800014Y-101874255D01*
X157742010Y-102165860D01*
X157742010Y-102304140D01*
X157800014Y-102595745D01*
X157800014Y-102595746D01*
X157815536Y-102633220D01*
X157815536Y-102685000D01*
X157823815Y-102764774D01*
X157884805Y-102906402D01*
X157996091Y-103013143D01*
X157998000Y-103013872D01*
X157998000Y-103496807D01*
X157933135Y-103538546D01*
X157846141Y-103665866D01*
X157815536Y-103817000D01*
X157815536Y-103868780D01*
X157800014Y-103906254D01*
X157800014Y-103906255D01*
X157742010Y-104197860D01*
X157742010Y-104336140D01*
X157800014Y-104627745D01*
X157800014Y-104627746D01*
X157815536Y-104665220D01*
X157815536Y-104717000D01*
X157823815Y-104796774D01*
X157884805Y-104938402D01*
X157996091Y-105045143D01*
X157998000Y-105045872D01*
X157998000Y-105528807D01*
X157933135Y-105570546D01*
X157846141Y-105697866D01*
X157815536Y-105849000D01*
X157815536Y-105900780D01*
X157807575Y-105920000D01*
X157800014Y-105938255D01*
X157742010Y-106229860D01*
X157742010Y-106368140D01*
X157800014Y-106659745D01*
X157800014Y-106659746D01*
X157815536Y-106697220D01*
X157815536Y-106749000D01*
X157823815Y-106828774D01*
X157884805Y-106970402D01*
X157996091Y-107077143D01*
X158036506Y-107092585D01*
X158036517Y-107092638D01*
X158146204Y-107256796D01*
X158203001Y-107313593D01*
X158203001Y-108870536D01*
X157211128Y-108870536D01*
X154321895Y-105981303D01*
X154157737Y-105871616D01*
X153964099Y-105833099D01*
X145029691Y-105833099D01*
X143679529Y-104482937D01*
X143780361Y-104483025D01*
X144046521Y-104373050D01*
X144250335Y-104169592D01*
X144357282Y-103912034D01*
X144508376Y-103974774D01*
X144796361Y-103975025D01*
X145062521Y-103865050D01*
X145266335Y-103661592D01*
X145279103Y-103630844D01*
X145385408Y-103737335D01*
X145651376Y-103847774D01*
X145939361Y-103848025D01*
X145983469Y-103829800D01*
X146070950Y-104041521D01*
X146274408Y-104245335D01*
X146540376Y-104355774D01*
X146828361Y-104356025D01*
X147094521Y-104246050D01*
X147227804Y-104113000D01*
X155595589Y-104113000D01*
X155486226Y-104376376D01*
X155486083Y-104540858D01*
X155399618Y-104670261D01*
X155361101Y-104863899D01*
X155361101Y-106083101D01*
X155399618Y-106276739D01*
X155509305Y-106440897D01*
X156446942Y-107378534D01*
X156484950Y-107470521D01*
X156688408Y-107674335D01*
X156954376Y-107784774D01*
X157242361Y-107785025D01*
X157508521Y-107675050D01*
X157712335Y-107471592D01*
X157822774Y-107205624D01*
X157823025Y-106917639D01*
X157713050Y-106651479D01*
X157509592Y-106447665D01*
X157243624Y-106337226D01*
X156955639Y-106336975D01*
X156871381Y-106371789D01*
X156373101Y-105873509D01*
X156373101Y-105236869D01*
X156619521Y-105135050D01*
X156823335Y-104931592D01*
X156933774Y-104665624D01*
X156933823Y-104609867D01*
X157115361Y-104610025D01*
X157381521Y-104500050D01*
X157585335Y-104296592D01*
X157695774Y-104030624D01*
X157696025Y-103742639D01*
X157586050Y-103476479D01*
X157424250Y-103314396D01*
X157585335Y-103153592D01*
X157695774Y-102887624D01*
X157696025Y-102599639D01*
X157586050Y-102333479D01*
X157382592Y-102129665D01*
X157116624Y-102019226D01*
X157106019Y-102019217D01*
X157309374Y-101815862D01*
X157496361Y-101816025D01*
X157762521Y-101706050D01*
X157870405Y-101598354D01*
X157846141Y-101633866D01*
G36*
X161124495Y-92569070D02*
X160934617Y-93026348D01*
X160934185Y-93521480D01*
X161123264Y-93979088D01*
X161473070Y-94329505D01*
X161930348Y-94519383D01*
X162425480Y-94519815D01*
X162883088Y-94330736D01*
X163233505Y-93980930D01*
X163305203Y-93808261D01*
X163412484Y-94067259D01*
X163665195Y-94149200D01*
X164539395Y-93275000D01*
X164525253Y-93260858D01*
X164704858Y-93081253D01*
X164719000Y-93095395D01*
X164733143Y-93081253D01*
X164912748Y-93260858D01*
X164898605Y-93275000D01*
X164912748Y-93289143D01*
X164733143Y-93468748D01*
X164719000Y-93454605D01*
X163844800Y-94328805D01*
X163926741Y-94581516D01*
X164487030Y-94785248D01*
X165082635Y-94759058D01*
X165455601Y-94604570D01*
X165455601Y-95137205D01*
X165452327Y-95129301D01*
X165273698Y-94950673D01*
X165040309Y-94854000D01*
X164449750Y-94854000D01*
X164291000Y-95012750D01*
X164291000Y-96012000D01*
X164311000Y-96012000D01*
X164311000Y-96266000D01*
X164291000Y-96266000D01*
X164291000Y-98044000D01*
X164311000Y-98044000D01*
X164311000Y-98298000D01*
X164291000Y-98298000D01*
X164291000Y-100076000D01*
X164311000Y-100076000D01*
X164311000Y-100330000D01*
X164291000Y-100330000D01*
X164291000Y-102108000D01*
X164311000Y-102108000D01*
X164311000Y-102362000D01*
X164291000Y-102362000D01*
X164291000Y-104140000D01*
X165390250Y-104140000D01*
X165549000Y-103981250D01*
X165549000Y-103490690D01*
X165452327Y-103257301D01*
X165446026Y-103251000D01*
X165452327Y-103244699D01*
X165549000Y-103011310D01*
X165549000Y-102625905D01*
X165603805Y-102707926D01*
X166163927Y-103268048D01*
X166124673Y-103307302D01*
X166028000Y-103540691D01*
X166028000Y-103981250D01*
X166186750Y-104140000D01*
X167386000Y-104140000D01*
X167386000Y-104120000D01*
X167640000Y-104120000D01*
X167640000Y-104140000D01*
X167660000Y-104140000D01*
X167660000Y-104394000D01*
X167640000Y-104394000D01*
X167640000Y-105343250D01*
X167746680Y-105449930D01*
X167146408Y-106050202D01*
X165989000Y-106050202D01*
X165795362Y-106088719D01*
X165631204Y-106198406D01*
X165549000Y-106280610D01*
X165549000Y-106171998D01*
X165390252Y-106171998D01*
X165549000Y-106013250D01*
X165549000Y-105522690D01*
X165452327Y-105289301D01*
X165446026Y-105283000D01*
X165452327Y-105276699D01*
X165549000Y-105043310D01*
X165549000Y-104552750D01*
X166028000Y-104552750D01*
X166028000Y-104993309D01*
X166124673Y-105226698D01*
X166303301Y-105405327D01*
X166536690Y-105502000D01*
X167227250Y-105502000D01*
X167386000Y-105343250D01*
X167386000Y-104394000D01*
X166186750Y-104394000D01*
X166028000Y-104552750D01*
X165549000Y-104552750D01*
X165390250Y-104394000D01*
X164291000Y-104394000D01*
X164291000Y-106172000D01*
X164311000Y-106172000D01*
X164311000Y-106426000D01*
X164291000Y-106426000D01*
X164291000Y-106446000D01*
X164037000Y-106446000D01*
X164037000Y-106426000D01*
X164017000Y-106426000D01*
X164017000Y-106172000D01*
X164037000Y-106172000D01*
X164037000Y-104394000D01*
X164017000Y-104394000D01*
X164017000Y-104140000D01*
X164037000Y-104140000D01*
X164037000Y-102362000D01*
X164017000Y-102362000D01*
X164017000Y-102108000D01*
X164037000Y-102108000D01*
X164037000Y-100330000D01*
X164017000Y-100330000D01*
X164017000Y-100076000D01*
X164037000Y-100076000D01*
X164037000Y-98298000D01*
X164017000Y-98298000D01*
X164017000Y-98044000D01*
X164037000Y-98044000D01*
X164037000Y-96266000D01*
X162937750Y-96266000D01*
X162779000Y-96424750D01*
X162779000Y-96915310D01*
X162875673Y-97148699D01*
X162881974Y-97155000D01*
X162875673Y-97161301D01*
X162779000Y-97394690D01*
X162779000Y-97447069D01*
X162670639Y-97446975D01*
X162594458Y-97478452D01*
X162575897Y-97379810D01*
X162492454Y-97250135D01*
X162365134Y-97163141D01*
X162329003Y-97155824D01*
X162355190Y-97150897D01*
X162484865Y-97067454D01*
X162571859Y-96940134D01*
X162602464Y-96789000D01*
X162602464Y-95489000D01*
X162578697Y-95362690D01*
X162779000Y-95362690D01*
X162779000Y-95853250D01*
X162937750Y-96012000D01*
X164037000Y-96012000D01*
X164037000Y-95012750D01*
X163878250Y-94854000D01*
X163287691Y-94854000D01*
X163054302Y-94950673D01*
X162875673Y-95129301D01*
X162779000Y-95362690D01*
X162578697Y-95362690D01*
X162575897Y-95347810D01*
X162492454Y-95218135D01*
X162365134Y-95131141D01*
X162214000Y-95100536D01*
X160714000Y-95100536D01*
X160572810Y-95127103D01*
X160443135Y-95210546D01*
X160356141Y-95337866D01*
X160325536Y-95489000D01*
X160325536Y-95658000D01*
X160189247Y-95658000D01*
X160184185Y-95609226D01*
X160123195Y-95467598D01*
X160011909Y-95360857D01*
X159985000Y-95350576D01*
X159985000Y-95242000D01*
X159948386Y-95057929D01*
X159877422Y-94951724D01*
X159844119Y-94901882D01*
X159471118Y-94528882D01*
X159456989Y-94519441D01*
X159885480Y-94519815D01*
X160343088Y-94330736D01*
X160693505Y-93980930D01*
X160883383Y-93523652D01*
X160883815Y-93028520D01*
X160694736Y-92570912D01*
X160607577Y-92483601D01*
X161210113Y-92483601D01*
X161124495Y-92569070D01*
X161124495Y-92569070D01*
G37*
X161124495Y-92569070D02*
X160934617Y-93026348D01*
X160934185Y-93521480D01*
X161123264Y-93979088D01*
X161473070Y-94329505D01*
X161930348Y-94519383D01*
X162425480Y-94519815D01*
X162883088Y-94330736D01*
X163233505Y-93980930D01*
X163305203Y-93808261D01*
X163412484Y-94067259D01*
X163665195Y-94149200D01*
X164539395Y-93275000D01*
X164525253Y-93260858D01*
X164704858Y-93081253D01*
X164719000Y-93095395D01*
X164733143Y-93081253D01*
X164912748Y-93260858D01*
X164898605Y-93275000D01*
X164912748Y-93289143D01*
X164733143Y-93468748D01*
X164719000Y-93454605D01*
X163844800Y-94328805D01*
X163926741Y-94581516D01*
X164487030Y-94785248D01*
X165082635Y-94759058D01*
X165455601Y-94604570D01*
X165455601Y-95137205D01*
X165452327Y-95129301D01*
X165273698Y-94950673D01*
X165040309Y-94854000D01*
X164449750Y-94854000D01*
X164291000Y-95012750D01*
X164291000Y-96012000D01*
X164311000Y-96012000D01*
X164311000Y-96266000D01*
X164291000Y-96266000D01*
X164291000Y-98044000D01*
X164311000Y-98044000D01*
X164311000Y-98298000D01*
X164291000Y-98298000D01*
X164291000Y-100076000D01*
X164311000Y-100076000D01*
X164311000Y-100330000D01*
X164291000Y-100330000D01*
X164291000Y-102108000D01*
X164311000Y-102108000D01*
X164311000Y-102362000D01*
X164291000Y-102362000D01*
X164291000Y-104140000D01*
X165390250Y-104140000D01*
X165549000Y-103981250D01*
X165549000Y-103490690D01*
X165452327Y-103257301D01*
X165446026Y-103251000D01*
X165452327Y-103244699D01*
X165549000Y-103011310D01*
X165549000Y-102625905D01*
X165603805Y-102707926D01*
X166163927Y-103268048D01*
X166124673Y-103307302D01*
X166028000Y-103540691D01*
X166028000Y-103981250D01*
X166186750Y-104140000D01*
X167386000Y-104140000D01*
X167386000Y-104120000D01*
X167640000Y-104120000D01*
X167640000Y-104140000D01*
X167660000Y-104140000D01*
X167660000Y-104394000D01*
X167640000Y-104394000D01*
X167640000Y-105343250D01*
X167746680Y-105449930D01*
X167146408Y-106050202D01*
X165989000Y-106050202D01*
X165795362Y-106088719D01*
X165631204Y-106198406D01*
X165549000Y-106280610D01*
X165549000Y-106171998D01*
X165390252Y-106171998D01*
X165549000Y-106013250D01*
X165549000Y-105522690D01*
X165452327Y-105289301D01*
X165446026Y-105283000D01*
X165452327Y-105276699D01*
X165549000Y-105043310D01*
X165549000Y-104552750D01*
X166028000Y-104552750D01*
X166028000Y-104993309D01*
X166124673Y-105226698D01*
X166303301Y-105405327D01*
X166536690Y-105502000D01*
X167227250Y-105502000D01*
X167386000Y-105343250D01*
X167386000Y-104394000D01*
X166186750Y-104394000D01*
X166028000Y-104552750D01*
X165549000Y-104552750D01*
X165390250Y-104394000D01*
X164291000Y-104394000D01*
X164291000Y-106172000D01*
X164311000Y-106172000D01*
X164311000Y-106426000D01*
X164291000Y-106426000D01*
X164291000Y-106446000D01*
X164037000Y-106446000D01*
X164037000Y-106426000D01*
X164017000Y-106426000D01*
X164017000Y-106172000D01*
X164037000Y-106172000D01*
X164037000Y-104394000D01*
X164017000Y-104394000D01*
X164017000Y-104140000D01*
X164037000Y-104140000D01*
X164037000Y-102362000D01*
X164017000Y-102362000D01*
X164017000Y-102108000D01*
X164037000Y-102108000D01*
X164037000Y-100330000D01*
X164017000Y-100330000D01*
X164017000Y-100076000D01*
X164037000Y-100076000D01*
X164037000Y-98298000D01*
X164017000Y-98298000D01*
X164017000Y-98044000D01*
X164037000Y-98044000D01*
X164037000Y-96266000D01*
X162937750Y-96266000D01*
X162779000Y-96424750D01*
X162779000Y-96915310D01*
X162875673Y-97148699D01*
X162881974Y-97155000D01*
X162875673Y-97161301D01*
X162779000Y-97394690D01*
X162779000Y-97447069D01*
X162670639Y-97446975D01*
X162594458Y-97478452D01*
X162575897Y-97379810D01*
X162492454Y-97250135D01*
X162365134Y-97163141D01*
X162329003Y-97155824D01*
X162355190Y-97150897D01*
X162484865Y-97067454D01*
X162571859Y-96940134D01*
X162602464Y-96789000D01*
X162602464Y-95489000D01*
X162578697Y-95362690D01*
X162779000Y-95362690D01*
X162779000Y-95853250D01*
X162937750Y-96012000D01*
X164037000Y-96012000D01*
X164037000Y-95012750D01*
X163878250Y-94854000D01*
X163287691Y-94854000D01*
X163054302Y-94950673D01*
X162875673Y-95129301D01*
X162779000Y-95362690D01*
X162578697Y-95362690D01*
X162575897Y-95347810D01*
X162492454Y-95218135D01*
X162365134Y-95131141D01*
X162214000Y-95100536D01*
X160714000Y-95100536D01*
X160572810Y-95127103D01*
X160443135Y-95210546D01*
X160356141Y-95337866D01*
X160325536Y-95489000D01*
X160325536Y-95658000D01*
X160189247Y-95658000D01*
X160184185Y-95609226D01*
X160123195Y-95467598D01*
X160011909Y-95360857D01*
X159985000Y-95350576D01*
X159985000Y-95242000D01*
X159948386Y-95057929D01*
X159877422Y-94951724D01*
X159844119Y-94901882D01*
X159471118Y-94528882D01*
X159456989Y-94519441D01*
X159885480Y-94519815D01*
X160343088Y-94330736D01*
X160693505Y-93980930D01*
X160883383Y-93523652D01*
X160883815Y-93028520D01*
X160694736Y-92570912D01*
X160607577Y-92483601D01*
X161210113Y-92483601D01*
X161124495Y-92569070D01*
G36*
X126812748Y-93260858D02*
X126798605Y-93275000D01*
X127672805Y-94149200D01*
X127925516Y-94067259D01*
X128025772Y-93791542D01*
X128103264Y-93979088D01*
X128207110Y-94083116D01*
X128160260Y-94083075D01*
X127894100Y-94193050D01*
X127690286Y-94396508D01*
X127579847Y-94662476D01*
X127579596Y-94950461D01*
X127689571Y-95216621D01*
X127822621Y-95349904D01*
X127822621Y-97753853D01*
X127552620Y-98023854D01*
X127365633Y-98023691D01*
X127293093Y-98053664D01*
X127293093Y-97323093D01*
X127254576Y-97129455D01*
X127144889Y-96965297D01*
X125833796Y-95654204D01*
X125669638Y-95544517D01*
X125476000Y-95506000D01*
X124846753Y-95506000D01*
X124946335Y-95406592D01*
X125056774Y-95140624D01*
X125056938Y-94952298D01*
X125597947Y-94411289D01*
X125630133Y-94443475D01*
X125744801Y-94328807D01*
X125826741Y-94581516D01*
X126387030Y-94785248D01*
X126982635Y-94759058D01*
X127411259Y-94581516D01*
X127493200Y-94328805D01*
X126619000Y-93454605D01*
X126604858Y-93468748D01*
X126425253Y-93289143D01*
X126439395Y-93275000D01*
X126425253Y-93260858D01*
X126604858Y-93081253D01*
X126619000Y-93095395D01*
X126633143Y-93081253D01*
X126812748Y-93260858D01*
X126812748Y-93260858D01*
G37*
X126812748Y-93260858D02*
X126798605Y-93275000D01*
X127672805Y-94149200D01*
X127925516Y-94067259D01*
X128025772Y-93791542D01*
X128103264Y-93979088D01*
X128207110Y-94083116D01*
X128160260Y-94083075D01*
X127894100Y-94193050D01*
X127690286Y-94396508D01*
X127579847Y-94662476D01*
X127579596Y-94950461D01*
X127689571Y-95216621D01*
X127822621Y-95349904D01*
X127822621Y-97753853D01*
X127552620Y-98023854D01*
X127365633Y-98023691D01*
X127293093Y-98053664D01*
X127293093Y-97323093D01*
X127254576Y-97129455D01*
X127144889Y-96965297D01*
X125833796Y-95654204D01*
X125669638Y-95544517D01*
X125476000Y-95506000D01*
X124846753Y-95506000D01*
X124946335Y-95406592D01*
X125056774Y-95140624D01*
X125056938Y-94952298D01*
X125597947Y-94411289D01*
X125630133Y-94443475D01*
X125744801Y-94328807D01*
X125826741Y-94581516D01*
X126387030Y-94785248D01*
X126982635Y-94759058D01*
X127411259Y-94581516D01*
X127493200Y-94328805D01*
X126619000Y-93454605D01*
X126604858Y-93468748D01*
X126425253Y-93289143D01*
X126439395Y-93275000D01*
X126425253Y-93260858D01*
X126604858Y-93081253D01*
X126619000Y-93095395D01*
X126633143Y-93081253D01*
X126812748Y-93260858D01*
G36*
X152212748Y-90720858D02*
X152198605Y-90735000D01*
X153072805Y-91609200D01*
X153325516Y-91527259D01*
X153425772Y-91251542D01*
X153503264Y-91439088D01*
X153853070Y-91789505D01*
X154310348Y-91979383D01*
X154805480Y-91979815D01*
X155005554Y-91897146D01*
X155443805Y-92335397D01*
X155607963Y-92445084D01*
X155801601Y-92483601D01*
X156130113Y-92483601D01*
X156044495Y-92569070D01*
X155854617Y-93026348D01*
X155854185Y-93521480D01*
X156043264Y-93979088D01*
X156393070Y-94329505D01*
X156533942Y-94388000D01*
X155124498Y-94388000D01*
X155263088Y-94330736D01*
X155613505Y-93980930D01*
X155803383Y-93523652D01*
X155803815Y-93028520D01*
X155614736Y-92570912D01*
X155264930Y-92220495D01*
X154807652Y-92030617D01*
X154312520Y-92030185D01*
X153854912Y-92219264D01*
X153504495Y-92569070D01*
X153314617Y-93026348D01*
X153314185Y-93521480D01*
X153503264Y-93979088D01*
X153853070Y-94329505D01*
X153993942Y-94388000D01*
X152584498Y-94388000D01*
X152723088Y-94330736D01*
X153073505Y-93980930D01*
X153263383Y-93523652D01*
X153263815Y-93028520D01*
X153074736Y-92570912D01*
X152724930Y-92220495D01*
X152552261Y-92148797D01*
X152811259Y-92041516D01*
X152893200Y-91788805D01*
X152019000Y-90914605D01*
X152004858Y-90928748D01*
X151825253Y-90749143D01*
X151839395Y-90735000D01*
X151825253Y-90720858D01*
X152004858Y-90541253D01*
X152019000Y-90555395D01*
X152033143Y-90541253D01*
X152212748Y-90720858D01*
X152212748Y-90720858D01*
G37*
X152212748Y-90720858D02*
X152198605Y-90735000D01*
X153072805Y-91609200D01*
X153325516Y-91527259D01*
X153425772Y-91251542D01*
X153503264Y-91439088D01*
X153853070Y-91789505D01*
X154310348Y-91979383D01*
X154805480Y-91979815D01*
X155005554Y-91897146D01*
X155443805Y-92335397D01*
X155607963Y-92445084D01*
X155801601Y-92483601D01*
X156130113Y-92483601D01*
X156044495Y-92569070D01*
X155854617Y-93026348D01*
X155854185Y-93521480D01*
X156043264Y-93979088D01*
X156393070Y-94329505D01*
X156533942Y-94388000D01*
X155124498Y-94388000D01*
X155263088Y-94330736D01*
X155613505Y-93980930D01*
X155803383Y-93523652D01*
X155803815Y-93028520D01*
X155614736Y-92570912D01*
X155264930Y-92220495D01*
X154807652Y-92030617D01*
X154312520Y-92030185D01*
X153854912Y-92219264D01*
X153504495Y-92569070D01*
X153314617Y-93026348D01*
X153314185Y-93521480D01*
X153503264Y-93979088D01*
X153853070Y-94329505D01*
X153993942Y-94388000D01*
X152584498Y-94388000D01*
X152723088Y-94330736D01*
X153073505Y-93980930D01*
X153263383Y-93523652D01*
X153263815Y-93028520D01*
X153074736Y-92570912D01*
X152724930Y-92220495D01*
X152552261Y-92148797D01*
X152811259Y-92041516D01*
X152893200Y-91788805D01*
X152019000Y-90914605D01*
X152004858Y-90928748D01*
X151825253Y-90749143D01*
X151839395Y-90735000D01*
X151825253Y-90720858D01*
X152004858Y-90541253D01*
X152019000Y-90555395D01*
X152033143Y-90541253D01*
X152212748Y-90720858D01*
G36*
X157292748Y-90720858D02*
X157278605Y-90735000D01*
X157292748Y-90749143D01*
X157113143Y-90928748D01*
X157099000Y-90914605D01*
X157084858Y-90928748D01*
X156905253Y-90749143D01*
X156919395Y-90735000D01*
X156905253Y-90720858D01*
X157084858Y-90541253D01*
X157099000Y-90555395D01*
X157113143Y-90541253D01*
X157292748Y-90720858D01*
X157292748Y-90720858D01*
G37*
X157292748Y-90720858D02*
X157278605Y-90735000D01*
X157292748Y-90749143D01*
X157113143Y-90928748D01*
X157099000Y-90914605D01*
X157084858Y-90928748D01*
X156905253Y-90749143D01*
X156919395Y-90735000D01*
X156905253Y-90720858D01*
X157084858Y-90541253D01*
X157099000Y-90555395D01*
X157113143Y-90541253D01*
X157292748Y-90720858D01*
M02*
