%TF.GenerationSoftware,KiCad,Pcbnew,4.0.7*%
%TF.CreationDate,2018-07-08T22:20:33+02:00*%
%TF.ProjectId,Elemental-pHAT,456C656D656E74616C2D704841542E6B,rev?*%
%TF.FileFunction,Soldermask,Top*%
%FSLAX46Y46*%
G04 Gerber Fmt 4.6, Leading zero omitted, Abs format (unit mm)*
G04 Created by KiCad (PCBNEW 4.0.7) date 07/08/18 22:20:33*
%MOMM*%
%LPD*%
G01*
G04 APERTURE LIST*
%ADD10C,0.127000*%
%ADD11C,1.600000*%
%ADD12C,6.100000*%
%ADD13C,2.850000*%
%ADD14R,1.827200X1.827200*%
%ADD15C,1.827200*%
%ADD16R,1.700000X1.700000*%
%ADD17C,1.700000*%
%ADD18R,1.600000X1.400000*%
%ADD19R,1.800000X1.800000*%
%ADD20O,1.800000X1.800000*%
%ADD21R,2.000000X1.600000*%
%ADD22C,1.550000*%
%ADD23R,1.450000X0.500000*%
%ADD24O,2.000000X1.300000*%
%ADD25R,2.000000X1.300000*%
%ADD26R,1.800000X1.300000*%
%ADD27O,1.800000X1.300000*%
%ADD28R,1.400000X1.600000*%
%ADD29R,0.700000X1.600000*%
%ADD30R,0.500000X1.200000*%
G04 APERTURE END LIST*
D10*
X111125000Y-118491000D02*
X170053000Y-118491000D01*
X110617000Y-88519000D02*
X111125000Y-88519000D01*
X110617000Y-88519000D02*
G75*
G03X108077000Y-91313000I127000J-2667000D01*
G01*
X108077000Y-115443000D02*
X108077000Y-91313000D01*
X111125000Y-118491000D02*
X110871000Y-118491000D01*
X108077000Y-115443000D02*
G75*
G03X110871000Y-118491000I2921000J-127000D01*
G01*
X170053000Y-118491000D02*
G75*
G03X173101000Y-115443000I0J3048000D01*
G01*
X173101000Y-91440000D02*
X173101000Y-115443000D01*
X173101000Y-91440000D02*
G75*
G03X170180000Y-88519000I-2921000J0D01*
G01*
X111125000Y-88519000D02*
X170180000Y-88519000D01*
D11*
X154305000Y-104775000D03*
D12*
X169589000Y-92005000D03*
X169589000Y-115005000D03*
X111589000Y-92005000D03*
D13*
X111589000Y-115005000D03*
X169589000Y-92005000D03*
X111589000Y-92005000D03*
X169589000Y-115005000D03*
D14*
X116459000Y-93275000D03*
D15*
X116459000Y-90735000D03*
X118999000Y-93275000D03*
X118999000Y-90735000D03*
X121539000Y-93275000D03*
X121539000Y-90735000D03*
X124079000Y-93275000D03*
X124079000Y-90735000D03*
X126619000Y-93275000D03*
X126619000Y-90735000D03*
X129159000Y-93275000D03*
X129159000Y-90735000D03*
X131699000Y-93275000D03*
X131699000Y-90735000D03*
X134239000Y-93275000D03*
X134239000Y-90735000D03*
X136779000Y-93275000D03*
X136779000Y-90735000D03*
X139319000Y-93275000D03*
X139319000Y-90735000D03*
X141859000Y-93275000D03*
X141859000Y-90735000D03*
X144399000Y-93275000D03*
X144399000Y-90735000D03*
X146939000Y-93275000D03*
X146939000Y-90735000D03*
X149479000Y-93275000D03*
X149479000Y-90735000D03*
X152019000Y-93275000D03*
X152019000Y-90735000D03*
X154559000Y-93275000D03*
X154559000Y-90735000D03*
X157099000Y-93275000D03*
X157099000Y-90735000D03*
X159639000Y-93275000D03*
X159639000Y-90735000D03*
X162179000Y-93275000D03*
X162179000Y-90735000D03*
X164719000Y-93275000D03*
X164719000Y-90735000D03*
D12*
X111589000Y-115005000D03*
D16*
X137414000Y-99695000D03*
D17*
X133614000Y-99695000D03*
D18*
X155909000Y-96520000D03*
X153209000Y-96520000D03*
D19*
X151892000Y-110109000D03*
D20*
X151892000Y-112649000D03*
X151892000Y-115189000D03*
D19*
X134747000Y-110109000D03*
D20*
X134747000Y-112649000D03*
X134747000Y-115189000D03*
D19*
X117475000Y-110109000D03*
D20*
X117475000Y-112649000D03*
X117475000Y-115189000D03*
D19*
X154686000Y-110109000D03*
D20*
X154686000Y-112649000D03*
X154686000Y-115189000D03*
D19*
X137541000Y-110109000D03*
D20*
X137541000Y-112649000D03*
X137541000Y-115189000D03*
D19*
X120269000Y-110109000D03*
D20*
X120269000Y-112649000D03*
X120269000Y-115189000D03*
D19*
X157480000Y-110109000D03*
D20*
X157480000Y-112649000D03*
X157480000Y-115189000D03*
D19*
X140335000Y-110109000D03*
D20*
X140335000Y-112649000D03*
X140335000Y-115189000D03*
D19*
X123063000Y-110109000D03*
D20*
X123063000Y-112649000D03*
X123063000Y-115189000D03*
D21*
X109505000Y-100187000D03*
D22*
X112205000Y-96687000D03*
D23*
X112205000Y-98537000D03*
X112205000Y-97887000D03*
X112205000Y-100487000D03*
X112205000Y-99837000D03*
X112205000Y-99187000D03*
D22*
X112205000Y-101687000D03*
D21*
X109505000Y-98187000D03*
D24*
X109505000Y-95687000D03*
X109505000Y-102687000D03*
D25*
X109505000Y-102087000D03*
X109505000Y-96287000D03*
D19*
X160274000Y-110109000D03*
D20*
X160274000Y-112649000D03*
X160274000Y-115189000D03*
D19*
X143129000Y-110109000D03*
D20*
X143129000Y-112649000D03*
X143129000Y-115189000D03*
D19*
X125857000Y-110109000D03*
D20*
X125857000Y-112649000D03*
X125857000Y-115189000D03*
D19*
X114808000Y-107823000D03*
D20*
X112268000Y-107823000D03*
X109728000Y-107823000D03*
D19*
X163068000Y-110109000D03*
D20*
X163068000Y-112649000D03*
X163068000Y-115189000D03*
D19*
X145923000Y-110109000D03*
D20*
X145923000Y-112649000D03*
X145923000Y-115189000D03*
D19*
X128524000Y-110109000D03*
D20*
X128524000Y-112649000D03*
X128524000Y-115189000D03*
D11*
X127635000Y-105664000D03*
X130556000Y-105664000D03*
D19*
X114808000Y-105156000D03*
D20*
X112268000Y-105156000D03*
X109728000Y-105156000D03*
D26*
X167513000Y-104267000D03*
D27*
X167513000Y-102267000D03*
X167513000Y-100267000D03*
X167513000Y-98267000D03*
D11*
X154305000Y-101854000D03*
D18*
X155909000Y-98425000D03*
X153209000Y-98425000D03*
D28*
X151638000Y-101139000D03*
X151638000Y-103839000D03*
D29*
X120523000Y-102903000D03*
X121793000Y-102903000D03*
X123063000Y-102903000D03*
X124333000Y-102903000D03*
X125603000Y-102903000D03*
X126873000Y-102903000D03*
X128143000Y-102903000D03*
X129413000Y-102903000D03*
X129413000Y-97503000D03*
X128143000Y-97503000D03*
X126873000Y-97503000D03*
X125603000Y-97503000D03*
X124333000Y-97503000D03*
X123063000Y-97503000D03*
X121793000Y-97503000D03*
X120523000Y-97503000D03*
D30*
X141063000Y-105339000D03*
X141713000Y-105339000D03*
X142363000Y-105339000D03*
X143013000Y-105339000D03*
X143663000Y-105339000D03*
X144313000Y-105339000D03*
X144963000Y-105339000D03*
X145613000Y-105339000D03*
X146263000Y-105339000D03*
X146913000Y-105339000D03*
X147563000Y-105339000D03*
X148213000Y-105339000D03*
X148863000Y-105339000D03*
X149513000Y-105339000D03*
X149513000Y-99639000D03*
X148863000Y-99639000D03*
X148213000Y-99639000D03*
X147563000Y-99639000D03*
X146913000Y-99639000D03*
X146263000Y-99639000D03*
X145613000Y-99639000D03*
X144963000Y-99639000D03*
X144313000Y-99639000D03*
X143663000Y-99639000D03*
X143013000Y-99639000D03*
X142363000Y-99639000D03*
X141713000Y-99639000D03*
X141063000Y-99639000D03*
M02*
