%TF.GenerationSoftware,KiCad,Pcbnew,4.0.7*%
%TF.CreationDate,2018-07-08T22:20:32+02:00*%
%TF.ProjectId,Elemental-pHAT,456C656D656E74616C2D704841542E6B,rev?*%
%TF.FileFunction,Copper,L1,Top,Signal*%
%FSLAX46Y46*%
G04 Gerber Fmt 4.6, Leading zero omitted, Abs format (unit mm)*
G04 Created by KiCad (PCBNEW 4.0.7) date 07/08/18 22:20:32*
%MOMM*%
%LPD*%
G01*
G04 APERTURE LIST*
%ADD10C,0.127000*%
%ADD11C,1.500000*%
%ADD12R,1.727200X1.727200*%
%ADD13C,1.727200*%
%ADD14R,1.600000X1.600000*%
%ADD15C,1.600000*%
%ADD16R,1.500000X1.300000*%
%ADD17R,1.700000X1.700000*%
%ADD18O,1.700000X1.700000*%
%ADD19R,1.900000X1.500000*%
%ADD20C,1.450000*%
%ADD21R,1.350000X0.400000*%
%ADD22O,1.900000X1.200000*%
%ADD23R,1.900000X1.200000*%
%ADD24R,1.700000X1.200000*%
%ADD25O,1.700000X1.200000*%
%ADD26R,1.300000X1.500000*%
%ADD27R,0.600000X1.500000*%
%ADD28R,0.400000X1.100000*%
%ADD29C,0.685800*%
%ADD30C,0.254000*%
%ADD31C,0.300000*%
%ADD32C,0.200000*%
%ADD33C,0.250000*%
%ADD34C,0.400000*%
G04 APERTURE END LIST*
D10*
X111125000Y-118491000D02*
X170053000Y-118491000D01*
X110617000Y-88519000D02*
X111125000Y-88519000D01*
X110617000Y-88519000D02*
G75*
G03X108077000Y-91313000I127000J-2667000D01*
G01*
X108077000Y-115443000D02*
X108077000Y-91313000D01*
X111125000Y-118491000D02*
X110871000Y-118491000D01*
X108077000Y-115443000D02*
G75*
G03X110871000Y-118491000I2921000J-127000D01*
G01*
X170053000Y-118491000D02*
G75*
G03X173101000Y-115443000I0J3048000D01*
G01*
X173101000Y-91440000D02*
X173101000Y-115443000D01*
X173101000Y-91440000D02*
G75*
G03X170180000Y-88519000I-2921000J0D01*
G01*
X111125000Y-88519000D02*
X170180000Y-88519000D01*
D11*
X154305000Y-104775000D03*
D12*
X116459000Y-93275000D03*
D13*
X116459000Y-90735000D03*
X118999000Y-93275000D03*
X118999000Y-90735000D03*
X121539000Y-93275000D03*
X121539000Y-90735000D03*
X124079000Y-93275000D03*
X124079000Y-90735000D03*
X126619000Y-93275000D03*
X126619000Y-90735000D03*
X129159000Y-93275000D03*
X129159000Y-90735000D03*
X131699000Y-93275000D03*
X131699000Y-90735000D03*
X134239000Y-93275000D03*
X134239000Y-90735000D03*
X136779000Y-93275000D03*
X136779000Y-90735000D03*
X139319000Y-93275000D03*
X139319000Y-90735000D03*
X141859000Y-93275000D03*
X141859000Y-90735000D03*
X144399000Y-93275000D03*
X144399000Y-90735000D03*
X146939000Y-93275000D03*
X146939000Y-90735000D03*
X149479000Y-93275000D03*
X149479000Y-90735000D03*
X152019000Y-93275000D03*
X152019000Y-90735000D03*
X154559000Y-93275000D03*
X154559000Y-90735000D03*
X157099000Y-93275000D03*
X157099000Y-90735000D03*
X159639000Y-93275000D03*
X159639000Y-90735000D03*
X162179000Y-93275000D03*
X162179000Y-90735000D03*
X164719000Y-93275000D03*
X164719000Y-90735000D03*
D14*
X137414000Y-99695000D03*
D15*
X133614000Y-99695000D03*
D16*
X155909000Y-96520000D03*
X153209000Y-96520000D03*
D17*
X151892000Y-110109000D03*
D18*
X151892000Y-112649000D03*
X151892000Y-115189000D03*
D17*
X134747000Y-110109000D03*
D18*
X134747000Y-112649000D03*
X134747000Y-115189000D03*
D17*
X117475000Y-110109000D03*
D18*
X117475000Y-112649000D03*
X117475000Y-115189000D03*
D17*
X154686000Y-110109000D03*
D18*
X154686000Y-112649000D03*
X154686000Y-115189000D03*
D17*
X137541000Y-110109000D03*
D18*
X137541000Y-112649000D03*
X137541000Y-115189000D03*
D17*
X120269000Y-110109000D03*
D18*
X120269000Y-112649000D03*
X120269000Y-115189000D03*
D17*
X157480000Y-110109000D03*
D18*
X157480000Y-112649000D03*
X157480000Y-115189000D03*
D17*
X140335000Y-110109000D03*
D18*
X140335000Y-112649000D03*
X140335000Y-115189000D03*
D17*
X123063000Y-110109000D03*
D18*
X123063000Y-112649000D03*
X123063000Y-115189000D03*
D19*
X109505000Y-100187000D03*
D20*
X112205000Y-96687000D03*
D21*
X112205000Y-98537000D03*
X112205000Y-97887000D03*
X112205000Y-100487000D03*
X112205000Y-99837000D03*
X112205000Y-99187000D03*
D20*
X112205000Y-101687000D03*
D19*
X109505000Y-98187000D03*
D22*
X109505000Y-95687000D03*
X109505000Y-102687000D03*
D23*
X109505000Y-102087000D03*
X109505000Y-96287000D03*
D17*
X160274000Y-110109000D03*
D18*
X160274000Y-112649000D03*
X160274000Y-115189000D03*
D17*
X143129000Y-110109000D03*
D18*
X143129000Y-112649000D03*
X143129000Y-115189000D03*
D17*
X125857000Y-110109000D03*
D18*
X125857000Y-112649000D03*
X125857000Y-115189000D03*
D17*
X114808000Y-107823000D03*
D18*
X112268000Y-107823000D03*
X109728000Y-107823000D03*
D17*
X163068000Y-110109000D03*
D18*
X163068000Y-112649000D03*
X163068000Y-115189000D03*
D17*
X145923000Y-110109000D03*
D18*
X145923000Y-112649000D03*
X145923000Y-115189000D03*
D17*
X128524000Y-110109000D03*
D18*
X128524000Y-112649000D03*
X128524000Y-115189000D03*
D11*
X127635000Y-105664000D03*
X130556000Y-105664000D03*
D17*
X114808000Y-105156000D03*
D18*
X112268000Y-105156000D03*
X109728000Y-105156000D03*
D24*
X167513000Y-104267000D03*
D25*
X167513000Y-102267000D03*
X167513000Y-100267000D03*
X167513000Y-98267000D03*
D11*
X154305000Y-101854000D03*
D16*
X155909000Y-98425000D03*
X153209000Y-98425000D03*
D26*
X151638000Y-101139000D03*
X151638000Y-103839000D03*
D27*
X120523000Y-102903000D03*
X121793000Y-102903000D03*
X123063000Y-102903000D03*
X124333000Y-102903000D03*
X125603000Y-102903000D03*
X126873000Y-102903000D03*
X128143000Y-102903000D03*
X129413000Y-102903000D03*
X129413000Y-97503000D03*
X128143000Y-97503000D03*
X126873000Y-97503000D03*
X125603000Y-97503000D03*
X124333000Y-97503000D03*
X123063000Y-97503000D03*
X121793000Y-97503000D03*
X120523000Y-97503000D03*
D28*
X141063000Y-105339000D03*
X141713000Y-105339000D03*
X142363000Y-105339000D03*
X143013000Y-105339000D03*
X143663000Y-105339000D03*
X144313000Y-105339000D03*
X144963000Y-105339000D03*
X145613000Y-105339000D03*
X146263000Y-105339000D03*
X146913000Y-105339000D03*
X147563000Y-105339000D03*
X148213000Y-105339000D03*
X148863000Y-105339000D03*
X149513000Y-105339000D03*
X149513000Y-99639000D03*
X148863000Y-99639000D03*
X148213000Y-99639000D03*
X147563000Y-99639000D03*
X146913000Y-99639000D03*
X146263000Y-99639000D03*
X145613000Y-99639000D03*
X144963000Y-99639000D03*
X144313000Y-99639000D03*
X143663000Y-99639000D03*
X143013000Y-99639000D03*
X142363000Y-99639000D03*
X141713000Y-99639000D03*
X141063000Y-99639000D03*
D29*
X149479000Y-96139000D03*
X148209000Y-97282000D03*
X157480000Y-96520000D03*
X149225000Y-113792000D03*
X113792000Y-94742000D03*
X113030000Y-111633000D03*
X131318000Y-112141000D03*
X135382000Y-96647000D03*
X133858000Y-104013000D03*
X114681000Y-96139000D03*
X160909000Y-107950000D03*
X157607000Y-108077000D03*
X152273000Y-105537000D03*
X113919000Y-100457000D03*
X121793000Y-98933000D03*
X114554000Y-101600000D03*
X147066000Y-108204000D03*
X149225000Y-109220000D03*
X111125000Y-109728000D03*
X157099000Y-107061000D03*
X156210000Y-104521000D03*
X155321000Y-100076000D03*
X151257000Y-98044000D03*
X153797000Y-100203000D03*
X144018000Y-95504000D03*
X122874282Y-92259703D03*
X141732059Y-101143429D03*
X141761883Y-96998117D03*
X139573000Y-105537000D03*
X147955000Y-107061000D03*
X162814000Y-106299000D03*
X146685000Y-103632000D03*
X156972000Y-103886000D03*
X162814000Y-104267000D03*
X145796000Y-103124000D03*
X156972000Y-102743000D03*
X162814000Y-102235000D03*
X162814000Y-100203000D03*
X157353000Y-101092000D03*
X144653000Y-103251000D03*
X143637000Y-103759000D03*
X156464000Y-100203000D03*
X162814000Y-98171000D03*
X147574000Y-95885000D03*
X124333000Y-94996000D03*
X127508994Y-98747716D03*
X128303621Y-94807100D03*
X136779000Y-90735000D03*
X132242905Y-99404415D03*
D30*
X148209000Y-97282000D02*
X148336000Y-97282000D01*
X131318000Y-112141000D02*
X131318000Y-111887000D01*
X135382000Y-96520000D02*
X135382000Y-96647000D01*
D31*
X112205000Y-97887000D02*
X111230000Y-97887000D01*
X111230000Y-97887000D02*
X110859001Y-98257999D01*
X110859001Y-98257999D02*
X110859001Y-104024999D01*
X110859001Y-104024999D02*
X110577999Y-104306001D01*
X110577999Y-104306001D02*
X109728000Y-105156000D01*
D32*
X112205000Y-97887000D02*
X114457000Y-97887000D01*
X115189000Y-96647000D02*
X114681000Y-96139000D01*
X115189000Y-97155000D02*
X115189000Y-96647000D01*
X114457000Y-97887000D02*
X115189000Y-97155000D01*
D30*
X151638000Y-103839000D02*
X151638000Y-104902000D01*
X157734000Y-107950000D02*
X160909000Y-107950000D01*
X157607000Y-108077000D02*
X157734000Y-107950000D01*
X151638000Y-104902000D02*
X152273000Y-105537000D01*
D33*
X151638000Y-103839000D02*
X151638000Y-104839000D01*
X151638000Y-104839000D02*
X151138000Y-105339000D01*
X151138000Y-105339000D02*
X149963000Y-105339000D01*
X149963000Y-105339000D02*
X149513000Y-105339000D01*
D31*
X157099000Y-90735000D02*
X158366601Y-89467399D01*
X158366601Y-89467399D02*
X162787449Y-89467399D01*
X162787449Y-89467399D02*
X163446601Y-90126551D01*
X163446601Y-90126551D02*
X163446601Y-92002601D01*
X163446601Y-92002601D02*
X164719000Y-93275000D01*
X157099000Y-90735000D02*
X155831399Y-89467399D01*
X153229601Y-89467399D02*
X152019000Y-90678000D01*
X155831399Y-89467399D02*
X153229601Y-89467399D01*
X152019000Y-90678000D02*
X152019000Y-90735000D01*
D32*
X129413000Y-97053000D02*
X129413000Y-97503000D01*
X133614000Y-99695000D02*
X133614000Y-98563630D01*
X131603370Y-96553000D02*
X129913000Y-96553000D01*
X129913000Y-96553000D02*
X129413000Y-97053000D01*
X133614000Y-98563630D02*
X131603370Y-96553000D01*
X143013000Y-99639000D02*
X143013000Y-97652000D01*
X146939000Y-95123000D02*
X146939000Y-93275000D01*
X146685000Y-95377000D02*
X146939000Y-95123000D01*
X145288000Y-95377000D02*
X146685000Y-95377000D01*
X143013000Y-97652000D02*
X145288000Y-95377000D01*
X157099000Y-90735000D02*
X156915000Y-90735000D01*
X156915000Y-90735000D02*
X155829000Y-91821000D01*
X155829000Y-91821000D02*
X155829000Y-96440000D01*
X155829000Y-96440000D02*
X155909000Y-96520000D01*
X126619000Y-93275000D02*
X126619000Y-95377000D01*
X129413000Y-96393000D02*
X129413000Y-97503000D01*
X128524000Y-95504000D02*
X129413000Y-96393000D01*
X126746000Y-95504000D02*
X128524000Y-95504000D01*
X126619000Y-95377000D02*
X126746000Y-95504000D01*
X112205000Y-99837000D02*
X112205000Y-100487000D01*
X113889000Y-100487000D02*
X112855000Y-100487000D01*
X113919000Y-100457000D02*
X113889000Y-100487000D01*
D34*
X160274000Y-115189000D02*
X163068000Y-115189000D01*
X157480000Y-115189000D02*
X160274000Y-115189000D01*
X154686000Y-115189000D02*
X156464000Y-115189000D01*
X156464000Y-115189000D02*
X157480000Y-115189000D01*
X151892000Y-115189000D02*
X154686000Y-115189000D01*
X145923000Y-115189000D02*
X151892000Y-115189000D01*
X143129000Y-115189000D02*
X145923000Y-115189000D01*
X140335000Y-115189000D02*
X143129000Y-115189000D01*
X137541000Y-115189000D02*
X140335000Y-115189000D01*
X134747000Y-115189000D02*
X137541000Y-115189000D01*
X125857000Y-115189000D02*
X128524000Y-115189000D01*
X123063000Y-115189000D02*
X125857000Y-115189000D01*
X120269000Y-115189000D02*
X123063000Y-115189000D01*
X117475000Y-115189000D02*
X120269000Y-115189000D01*
X137414000Y-103251000D02*
X137414000Y-102489000D01*
X137414000Y-102489000D02*
X137414000Y-99695000D01*
D33*
X140843000Y-100659000D02*
X139244000Y-100659000D01*
X139244000Y-100659000D02*
X137414000Y-102489000D01*
X141063000Y-99639000D02*
X141063000Y-100439000D01*
X141063000Y-100439000D02*
X140843000Y-100659000D01*
X121793000Y-98933000D02*
X121793000Y-97503000D01*
X113578999Y-102575001D02*
X114554000Y-101600000D01*
X113578999Y-102829001D02*
X113578999Y-102575001D01*
X112268000Y-107823000D02*
X113578999Y-106512001D01*
X113578999Y-106512001D02*
X113578999Y-102829001D01*
D34*
X149546919Y-110684919D02*
X147066000Y-108204000D01*
X149546919Y-111506000D02*
X149546919Y-110684919D01*
X151892000Y-112649000D02*
X150689919Y-112649000D01*
X150689919Y-112649000D02*
X149546919Y-111506000D01*
X134239000Y-106426000D02*
X137414000Y-103251000D01*
X128524000Y-112649000D02*
X134239000Y-106934000D01*
X134239000Y-106934000D02*
X134239000Y-106426000D01*
X117475000Y-112649000D02*
X116625001Y-111799001D01*
X116625001Y-111799001D02*
X116244001Y-111799001D01*
X116244001Y-111799001D02*
X113117999Y-108672999D01*
X113117999Y-108672999D02*
X112268000Y-107823000D01*
D32*
X121793000Y-97503000D02*
X120523000Y-97503000D01*
D34*
X151892000Y-112649000D02*
X154686000Y-112649000D01*
X154686000Y-112649000D02*
X157480000Y-112649000D01*
X157480000Y-112649000D02*
X160274000Y-112649000D01*
X163068000Y-112649000D02*
X160274000Y-112649000D01*
X125857000Y-112649000D02*
X128524000Y-112649000D01*
X123063000Y-112649000D02*
X125857000Y-112649000D01*
X120269000Y-112649000D02*
X123063000Y-112649000D01*
X117475000Y-112649000D02*
X120269000Y-112649000D01*
D32*
X153209000Y-96520000D02*
X153209000Y-98425000D01*
X144313000Y-105339000D02*
X144313000Y-106258000D01*
X134747000Y-107569000D02*
X134747000Y-110109000D01*
X135890000Y-106426000D02*
X134747000Y-107569000D01*
X144145000Y-106426000D02*
X135890000Y-106426000D01*
X144313000Y-106258000D02*
X144145000Y-106426000D01*
D33*
X149565001Y-108879999D02*
X149225000Y-109220000D01*
X158836901Y-107020901D02*
X158155099Y-106339099D01*
X158155099Y-106339099D02*
X155788901Y-106339099D01*
X155788901Y-106339099D02*
X153248001Y-108879999D01*
X153248001Y-108879999D02*
X149565001Y-108879999D01*
X164211000Y-106680000D02*
X163870099Y-107020901D01*
X163870099Y-107020901D02*
X158836901Y-107020901D01*
X164211000Y-98499586D02*
X164211000Y-106680000D01*
X155909000Y-98425000D02*
X156009000Y-98425000D01*
X156009000Y-98425000D02*
X156984901Y-97449099D01*
X156984901Y-97449099D02*
X163160513Y-97449099D01*
X163160513Y-97449099D02*
X164211000Y-98499586D01*
D34*
X111125000Y-109728000D02*
X109703078Y-109728000D01*
X109703078Y-109728000D02*
X108423999Y-108448921D01*
X108423999Y-108448921D02*
X108423999Y-107197079D01*
X108423999Y-107197079D02*
X109102079Y-106518999D01*
X109102079Y-106518999D02*
X110905001Y-106518999D01*
X110905001Y-106518999D02*
X111418001Y-106005999D01*
X111418001Y-106005999D02*
X112268000Y-105156000D01*
X143129000Y-112649000D02*
X145923000Y-112649000D01*
X140335000Y-112649000D02*
X143129000Y-112649000D01*
X137541000Y-112649000D02*
X140335000Y-112649000D01*
X134747000Y-112649000D02*
X137541000Y-112649000D01*
D32*
X120523000Y-102903000D02*
X120523000Y-105029000D01*
X117983000Y-107569000D02*
X117983000Y-109601000D01*
X120523000Y-105029000D02*
X117983000Y-107569000D01*
X117983000Y-109601000D02*
X117475000Y-110109000D01*
D33*
X152019000Y-93275000D02*
X152019000Y-95885000D01*
X152019000Y-95885000D02*
X151384000Y-96520000D01*
X151257000Y-97790000D02*
X151257000Y-98044000D01*
X151384000Y-96520000D02*
X151384000Y-97663000D01*
X151384000Y-97663000D02*
X151257000Y-97790000D01*
X157099000Y-107061000D02*
X156614067Y-107061000D01*
X156614067Y-107061000D02*
X154686000Y-108989067D01*
X154686000Y-108989067D02*
X154686000Y-109009000D01*
X154686000Y-109009000D02*
X154686000Y-110109000D01*
X155742099Y-104053099D02*
X156210000Y-104521000D01*
X155321000Y-100076000D02*
X155742099Y-100497099D01*
X155742099Y-100497099D02*
X155742099Y-104053099D01*
D32*
X144963000Y-105339000D02*
X144963000Y-106497000D01*
X139319000Y-108331000D02*
X137541000Y-110109000D01*
X139319000Y-107950000D02*
X139319000Y-108331000D01*
X140335000Y-106934000D02*
X139319000Y-107950000D01*
X144526000Y-106934000D02*
X140335000Y-106934000D01*
X144963000Y-106497000D02*
X144526000Y-106934000D01*
X120269000Y-110109000D02*
X120269000Y-107188000D01*
X121793000Y-105664000D02*
X121793000Y-102903000D01*
X120269000Y-107188000D02*
X121793000Y-105664000D01*
D33*
X154559000Y-99441000D02*
X153797000Y-100203000D01*
X154559000Y-93275000D02*
X154559000Y-99441000D01*
D32*
X145613000Y-105339000D02*
X145613000Y-106609000D01*
X140335000Y-108712000D02*
X140335000Y-110109000D01*
X141605000Y-107442000D02*
X140335000Y-108712000D01*
X144780000Y-107442000D02*
X141605000Y-107442000D01*
X145613000Y-106609000D02*
X144780000Y-107442000D01*
X123063000Y-102903000D02*
X123063000Y-106553000D01*
X123063000Y-106553000D02*
X123063000Y-110109000D01*
X146263000Y-105339000D02*
X146263000Y-106848000D01*
X143256000Y-108458000D02*
X143256000Y-109982000D01*
X143764000Y-107950000D02*
X143256000Y-108458000D01*
X145161000Y-107950000D02*
X143764000Y-107950000D01*
X146263000Y-106848000D02*
X145161000Y-107950000D01*
X143256000Y-109982000D02*
X143129000Y-110109000D01*
X124333000Y-102903000D02*
X124333000Y-106680000D01*
X125857000Y-108204000D02*
X125857000Y-110109000D01*
X124333000Y-106680000D02*
X125857000Y-108204000D01*
D33*
X116459000Y-107569000D02*
X116205000Y-107823000D01*
X116205000Y-107823000D02*
X114808000Y-107823000D01*
X116459000Y-93275000D02*
X116459000Y-107569000D01*
D31*
X162179000Y-94869000D02*
X158693000Y-94869000D01*
X158693000Y-94869000D02*
X157099000Y-93275000D01*
X165227000Y-97917000D02*
X162179000Y-94869000D01*
X165227000Y-106800000D02*
X165227000Y-97917000D01*
X163068000Y-110109000D02*
X163068000Y-108959000D01*
X163068000Y-108959000D02*
X165227000Y-106800000D01*
D32*
X146913000Y-105339000D02*
X146913000Y-107087000D01*
X145923000Y-108077000D02*
X145923000Y-110109000D01*
X146913000Y-107087000D02*
X145923000Y-108077000D01*
X125603000Y-102903000D02*
X125603000Y-105664000D01*
X128524000Y-108585000D02*
X128524000Y-110109000D01*
X128143000Y-108204000D02*
X128524000Y-108585000D01*
X126746000Y-108204000D02*
X128143000Y-108204000D01*
X125222000Y-106680000D02*
X126746000Y-108204000D01*
X125222000Y-106045000D02*
X125222000Y-106680000D01*
X125603000Y-105664000D02*
X125222000Y-106045000D01*
D31*
X126873000Y-102903000D02*
X126873000Y-104902000D01*
X126873000Y-104902000D02*
X127635000Y-105664000D01*
X128143000Y-102903000D02*
X128143000Y-103505000D01*
X128143000Y-103505000D02*
X130302000Y-105664000D01*
X130302000Y-105664000D02*
X130556000Y-105664000D01*
D33*
X118999000Y-90735000D02*
X117777686Y-90735000D01*
X117777686Y-90735000D02*
X116459000Y-90735000D01*
X115824000Y-96213586D02*
X115824000Y-103040000D01*
X115824000Y-103040000D02*
X114808000Y-104056000D01*
X114808000Y-104056000D02*
X114808000Y-105156000D01*
X116459000Y-90735000D02*
X115216399Y-91977601D01*
X115216399Y-91977601D02*
X115216399Y-95605985D01*
X115216399Y-95605985D02*
X115824000Y-96213586D01*
D31*
X142363000Y-99639000D02*
X142363000Y-98789000D01*
X142508992Y-98643008D02*
X142363000Y-98789000D01*
X142508992Y-97013008D02*
X142508992Y-98643008D01*
X144018000Y-95504000D02*
X142508992Y-97013008D01*
X123126586Y-92007399D02*
X122874282Y-92259703D01*
X124687449Y-92007399D02*
X123126586Y-92007399D01*
X138046601Y-92666551D02*
X138710551Y-92002601D01*
X125351399Y-91343449D02*
X124687449Y-92007399D01*
X142363000Y-99639000D02*
X142363000Y-98655512D01*
X125351399Y-90126551D02*
X125351399Y-91343449D01*
X139473439Y-89013389D02*
X126464561Y-89013389D01*
X139927449Y-92002601D02*
X140586601Y-91343449D01*
X138710551Y-92002601D02*
X139927449Y-92002601D01*
X140586601Y-90126551D02*
X139473439Y-89013389D01*
X142363000Y-98655512D02*
X138046601Y-94339113D01*
X138046601Y-94339113D02*
X138046601Y-92666551D01*
X126464561Y-89013389D02*
X125351399Y-90126551D01*
X140586601Y-91343449D02*
X140586601Y-90126551D01*
D33*
X167513000Y-98267000D02*
X167513000Y-95758000D01*
X146841763Y-88938389D02*
X145641601Y-90138551D01*
X167513000Y-95758000D02*
X165989000Y-94234000D01*
X165989000Y-94234000D02*
X165989000Y-90165950D01*
X164761439Y-88938389D02*
X146841763Y-88938389D01*
X165989000Y-90165950D02*
X164761439Y-88938389D01*
X143101601Y-95658399D02*
X141761883Y-96998117D01*
X145641601Y-90138551D02*
X145641601Y-91331449D01*
X145641601Y-91331449D02*
X144995449Y-91977601D01*
X143101601Y-92678551D02*
X143101601Y-95658399D01*
X144995449Y-91977601D02*
X143802551Y-91977601D01*
X143802551Y-91977601D02*
X143101601Y-92678551D01*
D31*
X141713000Y-99639000D02*
X141713000Y-101124370D01*
X141713000Y-101124370D02*
X141732059Y-101143429D01*
X118999000Y-93275000D02*
X118999000Y-97756202D01*
X118999000Y-97756202D02*
X122141799Y-100899001D01*
X136209999Y-100264001D02*
X136209999Y-98571799D01*
X122141799Y-100899001D02*
X130019587Y-100899001D01*
X130019587Y-100899001D02*
X131086488Y-101965902D01*
X131086488Y-101965902D02*
X134508098Y-101965902D01*
X134508098Y-101965902D02*
X136209999Y-100264001D01*
X136209999Y-98571799D02*
X136290799Y-98490999D01*
X136290799Y-98490999D02*
X141414999Y-98490999D01*
X141713000Y-98789000D02*
X141713000Y-99639000D01*
X141414999Y-98490999D02*
X141713000Y-98789000D01*
D33*
X167513000Y-98267000D02*
X167263000Y-98267000D01*
X154305000Y-101854000D02*
X154051000Y-102108000D01*
X154051000Y-102108000D02*
X152667001Y-102108000D01*
X152667001Y-102108000D02*
X152667001Y-102192201D01*
X150684799Y-102268001D02*
X150608999Y-102192201D01*
X152667001Y-102192201D02*
X152591201Y-102268001D01*
X152591201Y-102268001D02*
X150684799Y-102268001D01*
X150608999Y-102192201D02*
X150608999Y-102108000D01*
X150608999Y-102108000D02*
X149987000Y-102108000D01*
X149987000Y-102108000D02*
X148213000Y-103882000D01*
X148213000Y-103882000D02*
X148213000Y-105339000D01*
X149150000Y-106426000D02*
X152654000Y-106426000D01*
X152654000Y-106426000D02*
X154305000Y-104775000D01*
X148863000Y-105339000D02*
X148863000Y-106139000D01*
X148863000Y-106139000D02*
X149150000Y-106426000D01*
D32*
X141063000Y-105339000D02*
X141063000Y-104741000D01*
X139573000Y-104521000D02*
X139573000Y-105537000D01*
X139827000Y-104267000D02*
X139573000Y-104521000D01*
X140589000Y-104267000D02*
X139827000Y-104267000D01*
X141063000Y-104741000D02*
X140589000Y-104267000D01*
X154305000Y-107061000D02*
X147955000Y-107061000D01*
X156083000Y-105283000D02*
X154305000Y-107061000D01*
X161798000Y-105283000D02*
X156083000Y-105283000D01*
X162814000Y-106299000D02*
X161798000Y-105283000D01*
X141713000Y-104636056D02*
X141713000Y-105339000D01*
X141224000Y-104147056D02*
X141713000Y-104636056D01*
X141224000Y-102616000D02*
X141224000Y-104147056D01*
X142113000Y-101727000D02*
X141224000Y-102616000D01*
X145415000Y-101727000D02*
X142113000Y-101727000D01*
X146558000Y-102870000D02*
X145415000Y-101727000D01*
X146558000Y-103505000D02*
X146558000Y-102870000D01*
X146685000Y-103632000D02*
X146558000Y-103505000D01*
X162433000Y-103886000D02*
X156972000Y-103886000D01*
X162814000Y-104267000D02*
X162433000Y-103886000D01*
X142363000Y-104644000D02*
X142363000Y-105339000D01*
X141859000Y-104140000D02*
X142363000Y-104644000D01*
X141859000Y-102743000D02*
X141859000Y-104140000D01*
X142367000Y-102235000D02*
X141859000Y-102743000D01*
X144907000Y-102235000D02*
X142367000Y-102235000D01*
X145796000Y-103124000D02*
X144907000Y-102235000D01*
X162306000Y-102743000D02*
X156972000Y-102743000D01*
X162814000Y-102235000D02*
X162306000Y-102743000D01*
X143013000Y-105339000D02*
X143013000Y-104405000D01*
X158242000Y-100203000D02*
X162814000Y-100203000D01*
X157353000Y-101092000D02*
X158242000Y-100203000D01*
X144145000Y-102743000D02*
X144653000Y-103251000D01*
X143002000Y-102743000D02*
X144145000Y-102743000D01*
X142621000Y-103124000D02*
X143002000Y-102743000D01*
X142621000Y-104013000D02*
X142621000Y-103124000D01*
X143013000Y-104405000D02*
X142621000Y-104013000D01*
X162814000Y-98171000D02*
X158750000Y-98171000D01*
X158750000Y-98171000D02*
X156718000Y-100203000D01*
X156718000Y-100203000D02*
X156464000Y-100203000D01*
X143663000Y-103785000D02*
X143663000Y-105339000D01*
X143637000Y-103759000D02*
X143663000Y-103785000D01*
X143663000Y-99639000D02*
X143663000Y-97644056D01*
X146939000Y-95885000D02*
X147574000Y-95885000D01*
X145422056Y-95885000D02*
X146939000Y-95885000D01*
X143663000Y-97644056D02*
X145422056Y-95885000D01*
D33*
X151638000Y-101139000D02*
X151638000Y-100139000D01*
X151638000Y-100139000D02*
X149670000Y-98171000D01*
X149670000Y-98171000D02*
X144981000Y-98171000D01*
X144981000Y-98171000D02*
X144313000Y-98839000D01*
X144313000Y-98839000D02*
X144313000Y-99639000D01*
D32*
X124333000Y-95631000D02*
X124333000Y-94996000D01*
X124333000Y-97503000D02*
X124333000Y-95631000D01*
X125603000Y-97503000D02*
X125603000Y-97953000D01*
X126397716Y-98747716D02*
X127024061Y-98747716D01*
X125603000Y-97953000D02*
X126397716Y-98747716D01*
X127024061Y-98747716D02*
X127508994Y-98747716D01*
X134447050Y-94869000D02*
X128365521Y-94869000D01*
X128365521Y-94869000D02*
X128303621Y-94807100D01*
X134239000Y-90735000D02*
X135456601Y-89517399D01*
X135456601Y-89517399D02*
X137363449Y-89517399D01*
X137363449Y-89517399D02*
X137996601Y-90150551D01*
X137996601Y-90150551D02*
X137996601Y-91319449D01*
X137363449Y-91952601D02*
X136203466Y-91952601D01*
X137996601Y-91319449D02*
X137363449Y-91952601D01*
X136203466Y-91952601D02*
X135456601Y-92699466D01*
X135456601Y-92699466D02*
X135456601Y-93859449D01*
X135456601Y-93859449D02*
X134447050Y-94869000D01*
X126873000Y-97503000D02*
X126873000Y-96273067D01*
X125296601Y-94696668D02*
X125296601Y-92795349D01*
X126034551Y-92057399D02*
X135456601Y-92057399D01*
X126873000Y-96273067D02*
X125296601Y-94696668D01*
X125296601Y-92795349D02*
X126034551Y-92057399D01*
X135456601Y-92057399D02*
X135915401Y-91598599D01*
X135915401Y-91598599D02*
X136779000Y-90735000D01*
X128143000Y-97874100D02*
X129673315Y-99404415D01*
X128143000Y-97503000D02*
X128143000Y-97874100D01*
X129673315Y-99404415D02*
X131757972Y-99404415D01*
X131757972Y-99404415D02*
X132242905Y-99404415D01*
D30*
G36*
X171164025Y-89064352D02*
X171998242Y-89621758D01*
X172555648Y-90455975D01*
X172758100Y-91473771D01*
X172758100Y-115409229D01*
X172545981Y-116475625D01*
X171961044Y-117351044D01*
X171085625Y-117935981D01*
X170019229Y-118148100D01*
X110912311Y-118148100D01*
X109910547Y-117903163D01*
X109100461Y-117309410D01*
X108579259Y-116450850D01*
X108419900Y-115416732D01*
X108419900Y-115352758D01*
X109832696Y-115352758D01*
X110099468Y-115998395D01*
X110593007Y-116492796D01*
X111238178Y-116760694D01*
X111936758Y-116761304D01*
X112582395Y-116494532D01*
X113076796Y-116000993D01*
X113265770Y-115545890D01*
X116033524Y-115545890D01*
X116203355Y-115955924D01*
X116593642Y-116384183D01*
X117118108Y-116630486D01*
X117348000Y-116509819D01*
X117348000Y-115316000D01*
X117602000Y-115316000D01*
X117602000Y-116509819D01*
X117831892Y-116630486D01*
X118356358Y-116384183D01*
X118746645Y-115955924D01*
X118872000Y-115653271D01*
X118997355Y-115955924D01*
X119387642Y-116384183D01*
X119912108Y-116630486D01*
X120142000Y-116509819D01*
X120142000Y-115316000D01*
X120396000Y-115316000D01*
X120396000Y-116509819D01*
X120625892Y-116630486D01*
X121150358Y-116384183D01*
X121540645Y-115955924D01*
X121666000Y-115653271D01*
X121791355Y-115955924D01*
X122181642Y-116384183D01*
X122706108Y-116630486D01*
X122936000Y-116509819D01*
X122936000Y-115316000D01*
X123190000Y-115316000D01*
X123190000Y-116509819D01*
X123419892Y-116630486D01*
X123944358Y-116384183D01*
X124334645Y-115955924D01*
X124460000Y-115653271D01*
X124585355Y-115955924D01*
X124975642Y-116384183D01*
X125500108Y-116630486D01*
X125730000Y-116509819D01*
X125730000Y-115316000D01*
X125984000Y-115316000D01*
X125984000Y-116509819D01*
X126213892Y-116630486D01*
X126738358Y-116384183D01*
X127128645Y-115955924D01*
X127190500Y-115806583D01*
X127252355Y-115955924D01*
X127642642Y-116384183D01*
X128167108Y-116630486D01*
X128397000Y-116509819D01*
X128397000Y-115316000D01*
X128651000Y-115316000D01*
X128651000Y-116509819D01*
X128880892Y-116630486D01*
X129405358Y-116384183D01*
X129795645Y-115955924D01*
X129965476Y-115545890D01*
X133305524Y-115545890D01*
X133475355Y-115955924D01*
X133865642Y-116384183D01*
X134390108Y-116630486D01*
X134620000Y-116509819D01*
X134620000Y-115316000D01*
X134874000Y-115316000D01*
X134874000Y-116509819D01*
X135103892Y-116630486D01*
X135628358Y-116384183D01*
X136018645Y-115955924D01*
X136144000Y-115653271D01*
X136269355Y-115955924D01*
X136659642Y-116384183D01*
X137184108Y-116630486D01*
X137414000Y-116509819D01*
X137414000Y-115316000D01*
X137668000Y-115316000D01*
X137668000Y-116509819D01*
X137897892Y-116630486D01*
X138422358Y-116384183D01*
X138812645Y-115955924D01*
X138938000Y-115653271D01*
X139063355Y-115955924D01*
X139453642Y-116384183D01*
X139978108Y-116630486D01*
X140208000Y-116509819D01*
X140208000Y-115316000D01*
X140462000Y-115316000D01*
X140462000Y-116509819D01*
X140691892Y-116630486D01*
X141216358Y-116384183D01*
X141606645Y-115955924D01*
X141732000Y-115653271D01*
X141857355Y-115955924D01*
X142247642Y-116384183D01*
X142772108Y-116630486D01*
X143002000Y-116509819D01*
X143002000Y-115316000D01*
X143256000Y-115316000D01*
X143256000Y-116509819D01*
X143485892Y-116630486D01*
X144010358Y-116384183D01*
X144400645Y-115955924D01*
X144526000Y-115653271D01*
X144651355Y-115955924D01*
X145041642Y-116384183D01*
X145566108Y-116630486D01*
X145796000Y-116509819D01*
X145796000Y-115316000D01*
X146050000Y-115316000D01*
X146050000Y-116509819D01*
X146279892Y-116630486D01*
X146804358Y-116384183D01*
X147194645Y-115955924D01*
X147364476Y-115545890D01*
X150450524Y-115545890D01*
X150620355Y-115955924D01*
X151010642Y-116384183D01*
X151535108Y-116630486D01*
X151765000Y-116509819D01*
X151765000Y-115316000D01*
X152019000Y-115316000D01*
X152019000Y-116509819D01*
X152248892Y-116630486D01*
X152773358Y-116384183D01*
X153163645Y-115955924D01*
X153289000Y-115653271D01*
X153414355Y-115955924D01*
X153804642Y-116384183D01*
X154329108Y-116630486D01*
X154559000Y-116509819D01*
X154559000Y-115316000D01*
X154813000Y-115316000D01*
X154813000Y-116509819D01*
X155042892Y-116630486D01*
X155567358Y-116384183D01*
X155957645Y-115955924D01*
X156083000Y-115653271D01*
X156208355Y-115955924D01*
X156598642Y-116384183D01*
X157123108Y-116630486D01*
X157353000Y-116509819D01*
X157353000Y-115316000D01*
X157607000Y-115316000D01*
X157607000Y-116509819D01*
X157836892Y-116630486D01*
X158361358Y-116384183D01*
X158751645Y-115955924D01*
X158877000Y-115653271D01*
X159002355Y-115955924D01*
X159392642Y-116384183D01*
X159917108Y-116630486D01*
X160147000Y-116509819D01*
X160147000Y-115316000D01*
X160401000Y-115316000D01*
X160401000Y-116509819D01*
X160630892Y-116630486D01*
X161155358Y-116384183D01*
X161545645Y-115955924D01*
X161671000Y-115653271D01*
X161796355Y-115955924D01*
X162186642Y-116384183D01*
X162711108Y-116630486D01*
X162941000Y-116509819D01*
X162941000Y-115316000D01*
X163195000Y-115316000D01*
X163195000Y-116509819D01*
X163424892Y-116630486D01*
X163949358Y-116384183D01*
X164339645Y-115955924D01*
X164509476Y-115545890D01*
X164407554Y-115352758D01*
X167832696Y-115352758D01*
X168099468Y-115998395D01*
X168593007Y-116492796D01*
X169238178Y-116760694D01*
X169936758Y-116761304D01*
X170582395Y-116494532D01*
X171076796Y-116000993D01*
X171344694Y-115355822D01*
X171345304Y-114657242D01*
X171078532Y-114011605D01*
X170584993Y-113517204D01*
X169939822Y-113249306D01*
X169241242Y-113248696D01*
X168595605Y-113515468D01*
X168101204Y-114009007D01*
X167833306Y-114654178D01*
X167832696Y-115352758D01*
X164407554Y-115352758D01*
X164388155Y-115316000D01*
X163195000Y-115316000D01*
X162941000Y-115316000D01*
X161747845Y-115316000D01*
X161671000Y-115461613D01*
X161594155Y-115316000D01*
X160401000Y-115316000D01*
X160147000Y-115316000D01*
X158953845Y-115316000D01*
X158877000Y-115461613D01*
X158800155Y-115316000D01*
X157607000Y-115316000D01*
X157353000Y-115316000D01*
X156159845Y-115316000D01*
X156083000Y-115461613D01*
X156006155Y-115316000D01*
X154813000Y-115316000D01*
X154559000Y-115316000D01*
X153365845Y-115316000D01*
X153289000Y-115461613D01*
X153212155Y-115316000D01*
X152019000Y-115316000D01*
X151765000Y-115316000D01*
X150571845Y-115316000D01*
X150450524Y-115545890D01*
X147364476Y-115545890D01*
X147243155Y-115316000D01*
X146050000Y-115316000D01*
X145796000Y-115316000D01*
X144602845Y-115316000D01*
X144526000Y-115461613D01*
X144449155Y-115316000D01*
X143256000Y-115316000D01*
X143002000Y-115316000D01*
X141808845Y-115316000D01*
X141732000Y-115461613D01*
X141655155Y-115316000D01*
X140462000Y-115316000D01*
X140208000Y-115316000D01*
X139014845Y-115316000D01*
X138938000Y-115461613D01*
X138861155Y-115316000D01*
X137668000Y-115316000D01*
X137414000Y-115316000D01*
X136220845Y-115316000D01*
X136144000Y-115461613D01*
X136067155Y-115316000D01*
X134874000Y-115316000D01*
X134620000Y-115316000D01*
X133426845Y-115316000D01*
X133305524Y-115545890D01*
X129965476Y-115545890D01*
X129844155Y-115316000D01*
X128651000Y-115316000D01*
X128397000Y-115316000D01*
X127203845Y-115316000D01*
X127190500Y-115341287D01*
X127177155Y-115316000D01*
X125984000Y-115316000D01*
X125730000Y-115316000D01*
X124536845Y-115316000D01*
X124460000Y-115461613D01*
X124383155Y-115316000D01*
X123190000Y-115316000D01*
X122936000Y-115316000D01*
X121742845Y-115316000D01*
X121666000Y-115461613D01*
X121589155Y-115316000D01*
X120396000Y-115316000D01*
X120142000Y-115316000D01*
X118948845Y-115316000D01*
X118872000Y-115461613D01*
X118795155Y-115316000D01*
X117602000Y-115316000D01*
X117348000Y-115316000D01*
X116154845Y-115316000D01*
X116033524Y-115545890D01*
X113265770Y-115545890D01*
X113344694Y-115355822D01*
X113345304Y-114657242D01*
X113078532Y-114011605D01*
X112584993Y-113517204D01*
X111939822Y-113249306D01*
X111241242Y-113248696D01*
X110595605Y-113515468D01*
X110101204Y-114009007D01*
X109833306Y-114654178D01*
X109832696Y-115352758D01*
X108419900Y-115352758D01*
X108419900Y-111776361D01*
X112305975Y-111776361D01*
X112415950Y-112042521D01*
X112619408Y-112246335D01*
X112885376Y-112356774D01*
X113173361Y-112357025D01*
X113439521Y-112247050D01*
X113643335Y-112043592D01*
X113753774Y-111777624D01*
X113754025Y-111489639D01*
X113644050Y-111223479D01*
X113440592Y-111019665D01*
X113174624Y-110909226D01*
X112886639Y-110908975D01*
X112620479Y-111018950D01*
X112416665Y-111222408D01*
X112306226Y-111488376D01*
X112305975Y-111776361D01*
X108419900Y-111776361D01*
X108419900Y-109266480D01*
X109292249Y-110138829D01*
X109480739Y-110264774D01*
X109703078Y-110309000D01*
X110682129Y-110309000D01*
X110714408Y-110341335D01*
X110980376Y-110451774D01*
X111268361Y-110452025D01*
X111534521Y-110342050D01*
X111738335Y-110138592D01*
X111848774Y-109872624D01*
X111849025Y-109584639D01*
X111739050Y-109318479D01*
X111535592Y-109114665D01*
X111269624Y-109004226D01*
X110981639Y-109003975D01*
X110715479Y-109113950D01*
X110682371Y-109147000D01*
X109943736Y-109147000D01*
X109850489Y-109053753D01*
X110199083Y-108984413D01*
X110598448Y-108717565D01*
X110865296Y-108318200D01*
X110959000Y-107847117D01*
X110959000Y-107798883D01*
X110865296Y-107327800D01*
X110713084Y-107099999D01*
X110905001Y-107099999D01*
X111127340Y-107055773D01*
X111315830Y-106929828D01*
X111906456Y-106339202D01*
X112268000Y-106411117D01*
X112739083Y-106317413D01*
X113072999Y-106094297D01*
X113072999Y-106302409D01*
X112718012Y-106657396D01*
X112268000Y-106567883D01*
X111796917Y-106661587D01*
X111397552Y-106928435D01*
X111130704Y-107327800D01*
X111037000Y-107798883D01*
X111037000Y-107847117D01*
X111130704Y-108318200D01*
X111397552Y-108717565D01*
X111796917Y-108984413D01*
X112268000Y-109078117D01*
X112629544Y-109006202D01*
X115833172Y-112209830D01*
X116021662Y-112335775D01*
X116244001Y-112380001D01*
X116273390Y-112380001D01*
X116219883Y-112649000D01*
X116313587Y-113120083D01*
X116580435Y-113519448D01*
X116979800Y-113786296D01*
X117018947Y-113794083D01*
X116593642Y-113993817D01*
X116203355Y-114422076D01*
X116033524Y-114832110D01*
X116154845Y-115062000D01*
X117348000Y-115062000D01*
X117348000Y-115042000D01*
X117602000Y-115042000D01*
X117602000Y-115062000D01*
X118795155Y-115062000D01*
X118872000Y-114916387D01*
X118948845Y-115062000D01*
X120142000Y-115062000D01*
X120142000Y-115042000D01*
X120396000Y-115042000D01*
X120396000Y-115062000D01*
X121589155Y-115062000D01*
X121666000Y-114916387D01*
X121742845Y-115062000D01*
X122936000Y-115062000D01*
X122936000Y-115042000D01*
X123190000Y-115042000D01*
X123190000Y-115062000D01*
X124383155Y-115062000D01*
X124460000Y-114916387D01*
X124536845Y-115062000D01*
X125730000Y-115062000D01*
X125730000Y-115042000D01*
X125984000Y-115042000D01*
X125984000Y-115062000D01*
X127177155Y-115062000D01*
X127190500Y-115036713D01*
X127203845Y-115062000D01*
X128397000Y-115062000D01*
X128397000Y-115042000D01*
X128651000Y-115042000D01*
X128651000Y-115062000D01*
X129844155Y-115062000D01*
X129965476Y-114832110D01*
X133305524Y-114832110D01*
X133426845Y-115062000D01*
X134620000Y-115062000D01*
X134620000Y-115042000D01*
X134874000Y-115042000D01*
X134874000Y-115062000D01*
X136067155Y-115062000D01*
X136144000Y-114916387D01*
X136220845Y-115062000D01*
X137414000Y-115062000D01*
X137414000Y-115042000D01*
X137668000Y-115042000D01*
X137668000Y-115062000D01*
X138861155Y-115062000D01*
X138938000Y-114916387D01*
X139014845Y-115062000D01*
X140208000Y-115062000D01*
X140208000Y-115042000D01*
X140462000Y-115042000D01*
X140462000Y-115062000D01*
X141655155Y-115062000D01*
X141732000Y-114916387D01*
X141808845Y-115062000D01*
X143002000Y-115062000D01*
X143002000Y-115042000D01*
X143256000Y-115042000D01*
X143256000Y-115062000D01*
X144449155Y-115062000D01*
X144526000Y-114916387D01*
X144602845Y-115062000D01*
X145796000Y-115062000D01*
X145796000Y-115042000D01*
X146050000Y-115042000D01*
X146050000Y-115062000D01*
X147243155Y-115062000D01*
X147364476Y-114832110D01*
X147194645Y-114422076D01*
X146804358Y-113993817D01*
X146679885Y-113935361D01*
X148500975Y-113935361D01*
X148610950Y-114201521D01*
X148814408Y-114405335D01*
X149080376Y-114515774D01*
X149368361Y-114516025D01*
X149634521Y-114406050D01*
X149838335Y-114202592D01*
X149948774Y-113936624D01*
X149949025Y-113648639D01*
X149839050Y-113382479D01*
X149635592Y-113178665D01*
X149369624Y-113068226D01*
X149081639Y-113067975D01*
X148815479Y-113177950D01*
X148611665Y-113381408D01*
X148501226Y-113647376D01*
X148500975Y-113935361D01*
X146679885Y-113935361D01*
X146379053Y-113794083D01*
X146418200Y-113786296D01*
X146817565Y-113519448D01*
X147084413Y-113120083D01*
X147178117Y-112649000D01*
X147084413Y-112177917D01*
X146817565Y-111778552D01*
X146418200Y-111511704D01*
X145947117Y-111418000D01*
X145898883Y-111418000D01*
X145427800Y-111511704D01*
X145028435Y-111778552D01*
X144835031Y-112068000D01*
X144216969Y-112068000D01*
X144023565Y-111778552D01*
X143624200Y-111511704D01*
X143153117Y-111418000D01*
X143104883Y-111418000D01*
X142633800Y-111511704D01*
X142234435Y-111778552D01*
X142041031Y-112068000D01*
X141422969Y-112068000D01*
X141229565Y-111778552D01*
X140830200Y-111511704D01*
X140359117Y-111418000D01*
X140310883Y-111418000D01*
X139839800Y-111511704D01*
X139440435Y-111778552D01*
X139247031Y-112068000D01*
X138628969Y-112068000D01*
X138435565Y-111778552D01*
X138036200Y-111511704D01*
X137565117Y-111418000D01*
X137516883Y-111418000D01*
X137045800Y-111511704D01*
X136646435Y-111778552D01*
X136453031Y-112068000D01*
X135834969Y-112068000D01*
X135641565Y-111778552D01*
X135242200Y-111511704D01*
X134771117Y-111418000D01*
X134722883Y-111418000D01*
X134251800Y-111511704D01*
X133852435Y-111778552D01*
X133585587Y-112177917D01*
X133491883Y-112649000D01*
X133585587Y-113120083D01*
X133852435Y-113519448D01*
X134251800Y-113786296D01*
X134290947Y-113794083D01*
X133865642Y-113993817D01*
X133475355Y-114422076D01*
X133305524Y-114832110D01*
X129965476Y-114832110D01*
X129795645Y-114422076D01*
X129405358Y-113993817D01*
X128980053Y-113794083D01*
X129019200Y-113786296D01*
X129418565Y-113519448D01*
X129685413Y-113120083D01*
X129779117Y-112649000D01*
X129707202Y-112287456D01*
X129710297Y-112284361D01*
X130593975Y-112284361D01*
X130703950Y-112550521D01*
X130907408Y-112754335D01*
X131173376Y-112864774D01*
X131461361Y-112865025D01*
X131727521Y-112755050D01*
X131931335Y-112551592D01*
X132041774Y-112285624D01*
X132042025Y-111997639D01*
X131932050Y-111731479D01*
X131728592Y-111527665D01*
X131592368Y-111471100D01*
X131512403Y-111417669D01*
X131318000Y-111379000D01*
X131123597Y-111417669D01*
X131043609Y-111471115D01*
X130908479Y-111526950D01*
X130704665Y-111730408D01*
X130594226Y-111996376D01*
X130593975Y-112284361D01*
X129710297Y-112284361D01*
X134266000Y-107728658D01*
X134266000Y-108870536D01*
X133897000Y-108870536D01*
X133755810Y-108897103D01*
X133626135Y-108980546D01*
X133539141Y-109107866D01*
X133508536Y-109259000D01*
X133508536Y-110959000D01*
X133535103Y-111100190D01*
X133618546Y-111229865D01*
X133745866Y-111316859D01*
X133897000Y-111347464D01*
X135597000Y-111347464D01*
X135738190Y-111320897D01*
X135867865Y-111237454D01*
X135954859Y-111110134D01*
X135985464Y-110959000D01*
X135985464Y-109259000D01*
X135958897Y-109117810D01*
X135875454Y-108988135D01*
X135748134Y-108901141D01*
X135597000Y-108870536D01*
X135228000Y-108870536D01*
X135228000Y-107768236D01*
X136089236Y-106907000D01*
X139681764Y-106907000D01*
X138978882Y-107609882D01*
X138874614Y-107765929D01*
X138838000Y-107950000D01*
X138838000Y-108131763D01*
X138099227Y-108870536D01*
X136691000Y-108870536D01*
X136549810Y-108897103D01*
X136420135Y-108980546D01*
X136333141Y-109107866D01*
X136302536Y-109259000D01*
X136302536Y-110959000D01*
X136329103Y-111100190D01*
X136412546Y-111229865D01*
X136539866Y-111316859D01*
X136691000Y-111347464D01*
X138391000Y-111347464D01*
X138532190Y-111320897D01*
X138661865Y-111237454D01*
X138748859Y-111110134D01*
X138779464Y-110959000D01*
X138779464Y-109550773D01*
X139102960Y-109227277D01*
X139096536Y-109259000D01*
X139096536Y-110959000D01*
X139123103Y-111100190D01*
X139206546Y-111229865D01*
X139333866Y-111316859D01*
X139485000Y-111347464D01*
X141185000Y-111347464D01*
X141326190Y-111320897D01*
X141455865Y-111237454D01*
X141542859Y-111110134D01*
X141573464Y-110959000D01*
X141573464Y-109259000D01*
X141546897Y-109117810D01*
X141463454Y-108988135D01*
X141336134Y-108901141D01*
X141185000Y-108870536D01*
X140856700Y-108870536D01*
X141804237Y-107923000D01*
X143110764Y-107923000D01*
X142915882Y-108117882D01*
X142811614Y-108273929D01*
X142775000Y-108458000D01*
X142775000Y-108870536D01*
X142279000Y-108870536D01*
X142137810Y-108897103D01*
X142008135Y-108980546D01*
X141921141Y-109107866D01*
X141890536Y-109259000D01*
X141890536Y-110959000D01*
X141917103Y-111100190D01*
X142000546Y-111229865D01*
X142127866Y-111316859D01*
X142279000Y-111347464D01*
X143979000Y-111347464D01*
X144120190Y-111320897D01*
X144249865Y-111237454D01*
X144336859Y-111110134D01*
X144367464Y-110959000D01*
X144367464Y-109259000D01*
X144340897Y-109117810D01*
X144257454Y-108988135D01*
X144130134Y-108901141D01*
X143979000Y-108870536D01*
X143737000Y-108870536D01*
X143737000Y-108657236D01*
X143963237Y-108431000D01*
X145161000Y-108431000D01*
X145345071Y-108394386D01*
X145442000Y-108329620D01*
X145442000Y-108870536D01*
X145073000Y-108870536D01*
X144931810Y-108897103D01*
X144802135Y-108980546D01*
X144715141Y-109107866D01*
X144684536Y-109259000D01*
X144684536Y-110959000D01*
X144711103Y-111100190D01*
X144794546Y-111229865D01*
X144921866Y-111316859D01*
X145073000Y-111347464D01*
X146773000Y-111347464D01*
X146914190Y-111320897D01*
X147043865Y-111237454D01*
X147130859Y-111110134D01*
X147161464Y-110959000D01*
X147161464Y-109259000D01*
X147134897Y-109117810D01*
X147092925Y-109052583D01*
X148965919Y-110925577D01*
X148965919Y-111506000D01*
X149010145Y-111728339D01*
X149136090Y-111916829D01*
X150279090Y-113059829D01*
X150467580Y-113185774D01*
X150689919Y-113230000D01*
X150804031Y-113230000D01*
X150997435Y-113519448D01*
X151396800Y-113786296D01*
X151435947Y-113794083D01*
X151010642Y-113993817D01*
X150620355Y-114422076D01*
X150450524Y-114832110D01*
X150571845Y-115062000D01*
X151765000Y-115062000D01*
X151765000Y-115042000D01*
X152019000Y-115042000D01*
X152019000Y-115062000D01*
X153212155Y-115062000D01*
X153289000Y-114916387D01*
X153365845Y-115062000D01*
X154559000Y-115062000D01*
X154559000Y-115042000D01*
X154813000Y-115042000D01*
X154813000Y-115062000D01*
X156006155Y-115062000D01*
X156083000Y-114916387D01*
X156159845Y-115062000D01*
X157353000Y-115062000D01*
X157353000Y-115042000D01*
X157607000Y-115042000D01*
X157607000Y-115062000D01*
X158800155Y-115062000D01*
X158877000Y-114916387D01*
X158953845Y-115062000D01*
X160147000Y-115062000D01*
X160147000Y-115042000D01*
X160401000Y-115042000D01*
X160401000Y-115062000D01*
X161594155Y-115062000D01*
X161671000Y-114916387D01*
X161747845Y-115062000D01*
X162941000Y-115062000D01*
X162941000Y-115042000D01*
X163195000Y-115042000D01*
X163195000Y-115062000D01*
X164388155Y-115062000D01*
X164509476Y-114832110D01*
X164339645Y-114422076D01*
X163949358Y-113993817D01*
X163524053Y-113794083D01*
X163563200Y-113786296D01*
X163962565Y-113519448D01*
X164229413Y-113120083D01*
X164323117Y-112649000D01*
X164229413Y-112177917D01*
X163962565Y-111778552D01*
X163563200Y-111511704D01*
X163092117Y-111418000D01*
X163043883Y-111418000D01*
X162572800Y-111511704D01*
X162173435Y-111778552D01*
X161980031Y-112068000D01*
X161361969Y-112068000D01*
X161168565Y-111778552D01*
X160769200Y-111511704D01*
X160298117Y-111418000D01*
X160249883Y-111418000D01*
X159778800Y-111511704D01*
X159379435Y-111778552D01*
X159186031Y-112068000D01*
X158567969Y-112068000D01*
X158374565Y-111778552D01*
X157975200Y-111511704D01*
X157504117Y-111418000D01*
X157455883Y-111418000D01*
X156984800Y-111511704D01*
X156585435Y-111778552D01*
X156392031Y-112068000D01*
X155773969Y-112068000D01*
X155580565Y-111778552D01*
X155181200Y-111511704D01*
X154710117Y-111418000D01*
X154661883Y-111418000D01*
X154190800Y-111511704D01*
X153791435Y-111778552D01*
X153598031Y-112068000D01*
X152979969Y-112068000D01*
X152786565Y-111778552D01*
X152387200Y-111511704D01*
X151916117Y-111418000D01*
X151867883Y-111418000D01*
X151396800Y-111511704D01*
X150997435Y-111778552D01*
X150854719Y-111992142D01*
X150127919Y-111265342D01*
X150127919Y-110684919D01*
X150083693Y-110462580D01*
X149957748Y-110274090D01*
X149551862Y-109868204D01*
X149634521Y-109834050D01*
X149838335Y-109630592D01*
X149939898Y-109385999D01*
X150653536Y-109385999D01*
X150653536Y-110959000D01*
X150680103Y-111100190D01*
X150763546Y-111229865D01*
X150890866Y-111316859D01*
X151042000Y-111347464D01*
X152742000Y-111347464D01*
X152883190Y-111320897D01*
X153012865Y-111237454D01*
X153099859Y-111110134D01*
X153130464Y-110959000D01*
X153130464Y-109385999D01*
X153248001Y-109385999D01*
X153441639Y-109347482D01*
X153447536Y-109343542D01*
X153447536Y-110959000D01*
X153474103Y-111100190D01*
X153557546Y-111229865D01*
X153684866Y-111316859D01*
X153836000Y-111347464D01*
X155536000Y-111347464D01*
X155677190Y-111320897D01*
X155806865Y-111237454D01*
X155893859Y-111110134D01*
X155924464Y-110959000D01*
X155924464Y-109259000D01*
X156241536Y-109259000D01*
X156241536Y-110959000D01*
X156268103Y-111100190D01*
X156351546Y-111229865D01*
X156478866Y-111316859D01*
X156630000Y-111347464D01*
X158330000Y-111347464D01*
X158471190Y-111320897D01*
X158600865Y-111237454D01*
X158687859Y-111110134D01*
X158718464Y-110959000D01*
X158718464Y-109259000D01*
X159035536Y-109259000D01*
X159035536Y-110959000D01*
X159062103Y-111100190D01*
X159145546Y-111229865D01*
X159272866Y-111316859D01*
X159424000Y-111347464D01*
X161124000Y-111347464D01*
X161265190Y-111320897D01*
X161394865Y-111237454D01*
X161481859Y-111110134D01*
X161512464Y-110959000D01*
X161512464Y-109259000D01*
X161485897Y-109117810D01*
X161402454Y-108988135D01*
X161275134Y-108901141D01*
X161124000Y-108870536D01*
X159424000Y-108870536D01*
X159282810Y-108897103D01*
X159153135Y-108980546D01*
X159066141Y-109107866D01*
X159035536Y-109259000D01*
X158718464Y-109259000D01*
X158691897Y-109117810D01*
X158608454Y-108988135D01*
X158481134Y-108901141D01*
X158330000Y-108870536D01*
X156630000Y-108870536D01*
X156488810Y-108897103D01*
X156359135Y-108980546D01*
X156272141Y-109107866D01*
X156241536Y-109259000D01*
X155924464Y-109259000D01*
X155897897Y-109117810D01*
X155814454Y-108988135D01*
X155687134Y-108901141D01*
X155536000Y-108870536D01*
X155520123Y-108870536D01*
X156708133Y-107682526D01*
X156954376Y-107784774D01*
X157242361Y-107785025D01*
X157508521Y-107675050D01*
X157712335Y-107471592D01*
X157822774Y-107205624D01*
X157823025Y-106917639D01*
X157793052Y-106845099D01*
X157945507Y-106845099D01*
X158479105Y-107378697D01*
X158643263Y-107488384D01*
X158836901Y-107526901D01*
X163749151Y-107526901D01*
X162692526Y-108583526D01*
X162577420Y-108755795D01*
X162554597Y-108870536D01*
X162218000Y-108870536D01*
X162076810Y-108897103D01*
X161947135Y-108980546D01*
X161860141Y-109107866D01*
X161829536Y-109259000D01*
X161829536Y-110959000D01*
X161856103Y-111100190D01*
X161939546Y-111229865D01*
X162066866Y-111316859D01*
X162218000Y-111347464D01*
X163918000Y-111347464D01*
X164059190Y-111320897D01*
X164188865Y-111237454D01*
X164275859Y-111110134D01*
X164306464Y-110959000D01*
X164306464Y-109259000D01*
X164279897Y-109117810D01*
X164196454Y-108988135D01*
X164069134Y-108901141D01*
X163918000Y-108870536D01*
X163907412Y-108870536D01*
X165602474Y-107175474D01*
X165717580Y-107003205D01*
X165758000Y-106800000D01*
X165758000Y-104552750D01*
X166028000Y-104552750D01*
X166028000Y-104993309D01*
X166124673Y-105226698D01*
X166303301Y-105405327D01*
X166536690Y-105502000D01*
X167227250Y-105502000D01*
X167386000Y-105343250D01*
X167386000Y-104394000D01*
X167640000Y-104394000D01*
X167640000Y-105343250D01*
X167798750Y-105502000D01*
X168489310Y-105502000D01*
X168722699Y-105405327D01*
X168901327Y-105226698D01*
X168998000Y-104993309D01*
X168998000Y-104552750D01*
X168839250Y-104394000D01*
X167640000Y-104394000D01*
X167386000Y-104394000D01*
X166186750Y-104394000D01*
X166028000Y-104552750D01*
X165758000Y-104552750D01*
X165758000Y-103540691D01*
X166028000Y-103540691D01*
X166028000Y-103981250D01*
X166186750Y-104140000D01*
X167386000Y-104140000D01*
X167386000Y-104120000D01*
X167640000Y-104120000D01*
X167640000Y-104140000D01*
X168839250Y-104140000D01*
X168998000Y-103981250D01*
X168998000Y-103540691D01*
X168901327Y-103307302D01*
X168722699Y-103128673D01*
X168489310Y-103032000D01*
X168374039Y-103032000D01*
X168480789Y-102960672D01*
X168693443Y-102642412D01*
X168768117Y-102267000D01*
X168693443Y-101891588D01*
X168480789Y-101573328D01*
X168162529Y-101360674D01*
X167787117Y-101286000D01*
X167238883Y-101286000D01*
X166863471Y-101360674D01*
X166545211Y-101573328D01*
X166332557Y-101891588D01*
X166257883Y-102267000D01*
X166332557Y-102642412D01*
X166545211Y-102960672D01*
X166651961Y-103032000D01*
X166536690Y-103032000D01*
X166303301Y-103128673D01*
X166124673Y-103307302D01*
X166028000Y-103540691D01*
X165758000Y-103540691D01*
X165758000Y-100267000D01*
X166257883Y-100267000D01*
X166332557Y-100642412D01*
X166545211Y-100960672D01*
X166863471Y-101173326D01*
X167238883Y-101248000D01*
X167787117Y-101248000D01*
X168162529Y-101173326D01*
X168480789Y-100960672D01*
X168693443Y-100642412D01*
X168768117Y-100267000D01*
X168693443Y-99891588D01*
X168480789Y-99573328D01*
X168162529Y-99360674D01*
X167787117Y-99286000D01*
X167238883Y-99286000D01*
X166863471Y-99360674D01*
X166545211Y-99573328D01*
X166332557Y-99891588D01*
X166257883Y-100267000D01*
X165758000Y-100267000D01*
X165758000Y-97917000D01*
X165717580Y-97713795D01*
X165602474Y-97541526D01*
X162554474Y-94493526D01*
X162529496Y-94476837D01*
X162883088Y-94330736D01*
X163233505Y-93980930D01*
X163305203Y-93808261D01*
X163412484Y-94067259D01*
X163665195Y-94149200D01*
X164539395Y-93275000D01*
X163665195Y-92400800D01*
X163412484Y-92482741D01*
X163312228Y-92758458D01*
X163234736Y-92570912D01*
X162884930Y-92220495D01*
X162427652Y-92030617D01*
X161932520Y-92030185D01*
X161474912Y-92219264D01*
X161124495Y-92569070D01*
X160934617Y-93026348D01*
X160934185Y-93521480D01*
X161123264Y-93979088D01*
X161473070Y-94329505D01*
X161493528Y-94338000D01*
X160325508Y-94338000D01*
X160343088Y-94330736D01*
X160693505Y-93980930D01*
X160883383Y-93523652D01*
X160883815Y-93028520D01*
X160694736Y-92570912D01*
X160344930Y-92220495D01*
X159887652Y-92030617D01*
X159392520Y-92030185D01*
X158934912Y-92219264D01*
X158584495Y-92569070D01*
X158394617Y-93026348D01*
X158394185Y-93521480D01*
X158583264Y-93979088D01*
X158933070Y-94329505D01*
X158953528Y-94338000D01*
X158912947Y-94338000D01*
X158271563Y-93696615D01*
X158343383Y-93523652D01*
X158343815Y-93028520D01*
X158154736Y-92570912D01*
X157804930Y-92220495D01*
X157632261Y-92148797D01*
X157891259Y-92041516D01*
X157973200Y-91788805D01*
X157099000Y-90914605D01*
X156224800Y-91788805D01*
X156306741Y-92041516D01*
X156582458Y-92141772D01*
X156394912Y-92219264D01*
X156044495Y-92569070D01*
X155854617Y-93026348D01*
X155854185Y-93521480D01*
X156043264Y-93979088D01*
X156393070Y-94329505D01*
X156850348Y-94519383D01*
X157345480Y-94519815D01*
X157520536Y-94447484D01*
X158317524Y-95244471D01*
X158317526Y-95244474D01*
X158483442Y-95355335D01*
X158489795Y-95359580D01*
X158693000Y-95400000D01*
X161959052Y-95400000D01*
X164696000Y-98136948D01*
X164696000Y-98394012D01*
X164678483Y-98305948D01*
X164568796Y-98141790D01*
X163518309Y-97091303D01*
X163354151Y-96981616D01*
X163160513Y-96943099D01*
X158080806Y-96943099D01*
X158093335Y-96930592D01*
X158203774Y-96664624D01*
X158204025Y-96376639D01*
X158094050Y-96110479D01*
X157890592Y-95906665D01*
X157624624Y-95796226D01*
X157336639Y-95795975D01*
X157294000Y-95813593D01*
X157294000Y-95743690D01*
X157197327Y-95510301D01*
X157018698Y-95331673D01*
X156785309Y-95235000D01*
X156194750Y-95235000D01*
X156036000Y-95393750D01*
X156036000Y-96393000D01*
X156056000Y-96393000D01*
X156056000Y-96647000D01*
X156036000Y-96647000D01*
X156036000Y-96667000D01*
X155782000Y-96667000D01*
X155782000Y-96647000D01*
X155762000Y-96647000D01*
X155762000Y-96393000D01*
X155782000Y-96393000D01*
X155782000Y-95393750D01*
X155623250Y-95235000D01*
X155065000Y-95235000D01*
X155065000Y-94412584D01*
X155263088Y-94330736D01*
X155613505Y-93980930D01*
X155803383Y-93523652D01*
X155803815Y-93028520D01*
X155614736Y-92570912D01*
X155264930Y-92220495D01*
X154807652Y-92030617D01*
X154312520Y-92030185D01*
X153854912Y-92219264D01*
X153504495Y-92569070D01*
X153314617Y-93026348D01*
X153314185Y-93521480D01*
X153503264Y-93979088D01*
X153853070Y-94329505D01*
X154053000Y-94412523D01*
X154053000Y-95500571D01*
X153959000Y-95481536D01*
X152525000Y-95481536D01*
X152525000Y-94412584D01*
X152723088Y-94330736D01*
X153073505Y-93980930D01*
X153263383Y-93523652D01*
X153263815Y-93028520D01*
X153074736Y-92570912D01*
X152724930Y-92220495D01*
X152552261Y-92148797D01*
X152811259Y-92041516D01*
X152893200Y-91788805D01*
X152019000Y-90914605D01*
X151144800Y-91788805D01*
X151226741Y-92041516D01*
X151502458Y-92141772D01*
X151314912Y-92219264D01*
X150964495Y-92569070D01*
X150774617Y-93026348D01*
X150774185Y-93521480D01*
X150963264Y-93979088D01*
X151313070Y-94329505D01*
X151513000Y-94412523D01*
X151513000Y-95675408D01*
X151026204Y-96162204D01*
X150916517Y-96326362D01*
X150878000Y-96520000D01*
X150878000Y-97417339D01*
X150847479Y-97429950D01*
X150643665Y-97633408D01*
X150533226Y-97899376D01*
X150532975Y-98187361D01*
X150625232Y-98410640D01*
X150027796Y-97813204D01*
X149863638Y-97703517D01*
X149670000Y-97665000D01*
X148833792Y-97665000D01*
X148932774Y-97426624D01*
X148933025Y-97138639D01*
X148823050Y-96872479D01*
X148619592Y-96668665D01*
X148353624Y-96558226D01*
X148065639Y-96557975D01*
X147799479Y-96667950D01*
X147595665Y-96871408D01*
X147485226Y-97137376D01*
X147484975Y-97425361D01*
X147583992Y-97665000D01*
X144981000Y-97665000D01*
X144787362Y-97703517D01*
X144659802Y-97788750D01*
X144623204Y-97813204D01*
X144144000Y-98292408D01*
X144144000Y-97843292D01*
X145621292Y-96366000D01*
X147031304Y-96366000D01*
X147163408Y-96498335D01*
X147429376Y-96608774D01*
X147717361Y-96609025D01*
X147983521Y-96499050D01*
X148187335Y-96295592D01*
X148192828Y-96282361D01*
X148754975Y-96282361D01*
X148864950Y-96548521D01*
X149068408Y-96752335D01*
X149334376Y-96862774D01*
X149622361Y-96863025D01*
X149888521Y-96753050D01*
X150092335Y-96549592D01*
X150202774Y-96283624D01*
X150203025Y-95995639D01*
X150093050Y-95729479D01*
X149889592Y-95525665D01*
X149623624Y-95415226D01*
X149335639Y-95414975D01*
X149069479Y-95524950D01*
X148865665Y-95728408D01*
X148755226Y-95994376D01*
X148754975Y-96282361D01*
X148192828Y-96282361D01*
X148297774Y-96029624D01*
X148298025Y-95741639D01*
X148188050Y-95475479D01*
X147984592Y-95271665D01*
X147718624Y-95161226D01*
X147430639Y-95160975D01*
X147164479Y-95270950D01*
X147031196Y-95404000D01*
X145422056Y-95404000D01*
X145237985Y-95440614D01*
X145133692Y-95510301D01*
X145081938Y-95544882D01*
X143322882Y-97303938D01*
X143218614Y-97459985D01*
X143182000Y-97644056D01*
X143182000Y-98543750D01*
X143140002Y-98585748D01*
X143140002Y-98454000D01*
X143039992Y-98454000D01*
X143039992Y-97232956D01*
X144045024Y-96227924D01*
X144161361Y-96228025D01*
X144427521Y-96118050D01*
X144631335Y-95914592D01*
X144741774Y-95648624D01*
X144742025Y-95360639D01*
X144632050Y-95094479D01*
X144428592Y-94890665D01*
X144162624Y-94780226D01*
X143874639Y-94779975D01*
X143608479Y-94889950D01*
X143607601Y-94890826D01*
X143607601Y-94243887D01*
X143693070Y-94329505D01*
X144150348Y-94519383D01*
X144645480Y-94519815D01*
X145103088Y-94330736D01*
X145105022Y-94328805D01*
X146064800Y-94328805D01*
X146146741Y-94581516D01*
X146707030Y-94785248D01*
X147302635Y-94759058D01*
X147731259Y-94581516D01*
X147813200Y-94328805D01*
X146939000Y-93454605D01*
X146064800Y-94328805D01*
X145105022Y-94328805D01*
X145453505Y-93980930D01*
X145525203Y-93808261D01*
X145632484Y-94067259D01*
X145885195Y-94149200D01*
X146759395Y-93275000D01*
X147118605Y-93275000D01*
X147992805Y-94149200D01*
X148245516Y-94067259D01*
X148345772Y-93791542D01*
X148423264Y-93979088D01*
X148773070Y-94329505D01*
X149230348Y-94519383D01*
X149725480Y-94519815D01*
X150183088Y-94330736D01*
X150533505Y-93980930D01*
X150723383Y-93523652D01*
X150723815Y-93028520D01*
X150534736Y-92570912D01*
X150184930Y-92220495D01*
X149727652Y-92030617D01*
X149232520Y-92030185D01*
X148774912Y-92219264D01*
X148424495Y-92569070D01*
X148352797Y-92741739D01*
X148245516Y-92482741D01*
X147992805Y-92400800D01*
X147118605Y-93275000D01*
X146759395Y-93275000D01*
X145885195Y-92400800D01*
X145632484Y-92482741D01*
X145532228Y-92758458D01*
X145454736Y-92570912D01*
X145273094Y-92388952D01*
X145353245Y-92335397D01*
X145999397Y-91689245D01*
X146052961Y-91609081D01*
X146233070Y-91789505D01*
X146405739Y-91861203D01*
X146146741Y-91968484D01*
X146064800Y-92221195D01*
X146939000Y-93095395D01*
X147813200Y-92221195D01*
X147731259Y-91968484D01*
X147455542Y-91868228D01*
X147643088Y-91790736D01*
X147993505Y-91440930D01*
X148183383Y-90983652D01*
X148183384Y-90981480D01*
X148234185Y-90981480D01*
X148423264Y-91439088D01*
X148773070Y-91789505D01*
X149230348Y-91979383D01*
X149725480Y-91979815D01*
X150183088Y-91790736D01*
X150533505Y-91440930D01*
X150605203Y-91268261D01*
X150712484Y-91527259D01*
X150965195Y-91609200D01*
X151839395Y-90735000D01*
X152198605Y-90735000D01*
X153072805Y-91609200D01*
X153325516Y-91527259D01*
X153425772Y-91251542D01*
X153503264Y-91439088D01*
X153853070Y-91789505D01*
X154310348Y-91979383D01*
X154805480Y-91979815D01*
X155263088Y-91790736D01*
X155613505Y-91440930D01*
X155685203Y-91268261D01*
X155792484Y-91527259D01*
X156045195Y-91609200D01*
X156919395Y-90735000D01*
X157278605Y-90735000D01*
X158152805Y-91609200D01*
X158405516Y-91527259D01*
X158505772Y-91251542D01*
X158583264Y-91439088D01*
X158933070Y-91789505D01*
X159390348Y-91979383D01*
X159885480Y-91979815D01*
X160343088Y-91790736D01*
X160693505Y-91440930D01*
X160883383Y-90983652D01*
X160883384Y-90981480D01*
X160934185Y-90981480D01*
X161123264Y-91439088D01*
X161473070Y-91789505D01*
X161930348Y-91979383D01*
X162425480Y-91979815D01*
X162883088Y-91790736D01*
X163233505Y-91440930D01*
X163423383Y-90983652D01*
X163423815Y-90488520D01*
X163234736Y-90030912D01*
X162884930Y-89680495D01*
X162427652Y-89490617D01*
X161932520Y-89490185D01*
X161474912Y-89679264D01*
X161124495Y-90029070D01*
X160934617Y-90486348D01*
X160934185Y-90981480D01*
X160883384Y-90981480D01*
X160883815Y-90488520D01*
X160694736Y-90030912D01*
X160344930Y-89680495D01*
X159887652Y-89490617D01*
X159392520Y-89490185D01*
X158934912Y-89679264D01*
X158584495Y-90029070D01*
X158512797Y-90201739D01*
X158405516Y-89942741D01*
X158152805Y-89860800D01*
X157278605Y-90735000D01*
X156919395Y-90735000D01*
X156045195Y-89860800D01*
X155792484Y-89942741D01*
X155692228Y-90218458D01*
X155614736Y-90030912D01*
X155264930Y-89680495D01*
X154807652Y-89490617D01*
X154312520Y-89490185D01*
X153854912Y-89679264D01*
X153504495Y-90029070D01*
X153432797Y-90201739D01*
X153325516Y-89942741D01*
X153072805Y-89860800D01*
X152198605Y-90735000D01*
X151839395Y-90735000D01*
X150965195Y-89860800D01*
X150712484Y-89942741D01*
X150612228Y-90218458D01*
X150534736Y-90030912D01*
X150184930Y-89680495D01*
X149727652Y-89490617D01*
X149232520Y-89490185D01*
X148774912Y-89679264D01*
X148424495Y-90029070D01*
X148234617Y-90486348D01*
X148234185Y-90981480D01*
X148183384Y-90981480D01*
X148183815Y-90488520D01*
X147994736Y-90030912D01*
X147644930Y-89680495D01*
X147187652Y-89490617D01*
X147005286Y-89490458D01*
X147051355Y-89444389D01*
X151221584Y-89444389D01*
X151144800Y-89681195D01*
X152019000Y-90555395D01*
X152893200Y-89681195D01*
X152816416Y-89444389D01*
X156301584Y-89444389D01*
X156224800Y-89681195D01*
X157099000Y-90555395D01*
X157973200Y-89681195D01*
X157896416Y-89444389D01*
X164551847Y-89444389D01*
X164597752Y-89490294D01*
X164472520Y-89490185D01*
X164014912Y-89679264D01*
X163664495Y-90029070D01*
X163474617Y-90486348D01*
X163474185Y-90981480D01*
X163663264Y-91439088D01*
X164013070Y-91789505D01*
X164185739Y-91861203D01*
X163926741Y-91968484D01*
X163844800Y-92221195D01*
X164719000Y-93095395D01*
X164733143Y-93081253D01*
X164912748Y-93260858D01*
X164898605Y-93275000D01*
X164912748Y-93289143D01*
X164733143Y-93468748D01*
X164719000Y-93454605D01*
X163844800Y-94328805D01*
X163926741Y-94581516D01*
X164487030Y-94785248D01*
X165082635Y-94759058D01*
X165511259Y-94581516D01*
X165548203Y-94467577D01*
X165631204Y-94591796D01*
X167007000Y-95967592D01*
X167007000Y-97332124D01*
X166863471Y-97360674D01*
X166545211Y-97573328D01*
X166332557Y-97891588D01*
X166257883Y-98267000D01*
X166332557Y-98642412D01*
X166545211Y-98960672D01*
X166863471Y-99173326D01*
X167238883Y-99248000D01*
X167787117Y-99248000D01*
X168162529Y-99173326D01*
X168480789Y-98960672D01*
X168693443Y-98642412D01*
X168768117Y-98267000D01*
X168693443Y-97891588D01*
X168480789Y-97573328D01*
X168162529Y-97360674D01*
X168019000Y-97332124D01*
X168019000Y-95758000D01*
X167980483Y-95564362D01*
X167870796Y-95400204D01*
X166495000Y-94024408D01*
X166495000Y-92352758D01*
X167832696Y-92352758D01*
X168099468Y-92998395D01*
X168593007Y-93492796D01*
X169238178Y-93760694D01*
X169936758Y-93761304D01*
X170582395Y-93494532D01*
X171076796Y-93000993D01*
X171344694Y-92355822D01*
X171345304Y-91657242D01*
X171078532Y-91011605D01*
X170584993Y-90517204D01*
X169939822Y-90249306D01*
X169241242Y-90248696D01*
X168595605Y-90515468D01*
X168101204Y-91009007D01*
X167833306Y-91654178D01*
X167832696Y-92352758D01*
X166495000Y-92352758D01*
X166495000Y-90165950D01*
X166456483Y-89972312D01*
X166346796Y-89808154D01*
X165400542Y-88861900D01*
X170146228Y-88861900D01*
X171164025Y-89064352D01*
X171164025Y-89064352D01*
G37*
X171164025Y-89064352D02*
X171998242Y-89621758D01*
X172555648Y-90455975D01*
X172758100Y-91473771D01*
X172758100Y-115409229D01*
X172545981Y-116475625D01*
X171961044Y-117351044D01*
X171085625Y-117935981D01*
X170019229Y-118148100D01*
X110912311Y-118148100D01*
X109910547Y-117903163D01*
X109100461Y-117309410D01*
X108579259Y-116450850D01*
X108419900Y-115416732D01*
X108419900Y-115352758D01*
X109832696Y-115352758D01*
X110099468Y-115998395D01*
X110593007Y-116492796D01*
X111238178Y-116760694D01*
X111936758Y-116761304D01*
X112582395Y-116494532D01*
X113076796Y-116000993D01*
X113265770Y-115545890D01*
X116033524Y-115545890D01*
X116203355Y-115955924D01*
X116593642Y-116384183D01*
X117118108Y-116630486D01*
X117348000Y-116509819D01*
X117348000Y-115316000D01*
X117602000Y-115316000D01*
X117602000Y-116509819D01*
X117831892Y-116630486D01*
X118356358Y-116384183D01*
X118746645Y-115955924D01*
X118872000Y-115653271D01*
X118997355Y-115955924D01*
X119387642Y-116384183D01*
X119912108Y-116630486D01*
X120142000Y-116509819D01*
X120142000Y-115316000D01*
X120396000Y-115316000D01*
X120396000Y-116509819D01*
X120625892Y-116630486D01*
X121150358Y-116384183D01*
X121540645Y-115955924D01*
X121666000Y-115653271D01*
X121791355Y-115955924D01*
X122181642Y-116384183D01*
X122706108Y-116630486D01*
X122936000Y-116509819D01*
X122936000Y-115316000D01*
X123190000Y-115316000D01*
X123190000Y-116509819D01*
X123419892Y-116630486D01*
X123944358Y-116384183D01*
X124334645Y-115955924D01*
X124460000Y-115653271D01*
X124585355Y-115955924D01*
X124975642Y-116384183D01*
X125500108Y-116630486D01*
X125730000Y-116509819D01*
X125730000Y-115316000D01*
X125984000Y-115316000D01*
X125984000Y-116509819D01*
X126213892Y-116630486D01*
X126738358Y-116384183D01*
X127128645Y-115955924D01*
X127190500Y-115806583D01*
X127252355Y-115955924D01*
X127642642Y-116384183D01*
X128167108Y-116630486D01*
X128397000Y-116509819D01*
X128397000Y-115316000D01*
X128651000Y-115316000D01*
X128651000Y-116509819D01*
X128880892Y-116630486D01*
X129405358Y-116384183D01*
X129795645Y-115955924D01*
X129965476Y-115545890D01*
X133305524Y-115545890D01*
X133475355Y-115955924D01*
X133865642Y-116384183D01*
X134390108Y-116630486D01*
X134620000Y-116509819D01*
X134620000Y-115316000D01*
X134874000Y-115316000D01*
X134874000Y-116509819D01*
X135103892Y-116630486D01*
X135628358Y-116384183D01*
X136018645Y-115955924D01*
X136144000Y-115653271D01*
X136269355Y-115955924D01*
X136659642Y-116384183D01*
X137184108Y-116630486D01*
X137414000Y-116509819D01*
X137414000Y-115316000D01*
X137668000Y-115316000D01*
X137668000Y-116509819D01*
X137897892Y-116630486D01*
X138422358Y-116384183D01*
X138812645Y-115955924D01*
X138938000Y-115653271D01*
X139063355Y-115955924D01*
X139453642Y-116384183D01*
X139978108Y-116630486D01*
X140208000Y-116509819D01*
X140208000Y-115316000D01*
X140462000Y-115316000D01*
X140462000Y-116509819D01*
X140691892Y-116630486D01*
X141216358Y-116384183D01*
X141606645Y-115955924D01*
X141732000Y-115653271D01*
X141857355Y-115955924D01*
X142247642Y-116384183D01*
X142772108Y-116630486D01*
X143002000Y-116509819D01*
X143002000Y-115316000D01*
X143256000Y-115316000D01*
X143256000Y-116509819D01*
X143485892Y-116630486D01*
X144010358Y-116384183D01*
X144400645Y-115955924D01*
X144526000Y-115653271D01*
X144651355Y-115955924D01*
X145041642Y-116384183D01*
X145566108Y-116630486D01*
X145796000Y-116509819D01*
X145796000Y-115316000D01*
X146050000Y-115316000D01*
X146050000Y-116509819D01*
X146279892Y-116630486D01*
X146804358Y-116384183D01*
X147194645Y-115955924D01*
X147364476Y-115545890D01*
X150450524Y-115545890D01*
X150620355Y-115955924D01*
X151010642Y-116384183D01*
X151535108Y-116630486D01*
X151765000Y-116509819D01*
X151765000Y-115316000D01*
X152019000Y-115316000D01*
X152019000Y-116509819D01*
X152248892Y-116630486D01*
X152773358Y-116384183D01*
X153163645Y-115955924D01*
X153289000Y-115653271D01*
X153414355Y-115955924D01*
X153804642Y-116384183D01*
X154329108Y-116630486D01*
X154559000Y-116509819D01*
X154559000Y-115316000D01*
X154813000Y-115316000D01*
X154813000Y-116509819D01*
X155042892Y-116630486D01*
X155567358Y-116384183D01*
X155957645Y-115955924D01*
X156083000Y-115653271D01*
X156208355Y-115955924D01*
X156598642Y-116384183D01*
X157123108Y-116630486D01*
X157353000Y-116509819D01*
X157353000Y-115316000D01*
X157607000Y-115316000D01*
X157607000Y-116509819D01*
X157836892Y-116630486D01*
X158361358Y-116384183D01*
X158751645Y-115955924D01*
X158877000Y-115653271D01*
X159002355Y-115955924D01*
X159392642Y-116384183D01*
X159917108Y-116630486D01*
X160147000Y-116509819D01*
X160147000Y-115316000D01*
X160401000Y-115316000D01*
X160401000Y-116509819D01*
X160630892Y-116630486D01*
X161155358Y-116384183D01*
X161545645Y-115955924D01*
X161671000Y-115653271D01*
X161796355Y-115955924D01*
X162186642Y-116384183D01*
X162711108Y-116630486D01*
X162941000Y-116509819D01*
X162941000Y-115316000D01*
X163195000Y-115316000D01*
X163195000Y-116509819D01*
X163424892Y-116630486D01*
X163949358Y-116384183D01*
X164339645Y-115955924D01*
X164509476Y-115545890D01*
X164407554Y-115352758D01*
X167832696Y-115352758D01*
X168099468Y-115998395D01*
X168593007Y-116492796D01*
X169238178Y-116760694D01*
X169936758Y-116761304D01*
X170582395Y-116494532D01*
X171076796Y-116000993D01*
X171344694Y-115355822D01*
X171345304Y-114657242D01*
X171078532Y-114011605D01*
X170584993Y-113517204D01*
X169939822Y-113249306D01*
X169241242Y-113248696D01*
X168595605Y-113515468D01*
X168101204Y-114009007D01*
X167833306Y-114654178D01*
X167832696Y-115352758D01*
X164407554Y-115352758D01*
X164388155Y-115316000D01*
X163195000Y-115316000D01*
X162941000Y-115316000D01*
X161747845Y-115316000D01*
X161671000Y-115461613D01*
X161594155Y-115316000D01*
X160401000Y-115316000D01*
X160147000Y-115316000D01*
X158953845Y-115316000D01*
X158877000Y-115461613D01*
X158800155Y-115316000D01*
X157607000Y-115316000D01*
X157353000Y-115316000D01*
X156159845Y-115316000D01*
X156083000Y-115461613D01*
X156006155Y-115316000D01*
X154813000Y-115316000D01*
X154559000Y-115316000D01*
X153365845Y-115316000D01*
X153289000Y-115461613D01*
X153212155Y-115316000D01*
X152019000Y-115316000D01*
X151765000Y-115316000D01*
X150571845Y-115316000D01*
X150450524Y-115545890D01*
X147364476Y-115545890D01*
X147243155Y-115316000D01*
X146050000Y-115316000D01*
X145796000Y-115316000D01*
X144602845Y-115316000D01*
X144526000Y-115461613D01*
X144449155Y-115316000D01*
X143256000Y-115316000D01*
X143002000Y-115316000D01*
X141808845Y-115316000D01*
X141732000Y-115461613D01*
X141655155Y-115316000D01*
X140462000Y-115316000D01*
X140208000Y-115316000D01*
X139014845Y-115316000D01*
X138938000Y-115461613D01*
X138861155Y-115316000D01*
X137668000Y-115316000D01*
X137414000Y-115316000D01*
X136220845Y-115316000D01*
X136144000Y-115461613D01*
X136067155Y-115316000D01*
X134874000Y-115316000D01*
X134620000Y-115316000D01*
X133426845Y-115316000D01*
X133305524Y-115545890D01*
X129965476Y-115545890D01*
X129844155Y-115316000D01*
X128651000Y-115316000D01*
X128397000Y-115316000D01*
X127203845Y-115316000D01*
X127190500Y-115341287D01*
X127177155Y-115316000D01*
X125984000Y-115316000D01*
X125730000Y-115316000D01*
X124536845Y-115316000D01*
X124460000Y-115461613D01*
X124383155Y-115316000D01*
X123190000Y-115316000D01*
X122936000Y-115316000D01*
X121742845Y-115316000D01*
X121666000Y-115461613D01*
X121589155Y-115316000D01*
X120396000Y-115316000D01*
X120142000Y-115316000D01*
X118948845Y-115316000D01*
X118872000Y-115461613D01*
X118795155Y-115316000D01*
X117602000Y-115316000D01*
X117348000Y-115316000D01*
X116154845Y-115316000D01*
X116033524Y-115545890D01*
X113265770Y-115545890D01*
X113344694Y-115355822D01*
X113345304Y-114657242D01*
X113078532Y-114011605D01*
X112584993Y-113517204D01*
X111939822Y-113249306D01*
X111241242Y-113248696D01*
X110595605Y-113515468D01*
X110101204Y-114009007D01*
X109833306Y-114654178D01*
X109832696Y-115352758D01*
X108419900Y-115352758D01*
X108419900Y-111776361D01*
X112305975Y-111776361D01*
X112415950Y-112042521D01*
X112619408Y-112246335D01*
X112885376Y-112356774D01*
X113173361Y-112357025D01*
X113439521Y-112247050D01*
X113643335Y-112043592D01*
X113753774Y-111777624D01*
X113754025Y-111489639D01*
X113644050Y-111223479D01*
X113440592Y-111019665D01*
X113174624Y-110909226D01*
X112886639Y-110908975D01*
X112620479Y-111018950D01*
X112416665Y-111222408D01*
X112306226Y-111488376D01*
X112305975Y-111776361D01*
X108419900Y-111776361D01*
X108419900Y-109266480D01*
X109292249Y-110138829D01*
X109480739Y-110264774D01*
X109703078Y-110309000D01*
X110682129Y-110309000D01*
X110714408Y-110341335D01*
X110980376Y-110451774D01*
X111268361Y-110452025D01*
X111534521Y-110342050D01*
X111738335Y-110138592D01*
X111848774Y-109872624D01*
X111849025Y-109584639D01*
X111739050Y-109318479D01*
X111535592Y-109114665D01*
X111269624Y-109004226D01*
X110981639Y-109003975D01*
X110715479Y-109113950D01*
X110682371Y-109147000D01*
X109943736Y-109147000D01*
X109850489Y-109053753D01*
X110199083Y-108984413D01*
X110598448Y-108717565D01*
X110865296Y-108318200D01*
X110959000Y-107847117D01*
X110959000Y-107798883D01*
X110865296Y-107327800D01*
X110713084Y-107099999D01*
X110905001Y-107099999D01*
X111127340Y-107055773D01*
X111315830Y-106929828D01*
X111906456Y-106339202D01*
X112268000Y-106411117D01*
X112739083Y-106317413D01*
X113072999Y-106094297D01*
X113072999Y-106302409D01*
X112718012Y-106657396D01*
X112268000Y-106567883D01*
X111796917Y-106661587D01*
X111397552Y-106928435D01*
X111130704Y-107327800D01*
X111037000Y-107798883D01*
X111037000Y-107847117D01*
X111130704Y-108318200D01*
X111397552Y-108717565D01*
X111796917Y-108984413D01*
X112268000Y-109078117D01*
X112629544Y-109006202D01*
X115833172Y-112209830D01*
X116021662Y-112335775D01*
X116244001Y-112380001D01*
X116273390Y-112380001D01*
X116219883Y-112649000D01*
X116313587Y-113120083D01*
X116580435Y-113519448D01*
X116979800Y-113786296D01*
X117018947Y-113794083D01*
X116593642Y-113993817D01*
X116203355Y-114422076D01*
X116033524Y-114832110D01*
X116154845Y-115062000D01*
X117348000Y-115062000D01*
X117348000Y-115042000D01*
X117602000Y-115042000D01*
X117602000Y-115062000D01*
X118795155Y-115062000D01*
X118872000Y-114916387D01*
X118948845Y-115062000D01*
X120142000Y-115062000D01*
X120142000Y-115042000D01*
X120396000Y-115042000D01*
X120396000Y-115062000D01*
X121589155Y-115062000D01*
X121666000Y-114916387D01*
X121742845Y-115062000D01*
X122936000Y-115062000D01*
X122936000Y-115042000D01*
X123190000Y-115042000D01*
X123190000Y-115062000D01*
X124383155Y-115062000D01*
X124460000Y-114916387D01*
X124536845Y-115062000D01*
X125730000Y-115062000D01*
X125730000Y-115042000D01*
X125984000Y-115042000D01*
X125984000Y-115062000D01*
X127177155Y-115062000D01*
X127190500Y-115036713D01*
X127203845Y-115062000D01*
X128397000Y-115062000D01*
X128397000Y-115042000D01*
X128651000Y-115042000D01*
X128651000Y-115062000D01*
X129844155Y-115062000D01*
X129965476Y-114832110D01*
X133305524Y-114832110D01*
X133426845Y-115062000D01*
X134620000Y-115062000D01*
X134620000Y-115042000D01*
X134874000Y-115042000D01*
X134874000Y-115062000D01*
X136067155Y-115062000D01*
X136144000Y-114916387D01*
X136220845Y-115062000D01*
X137414000Y-115062000D01*
X137414000Y-115042000D01*
X137668000Y-115042000D01*
X137668000Y-115062000D01*
X138861155Y-115062000D01*
X138938000Y-114916387D01*
X139014845Y-115062000D01*
X140208000Y-115062000D01*
X140208000Y-115042000D01*
X140462000Y-115042000D01*
X140462000Y-115062000D01*
X141655155Y-115062000D01*
X141732000Y-114916387D01*
X141808845Y-115062000D01*
X143002000Y-115062000D01*
X143002000Y-115042000D01*
X143256000Y-115042000D01*
X143256000Y-115062000D01*
X144449155Y-115062000D01*
X144526000Y-114916387D01*
X144602845Y-115062000D01*
X145796000Y-115062000D01*
X145796000Y-115042000D01*
X146050000Y-115042000D01*
X146050000Y-115062000D01*
X147243155Y-115062000D01*
X147364476Y-114832110D01*
X147194645Y-114422076D01*
X146804358Y-113993817D01*
X146679885Y-113935361D01*
X148500975Y-113935361D01*
X148610950Y-114201521D01*
X148814408Y-114405335D01*
X149080376Y-114515774D01*
X149368361Y-114516025D01*
X149634521Y-114406050D01*
X149838335Y-114202592D01*
X149948774Y-113936624D01*
X149949025Y-113648639D01*
X149839050Y-113382479D01*
X149635592Y-113178665D01*
X149369624Y-113068226D01*
X149081639Y-113067975D01*
X148815479Y-113177950D01*
X148611665Y-113381408D01*
X148501226Y-113647376D01*
X148500975Y-113935361D01*
X146679885Y-113935361D01*
X146379053Y-113794083D01*
X146418200Y-113786296D01*
X146817565Y-113519448D01*
X147084413Y-113120083D01*
X147178117Y-112649000D01*
X147084413Y-112177917D01*
X146817565Y-111778552D01*
X146418200Y-111511704D01*
X145947117Y-111418000D01*
X145898883Y-111418000D01*
X145427800Y-111511704D01*
X145028435Y-111778552D01*
X144835031Y-112068000D01*
X144216969Y-112068000D01*
X144023565Y-111778552D01*
X143624200Y-111511704D01*
X143153117Y-111418000D01*
X143104883Y-111418000D01*
X142633800Y-111511704D01*
X142234435Y-111778552D01*
X142041031Y-112068000D01*
X141422969Y-112068000D01*
X141229565Y-111778552D01*
X140830200Y-111511704D01*
X140359117Y-111418000D01*
X140310883Y-111418000D01*
X139839800Y-111511704D01*
X139440435Y-111778552D01*
X139247031Y-112068000D01*
X138628969Y-112068000D01*
X138435565Y-111778552D01*
X138036200Y-111511704D01*
X137565117Y-111418000D01*
X137516883Y-111418000D01*
X137045800Y-111511704D01*
X136646435Y-111778552D01*
X136453031Y-112068000D01*
X135834969Y-112068000D01*
X135641565Y-111778552D01*
X135242200Y-111511704D01*
X134771117Y-111418000D01*
X134722883Y-111418000D01*
X134251800Y-111511704D01*
X133852435Y-111778552D01*
X133585587Y-112177917D01*
X133491883Y-112649000D01*
X133585587Y-113120083D01*
X133852435Y-113519448D01*
X134251800Y-113786296D01*
X134290947Y-113794083D01*
X133865642Y-113993817D01*
X133475355Y-114422076D01*
X133305524Y-114832110D01*
X129965476Y-114832110D01*
X129795645Y-114422076D01*
X129405358Y-113993817D01*
X128980053Y-113794083D01*
X129019200Y-113786296D01*
X129418565Y-113519448D01*
X129685413Y-113120083D01*
X129779117Y-112649000D01*
X129707202Y-112287456D01*
X129710297Y-112284361D01*
X130593975Y-112284361D01*
X130703950Y-112550521D01*
X130907408Y-112754335D01*
X131173376Y-112864774D01*
X131461361Y-112865025D01*
X131727521Y-112755050D01*
X131931335Y-112551592D01*
X132041774Y-112285624D01*
X132042025Y-111997639D01*
X131932050Y-111731479D01*
X131728592Y-111527665D01*
X131592368Y-111471100D01*
X131512403Y-111417669D01*
X131318000Y-111379000D01*
X131123597Y-111417669D01*
X131043609Y-111471115D01*
X130908479Y-111526950D01*
X130704665Y-111730408D01*
X130594226Y-111996376D01*
X130593975Y-112284361D01*
X129710297Y-112284361D01*
X134266000Y-107728658D01*
X134266000Y-108870536D01*
X133897000Y-108870536D01*
X133755810Y-108897103D01*
X133626135Y-108980546D01*
X133539141Y-109107866D01*
X133508536Y-109259000D01*
X133508536Y-110959000D01*
X133535103Y-111100190D01*
X133618546Y-111229865D01*
X133745866Y-111316859D01*
X133897000Y-111347464D01*
X135597000Y-111347464D01*
X135738190Y-111320897D01*
X135867865Y-111237454D01*
X135954859Y-111110134D01*
X135985464Y-110959000D01*
X135985464Y-109259000D01*
X135958897Y-109117810D01*
X135875454Y-108988135D01*
X135748134Y-108901141D01*
X135597000Y-108870536D01*
X135228000Y-108870536D01*
X135228000Y-107768236D01*
X136089236Y-106907000D01*
X139681764Y-106907000D01*
X138978882Y-107609882D01*
X138874614Y-107765929D01*
X138838000Y-107950000D01*
X138838000Y-108131763D01*
X138099227Y-108870536D01*
X136691000Y-108870536D01*
X136549810Y-108897103D01*
X136420135Y-108980546D01*
X136333141Y-109107866D01*
X136302536Y-109259000D01*
X136302536Y-110959000D01*
X136329103Y-111100190D01*
X136412546Y-111229865D01*
X136539866Y-111316859D01*
X136691000Y-111347464D01*
X138391000Y-111347464D01*
X138532190Y-111320897D01*
X138661865Y-111237454D01*
X138748859Y-111110134D01*
X138779464Y-110959000D01*
X138779464Y-109550773D01*
X139102960Y-109227277D01*
X139096536Y-109259000D01*
X139096536Y-110959000D01*
X139123103Y-111100190D01*
X139206546Y-111229865D01*
X139333866Y-111316859D01*
X139485000Y-111347464D01*
X141185000Y-111347464D01*
X141326190Y-111320897D01*
X141455865Y-111237454D01*
X141542859Y-111110134D01*
X141573464Y-110959000D01*
X141573464Y-109259000D01*
X141546897Y-109117810D01*
X141463454Y-108988135D01*
X141336134Y-108901141D01*
X141185000Y-108870536D01*
X140856700Y-108870536D01*
X141804237Y-107923000D01*
X143110764Y-107923000D01*
X142915882Y-108117882D01*
X142811614Y-108273929D01*
X142775000Y-108458000D01*
X142775000Y-108870536D01*
X142279000Y-108870536D01*
X142137810Y-108897103D01*
X142008135Y-108980546D01*
X141921141Y-109107866D01*
X141890536Y-109259000D01*
X141890536Y-110959000D01*
X141917103Y-111100190D01*
X142000546Y-111229865D01*
X142127866Y-111316859D01*
X142279000Y-111347464D01*
X143979000Y-111347464D01*
X144120190Y-111320897D01*
X144249865Y-111237454D01*
X144336859Y-111110134D01*
X144367464Y-110959000D01*
X144367464Y-109259000D01*
X144340897Y-109117810D01*
X144257454Y-108988135D01*
X144130134Y-108901141D01*
X143979000Y-108870536D01*
X143737000Y-108870536D01*
X143737000Y-108657236D01*
X143963237Y-108431000D01*
X145161000Y-108431000D01*
X145345071Y-108394386D01*
X145442000Y-108329620D01*
X145442000Y-108870536D01*
X145073000Y-108870536D01*
X144931810Y-108897103D01*
X144802135Y-108980546D01*
X144715141Y-109107866D01*
X144684536Y-109259000D01*
X144684536Y-110959000D01*
X144711103Y-111100190D01*
X144794546Y-111229865D01*
X144921866Y-111316859D01*
X145073000Y-111347464D01*
X146773000Y-111347464D01*
X146914190Y-111320897D01*
X147043865Y-111237454D01*
X147130859Y-111110134D01*
X147161464Y-110959000D01*
X147161464Y-109259000D01*
X147134897Y-109117810D01*
X147092925Y-109052583D01*
X148965919Y-110925577D01*
X148965919Y-111506000D01*
X149010145Y-111728339D01*
X149136090Y-111916829D01*
X150279090Y-113059829D01*
X150467580Y-113185774D01*
X150689919Y-113230000D01*
X150804031Y-113230000D01*
X150997435Y-113519448D01*
X151396800Y-113786296D01*
X151435947Y-113794083D01*
X151010642Y-113993817D01*
X150620355Y-114422076D01*
X150450524Y-114832110D01*
X150571845Y-115062000D01*
X151765000Y-115062000D01*
X151765000Y-115042000D01*
X152019000Y-115042000D01*
X152019000Y-115062000D01*
X153212155Y-115062000D01*
X153289000Y-114916387D01*
X153365845Y-115062000D01*
X154559000Y-115062000D01*
X154559000Y-115042000D01*
X154813000Y-115042000D01*
X154813000Y-115062000D01*
X156006155Y-115062000D01*
X156083000Y-114916387D01*
X156159845Y-115062000D01*
X157353000Y-115062000D01*
X157353000Y-115042000D01*
X157607000Y-115042000D01*
X157607000Y-115062000D01*
X158800155Y-115062000D01*
X158877000Y-114916387D01*
X158953845Y-115062000D01*
X160147000Y-115062000D01*
X160147000Y-115042000D01*
X160401000Y-115042000D01*
X160401000Y-115062000D01*
X161594155Y-115062000D01*
X161671000Y-114916387D01*
X161747845Y-115062000D01*
X162941000Y-115062000D01*
X162941000Y-115042000D01*
X163195000Y-115042000D01*
X163195000Y-115062000D01*
X164388155Y-115062000D01*
X164509476Y-114832110D01*
X164339645Y-114422076D01*
X163949358Y-113993817D01*
X163524053Y-113794083D01*
X163563200Y-113786296D01*
X163962565Y-113519448D01*
X164229413Y-113120083D01*
X164323117Y-112649000D01*
X164229413Y-112177917D01*
X163962565Y-111778552D01*
X163563200Y-111511704D01*
X163092117Y-111418000D01*
X163043883Y-111418000D01*
X162572800Y-111511704D01*
X162173435Y-111778552D01*
X161980031Y-112068000D01*
X161361969Y-112068000D01*
X161168565Y-111778552D01*
X160769200Y-111511704D01*
X160298117Y-111418000D01*
X160249883Y-111418000D01*
X159778800Y-111511704D01*
X159379435Y-111778552D01*
X159186031Y-112068000D01*
X158567969Y-112068000D01*
X158374565Y-111778552D01*
X157975200Y-111511704D01*
X157504117Y-111418000D01*
X157455883Y-111418000D01*
X156984800Y-111511704D01*
X156585435Y-111778552D01*
X156392031Y-112068000D01*
X155773969Y-112068000D01*
X155580565Y-111778552D01*
X155181200Y-111511704D01*
X154710117Y-111418000D01*
X154661883Y-111418000D01*
X154190800Y-111511704D01*
X153791435Y-111778552D01*
X153598031Y-112068000D01*
X152979969Y-112068000D01*
X152786565Y-111778552D01*
X152387200Y-111511704D01*
X151916117Y-111418000D01*
X151867883Y-111418000D01*
X151396800Y-111511704D01*
X150997435Y-111778552D01*
X150854719Y-111992142D01*
X150127919Y-111265342D01*
X150127919Y-110684919D01*
X150083693Y-110462580D01*
X149957748Y-110274090D01*
X149551862Y-109868204D01*
X149634521Y-109834050D01*
X149838335Y-109630592D01*
X149939898Y-109385999D01*
X150653536Y-109385999D01*
X150653536Y-110959000D01*
X150680103Y-111100190D01*
X150763546Y-111229865D01*
X150890866Y-111316859D01*
X151042000Y-111347464D01*
X152742000Y-111347464D01*
X152883190Y-111320897D01*
X153012865Y-111237454D01*
X153099859Y-111110134D01*
X153130464Y-110959000D01*
X153130464Y-109385999D01*
X153248001Y-109385999D01*
X153441639Y-109347482D01*
X153447536Y-109343542D01*
X153447536Y-110959000D01*
X153474103Y-111100190D01*
X153557546Y-111229865D01*
X153684866Y-111316859D01*
X153836000Y-111347464D01*
X155536000Y-111347464D01*
X155677190Y-111320897D01*
X155806865Y-111237454D01*
X155893859Y-111110134D01*
X155924464Y-110959000D01*
X155924464Y-109259000D01*
X156241536Y-109259000D01*
X156241536Y-110959000D01*
X156268103Y-111100190D01*
X156351546Y-111229865D01*
X156478866Y-111316859D01*
X156630000Y-111347464D01*
X158330000Y-111347464D01*
X158471190Y-111320897D01*
X158600865Y-111237454D01*
X158687859Y-111110134D01*
X158718464Y-110959000D01*
X158718464Y-109259000D01*
X159035536Y-109259000D01*
X159035536Y-110959000D01*
X159062103Y-111100190D01*
X159145546Y-111229865D01*
X159272866Y-111316859D01*
X159424000Y-111347464D01*
X161124000Y-111347464D01*
X161265190Y-111320897D01*
X161394865Y-111237454D01*
X161481859Y-111110134D01*
X161512464Y-110959000D01*
X161512464Y-109259000D01*
X161485897Y-109117810D01*
X161402454Y-108988135D01*
X161275134Y-108901141D01*
X161124000Y-108870536D01*
X159424000Y-108870536D01*
X159282810Y-108897103D01*
X159153135Y-108980546D01*
X159066141Y-109107866D01*
X159035536Y-109259000D01*
X158718464Y-109259000D01*
X158691897Y-109117810D01*
X158608454Y-108988135D01*
X158481134Y-108901141D01*
X158330000Y-108870536D01*
X156630000Y-108870536D01*
X156488810Y-108897103D01*
X156359135Y-108980546D01*
X156272141Y-109107866D01*
X156241536Y-109259000D01*
X155924464Y-109259000D01*
X155897897Y-109117810D01*
X155814454Y-108988135D01*
X155687134Y-108901141D01*
X155536000Y-108870536D01*
X155520123Y-108870536D01*
X156708133Y-107682526D01*
X156954376Y-107784774D01*
X157242361Y-107785025D01*
X157508521Y-107675050D01*
X157712335Y-107471592D01*
X157822774Y-107205624D01*
X157823025Y-106917639D01*
X157793052Y-106845099D01*
X157945507Y-106845099D01*
X158479105Y-107378697D01*
X158643263Y-107488384D01*
X158836901Y-107526901D01*
X163749151Y-107526901D01*
X162692526Y-108583526D01*
X162577420Y-108755795D01*
X162554597Y-108870536D01*
X162218000Y-108870536D01*
X162076810Y-108897103D01*
X161947135Y-108980546D01*
X161860141Y-109107866D01*
X161829536Y-109259000D01*
X161829536Y-110959000D01*
X161856103Y-111100190D01*
X161939546Y-111229865D01*
X162066866Y-111316859D01*
X162218000Y-111347464D01*
X163918000Y-111347464D01*
X164059190Y-111320897D01*
X164188865Y-111237454D01*
X164275859Y-111110134D01*
X164306464Y-110959000D01*
X164306464Y-109259000D01*
X164279897Y-109117810D01*
X164196454Y-108988135D01*
X164069134Y-108901141D01*
X163918000Y-108870536D01*
X163907412Y-108870536D01*
X165602474Y-107175474D01*
X165717580Y-107003205D01*
X165758000Y-106800000D01*
X165758000Y-104552750D01*
X166028000Y-104552750D01*
X166028000Y-104993309D01*
X166124673Y-105226698D01*
X166303301Y-105405327D01*
X166536690Y-105502000D01*
X167227250Y-105502000D01*
X167386000Y-105343250D01*
X167386000Y-104394000D01*
X167640000Y-104394000D01*
X167640000Y-105343250D01*
X167798750Y-105502000D01*
X168489310Y-105502000D01*
X168722699Y-105405327D01*
X168901327Y-105226698D01*
X168998000Y-104993309D01*
X168998000Y-104552750D01*
X168839250Y-104394000D01*
X167640000Y-104394000D01*
X167386000Y-104394000D01*
X166186750Y-104394000D01*
X166028000Y-104552750D01*
X165758000Y-104552750D01*
X165758000Y-103540691D01*
X166028000Y-103540691D01*
X166028000Y-103981250D01*
X166186750Y-104140000D01*
X167386000Y-104140000D01*
X167386000Y-104120000D01*
X167640000Y-104120000D01*
X167640000Y-104140000D01*
X168839250Y-104140000D01*
X168998000Y-103981250D01*
X168998000Y-103540691D01*
X168901327Y-103307302D01*
X168722699Y-103128673D01*
X168489310Y-103032000D01*
X168374039Y-103032000D01*
X168480789Y-102960672D01*
X168693443Y-102642412D01*
X168768117Y-102267000D01*
X168693443Y-101891588D01*
X168480789Y-101573328D01*
X168162529Y-101360674D01*
X167787117Y-101286000D01*
X167238883Y-101286000D01*
X166863471Y-101360674D01*
X166545211Y-101573328D01*
X166332557Y-101891588D01*
X166257883Y-102267000D01*
X166332557Y-102642412D01*
X166545211Y-102960672D01*
X166651961Y-103032000D01*
X166536690Y-103032000D01*
X166303301Y-103128673D01*
X166124673Y-103307302D01*
X166028000Y-103540691D01*
X165758000Y-103540691D01*
X165758000Y-100267000D01*
X166257883Y-100267000D01*
X166332557Y-100642412D01*
X166545211Y-100960672D01*
X166863471Y-101173326D01*
X167238883Y-101248000D01*
X167787117Y-101248000D01*
X168162529Y-101173326D01*
X168480789Y-100960672D01*
X168693443Y-100642412D01*
X168768117Y-100267000D01*
X168693443Y-99891588D01*
X168480789Y-99573328D01*
X168162529Y-99360674D01*
X167787117Y-99286000D01*
X167238883Y-99286000D01*
X166863471Y-99360674D01*
X166545211Y-99573328D01*
X166332557Y-99891588D01*
X166257883Y-100267000D01*
X165758000Y-100267000D01*
X165758000Y-97917000D01*
X165717580Y-97713795D01*
X165602474Y-97541526D01*
X162554474Y-94493526D01*
X162529496Y-94476837D01*
X162883088Y-94330736D01*
X163233505Y-93980930D01*
X163305203Y-93808261D01*
X163412484Y-94067259D01*
X163665195Y-94149200D01*
X164539395Y-93275000D01*
X163665195Y-92400800D01*
X163412484Y-92482741D01*
X163312228Y-92758458D01*
X163234736Y-92570912D01*
X162884930Y-92220495D01*
X162427652Y-92030617D01*
X161932520Y-92030185D01*
X161474912Y-92219264D01*
X161124495Y-92569070D01*
X160934617Y-93026348D01*
X160934185Y-93521480D01*
X161123264Y-93979088D01*
X161473070Y-94329505D01*
X161493528Y-94338000D01*
X160325508Y-94338000D01*
X160343088Y-94330736D01*
X160693505Y-93980930D01*
X160883383Y-93523652D01*
X160883815Y-93028520D01*
X160694736Y-92570912D01*
X160344930Y-92220495D01*
X159887652Y-92030617D01*
X159392520Y-92030185D01*
X158934912Y-92219264D01*
X158584495Y-92569070D01*
X158394617Y-93026348D01*
X158394185Y-93521480D01*
X158583264Y-93979088D01*
X158933070Y-94329505D01*
X158953528Y-94338000D01*
X158912947Y-94338000D01*
X158271563Y-93696615D01*
X158343383Y-93523652D01*
X158343815Y-93028520D01*
X158154736Y-92570912D01*
X157804930Y-92220495D01*
X157632261Y-92148797D01*
X157891259Y-92041516D01*
X157973200Y-91788805D01*
X157099000Y-90914605D01*
X156224800Y-91788805D01*
X156306741Y-92041516D01*
X156582458Y-92141772D01*
X156394912Y-92219264D01*
X156044495Y-92569070D01*
X155854617Y-93026348D01*
X155854185Y-93521480D01*
X156043264Y-93979088D01*
X156393070Y-94329505D01*
X156850348Y-94519383D01*
X157345480Y-94519815D01*
X157520536Y-94447484D01*
X158317524Y-95244471D01*
X158317526Y-95244474D01*
X158483442Y-95355335D01*
X158489795Y-95359580D01*
X158693000Y-95400000D01*
X161959052Y-95400000D01*
X164696000Y-98136948D01*
X164696000Y-98394012D01*
X164678483Y-98305948D01*
X164568796Y-98141790D01*
X163518309Y-97091303D01*
X163354151Y-96981616D01*
X163160513Y-96943099D01*
X158080806Y-96943099D01*
X158093335Y-96930592D01*
X158203774Y-96664624D01*
X158204025Y-96376639D01*
X158094050Y-96110479D01*
X157890592Y-95906665D01*
X157624624Y-95796226D01*
X157336639Y-95795975D01*
X157294000Y-95813593D01*
X157294000Y-95743690D01*
X157197327Y-95510301D01*
X157018698Y-95331673D01*
X156785309Y-95235000D01*
X156194750Y-95235000D01*
X156036000Y-95393750D01*
X156036000Y-96393000D01*
X156056000Y-96393000D01*
X156056000Y-96647000D01*
X156036000Y-96647000D01*
X156036000Y-96667000D01*
X155782000Y-96667000D01*
X155782000Y-96647000D01*
X155762000Y-96647000D01*
X155762000Y-96393000D01*
X155782000Y-96393000D01*
X155782000Y-95393750D01*
X155623250Y-95235000D01*
X155065000Y-95235000D01*
X155065000Y-94412584D01*
X155263088Y-94330736D01*
X155613505Y-93980930D01*
X155803383Y-93523652D01*
X155803815Y-93028520D01*
X155614736Y-92570912D01*
X155264930Y-92220495D01*
X154807652Y-92030617D01*
X154312520Y-92030185D01*
X153854912Y-92219264D01*
X153504495Y-92569070D01*
X153314617Y-93026348D01*
X153314185Y-93521480D01*
X153503264Y-93979088D01*
X153853070Y-94329505D01*
X154053000Y-94412523D01*
X154053000Y-95500571D01*
X153959000Y-95481536D01*
X152525000Y-95481536D01*
X152525000Y-94412584D01*
X152723088Y-94330736D01*
X153073505Y-93980930D01*
X153263383Y-93523652D01*
X153263815Y-93028520D01*
X153074736Y-92570912D01*
X152724930Y-92220495D01*
X152552261Y-92148797D01*
X152811259Y-92041516D01*
X152893200Y-91788805D01*
X152019000Y-90914605D01*
X151144800Y-91788805D01*
X151226741Y-92041516D01*
X151502458Y-92141772D01*
X151314912Y-92219264D01*
X150964495Y-92569070D01*
X150774617Y-93026348D01*
X150774185Y-93521480D01*
X150963264Y-93979088D01*
X151313070Y-94329505D01*
X151513000Y-94412523D01*
X151513000Y-95675408D01*
X151026204Y-96162204D01*
X150916517Y-96326362D01*
X150878000Y-96520000D01*
X150878000Y-97417339D01*
X150847479Y-97429950D01*
X150643665Y-97633408D01*
X150533226Y-97899376D01*
X150532975Y-98187361D01*
X150625232Y-98410640D01*
X150027796Y-97813204D01*
X149863638Y-97703517D01*
X149670000Y-97665000D01*
X148833792Y-97665000D01*
X148932774Y-97426624D01*
X148933025Y-97138639D01*
X148823050Y-96872479D01*
X148619592Y-96668665D01*
X148353624Y-96558226D01*
X148065639Y-96557975D01*
X147799479Y-96667950D01*
X147595665Y-96871408D01*
X147485226Y-97137376D01*
X147484975Y-97425361D01*
X147583992Y-97665000D01*
X144981000Y-97665000D01*
X144787362Y-97703517D01*
X144659802Y-97788750D01*
X144623204Y-97813204D01*
X144144000Y-98292408D01*
X144144000Y-97843292D01*
X145621292Y-96366000D01*
X147031304Y-96366000D01*
X147163408Y-96498335D01*
X147429376Y-96608774D01*
X147717361Y-96609025D01*
X147983521Y-96499050D01*
X148187335Y-96295592D01*
X148192828Y-96282361D01*
X148754975Y-96282361D01*
X148864950Y-96548521D01*
X149068408Y-96752335D01*
X149334376Y-96862774D01*
X149622361Y-96863025D01*
X149888521Y-96753050D01*
X150092335Y-96549592D01*
X150202774Y-96283624D01*
X150203025Y-95995639D01*
X150093050Y-95729479D01*
X149889592Y-95525665D01*
X149623624Y-95415226D01*
X149335639Y-95414975D01*
X149069479Y-95524950D01*
X148865665Y-95728408D01*
X148755226Y-95994376D01*
X148754975Y-96282361D01*
X148192828Y-96282361D01*
X148297774Y-96029624D01*
X148298025Y-95741639D01*
X148188050Y-95475479D01*
X147984592Y-95271665D01*
X147718624Y-95161226D01*
X147430639Y-95160975D01*
X147164479Y-95270950D01*
X147031196Y-95404000D01*
X145422056Y-95404000D01*
X145237985Y-95440614D01*
X145133692Y-95510301D01*
X145081938Y-95544882D01*
X143322882Y-97303938D01*
X143218614Y-97459985D01*
X143182000Y-97644056D01*
X143182000Y-98543750D01*
X143140002Y-98585748D01*
X143140002Y-98454000D01*
X143039992Y-98454000D01*
X143039992Y-97232956D01*
X144045024Y-96227924D01*
X144161361Y-96228025D01*
X144427521Y-96118050D01*
X144631335Y-95914592D01*
X144741774Y-95648624D01*
X144742025Y-95360639D01*
X144632050Y-95094479D01*
X144428592Y-94890665D01*
X144162624Y-94780226D01*
X143874639Y-94779975D01*
X143608479Y-94889950D01*
X143607601Y-94890826D01*
X143607601Y-94243887D01*
X143693070Y-94329505D01*
X144150348Y-94519383D01*
X144645480Y-94519815D01*
X145103088Y-94330736D01*
X145105022Y-94328805D01*
X146064800Y-94328805D01*
X146146741Y-94581516D01*
X146707030Y-94785248D01*
X147302635Y-94759058D01*
X147731259Y-94581516D01*
X147813200Y-94328805D01*
X146939000Y-93454605D01*
X146064800Y-94328805D01*
X145105022Y-94328805D01*
X145453505Y-93980930D01*
X145525203Y-93808261D01*
X145632484Y-94067259D01*
X145885195Y-94149200D01*
X146759395Y-93275000D01*
X147118605Y-93275000D01*
X147992805Y-94149200D01*
X148245516Y-94067259D01*
X148345772Y-93791542D01*
X148423264Y-93979088D01*
X148773070Y-94329505D01*
X149230348Y-94519383D01*
X149725480Y-94519815D01*
X150183088Y-94330736D01*
X150533505Y-93980930D01*
X150723383Y-93523652D01*
X150723815Y-93028520D01*
X150534736Y-92570912D01*
X150184930Y-92220495D01*
X149727652Y-92030617D01*
X149232520Y-92030185D01*
X148774912Y-92219264D01*
X148424495Y-92569070D01*
X148352797Y-92741739D01*
X148245516Y-92482741D01*
X147992805Y-92400800D01*
X147118605Y-93275000D01*
X146759395Y-93275000D01*
X145885195Y-92400800D01*
X145632484Y-92482741D01*
X145532228Y-92758458D01*
X145454736Y-92570912D01*
X145273094Y-92388952D01*
X145353245Y-92335397D01*
X145999397Y-91689245D01*
X146052961Y-91609081D01*
X146233070Y-91789505D01*
X146405739Y-91861203D01*
X146146741Y-91968484D01*
X146064800Y-92221195D01*
X146939000Y-93095395D01*
X147813200Y-92221195D01*
X147731259Y-91968484D01*
X147455542Y-91868228D01*
X147643088Y-91790736D01*
X147993505Y-91440930D01*
X148183383Y-90983652D01*
X148183384Y-90981480D01*
X148234185Y-90981480D01*
X148423264Y-91439088D01*
X148773070Y-91789505D01*
X149230348Y-91979383D01*
X149725480Y-91979815D01*
X150183088Y-91790736D01*
X150533505Y-91440930D01*
X150605203Y-91268261D01*
X150712484Y-91527259D01*
X150965195Y-91609200D01*
X151839395Y-90735000D01*
X152198605Y-90735000D01*
X153072805Y-91609200D01*
X153325516Y-91527259D01*
X153425772Y-91251542D01*
X153503264Y-91439088D01*
X153853070Y-91789505D01*
X154310348Y-91979383D01*
X154805480Y-91979815D01*
X155263088Y-91790736D01*
X155613505Y-91440930D01*
X155685203Y-91268261D01*
X155792484Y-91527259D01*
X156045195Y-91609200D01*
X156919395Y-90735000D01*
X157278605Y-90735000D01*
X158152805Y-91609200D01*
X158405516Y-91527259D01*
X158505772Y-91251542D01*
X158583264Y-91439088D01*
X158933070Y-91789505D01*
X159390348Y-91979383D01*
X159885480Y-91979815D01*
X160343088Y-91790736D01*
X160693505Y-91440930D01*
X160883383Y-90983652D01*
X160883384Y-90981480D01*
X160934185Y-90981480D01*
X161123264Y-91439088D01*
X161473070Y-91789505D01*
X161930348Y-91979383D01*
X162425480Y-91979815D01*
X162883088Y-91790736D01*
X163233505Y-91440930D01*
X163423383Y-90983652D01*
X163423815Y-90488520D01*
X163234736Y-90030912D01*
X162884930Y-89680495D01*
X162427652Y-89490617D01*
X161932520Y-89490185D01*
X161474912Y-89679264D01*
X161124495Y-90029070D01*
X160934617Y-90486348D01*
X160934185Y-90981480D01*
X160883384Y-90981480D01*
X160883815Y-90488520D01*
X160694736Y-90030912D01*
X160344930Y-89680495D01*
X159887652Y-89490617D01*
X159392520Y-89490185D01*
X158934912Y-89679264D01*
X158584495Y-90029070D01*
X158512797Y-90201739D01*
X158405516Y-89942741D01*
X158152805Y-89860800D01*
X157278605Y-90735000D01*
X156919395Y-90735000D01*
X156045195Y-89860800D01*
X155792484Y-89942741D01*
X155692228Y-90218458D01*
X155614736Y-90030912D01*
X155264930Y-89680495D01*
X154807652Y-89490617D01*
X154312520Y-89490185D01*
X153854912Y-89679264D01*
X153504495Y-90029070D01*
X153432797Y-90201739D01*
X153325516Y-89942741D01*
X153072805Y-89860800D01*
X152198605Y-90735000D01*
X151839395Y-90735000D01*
X150965195Y-89860800D01*
X150712484Y-89942741D01*
X150612228Y-90218458D01*
X150534736Y-90030912D01*
X150184930Y-89680495D01*
X149727652Y-89490617D01*
X149232520Y-89490185D01*
X148774912Y-89679264D01*
X148424495Y-90029070D01*
X148234617Y-90486348D01*
X148234185Y-90981480D01*
X148183384Y-90981480D01*
X148183815Y-90488520D01*
X147994736Y-90030912D01*
X147644930Y-89680495D01*
X147187652Y-89490617D01*
X147005286Y-89490458D01*
X147051355Y-89444389D01*
X151221584Y-89444389D01*
X151144800Y-89681195D01*
X152019000Y-90555395D01*
X152893200Y-89681195D01*
X152816416Y-89444389D01*
X156301584Y-89444389D01*
X156224800Y-89681195D01*
X157099000Y-90555395D01*
X157973200Y-89681195D01*
X157896416Y-89444389D01*
X164551847Y-89444389D01*
X164597752Y-89490294D01*
X164472520Y-89490185D01*
X164014912Y-89679264D01*
X163664495Y-90029070D01*
X163474617Y-90486348D01*
X163474185Y-90981480D01*
X163663264Y-91439088D01*
X164013070Y-91789505D01*
X164185739Y-91861203D01*
X163926741Y-91968484D01*
X163844800Y-92221195D01*
X164719000Y-93095395D01*
X164733143Y-93081253D01*
X164912748Y-93260858D01*
X164898605Y-93275000D01*
X164912748Y-93289143D01*
X164733143Y-93468748D01*
X164719000Y-93454605D01*
X163844800Y-94328805D01*
X163926741Y-94581516D01*
X164487030Y-94785248D01*
X165082635Y-94759058D01*
X165511259Y-94581516D01*
X165548203Y-94467577D01*
X165631204Y-94591796D01*
X167007000Y-95967592D01*
X167007000Y-97332124D01*
X166863471Y-97360674D01*
X166545211Y-97573328D01*
X166332557Y-97891588D01*
X166257883Y-98267000D01*
X166332557Y-98642412D01*
X166545211Y-98960672D01*
X166863471Y-99173326D01*
X167238883Y-99248000D01*
X167787117Y-99248000D01*
X168162529Y-99173326D01*
X168480789Y-98960672D01*
X168693443Y-98642412D01*
X168768117Y-98267000D01*
X168693443Y-97891588D01*
X168480789Y-97573328D01*
X168162529Y-97360674D01*
X168019000Y-97332124D01*
X168019000Y-95758000D01*
X167980483Y-95564362D01*
X167870796Y-95400204D01*
X166495000Y-94024408D01*
X166495000Y-92352758D01*
X167832696Y-92352758D01*
X168099468Y-92998395D01*
X168593007Y-93492796D01*
X169238178Y-93760694D01*
X169936758Y-93761304D01*
X170582395Y-93494532D01*
X171076796Y-93000993D01*
X171344694Y-92355822D01*
X171345304Y-91657242D01*
X171078532Y-91011605D01*
X170584993Y-90517204D01*
X169939822Y-90249306D01*
X169241242Y-90248696D01*
X168595605Y-90515468D01*
X168101204Y-91009007D01*
X167833306Y-91654178D01*
X167832696Y-92352758D01*
X166495000Y-92352758D01*
X166495000Y-90165950D01*
X166456483Y-89972312D01*
X166346796Y-89808154D01*
X165400542Y-88861900D01*
X170146228Y-88861900D01*
X171164025Y-89064352D01*
G36*
X124975925Y-89751077D02*
X124927595Y-89823409D01*
X124784930Y-89680495D01*
X124327652Y-89490617D01*
X123832520Y-89490185D01*
X123374912Y-89679264D01*
X123024495Y-90029070D01*
X122952797Y-90201739D01*
X122845516Y-89942741D01*
X122592805Y-89860800D01*
X121718605Y-90735000D01*
X121732748Y-90749143D01*
X121553143Y-90928748D01*
X121539000Y-90914605D01*
X120664800Y-91788805D01*
X120746741Y-92041516D01*
X121022458Y-92141772D01*
X120834912Y-92219264D01*
X120484495Y-92569070D01*
X120294617Y-93026348D01*
X120294185Y-93521480D01*
X120483264Y-93979088D01*
X120833070Y-94329505D01*
X121290348Y-94519383D01*
X121785480Y-94519815D01*
X122243088Y-94330736D01*
X122593505Y-93980930D01*
X122783383Y-93523652D01*
X122783815Y-93028520D01*
X122765216Y-92983508D01*
X122852374Y-92983584D01*
X122834617Y-93026348D01*
X122834185Y-93521480D01*
X123023264Y-93979088D01*
X123373070Y-94329505D01*
X123798891Y-94506321D01*
X123719665Y-94585408D01*
X123609226Y-94851376D01*
X123608975Y-95139361D01*
X123718950Y-95405521D01*
X123852000Y-95538804D01*
X123852000Y-96343975D01*
X123722699Y-96214673D01*
X123489310Y-96118000D01*
X123348750Y-96118000D01*
X123190000Y-96276750D01*
X123190000Y-97376000D01*
X123210000Y-97376000D01*
X123210000Y-97630000D01*
X123190000Y-97630000D01*
X123190000Y-98729250D01*
X123348750Y-98888000D01*
X123489310Y-98888000D01*
X123722699Y-98791327D01*
X123899579Y-98614446D01*
X124033000Y-98641464D01*
X124633000Y-98641464D01*
X124774190Y-98614897D01*
X124903865Y-98531454D01*
X124968530Y-98436813D01*
X125024546Y-98523865D01*
X125151866Y-98610859D01*
X125303000Y-98641464D01*
X125611228Y-98641464D01*
X126057598Y-99087834D01*
X126213645Y-99192102D01*
X126397716Y-99228716D01*
X126966298Y-99228716D01*
X127098402Y-99361051D01*
X127364370Y-99471490D01*
X127652355Y-99471741D01*
X127918515Y-99361766D01*
X128122329Y-99158308D01*
X128232768Y-98892340D01*
X128232984Y-98644320D01*
X129333196Y-99744533D01*
X129479372Y-99842205D01*
X129489244Y-99848801D01*
X129673315Y-99885415D01*
X131700209Y-99885415D01*
X131832313Y-100017750D01*
X132098281Y-100128189D01*
X132227296Y-100128301D01*
X132360136Y-100449005D01*
X132606255Y-100523139D01*
X133434395Y-99695000D01*
X133793605Y-99695000D01*
X134621745Y-100523139D01*
X134867864Y-100449005D01*
X135060965Y-99911777D01*
X135033778Y-99341546D01*
X134867864Y-98940995D01*
X134621745Y-98866861D01*
X133793605Y-99695000D01*
X133434395Y-99695000D01*
X132943329Y-99203934D01*
X132856955Y-98994894D01*
X132653497Y-98791080D01*
X132403458Y-98687255D01*
X132785861Y-98687255D01*
X133614000Y-99515395D01*
X134442139Y-98687255D01*
X134368005Y-98441136D01*
X133830777Y-98248035D01*
X133260546Y-98275222D01*
X132859995Y-98441136D01*
X132785861Y-98687255D01*
X132403458Y-98687255D01*
X132387529Y-98680641D01*
X132099544Y-98680390D01*
X131833384Y-98790365D01*
X131700101Y-98923415D01*
X129872552Y-98923415D01*
X129837137Y-98888000D01*
X129839310Y-98888000D01*
X130072699Y-98791327D01*
X130251327Y-98612698D01*
X130348000Y-98379309D01*
X130348000Y-97788750D01*
X130189250Y-97630000D01*
X129540000Y-97630000D01*
X129540000Y-97650000D01*
X129286000Y-97650000D01*
X129286000Y-97630000D01*
X129266000Y-97630000D01*
X129266000Y-97376000D01*
X129286000Y-97376000D01*
X129286000Y-96276750D01*
X129540000Y-96276750D01*
X129540000Y-97376000D01*
X130189250Y-97376000D01*
X130348000Y-97217250D01*
X130348000Y-96790361D01*
X134657975Y-96790361D01*
X134767950Y-97056521D01*
X134971408Y-97260335D01*
X135237376Y-97370774D01*
X135525361Y-97371025D01*
X135791521Y-97261050D01*
X135995335Y-97057592D01*
X136105774Y-96791624D01*
X136106025Y-96503639D01*
X135996050Y-96237479D01*
X135792592Y-96033665D01*
X135526624Y-95923226D01*
X135238639Y-95922975D01*
X134972479Y-96032950D01*
X134768665Y-96236408D01*
X134658226Y-96502376D01*
X134657975Y-96790361D01*
X130348000Y-96790361D01*
X130348000Y-96626691D01*
X130251327Y-96393302D01*
X130072699Y-96214673D01*
X129839310Y-96118000D01*
X129698750Y-96118000D01*
X129540000Y-96276750D01*
X129286000Y-96276750D01*
X129127250Y-96118000D01*
X128986690Y-96118000D01*
X128753301Y-96214673D01*
X128576421Y-96391554D01*
X128443000Y-96364536D01*
X127843000Y-96364536D01*
X127701810Y-96391103D01*
X127572135Y-96474546D01*
X127507470Y-96569187D01*
X127451454Y-96482135D01*
X127354000Y-96415548D01*
X127354000Y-96273067D01*
X127317386Y-96088996D01*
X127213118Y-95932949D01*
X125881652Y-94601483D01*
X126387030Y-94785248D01*
X126982635Y-94759058D01*
X127411259Y-94581516D01*
X127493200Y-94328805D01*
X126619000Y-93454605D01*
X126604858Y-93468748D01*
X126425253Y-93289143D01*
X126439395Y-93275000D01*
X126425253Y-93260858D01*
X126604858Y-93081253D01*
X126619000Y-93095395D01*
X126633143Y-93081253D01*
X126812748Y-93260858D01*
X126798605Y-93275000D01*
X127672805Y-94149200D01*
X127925516Y-94067259D01*
X128025772Y-93791542D01*
X128103264Y-93979088D01*
X128207110Y-94083116D01*
X128160260Y-94083075D01*
X127894100Y-94193050D01*
X127690286Y-94396508D01*
X127579847Y-94662476D01*
X127579596Y-94950461D01*
X127689571Y-95216621D01*
X127893029Y-95420435D01*
X128158997Y-95530874D01*
X128446982Y-95531125D01*
X128713142Y-95421150D01*
X128784416Y-95350000D01*
X134447050Y-95350000D01*
X134631121Y-95313386D01*
X134787168Y-95209118D01*
X135796720Y-94199567D01*
X135855516Y-94111571D01*
X136073070Y-94329505D01*
X136530348Y-94519383D01*
X137025480Y-94519815D01*
X137483088Y-94330736D01*
X137515601Y-94298280D01*
X137515601Y-94339113D01*
X137556021Y-94542318D01*
X137671127Y-94714587D01*
X140916539Y-97959999D01*
X136290799Y-97959999D01*
X136087594Y-98000419D01*
X135915325Y-98115525D01*
X135915323Y-98115528D01*
X135834525Y-98196325D01*
X135719419Y-98368594D01*
X135678999Y-98571799D01*
X135678999Y-100044054D01*
X134288150Y-101434902D01*
X131306436Y-101434902D01*
X130574279Y-100702745D01*
X132785861Y-100702745D01*
X132859995Y-100948864D01*
X133397223Y-101141965D01*
X133967454Y-101114778D01*
X134368005Y-100948864D01*
X134442139Y-100702745D01*
X133614000Y-99874605D01*
X132785861Y-100702745D01*
X130574279Y-100702745D01*
X130395061Y-100523527D01*
X130222792Y-100408421D01*
X130019587Y-100368001D01*
X122361747Y-100368001D01*
X121650522Y-99656776D01*
X121936361Y-99657025D01*
X122202521Y-99547050D01*
X122406335Y-99343592D01*
X122516774Y-99077624D01*
X122516982Y-98838415D01*
X122636690Y-98888000D01*
X122777250Y-98888000D01*
X122936000Y-98729250D01*
X122936000Y-97630000D01*
X122916000Y-97630000D01*
X122916000Y-97376000D01*
X122936000Y-97376000D01*
X122936000Y-96276750D01*
X122777250Y-96118000D01*
X122636690Y-96118000D01*
X122403301Y-96214673D01*
X122226421Y-96391554D01*
X122093000Y-96364536D01*
X121493000Y-96364536D01*
X121351810Y-96391103D01*
X121222135Y-96474546D01*
X121157470Y-96569187D01*
X121101454Y-96482135D01*
X120974134Y-96395141D01*
X120823000Y-96364536D01*
X120223000Y-96364536D01*
X120081810Y-96391103D01*
X119952135Y-96474546D01*
X119865141Y-96601866D01*
X119834536Y-96753000D01*
X119834536Y-97840790D01*
X119530000Y-97536254D01*
X119530000Y-94402254D01*
X119703088Y-94330736D01*
X120053505Y-93980930D01*
X120243383Y-93523652D01*
X120243815Y-93028520D01*
X120054736Y-92570912D01*
X119704930Y-92220495D01*
X119247652Y-92030617D01*
X118752520Y-92030185D01*
X118294912Y-92219264D01*
X117944495Y-92569070D01*
X117754617Y-93026348D01*
X117754185Y-93521480D01*
X117943264Y-93979088D01*
X118293070Y-94329505D01*
X118468000Y-94402142D01*
X118468000Y-97756202D01*
X118508420Y-97959407D01*
X118623526Y-98131676D01*
X121766325Y-101274475D01*
X121938594Y-101389581D01*
X122141799Y-101430001D01*
X129799639Y-101430001D01*
X130711014Y-102341376D01*
X130883283Y-102456482D01*
X131086488Y-102496903D01*
X131086493Y-102496902D01*
X134508098Y-102496902D01*
X134711303Y-102456482D01*
X134883572Y-102341376D01*
X136408937Y-100816011D01*
X136462866Y-100852859D01*
X136614000Y-100883464D01*
X136833000Y-100883464D01*
X136833000Y-103010342D01*
X133828171Y-106015171D01*
X133702226Y-106203661D01*
X133658000Y-106426000D01*
X133658000Y-106693342D01*
X129762464Y-110588878D01*
X129762464Y-109259000D01*
X129735897Y-109117810D01*
X129652454Y-108988135D01*
X129525134Y-108901141D01*
X129374000Y-108870536D01*
X129005000Y-108870536D01*
X129005000Y-108585000D01*
X128968386Y-108400929D01*
X128964014Y-108394386D01*
X128864118Y-108244881D01*
X128483118Y-107863882D01*
X128327071Y-107759614D01*
X128143000Y-107723000D01*
X126945237Y-107723000D01*
X125703000Y-106480764D01*
X125703000Y-106244236D01*
X125943118Y-106004119D01*
X126047386Y-105848071D01*
X126060198Y-105783660D01*
X126084000Y-105664000D01*
X126084000Y-103989280D01*
X126173865Y-103931454D01*
X126238530Y-103836813D01*
X126294546Y-103923865D01*
X126342000Y-103956289D01*
X126342000Y-104902000D01*
X126382420Y-105105205D01*
X126497526Y-105277474D01*
X126549351Y-105329299D01*
X126504196Y-105438043D01*
X126503804Y-105887983D01*
X126675625Y-106303823D01*
X126993503Y-106622256D01*
X127409043Y-106794804D01*
X127858983Y-106795196D01*
X128274823Y-106623375D01*
X128593256Y-106305497D01*
X128765804Y-105889957D01*
X128766196Y-105440017D01*
X128594375Y-105024177D01*
X128276497Y-104705744D01*
X127860957Y-104533196D01*
X127411017Y-104532804D01*
X127404000Y-104535703D01*
X127404000Y-103957106D01*
X127443865Y-103931454D01*
X127508530Y-103836813D01*
X127564546Y-103923865D01*
X127691866Y-104010859D01*
X127843000Y-104041464D01*
X127928516Y-104041464D01*
X129425109Y-105538057D01*
X129424804Y-105887983D01*
X129596625Y-106303823D01*
X129914503Y-106622256D01*
X130330043Y-106794804D01*
X130779983Y-106795196D01*
X131195823Y-106623375D01*
X131514256Y-106305497D01*
X131686804Y-105889957D01*
X131687196Y-105440017D01*
X131515375Y-105024177D01*
X131197497Y-104705744D01*
X130781957Y-104533196D01*
X130332017Y-104532804D01*
X130041706Y-104652758D01*
X129545309Y-104156361D01*
X133133975Y-104156361D01*
X133243950Y-104422521D01*
X133447408Y-104626335D01*
X133713376Y-104736774D01*
X134001361Y-104737025D01*
X134267521Y-104627050D01*
X134471335Y-104423592D01*
X134581774Y-104157624D01*
X134582025Y-103869639D01*
X134472050Y-103603479D01*
X134268592Y-103399665D01*
X134002624Y-103289226D01*
X133714639Y-103288975D01*
X133448479Y-103398950D01*
X133244665Y-103602408D01*
X133134226Y-103868376D01*
X133133975Y-104156361D01*
X129545309Y-104156361D01*
X129430412Y-104041464D01*
X129713000Y-104041464D01*
X129854190Y-104014897D01*
X129983865Y-103931454D01*
X130070859Y-103804134D01*
X130101464Y-103653000D01*
X130101464Y-102153000D01*
X130074897Y-102011810D01*
X129991454Y-101882135D01*
X129864134Y-101795141D01*
X129713000Y-101764536D01*
X129113000Y-101764536D01*
X128971810Y-101791103D01*
X128842135Y-101874546D01*
X128777470Y-101969187D01*
X128721454Y-101882135D01*
X128594134Y-101795141D01*
X128443000Y-101764536D01*
X127843000Y-101764536D01*
X127701810Y-101791103D01*
X127572135Y-101874546D01*
X127507470Y-101969187D01*
X127451454Y-101882135D01*
X127324134Y-101795141D01*
X127173000Y-101764536D01*
X126573000Y-101764536D01*
X126431810Y-101791103D01*
X126302135Y-101874546D01*
X126237470Y-101969187D01*
X126181454Y-101882135D01*
X126054134Y-101795141D01*
X125903000Y-101764536D01*
X125303000Y-101764536D01*
X125161810Y-101791103D01*
X125032135Y-101874546D01*
X124967470Y-101969187D01*
X124911454Y-101882135D01*
X124784134Y-101795141D01*
X124633000Y-101764536D01*
X124033000Y-101764536D01*
X123891810Y-101791103D01*
X123762135Y-101874546D01*
X123697470Y-101969187D01*
X123641454Y-101882135D01*
X123514134Y-101795141D01*
X123363000Y-101764536D01*
X122763000Y-101764536D01*
X122621810Y-101791103D01*
X122492135Y-101874546D01*
X122427470Y-101969187D01*
X122371454Y-101882135D01*
X122244134Y-101795141D01*
X122093000Y-101764536D01*
X121493000Y-101764536D01*
X121351810Y-101791103D01*
X121222135Y-101874546D01*
X121157470Y-101969187D01*
X121101454Y-101882135D01*
X120974134Y-101795141D01*
X120823000Y-101764536D01*
X120223000Y-101764536D01*
X120081810Y-101791103D01*
X119952135Y-101874546D01*
X119865141Y-102001866D01*
X119834536Y-102153000D01*
X119834536Y-103653000D01*
X119861103Y-103794190D01*
X119944546Y-103923865D01*
X120042000Y-103990452D01*
X120042000Y-104829763D01*
X117642882Y-107228882D01*
X117538614Y-107384929D01*
X117502000Y-107569000D01*
X117502000Y-108870536D01*
X116625000Y-108870536D01*
X116483810Y-108897103D01*
X116354135Y-108980546D01*
X116267141Y-109107866D01*
X116236536Y-109259000D01*
X116236536Y-110959000D01*
X116239057Y-110972399D01*
X114328122Y-109061464D01*
X115658000Y-109061464D01*
X115799190Y-109034897D01*
X115928865Y-108951454D01*
X116015859Y-108824134D01*
X116046464Y-108673000D01*
X116046464Y-108329000D01*
X116205000Y-108329000D01*
X116398638Y-108290483D01*
X116562796Y-108180796D01*
X116816796Y-107926796D01*
X116926483Y-107762638D01*
X116965000Y-107569000D01*
X116965000Y-94527064D01*
X117322600Y-94527064D01*
X117463790Y-94500497D01*
X117593465Y-94417054D01*
X117680459Y-94289734D01*
X117711064Y-94138600D01*
X117711064Y-92411400D01*
X117684497Y-92270210D01*
X117601054Y-92140535D01*
X117473734Y-92053541D01*
X117322600Y-92022936D01*
X115886656Y-92022936D01*
X116012403Y-91897189D01*
X116210348Y-91979383D01*
X116705480Y-91979815D01*
X117163088Y-91790736D01*
X117513505Y-91440930D01*
X117596523Y-91241000D01*
X117861416Y-91241000D01*
X117943264Y-91439088D01*
X118293070Y-91789505D01*
X118750348Y-91979383D01*
X119245480Y-91979815D01*
X119703088Y-91790736D01*
X120053505Y-91440930D01*
X120125203Y-91268261D01*
X120232484Y-91527259D01*
X120485195Y-91609200D01*
X121359395Y-90735000D01*
X120485195Y-89860800D01*
X120232484Y-89942741D01*
X120132228Y-90218458D01*
X120054736Y-90030912D01*
X119705629Y-89681195D01*
X120664800Y-89681195D01*
X121539000Y-90555395D01*
X122413200Y-89681195D01*
X122331259Y-89428484D01*
X121770970Y-89224752D01*
X121175365Y-89250942D01*
X120746741Y-89428484D01*
X120664800Y-89681195D01*
X119705629Y-89681195D01*
X119704930Y-89680495D01*
X119247652Y-89490617D01*
X118752520Y-89490185D01*
X118294912Y-89679264D01*
X117944495Y-90029070D01*
X117861477Y-90229000D01*
X117596584Y-90229000D01*
X117514736Y-90030912D01*
X117164930Y-89680495D01*
X116707652Y-89490617D01*
X116212520Y-89490185D01*
X115754912Y-89679264D01*
X115404495Y-90029070D01*
X115214617Y-90486348D01*
X115214185Y-90981480D01*
X115296854Y-91181554D01*
X114858603Y-91619805D01*
X114748916Y-91783963D01*
X114710399Y-91977601D01*
X114710399Y-95415126D01*
X114537639Y-95414975D01*
X114271479Y-95524950D01*
X114067665Y-95728408D01*
X113957226Y-95994376D01*
X113956975Y-96282361D01*
X114066950Y-96548521D01*
X114270408Y-96752335D01*
X114536376Y-96862774D01*
X114708000Y-96862924D01*
X114708000Y-96955763D01*
X114257764Y-97406000D01*
X113143621Y-97406000D01*
X113088179Y-97368118D01*
X113142075Y-97314317D01*
X113310808Y-96907962D01*
X113311192Y-96467968D01*
X113143168Y-96061320D01*
X112832317Y-95749925D01*
X112425962Y-95581192D01*
X111985968Y-95580808D01*
X111579320Y-95748832D01*
X111267925Y-96059683D01*
X111099192Y-96466038D01*
X111098808Y-96906032D01*
X111266832Y-97312680D01*
X111310076Y-97356000D01*
X111230005Y-97356000D01*
X111230000Y-97355999D01*
X111026795Y-97396420D01*
X110854526Y-97511526D01*
X110843464Y-97522588D01*
X110843464Y-97437000D01*
X110816897Y-97295810D01*
X110733454Y-97166135D01*
X110727963Y-97162383D01*
X110812859Y-97038134D01*
X110843464Y-96887000D01*
X110843464Y-95780569D01*
X110862076Y-95687000D01*
X110787402Y-95311588D01*
X110574748Y-94993328D01*
X110413164Y-94885361D01*
X113067975Y-94885361D01*
X113177950Y-95151521D01*
X113381408Y-95355335D01*
X113647376Y-95465774D01*
X113935361Y-95466025D01*
X114201521Y-95356050D01*
X114405335Y-95152592D01*
X114515774Y-94886624D01*
X114516025Y-94598639D01*
X114406050Y-94332479D01*
X114202592Y-94128665D01*
X113936624Y-94018226D01*
X113648639Y-94017975D01*
X113382479Y-94127950D01*
X113178665Y-94331408D01*
X113068226Y-94597376D01*
X113067975Y-94885361D01*
X110413164Y-94885361D01*
X110256488Y-94780674D01*
X109881076Y-94706000D01*
X109128924Y-94706000D01*
X108753512Y-94780674D01*
X108435252Y-94993328D01*
X108419900Y-95016304D01*
X108419900Y-92352758D01*
X109832696Y-92352758D01*
X110099468Y-92998395D01*
X110593007Y-93492796D01*
X111238178Y-93760694D01*
X111936758Y-93761304D01*
X112582395Y-93494532D01*
X113076796Y-93000993D01*
X113344694Y-92355822D01*
X113345304Y-91657242D01*
X113078532Y-91011605D01*
X112584993Y-90517204D01*
X111939822Y-90249306D01*
X111241242Y-90248696D01*
X110595605Y-90515468D01*
X110101204Y-91009007D01*
X109833306Y-91654178D01*
X109832696Y-92352758D01*
X108419900Y-92352758D01*
X108419900Y-91338556D01*
X108560416Y-90400991D01*
X109027039Y-89625129D01*
X109755057Y-89086889D01*
X110659033Y-88861900D01*
X125865102Y-88861900D01*
X124975925Y-89751077D01*
X124975925Y-89751077D01*
G37*
X124975925Y-89751077D02*
X124927595Y-89823409D01*
X124784930Y-89680495D01*
X124327652Y-89490617D01*
X123832520Y-89490185D01*
X123374912Y-89679264D01*
X123024495Y-90029070D01*
X122952797Y-90201739D01*
X122845516Y-89942741D01*
X122592805Y-89860800D01*
X121718605Y-90735000D01*
X121732748Y-90749143D01*
X121553143Y-90928748D01*
X121539000Y-90914605D01*
X120664800Y-91788805D01*
X120746741Y-92041516D01*
X121022458Y-92141772D01*
X120834912Y-92219264D01*
X120484495Y-92569070D01*
X120294617Y-93026348D01*
X120294185Y-93521480D01*
X120483264Y-93979088D01*
X120833070Y-94329505D01*
X121290348Y-94519383D01*
X121785480Y-94519815D01*
X122243088Y-94330736D01*
X122593505Y-93980930D01*
X122783383Y-93523652D01*
X122783815Y-93028520D01*
X122765216Y-92983508D01*
X122852374Y-92983584D01*
X122834617Y-93026348D01*
X122834185Y-93521480D01*
X123023264Y-93979088D01*
X123373070Y-94329505D01*
X123798891Y-94506321D01*
X123719665Y-94585408D01*
X123609226Y-94851376D01*
X123608975Y-95139361D01*
X123718950Y-95405521D01*
X123852000Y-95538804D01*
X123852000Y-96343975D01*
X123722699Y-96214673D01*
X123489310Y-96118000D01*
X123348750Y-96118000D01*
X123190000Y-96276750D01*
X123190000Y-97376000D01*
X123210000Y-97376000D01*
X123210000Y-97630000D01*
X123190000Y-97630000D01*
X123190000Y-98729250D01*
X123348750Y-98888000D01*
X123489310Y-98888000D01*
X123722699Y-98791327D01*
X123899579Y-98614446D01*
X124033000Y-98641464D01*
X124633000Y-98641464D01*
X124774190Y-98614897D01*
X124903865Y-98531454D01*
X124968530Y-98436813D01*
X125024546Y-98523865D01*
X125151866Y-98610859D01*
X125303000Y-98641464D01*
X125611228Y-98641464D01*
X126057598Y-99087834D01*
X126213645Y-99192102D01*
X126397716Y-99228716D01*
X126966298Y-99228716D01*
X127098402Y-99361051D01*
X127364370Y-99471490D01*
X127652355Y-99471741D01*
X127918515Y-99361766D01*
X128122329Y-99158308D01*
X128232768Y-98892340D01*
X128232984Y-98644320D01*
X129333196Y-99744533D01*
X129479372Y-99842205D01*
X129489244Y-99848801D01*
X129673315Y-99885415D01*
X131700209Y-99885415D01*
X131832313Y-100017750D01*
X132098281Y-100128189D01*
X132227296Y-100128301D01*
X132360136Y-100449005D01*
X132606255Y-100523139D01*
X133434395Y-99695000D01*
X133793605Y-99695000D01*
X134621745Y-100523139D01*
X134867864Y-100449005D01*
X135060965Y-99911777D01*
X135033778Y-99341546D01*
X134867864Y-98940995D01*
X134621745Y-98866861D01*
X133793605Y-99695000D01*
X133434395Y-99695000D01*
X132943329Y-99203934D01*
X132856955Y-98994894D01*
X132653497Y-98791080D01*
X132403458Y-98687255D01*
X132785861Y-98687255D01*
X133614000Y-99515395D01*
X134442139Y-98687255D01*
X134368005Y-98441136D01*
X133830777Y-98248035D01*
X133260546Y-98275222D01*
X132859995Y-98441136D01*
X132785861Y-98687255D01*
X132403458Y-98687255D01*
X132387529Y-98680641D01*
X132099544Y-98680390D01*
X131833384Y-98790365D01*
X131700101Y-98923415D01*
X129872552Y-98923415D01*
X129837137Y-98888000D01*
X129839310Y-98888000D01*
X130072699Y-98791327D01*
X130251327Y-98612698D01*
X130348000Y-98379309D01*
X130348000Y-97788750D01*
X130189250Y-97630000D01*
X129540000Y-97630000D01*
X129540000Y-97650000D01*
X129286000Y-97650000D01*
X129286000Y-97630000D01*
X129266000Y-97630000D01*
X129266000Y-97376000D01*
X129286000Y-97376000D01*
X129286000Y-96276750D01*
X129540000Y-96276750D01*
X129540000Y-97376000D01*
X130189250Y-97376000D01*
X130348000Y-97217250D01*
X130348000Y-96790361D01*
X134657975Y-96790361D01*
X134767950Y-97056521D01*
X134971408Y-97260335D01*
X135237376Y-97370774D01*
X135525361Y-97371025D01*
X135791521Y-97261050D01*
X135995335Y-97057592D01*
X136105774Y-96791624D01*
X136106025Y-96503639D01*
X135996050Y-96237479D01*
X135792592Y-96033665D01*
X135526624Y-95923226D01*
X135238639Y-95922975D01*
X134972479Y-96032950D01*
X134768665Y-96236408D01*
X134658226Y-96502376D01*
X134657975Y-96790361D01*
X130348000Y-96790361D01*
X130348000Y-96626691D01*
X130251327Y-96393302D01*
X130072699Y-96214673D01*
X129839310Y-96118000D01*
X129698750Y-96118000D01*
X129540000Y-96276750D01*
X129286000Y-96276750D01*
X129127250Y-96118000D01*
X128986690Y-96118000D01*
X128753301Y-96214673D01*
X128576421Y-96391554D01*
X128443000Y-96364536D01*
X127843000Y-96364536D01*
X127701810Y-96391103D01*
X127572135Y-96474546D01*
X127507470Y-96569187D01*
X127451454Y-96482135D01*
X127354000Y-96415548D01*
X127354000Y-96273067D01*
X127317386Y-96088996D01*
X127213118Y-95932949D01*
X125881652Y-94601483D01*
X126387030Y-94785248D01*
X126982635Y-94759058D01*
X127411259Y-94581516D01*
X127493200Y-94328805D01*
X126619000Y-93454605D01*
X126604858Y-93468748D01*
X126425253Y-93289143D01*
X126439395Y-93275000D01*
X126425253Y-93260858D01*
X126604858Y-93081253D01*
X126619000Y-93095395D01*
X126633143Y-93081253D01*
X126812748Y-93260858D01*
X126798605Y-93275000D01*
X127672805Y-94149200D01*
X127925516Y-94067259D01*
X128025772Y-93791542D01*
X128103264Y-93979088D01*
X128207110Y-94083116D01*
X128160260Y-94083075D01*
X127894100Y-94193050D01*
X127690286Y-94396508D01*
X127579847Y-94662476D01*
X127579596Y-94950461D01*
X127689571Y-95216621D01*
X127893029Y-95420435D01*
X128158997Y-95530874D01*
X128446982Y-95531125D01*
X128713142Y-95421150D01*
X128784416Y-95350000D01*
X134447050Y-95350000D01*
X134631121Y-95313386D01*
X134787168Y-95209118D01*
X135796720Y-94199567D01*
X135855516Y-94111571D01*
X136073070Y-94329505D01*
X136530348Y-94519383D01*
X137025480Y-94519815D01*
X137483088Y-94330736D01*
X137515601Y-94298280D01*
X137515601Y-94339113D01*
X137556021Y-94542318D01*
X137671127Y-94714587D01*
X140916539Y-97959999D01*
X136290799Y-97959999D01*
X136087594Y-98000419D01*
X135915325Y-98115525D01*
X135915323Y-98115528D01*
X135834525Y-98196325D01*
X135719419Y-98368594D01*
X135678999Y-98571799D01*
X135678999Y-100044054D01*
X134288150Y-101434902D01*
X131306436Y-101434902D01*
X130574279Y-100702745D01*
X132785861Y-100702745D01*
X132859995Y-100948864D01*
X133397223Y-101141965D01*
X133967454Y-101114778D01*
X134368005Y-100948864D01*
X134442139Y-100702745D01*
X133614000Y-99874605D01*
X132785861Y-100702745D01*
X130574279Y-100702745D01*
X130395061Y-100523527D01*
X130222792Y-100408421D01*
X130019587Y-100368001D01*
X122361747Y-100368001D01*
X121650522Y-99656776D01*
X121936361Y-99657025D01*
X122202521Y-99547050D01*
X122406335Y-99343592D01*
X122516774Y-99077624D01*
X122516982Y-98838415D01*
X122636690Y-98888000D01*
X122777250Y-98888000D01*
X122936000Y-98729250D01*
X122936000Y-97630000D01*
X122916000Y-97630000D01*
X122916000Y-97376000D01*
X122936000Y-97376000D01*
X122936000Y-96276750D01*
X122777250Y-96118000D01*
X122636690Y-96118000D01*
X122403301Y-96214673D01*
X122226421Y-96391554D01*
X122093000Y-96364536D01*
X121493000Y-96364536D01*
X121351810Y-96391103D01*
X121222135Y-96474546D01*
X121157470Y-96569187D01*
X121101454Y-96482135D01*
X120974134Y-96395141D01*
X120823000Y-96364536D01*
X120223000Y-96364536D01*
X120081810Y-96391103D01*
X119952135Y-96474546D01*
X119865141Y-96601866D01*
X119834536Y-96753000D01*
X119834536Y-97840790D01*
X119530000Y-97536254D01*
X119530000Y-94402254D01*
X119703088Y-94330736D01*
X120053505Y-93980930D01*
X120243383Y-93523652D01*
X120243815Y-93028520D01*
X120054736Y-92570912D01*
X119704930Y-92220495D01*
X119247652Y-92030617D01*
X118752520Y-92030185D01*
X118294912Y-92219264D01*
X117944495Y-92569070D01*
X117754617Y-93026348D01*
X117754185Y-93521480D01*
X117943264Y-93979088D01*
X118293070Y-94329505D01*
X118468000Y-94402142D01*
X118468000Y-97756202D01*
X118508420Y-97959407D01*
X118623526Y-98131676D01*
X121766325Y-101274475D01*
X121938594Y-101389581D01*
X122141799Y-101430001D01*
X129799639Y-101430001D01*
X130711014Y-102341376D01*
X130883283Y-102456482D01*
X131086488Y-102496903D01*
X131086493Y-102496902D01*
X134508098Y-102496902D01*
X134711303Y-102456482D01*
X134883572Y-102341376D01*
X136408937Y-100816011D01*
X136462866Y-100852859D01*
X136614000Y-100883464D01*
X136833000Y-100883464D01*
X136833000Y-103010342D01*
X133828171Y-106015171D01*
X133702226Y-106203661D01*
X133658000Y-106426000D01*
X133658000Y-106693342D01*
X129762464Y-110588878D01*
X129762464Y-109259000D01*
X129735897Y-109117810D01*
X129652454Y-108988135D01*
X129525134Y-108901141D01*
X129374000Y-108870536D01*
X129005000Y-108870536D01*
X129005000Y-108585000D01*
X128968386Y-108400929D01*
X128964014Y-108394386D01*
X128864118Y-108244881D01*
X128483118Y-107863882D01*
X128327071Y-107759614D01*
X128143000Y-107723000D01*
X126945237Y-107723000D01*
X125703000Y-106480764D01*
X125703000Y-106244236D01*
X125943118Y-106004119D01*
X126047386Y-105848071D01*
X126060198Y-105783660D01*
X126084000Y-105664000D01*
X126084000Y-103989280D01*
X126173865Y-103931454D01*
X126238530Y-103836813D01*
X126294546Y-103923865D01*
X126342000Y-103956289D01*
X126342000Y-104902000D01*
X126382420Y-105105205D01*
X126497526Y-105277474D01*
X126549351Y-105329299D01*
X126504196Y-105438043D01*
X126503804Y-105887983D01*
X126675625Y-106303823D01*
X126993503Y-106622256D01*
X127409043Y-106794804D01*
X127858983Y-106795196D01*
X128274823Y-106623375D01*
X128593256Y-106305497D01*
X128765804Y-105889957D01*
X128766196Y-105440017D01*
X128594375Y-105024177D01*
X128276497Y-104705744D01*
X127860957Y-104533196D01*
X127411017Y-104532804D01*
X127404000Y-104535703D01*
X127404000Y-103957106D01*
X127443865Y-103931454D01*
X127508530Y-103836813D01*
X127564546Y-103923865D01*
X127691866Y-104010859D01*
X127843000Y-104041464D01*
X127928516Y-104041464D01*
X129425109Y-105538057D01*
X129424804Y-105887983D01*
X129596625Y-106303823D01*
X129914503Y-106622256D01*
X130330043Y-106794804D01*
X130779983Y-106795196D01*
X131195823Y-106623375D01*
X131514256Y-106305497D01*
X131686804Y-105889957D01*
X131687196Y-105440017D01*
X131515375Y-105024177D01*
X131197497Y-104705744D01*
X130781957Y-104533196D01*
X130332017Y-104532804D01*
X130041706Y-104652758D01*
X129545309Y-104156361D01*
X133133975Y-104156361D01*
X133243950Y-104422521D01*
X133447408Y-104626335D01*
X133713376Y-104736774D01*
X134001361Y-104737025D01*
X134267521Y-104627050D01*
X134471335Y-104423592D01*
X134581774Y-104157624D01*
X134582025Y-103869639D01*
X134472050Y-103603479D01*
X134268592Y-103399665D01*
X134002624Y-103289226D01*
X133714639Y-103288975D01*
X133448479Y-103398950D01*
X133244665Y-103602408D01*
X133134226Y-103868376D01*
X133133975Y-104156361D01*
X129545309Y-104156361D01*
X129430412Y-104041464D01*
X129713000Y-104041464D01*
X129854190Y-104014897D01*
X129983865Y-103931454D01*
X130070859Y-103804134D01*
X130101464Y-103653000D01*
X130101464Y-102153000D01*
X130074897Y-102011810D01*
X129991454Y-101882135D01*
X129864134Y-101795141D01*
X129713000Y-101764536D01*
X129113000Y-101764536D01*
X128971810Y-101791103D01*
X128842135Y-101874546D01*
X128777470Y-101969187D01*
X128721454Y-101882135D01*
X128594134Y-101795141D01*
X128443000Y-101764536D01*
X127843000Y-101764536D01*
X127701810Y-101791103D01*
X127572135Y-101874546D01*
X127507470Y-101969187D01*
X127451454Y-101882135D01*
X127324134Y-101795141D01*
X127173000Y-101764536D01*
X126573000Y-101764536D01*
X126431810Y-101791103D01*
X126302135Y-101874546D01*
X126237470Y-101969187D01*
X126181454Y-101882135D01*
X126054134Y-101795141D01*
X125903000Y-101764536D01*
X125303000Y-101764536D01*
X125161810Y-101791103D01*
X125032135Y-101874546D01*
X124967470Y-101969187D01*
X124911454Y-101882135D01*
X124784134Y-101795141D01*
X124633000Y-101764536D01*
X124033000Y-101764536D01*
X123891810Y-101791103D01*
X123762135Y-101874546D01*
X123697470Y-101969187D01*
X123641454Y-101882135D01*
X123514134Y-101795141D01*
X123363000Y-101764536D01*
X122763000Y-101764536D01*
X122621810Y-101791103D01*
X122492135Y-101874546D01*
X122427470Y-101969187D01*
X122371454Y-101882135D01*
X122244134Y-101795141D01*
X122093000Y-101764536D01*
X121493000Y-101764536D01*
X121351810Y-101791103D01*
X121222135Y-101874546D01*
X121157470Y-101969187D01*
X121101454Y-101882135D01*
X120974134Y-101795141D01*
X120823000Y-101764536D01*
X120223000Y-101764536D01*
X120081810Y-101791103D01*
X119952135Y-101874546D01*
X119865141Y-102001866D01*
X119834536Y-102153000D01*
X119834536Y-103653000D01*
X119861103Y-103794190D01*
X119944546Y-103923865D01*
X120042000Y-103990452D01*
X120042000Y-104829763D01*
X117642882Y-107228882D01*
X117538614Y-107384929D01*
X117502000Y-107569000D01*
X117502000Y-108870536D01*
X116625000Y-108870536D01*
X116483810Y-108897103D01*
X116354135Y-108980546D01*
X116267141Y-109107866D01*
X116236536Y-109259000D01*
X116236536Y-110959000D01*
X116239057Y-110972399D01*
X114328122Y-109061464D01*
X115658000Y-109061464D01*
X115799190Y-109034897D01*
X115928865Y-108951454D01*
X116015859Y-108824134D01*
X116046464Y-108673000D01*
X116046464Y-108329000D01*
X116205000Y-108329000D01*
X116398638Y-108290483D01*
X116562796Y-108180796D01*
X116816796Y-107926796D01*
X116926483Y-107762638D01*
X116965000Y-107569000D01*
X116965000Y-94527064D01*
X117322600Y-94527064D01*
X117463790Y-94500497D01*
X117593465Y-94417054D01*
X117680459Y-94289734D01*
X117711064Y-94138600D01*
X117711064Y-92411400D01*
X117684497Y-92270210D01*
X117601054Y-92140535D01*
X117473734Y-92053541D01*
X117322600Y-92022936D01*
X115886656Y-92022936D01*
X116012403Y-91897189D01*
X116210348Y-91979383D01*
X116705480Y-91979815D01*
X117163088Y-91790736D01*
X117513505Y-91440930D01*
X117596523Y-91241000D01*
X117861416Y-91241000D01*
X117943264Y-91439088D01*
X118293070Y-91789505D01*
X118750348Y-91979383D01*
X119245480Y-91979815D01*
X119703088Y-91790736D01*
X120053505Y-91440930D01*
X120125203Y-91268261D01*
X120232484Y-91527259D01*
X120485195Y-91609200D01*
X121359395Y-90735000D01*
X120485195Y-89860800D01*
X120232484Y-89942741D01*
X120132228Y-90218458D01*
X120054736Y-90030912D01*
X119705629Y-89681195D01*
X120664800Y-89681195D01*
X121539000Y-90555395D01*
X122413200Y-89681195D01*
X122331259Y-89428484D01*
X121770970Y-89224752D01*
X121175365Y-89250942D01*
X120746741Y-89428484D01*
X120664800Y-89681195D01*
X119705629Y-89681195D01*
X119704930Y-89680495D01*
X119247652Y-89490617D01*
X118752520Y-89490185D01*
X118294912Y-89679264D01*
X117944495Y-90029070D01*
X117861477Y-90229000D01*
X117596584Y-90229000D01*
X117514736Y-90030912D01*
X117164930Y-89680495D01*
X116707652Y-89490617D01*
X116212520Y-89490185D01*
X115754912Y-89679264D01*
X115404495Y-90029070D01*
X115214617Y-90486348D01*
X115214185Y-90981480D01*
X115296854Y-91181554D01*
X114858603Y-91619805D01*
X114748916Y-91783963D01*
X114710399Y-91977601D01*
X114710399Y-95415126D01*
X114537639Y-95414975D01*
X114271479Y-95524950D01*
X114067665Y-95728408D01*
X113957226Y-95994376D01*
X113956975Y-96282361D01*
X114066950Y-96548521D01*
X114270408Y-96752335D01*
X114536376Y-96862774D01*
X114708000Y-96862924D01*
X114708000Y-96955763D01*
X114257764Y-97406000D01*
X113143621Y-97406000D01*
X113088179Y-97368118D01*
X113142075Y-97314317D01*
X113310808Y-96907962D01*
X113311192Y-96467968D01*
X113143168Y-96061320D01*
X112832317Y-95749925D01*
X112425962Y-95581192D01*
X111985968Y-95580808D01*
X111579320Y-95748832D01*
X111267925Y-96059683D01*
X111099192Y-96466038D01*
X111098808Y-96906032D01*
X111266832Y-97312680D01*
X111310076Y-97356000D01*
X111230005Y-97356000D01*
X111230000Y-97355999D01*
X111026795Y-97396420D01*
X110854526Y-97511526D01*
X110843464Y-97522588D01*
X110843464Y-97437000D01*
X110816897Y-97295810D01*
X110733454Y-97166135D01*
X110727963Y-97162383D01*
X110812859Y-97038134D01*
X110843464Y-96887000D01*
X110843464Y-95780569D01*
X110862076Y-95687000D01*
X110787402Y-95311588D01*
X110574748Y-94993328D01*
X110413164Y-94885361D01*
X113067975Y-94885361D01*
X113177950Y-95151521D01*
X113381408Y-95355335D01*
X113647376Y-95465774D01*
X113935361Y-95466025D01*
X114201521Y-95356050D01*
X114405335Y-95152592D01*
X114515774Y-94886624D01*
X114516025Y-94598639D01*
X114406050Y-94332479D01*
X114202592Y-94128665D01*
X113936624Y-94018226D01*
X113648639Y-94017975D01*
X113382479Y-94127950D01*
X113178665Y-94331408D01*
X113068226Y-94597376D01*
X113067975Y-94885361D01*
X110413164Y-94885361D01*
X110256488Y-94780674D01*
X109881076Y-94706000D01*
X109128924Y-94706000D01*
X108753512Y-94780674D01*
X108435252Y-94993328D01*
X108419900Y-95016304D01*
X108419900Y-92352758D01*
X109832696Y-92352758D01*
X110099468Y-92998395D01*
X110593007Y-93492796D01*
X111238178Y-93760694D01*
X111936758Y-93761304D01*
X112582395Y-93494532D01*
X113076796Y-93000993D01*
X113344694Y-92355822D01*
X113345304Y-91657242D01*
X113078532Y-91011605D01*
X112584993Y-90517204D01*
X111939822Y-90249306D01*
X111241242Y-90248696D01*
X110595605Y-90515468D01*
X110101204Y-91009007D01*
X109833306Y-91654178D01*
X109832696Y-92352758D01*
X108419900Y-92352758D01*
X108419900Y-91338556D01*
X108560416Y-90400991D01*
X109027039Y-89625129D01*
X109755057Y-89086889D01*
X110659033Y-88861900D01*
X125865102Y-88861900D01*
X124975925Y-89751077D01*
G36*
X155236099Y-104053099D02*
X155249452Y-104120228D01*
X154946497Y-103816744D01*
X154530957Y-103644196D01*
X154081017Y-103643804D01*
X153665177Y-103815625D01*
X153346744Y-104133503D01*
X153174196Y-104549043D01*
X153173804Y-104998983D01*
X153229830Y-105134578D01*
X152444408Y-105920000D01*
X150348000Y-105920000D01*
X150348000Y-105624750D01*
X150189250Y-105466000D01*
X149613000Y-105466000D01*
X149613000Y-105486000D01*
X149451464Y-105486000D01*
X149451464Y-104789000D01*
X149424897Y-104647810D01*
X149413000Y-104629321D01*
X149413000Y-104312750D01*
X149613000Y-104312750D01*
X149613000Y-105212000D01*
X150189250Y-105212000D01*
X150348000Y-105053250D01*
X150348000Y-104662691D01*
X150251327Y-104429302D01*
X150072699Y-104250673D01*
X149839310Y-104154000D01*
X149771750Y-104154000D01*
X149613000Y-104312750D01*
X149413000Y-104312750D01*
X149254250Y-104154000D01*
X149186690Y-104154000D01*
X148953301Y-104250673D01*
X148803439Y-104400536D01*
X148719000Y-104400536D01*
X148719000Y-104124750D01*
X150353000Y-104124750D01*
X150353000Y-104715309D01*
X150449673Y-104948698D01*
X150628301Y-105127327D01*
X150861690Y-105224000D01*
X151352250Y-105224000D01*
X151511000Y-105065250D01*
X151511000Y-103966000D01*
X151765000Y-103966000D01*
X151765000Y-105065250D01*
X151923750Y-105224000D01*
X152414310Y-105224000D01*
X152647699Y-105127327D01*
X152826327Y-104948698D01*
X152923000Y-104715309D01*
X152923000Y-104124750D01*
X152764250Y-103966000D01*
X151765000Y-103966000D01*
X151511000Y-103966000D01*
X150511750Y-103966000D01*
X150353000Y-104124750D01*
X148719000Y-104124750D01*
X148719000Y-104091592D01*
X150196592Y-102614000D01*
X150315206Y-102614000D01*
X150327003Y-102625797D01*
X150462585Y-102716390D01*
X150449673Y-102729302D01*
X150353000Y-102962691D01*
X150353000Y-103553250D01*
X150511750Y-103712000D01*
X151511000Y-103712000D01*
X151511000Y-103692000D01*
X151765000Y-103692000D01*
X151765000Y-103712000D01*
X152764250Y-103712000D01*
X152923000Y-103553250D01*
X152923000Y-102962691D01*
X152826327Y-102729302D01*
X152813415Y-102716390D01*
X152948997Y-102625797D01*
X152960794Y-102614000D01*
X153465593Y-102614000D01*
X153663503Y-102812256D01*
X154079043Y-102984804D01*
X154528983Y-102985196D01*
X154944823Y-102813375D01*
X155236099Y-102522607D01*
X155236099Y-104053099D01*
X155236099Y-104053099D01*
G37*
X155236099Y-104053099D02*
X155249452Y-104120228D01*
X154946497Y-103816744D01*
X154530957Y-103644196D01*
X154081017Y-103643804D01*
X153665177Y-103815625D01*
X153346744Y-104133503D01*
X153174196Y-104549043D01*
X153173804Y-104998983D01*
X153229830Y-105134578D01*
X152444408Y-105920000D01*
X150348000Y-105920000D01*
X150348000Y-105624750D01*
X150189250Y-105466000D01*
X149613000Y-105466000D01*
X149613000Y-105486000D01*
X149451464Y-105486000D01*
X149451464Y-104789000D01*
X149424897Y-104647810D01*
X149413000Y-104629321D01*
X149413000Y-104312750D01*
X149613000Y-104312750D01*
X149613000Y-105212000D01*
X150189250Y-105212000D01*
X150348000Y-105053250D01*
X150348000Y-104662691D01*
X150251327Y-104429302D01*
X150072699Y-104250673D01*
X149839310Y-104154000D01*
X149771750Y-104154000D01*
X149613000Y-104312750D01*
X149413000Y-104312750D01*
X149254250Y-104154000D01*
X149186690Y-104154000D01*
X148953301Y-104250673D01*
X148803439Y-104400536D01*
X148719000Y-104400536D01*
X148719000Y-104124750D01*
X150353000Y-104124750D01*
X150353000Y-104715309D01*
X150449673Y-104948698D01*
X150628301Y-105127327D01*
X150861690Y-105224000D01*
X151352250Y-105224000D01*
X151511000Y-105065250D01*
X151511000Y-103966000D01*
X151765000Y-103966000D01*
X151765000Y-105065250D01*
X151923750Y-105224000D01*
X152414310Y-105224000D01*
X152647699Y-105127327D01*
X152826327Y-104948698D01*
X152923000Y-104715309D01*
X152923000Y-104124750D01*
X152764250Y-103966000D01*
X151765000Y-103966000D01*
X151511000Y-103966000D01*
X150511750Y-103966000D01*
X150353000Y-104124750D01*
X148719000Y-104124750D01*
X148719000Y-104091592D01*
X150196592Y-102614000D01*
X150315206Y-102614000D01*
X150327003Y-102625797D01*
X150462585Y-102716390D01*
X150449673Y-102729302D01*
X150353000Y-102962691D01*
X150353000Y-103553250D01*
X150511750Y-103712000D01*
X151511000Y-103712000D01*
X151511000Y-103692000D01*
X151765000Y-103692000D01*
X151765000Y-103712000D01*
X152764250Y-103712000D01*
X152923000Y-103553250D01*
X152923000Y-102962691D01*
X152826327Y-102729302D01*
X152813415Y-102716390D01*
X152948997Y-102625797D01*
X152960794Y-102614000D01*
X153465593Y-102614000D01*
X153663503Y-102812256D01*
X154079043Y-102984804D01*
X154528983Y-102985196D01*
X154944823Y-102813375D01*
X155236099Y-102522607D01*
X155236099Y-104053099D01*
G36*
X115318000Y-102830408D02*
X114450204Y-103698204D01*
X114340517Y-103862362D01*
X114329542Y-103917536D01*
X114084999Y-103917536D01*
X114084999Y-102784593D01*
X114545699Y-102323893D01*
X114697361Y-102324025D01*
X114963521Y-102214050D01*
X115167335Y-102010592D01*
X115277774Y-101744624D01*
X115278025Y-101456639D01*
X115168050Y-101190479D01*
X114964592Y-100986665D01*
X114698624Y-100876226D01*
X114410639Y-100875975D01*
X114144479Y-100985950D01*
X113940665Y-101189408D01*
X113830226Y-101455376D01*
X113830093Y-101608315D01*
X113221203Y-102217205D01*
X113111516Y-102381363D01*
X113072999Y-102575001D01*
X113072999Y-104217703D01*
X112739083Y-103994587D01*
X112268000Y-103900883D01*
X111796917Y-103994587D01*
X111397552Y-104261435D01*
X111130704Y-104660800D01*
X111037000Y-105131883D01*
X111037000Y-105180117D01*
X111100913Y-105501429D01*
X110692429Y-105909913D01*
X110865296Y-105651200D01*
X110959000Y-105180117D01*
X110959000Y-105131883D01*
X110883356Y-104751592D01*
X111234475Y-104400473D01*
X111349581Y-104228204D01*
X111390002Y-104024999D01*
X111390001Y-104024994D01*
X111390001Y-102436065D01*
X111577683Y-102624075D01*
X111984038Y-102792808D01*
X112424032Y-102793192D01*
X112830680Y-102625168D01*
X113142075Y-102314317D01*
X113310808Y-101907962D01*
X113311192Y-101467968D01*
X113215138Y-101235500D01*
X113239699Y-101225327D01*
X113418327Y-101046698D01*
X113515000Y-100813309D01*
X113515000Y-100745750D01*
X113356250Y-100587000D01*
X113211518Y-100587000D01*
X113239699Y-100575327D01*
X113418327Y-100396698D01*
X113469080Y-100274170D01*
X113515000Y-100228250D01*
X113515000Y-100095750D01*
X113469080Y-100049830D01*
X113418327Y-99927302D01*
X113239699Y-99748673D01*
X113211518Y-99737000D01*
X113356250Y-99737000D01*
X113515000Y-99578250D01*
X113515000Y-99510691D01*
X113418327Y-99277302D01*
X113268464Y-99127438D01*
X113268464Y-98987000D01*
X113244080Y-98857412D01*
X113268464Y-98737000D01*
X113268464Y-98368000D01*
X114457000Y-98368000D01*
X114641071Y-98331386D01*
X114797118Y-98227118D01*
X115318000Y-97706237D01*
X115318000Y-102830408D01*
X115318000Y-102830408D01*
G37*
X115318000Y-102830408D02*
X114450204Y-103698204D01*
X114340517Y-103862362D01*
X114329542Y-103917536D01*
X114084999Y-103917536D01*
X114084999Y-102784593D01*
X114545699Y-102323893D01*
X114697361Y-102324025D01*
X114963521Y-102214050D01*
X115167335Y-102010592D01*
X115277774Y-101744624D01*
X115278025Y-101456639D01*
X115168050Y-101190479D01*
X114964592Y-100986665D01*
X114698624Y-100876226D01*
X114410639Y-100875975D01*
X114144479Y-100985950D01*
X113940665Y-101189408D01*
X113830226Y-101455376D01*
X113830093Y-101608315D01*
X113221203Y-102217205D01*
X113111516Y-102381363D01*
X113072999Y-102575001D01*
X113072999Y-104217703D01*
X112739083Y-103994587D01*
X112268000Y-103900883D01*
X111796917Y-103994587D01*
X111397552Y-104261435D01*
X111130704Y-104660800D01*
X111037000Y-105131883D01*
X111037000Y-105180117D01*
X111100913Y-105501429D01*
X110692429Y-105909913D01*
X110865296Y-105651200D01*
X110959000Y-105180117D01*
X110959000Y-105131883D01*
X110883356Y-104751592D01*
X111234475Y-104400473D01*
X111349581Y-104228204D01*
X111390002Y-104024999D01*
X111390001Y-104024994D01*
X111390001Y-102436065D01*
X111577683Y-102624075D01*
X111984038Y-102792808D01*
X112424032Y-102793192D01*
X112830680Y-102625168D01*
X113142075Y-102314317D01*
X113310808Y-101907962D01*
X113311192Y-101467968D01*
X113215138Y-101235500D01*
X113239699Y-101225327D01*
X113418327Y-101046698D01*
X113515000Y-100813309D01*
X113515000Y-100745750D01*
X113356250Y-100587000D01*
X113211518Y-100587000D01*
X113239699Y-100575327D01*
X113418327Y-100396698D01*
X113469080Y-100274170D01*
X113515000Y-100228250D01*
X113515000Y-100095750D01*
X113469080Y-100049830D01*
X113418327Y-99927302D01*
X113239699Y-99748673D01*
X113211518Y-99737000D01*
X113356250Y-99737000D01*
X113515000Y-99578250D01*
X113515000Y-99510691D01*
X113418327Y-99277302D01*
X113268464Y-99127438D01*
X113268464Y-98987000D01*
X113244080Y-98857412D01*
X113268464Y-98737000D01*
X113268464Y-98368000D01*
X114457000Y-98368000D01*
X114641071Y-98331386D01*
X114797118Y-98227118D01*
X115318000Y-97706237D01*
X115318000Y-102830408D01*
G36*
X150824723Y-100041315D02*
X150717135Y-100110546D01*
X150630141Y-100237866D01*
X150599536Y-100389000D01*
X150599536Y-101602000D01*
X149987000Y-101602000D01*
X149793362Y-101640517D01*
X149629204Y-101750204D01*
X147855204Y-103524204D01*
X147745517Y-103688362D01*
X147707000Y-103882000D01*
X147707000Y-104400536D01*
X147363000Y-104400536D01*
X147233412Y-104424920D01*
X147113000Y-104400536D01*
X146713000Y-104400536D01*
X146583412Y-104424920D01*
X146463000Y-104400536D01*
X146063000Y-104400536D01*
X145933412Y-104424920D01*
X145813000Y-104400536D01*
X145413000Y-104400536D01*
X145283412Y-104424920D01*
X145163000Y-104400536D01*
X144763000Y-104400536D01*
X144633412Y-104424920D01*
X144513000Y-104400536D01*
X144144000Y-104400536D01*
X144144000Y-104275741D01*
X144250335Y-104169592D01*
X144357282Y-103912034D01*
X144508376Y-103974774D01*
X144796361Y-103975025D01*
X145062521Y-103865050D01*
X145266335Y-103661592D01*
X145279103Y-103630844D01*
X145385408Y-103737335D01*
X145651376Y-103847774D01*
X145939361Y-103848025D01*
X145983469Y-103829800D01*
X146070950Y-104041521D01*
X146274408Y-104245335D01*
X146540376Y-104355774D01*
X146828361Y-104356025D01*
X147094521Y-104246050D01*
X147298335Y-104042592D01*
X147408774Y-103776624D01*
X147409025Y-103488639D01*
X147299050Y-103222479D01*
X147095592Y-103018665D01*
X147039000Y-102995166D01*
X147039000Y-102870000D01*
X147002386Y-102685929D01*
X146898118Y-102529882D01*
X145755118Y-101386882D01*
X145599071Y-101282614D01*
X145415000Y-101246000D01*
X142455870Y-101246000D01*
X142456084Y-101000068D01*
X142346109Y-100733908D01*
X142244000Y-100631620D01*
X142244000Y-100577464D01*
X142303439Y-100577464D01*
X142453301Y-100727327D01*
X142686690Y-100824000D01*
X142754250Y-100824000D01*
X142913000Y-100665250D01*
X142913000Y-100351636D01*
X142920859Y-100340134D01*
X142951464Y-100189000D01*
X142951464Y-99492000D01*
X143074536Y-99492000D01*
X143074536Y-100189000D01*
X143101103Y-100330190D01*
X143113000Y-100348679D01*
X143113000Y-100665250D01*
X143271750Y-100824000D01*
X143339310Y-100824000D01*
X143572699Y-100727327D01*
X143722561Y-100577464D01*
X143863000Y-100577464D01*
X143992588Y-100553080D01*
X144113000Y-100577464D01*
X144513000Y-100577464D01*
X144642588Y-100553080D01*
X144763000Y-100577464D01*
X145163000Y-100577464D01*
X145292588Y-100553080D01*
X145413000Y-100577464D01*
X145813000Y-100577464D01*
X145942588Y-100553080D01*
X146063000Y-100577464D01*
X146463000Y-100577464D01*
X146592588Y-100553080D01*
X146713000Y-100577464D01*
X147113000Y-100577464D01*
X147242588Y-100553080D01*
X147363000Y-100577464D01*
X147763000Y-100577464D01*
X147892588Y-100553080D01*
X148013000Y-100577464D01*
X148413000Y-100577464D01*
X148542588Y-100553080D01*
X148663000Y-100577464D01*
X149063000Y-100577464D01*
X149192588Y-100553080D01*
X149313000Y-100577464D01*
X149713000Y-100577464D01*
X149854190Y-100550897D01*
X149983865Y-100467454D01*
X150070859Y-100340134D01*
X150101464Y-100189000D01*
X150101464Y-99318056D01*
X150824723Y-100041315D01*
X150824723Y-100041315D01*
G37*
X150824723Y-100041315D02*
X150717135Y-100110546D01*
X150630141Y-100237866D01*
X150599536Y-100389000D01*
X150599536Y-101602000D01*
X149987000Y-101602000D01*
X149793362Y-101640517D01*
X149629204Y-101750204D01*
X147855204Y-103524204D01*
X147745517Y-103688362D01*
X147707000Y-103882000D01*
X147707000Y-104400536D01*
X147363000Y-104400536D01*
X147233412Y-104424920D01*
X147113000Y-104400536D01*
X146713000Y-104400536D01*
X146583412Y-104424920D01*
X146463000Y-104400536D01*
X146063000Y-104400536D01*
X145933412Y-104424920D01*
X145813000Y-104400536D01*
X145413000Y-104400536D01*
X145283412Y-104424920D01*
X145163000Y-104400536D01*
X144763000Y-104400536D01*
X144633412Y-104424920D01*
X144513000Y-104400536D01*
X144144000Y-104400536D01*
X144144000Y-104275741D01*
X144250335Y-104169592D01*
X144357282Y-103912034D01*
X144508376Y-103974774D01*
X144796361Y-103975025D01*
X145062521Y-103865050D01*
X145266335Y-103661592D01*
X145279103Y-103630844D01*
X145385408Y-103737335D01*
X145651376Y-103847774D01*
X145939361Y-103848025D01*
X145983469Y-103829800D01*
X146070950Y-104041521D01*
X146274408Y-104245335D01*
X146540376Y-104355774D01*
X146828361Y-104356025D01*
X147094521Y-104246050D01*
X147298335Y-104042592D01*
X147408774Y-103776624D01*
X147409025Y-103488639D01*
X147299050Y-103222479D01*
X147095592Y-103018665D01*
X147039000Y-102995166D01*
X147039000Y-102870000D01*
X147002386Y-102685929D01*
X146898118Y-102529882D01*
X145755118Y-101386882D01*
X145599071Y-101282614D01*
X145415000Y-101246000D01*
X142455870Y-101246000D01*
X142456084Y-101000068D01*
X142346109Y-100733908D01*
X142244000Y-100631620D01*
X142244000Y-100577464D01*
X142303439Y-100577464D01*
X142453301Y-100727327D01*
X142686690Y-100824000D01*
X142754250Y-100824000D01*
X142913000Y-100665250D01*
X142913000Y-100351636D01*
X142920859Y-100340134D01*
X142951464Y-100189000D01*
X142951464Y-99492000D01*
X143074536Y-99492000D01*
X143074536Y-100189000D01*
X143101103Y-100330190D01*
X143113000Y-100348679D01*
X143113000Y-100665250D01*
X143271750Y-100824000D01*
X143339310Y-100824000D01*
X143572699Y-100727327D01*
X143722561Y-100577464D01*
X143863000Y-100577464D01*
X143992588Y-100553080D01*
X144113000Y-100577464D01*
X144513000Y-100577464D01*
X144642588Y-100553080D01*
X144763000Y-100577464D01*
X145163000Y-100577464D01*
X145292588Y-100553080D01*
X145413000Y-100577464D01*
X145813000Y-100577464D01*
X145942588Y-100553080D01*
X146063000Y-100577464D01*
X146463000Y-100577464D01*
X146592588Y-100553080D01*
X146713000Y-100577464D01*
X147113000Y-100577464D01*
X147242588Y-100553080D01*
X147363000Y-100577464D01*
X147763000Y-100577464D01*
X147892588Y-100553080D01*
X148013000Y-100577464D01*
X148413000Y-100577464D01*
X148542588Y-100553080D01*
X148663000Y-100577464D01*
X149063000Y-100577464D01*
X149192588Y-100553080D01*
X149313000Y-100577464D01*
X149713000Y-100577464D01*
X149854190Y-100550897D01*
X149983865Y-100467454D01*
X150070859Y-100340134D01*
X150101464Y-100189000D01*
X150101464Y-99318056D01*
X150824723Y-100041315D01*
G36*
X130824800Y-89681195D02*
X131699000Y-90555395D01*
X132573200Y-89681195D01*
X132528841Y-89544389D01*
X133861336Y-89544389D01*
X133534912Y-89679264D01*
X133184495Y-90029070D01*
X133112797Y-90201739D01*
X133005516Y-89942741D01*
X132752805Y-89860800D01*
X131878605Y-90735000D01*
X131892748Y-90749143D01*
X131713143Y-90928748D01*
X131699000Y-90914605D01*
X131684858Y-90928748D01*
X131505253Y-90749143D01*
X131519395Y-90735000D01*
X130645195Y-89860800D01*
X130392484Y-89942741D01*
X130292228Y-90218458D01*
X130214736Y-90030912D01*
X129864930Y-89680495D01*
X129537150Y-89544389D01*
X130869159Y-89544389D01*
X130824800Y-89681195D01*
X130824800Y-89681195D01*
G37*
X130824800Y-89681195D02*
X131699000Y-90555395D01*
X132573200Y-89681195D01*
X132528841Y-89544389D01*
X133861336Y-89544389D01*
X133534912Y-89679264D01*
X133184495Y-90029070D01*
X133112797Y-90201739D01*
X133005516Y-89942741D01*
X132752805Y-89860800D01*
X131878605Y-90735000D01*
X131892748Y-90749143D01*
X131713143Y-90928748D01*
X131699000Y-90914605D01*
X131684858Y-90928748D01*
X131505253Y-90749143D01*
X131519395Y-90735000D01*
X130645195Y-89860800D01*
X130392484Y-89942741D01*
X130292228Y-90218458D01*
X130214736Y-90030912D01*
X129864930Y-89680495D01*
X129537150Y-89544389D01*
X130869159Y-89544389D01*
X130824800Y-89681195D01*
G36*
X138444800Y-89681195D02*
X139319000Y-90555395D01*
X139333143Y-90541253D01*
X139512748Y-90720858D01*
X139498605Y-90735000D01*
X139512748Y-90749143D01*
X139333143Y-90928748D01*
X139319000Y-90914605D01*
X139304858Y-90928748D01*
X139125253Y-90749143D01*
X139139395Y-90735000D01*
X138458396Y-90054001D01*
X138440987Y-89966480D01*
X138336719Y-89810433D01*
X138070675Y-89544389D01*
X138489159Y-89544389D01*
X138444800Y-89681195D01*
X138444800Y-89681195D01*
G37*
X138444800Y-89681195D02*
X139319000Y-90555395D01*
X139333143Y-90541253D01*
X139512748Y-90720858D01*
X139498605Y-90735000D01*
X139512748Y-90749143D01*
X139333143Y-90928748D01*
X139319000Y-90914605D01*
X139304858Y-90928748D01*
X139125253Y-90749143D01*
X139139395Y-90735000D01*
X138458396Y-90054001D01*
X138440987Y-89966480D01*
X138336719Y-89810433D01*
X138070675Y-89544389D01*
X138489159Y-89544389D01*
X138444800Y-89681195D01*
M02*
