%TF.GenerationSoftware,KiCad,Pcbnew,4.0.7*%
%TF.CreationDate,2018-07-08T22:20:32+02:00*%
%TF.ProjectId,Elemental-pHAT,456C656D656E74616C2D704841542E6B,rev?*%
%TF.FileFunction,Legend,Top*%
%FSLAX46Y46*%
G04 Gerber Fmt 4.6, Leading zero omitted, Abs format (unit mm)*
G04 Created by KiCad (PCBNEW 4.0.7) date 07/08/18 22:20:32*
%MOMM*%
%LPD*%
G01*
G04 APERTURE LIST*
%ADD10C,0.127000*%
%ADD11C,0.140000*%
%ADD12C,0.120000*%
%ADD13C,0.150000*%
G04 APERTURE END LIST*
D10*
X155689429Y-105017857D02*
X155775143Y-105046429D01*
X155918000Y-105046429D01*
X155975143Y-105017857D01*
X156003714Y-104989286D01*
X156032286Y-104932143D01*
X156032286Y-104875000D01*
X156003714Y-104817857D01*
X155975143Y-104789286D01*
X155918000Y-104760714D01*
X155803714Y-104732143D01*
X155746572Y-104703571D01*
X155718000Y-104675000D01*
X155689429Y-104617857D01*
X155689429Y-104560714D01*
X155718000Y-104503571D01*
X155746572Y-104475000D01*
X155803714Y-104446429D01*
X155946572Y-104446429D01*
X156032286Y-104475000D01*
X156289429Y-104732143D02*
X156489429Y-104732143D01*
X156575143Y-105046429D02*
X156289429Y-105046429D01*
X156289429Y-104446429D01*
X156575143Y-104446429D01*
X157175143Y-105046429D02*
X156975143Y-104760714D01*
X156832286Y-105046429D02*
X156832286Y-104446429D01*
X157060858Y-104446429D01*
X157118000Y-104475000D01*
X157146572Y-104503571D01*
X157175143Y-104560714D01*
X157175143Y-104646429D01*
X157146572Y-104703571D01*
X157118000Y-104732143D01*
X157060858Y-104760714D01*
X156832286Y-104760714D01*
X157375143Y-104446429D02*
X157775143Y-104446429D01*
X157518000Y-105046429D01*
X155689429Y-102096857D02*
X155775143Y-102125429D01*
X155918000Y-102125429D01*
X155975143Y-102096857D01*
X156003714Y-102068286D01*
X156032286Y-102011143D01*
X156032286Y-101954000D01*
X156003714Y-101896857D01*
X155975143Y-101868286D01*
X155918000Y-101839714D01*
X155803714Y-101811143D01*
X155746572Y-101782571D01*
X155718000Y-101754000D01*
X155689429Y-101696857D01*
X155689429Y-101639714D01*
X155718000Y-101582571D01*
X155746572Y-101554000D01*
X155803714Y-101525429D01*
X155946572Y-101525429D01*
X156032286Y-101554000D01*
X156289429Y-101811143D02*
X156489429Y-101811143D01*
X156575143Y-102125429D02*
X156289429Y-102125429D01*
X156289429Y-101525429D01*
X156575143Y-101525429D01*
X157175143Y-102125429D02*
X156975143Y-101839714D01*
X156832286Y-102125429D02*
X156832286Y-101525429D01*
X157060858Y-101525429D01*
X157118000Y-101554000D01*
X157146572Y-101582571D01*
X157175143Y-101639714D01*
X157175143Y-101725429D01*
X157146572Y-101782571D01*
X157118000Y-101811143D01*
X157060858Y-101839714D01*
X156832286Y-101839714D01*
X157689429Y-101525429D02*
X157575143Y-101525429D01*
X157518000Y-101554000D01*
X157489429Y-101582571D01*
X157432286Y-101668286D01*
X157403715Y-101782571D01*
X157403715Y-102011143D01*
X157432286Y-102068286D01*
X157460858Y-102096857D01*
X157518000Y-102125429D01*
X157632286Y-102125429D01*
X157689429Y-102096857D01*
X157718000Y-102068286D01*
X157746572Y-102011143D01*
X157746572Y-101868286D01*
X157718000Y-101811143D01*
X157689429Y-101782571D01*
X157632286Y-101754000D01*
X157518000Y-101754000D01*
X157460858Y-101782571D01*
X157432286Y-101811143D01*
X157403715Y-101868286D01*
X132032429Y-105637000D02*
X132318143Y-105637000D01*
X131975286Y-105808429D02*
X132175286Y-105208429D01*
X132375286Y-105808429D01*
X132832429Y-105208429D02*
X132718143Y-105208429D01*
X132661000Y-105237000D01*
X132632429Y-105265571D01*
X132575286Y-105351286D01*
X132546715Y-105465571D01*
X132546715Y-105694143D01*
X132575286Y-105751286D01*
X132603858Y-105779857D01*
X132661000Y-105808429D01*
X132775286Y-105808429D01*
X132832429Y-105779857D01*
X132861000Y-105751286D01*
X132889572Y-105694143D01*
X132889572Y-105551286D01*
X132861000Y-105494143D01*
X132832429Y-105465571D01*
X132775286Y-105437000D01*
X132661000Y-105437000D01*
X132603858Y-105465571D01*
X132575286Y-105494143D01*
X132546715Y-105551286D01*
X125301429Y-105637000D02*
X125587143Y-105637000D01*
X125244286Y-105808429D02*
X125444286Y-105208429D01*
X125644286Y-105808429D01*
X126130000Y-105208429D02*
X125844286Y-105208429D01*
X125815715Y-105494143D01*
X125844286Y-105465571D01*
X125901429Y-105437000D01*
X126044286Y-105437000D01*
X126101429Y-105465571D01*
X126130000Y-105494143D01*
X126158572Y-105551286D01*
X126158572Y-105694143D01*
X126130000Y-105751286D01*
X126101429Y-105779857D01*
X126044286Y-105808429D01*
X125901429Y-105808429D01*
X125844286Y-105779857D01*
X125815715Y-105751286D01*
X108337000Y-110868667D02*
X108337000Y-111435333D01*
X108370333Y-111502000D01*
X108403666Y-111535333D01*
X108470333Y-111568667D01*
X108603666Y-111568667D01*
X108670333Y-111535333D01*
X108703666Y-111502000D01*
X108737000Y-111435333D01*
X108737000Y-110868667D01*
X109036999Y-111535333D02*
X109136999Y-111568667D01*
X109303666Y-111568667D01*
X109370333Y-111535333D01*
X109403666Y-111502000D01*
X109436999Y-111435333D01*
X109436999Y-111368667D01*
X109403666Y-111302000D01*
X109370333Y-111268667D01*
X109303666Y-111235333D01*
X109170333Y-111202000D01*
X109103666Y-111168667D01*
X109070333Y-111135333D01*
X109036999Y-111068667D01*
X109036999Y-111002000D01*
X109070333Y-110935333D01*
X109103666Y-110902000D01*
X109170333Y-110868667D01*
X109336999Y-110868667D01*
X109436999Y-110902000D01*
X109970333Y-111202000D02*
X110070333Y-111235333D01*
X110103666Y-111268667D01*
X110137000Y-111335333D01*
X110137000Y-111435333D01*
X110103666Y-111502000D01*
X110070333Y-111535333D01*
X110003666Y-111568667D01*
X109737000Y-111568667D01*
X109737000Y-110868667D01*
X109970333Y-110868667D01*
X110037000Y-110902000D01*
X110070333Y-110935333D01*
X110103666Y-111002000D01*
X110103666Y-111068667D01*
X110070333Y-111135333D01*
X110037000Y-111168667D01*
X109970333Y-111202000D01*
X109737000Y-111202000D01*
X110603666Y-111802000D02*
X110603666Y-110802000D01*
X111037000Y-110868667D02*
X111470333Y-110868667D01*
X111237000Y-111135333D01*
X111337000Y-111135333D01*
X111403667Y-111168667D01*
X111437000Y-111202000D01*
X111470333Y-111268667D01*
X111470333Y-111435333D01*
X111437000Y-111502000D01*
X111403667Y-111535333D01*
X111337000Y-111568667D01*
X111137000Y-111568667D01*
X111070333Y-111535333D01*
X111037000Y-111502000D01*
X111770334Y-111502000D02*
X111803667Y-111535333D01*
X111770334Y-111568667D01*
X111737000Y-111535333D01*
X111770334Y-111502000D01*
X111770334Y-111568667D01*
X112037000Y-110868667D02*
X112470333Y-110868667D01*
X112237000Y-111135333D01*
X112337000Y-111135333D01*
X112403667Y-111168667D01*
X112437000Y-111202000D01*
X112470333Y-111268667D01*
X112470333Y-111435333D01*
X112437000Y-111502000D01*
X112403667Y-111535333D01*
X112337000Y-111568667D01*
X112137000Y-111568667D01*
X112070333Y-111535333D01*
X112037000Y-111502000D01*
X112670334Y-110868667D02*
X112903667Y-111568667D01*
X113137000Y-110868667D01*
X113537000Y-111802000D02*
X113537000Y-110802000D01*
X114437001Y-111568667D02*
X114203667Y-111235333D01*
X114037001Y-111568667D02*
X114037001Y-110868667D01*
X114303667Y-110868667D01*
X114370334Y-110902000D01*
X114403667Y-110935333D01*
X114437001Y-111002000D01*
X114437001Y-111102000D01*
X114403667Y-111168667D01*
X114370334Y-111202000D01*
X114303667Y-111235333D01*
X114037001Y-111235333D01*
X114737001Y-111568667D02*
X114737001Y-110868667D01*
X115003667Y-110868667D01*
X115070334Y-110902000D01*
X115103667Y-110935333D01*
X115137001Y-111002000D01*
X115137001Y-111102000D01*
X115103667Y-111168667D01*
X115070334Y-111202000D01*
X115003667Y-111235333D01*
X114737001Y-111235333D01*
X115437001Y-111568667D02*
X115437001Y-110868667D01*
X108401286Y-109543905D02*
X108401286Y-110191524D01*
X108439381Y-110267714D01*
X108477477Y-110305810D01*
X108553667Y-110343905D01*
X108706048Y-110343905D01*
X108782239Y-110305810D01*
X108820334Y-110267714D01*
X108858429Y-110191524D01*
X108858429Y-109543905D01*
X109201286Y-110305810D02*
X109315572Y-110343905D01*
X109506048Y-110343905D01*
X109582238Y-110305810D01*
X109620334Y-110267714D01*
X109658429Y-110191524D01*
X109658429Y-110115333D01*
X109620334Y-110039143D01*
X109582238Y-110001048D01*
X109506048Y-109962952D01*
X109353667Y-109924857D01*
X109277476Y-109886762D01*
X109239381Y-109848667D01*
X109201286Y-109772476D01*
X109201286Y-109696286D01*
X109239381Y-109620095D01*
X109277476Y-109582000D01*
X109353667Y-109543905D01*
X109544143Y-109543905D01*
X109658429Y-109582000D01*
X110267953Y-109924857D02*
X110382239Y-109962952D01*
X110420334Y-110001048D01*
X110458429Y-110077238D01*
X110458429Y-110191524D01*
X110420334Y-110267714D01*
X110382239Y-110305810D01*
X110306048Y-110343905D01*
X110001286Y-110343905D01*
X110001286Y-109543905D01*
X110267953Y-109543905D01*
X110344143Y-109582000D01*
X110382239Y-109620095D01*
X110420334Y-109696286D01*
X110420334Y-109772476D01*
X110382239Y-109848667D01*
X110344143Y-109886762D01*
X110267953Y-109924857D01*
X110001286Y-109924857D01*
X110991762Y-110610571D02*
X110991762Y-109467714D01*
X111944144Y-109543905D02*
X111563191Y-109543905D01*
X111525096Y-109924857D01*
X111563191Y-109886762D01*
X111639382Y-109848667D01*
X111829858Y-109848667D01*
X111906048Y-109886762D01*
X111944144Y-109924857D01*
X111982239Y-110001048D01*
X111982239Y-110191524D01*
X111944144Y-110267714D01*
X111906048Y-110305810D01*
X111829858Y-110343905D01*
X111639382Y-110343905D01*
X111563191Y-110305810D01*
X111525096Y-110267714D01*
X112210810Y-109543905D02*
X112477477Y-110343905D01*
X112744144Y-109543905D01*
X113201286Y-110610571D02*
X113201286Y-109467714D01*
X114229858Y-110343905D02*
X113963191Y-109962952D01*
X113772715Y-110343905D02*
X113772715Y-109543905D01*
X114077477Y-109543905D01*
X114153668Y-109582000D01*
X114191763Y-109620095D01*
X114229858Y-109696286D01*
X114229858Y-109810571D01*
X114191763Y-109886762D01*
X114153668Y-109924857D01*
X114077477Y-109962952D01*
X113772715Y-109962952D01*
X114572715Y-110343905D02*
X114572715Y-109543905D01*
X114877477Y-109543905D01*
X114953668Y-109582000D01*
X114991763Y-109620095D01*
X115029858Y-109696286D01*
X115029858Y-109810571D01*
X114991763Y-109886762D01*
X114953668Y-109924857D01*
X114877477Y-109962952D01*
X114572715Y-109962952D01*
X115372715Y-110343905D02*
X115372715Y-109543905D01*
D11*
X114788905Y-101396524D02*
X113988905Y-101396524D01*
X113988905Y-101091762D01*
X114027000Y-101015571D01*
X114065095Y-100977476D01*
X114141286Y-100939381D01*
X114255571Y-100939381D01*
X114331762Y-100977476D01*
X114369857Y-101015571D01*
X114407952Y-101091762D01*
X114407952Y-101396524D01*
X113988905Y-100672714D02*
X114788905Y-100482238D01*
X114217476Y-100329857D01*
X114788905Y-100177476D01*
X113988905Y-99987000D01*
X114788905Y-99682238D02*
X113988905Y-99682238D01*
X113988905Y-99491762D01*
X114027000Y-99377476D01*
X114103190Y-99301285D01*
X114179381Y-99263190D01*
X114331762Y-99225095D01*
X114446048Y-99225095D01*
X114598429Y-99263190D01*
X114674619Y-99301285D01*
X114750810Y-99377476D01*
X114788905Y-99491762D01*
X114788905Y-99682238D01*
X114788905Y-98272714D02*
X113988905Y-98272714D01*
X114788905Y-97891762D02*
X113988905Y-97891762D01*
X114788905Y-97434619D01*
X113988905Y-97434619D01*
X114065095Y-97167953D02*
X113950810Y-97015572D01*
X114065095Y-96863191D01*
D10*
X150758572Y-96191429D02*
X150872858Y-96191429D01*
X150930000Y-96220000D01*
X150987143Y-96277143D01*
X151015715Y-96391429D01*
X151015715Y-96591429D01*
X150987143Y-96705714D01*
X150930000Y-96762857D01*
X150872858Y-96791429D01*
X150758572Y-96791429D01*
X150701429Y-96762857D01*
X150644286Y-96705714D01*
X150615715Y-96591429D01*
X150615715Y-96391429D01*
X150644286Y-96277143D01*
X150701429Y-96220000D01*
X150758572Y-96191429D01*
X151272857Y-96791429D02*
X151272857Y-96191429D01*
X151615714Y-96791429D01*
X151615714Y-96191429D01*
X128136775Y-108064928D02*
X128473493Y-107728210D01*
X128271462Y-108334302D02*
X127800057Y-107391493D01*
X128742867Y-107862897D01*
X128810210Y-106852744D02*
X129281615Y-107324149D01*
X128372477Y-106751729D02*
X128709195Y-107425164D01*
X129146928Y-106987431D01*
X125469775Y-108064928D02*
X125806493Y-107728210D01*
X125604462Y-108334302D02*
X125133057Y-107391493D01*
X126075867Y-107862897D01*
X125537118Y-106987431D02*
X125974851Y-106549698D01*
X126008522Y-107054775D01*
X126109538Y-106953759D01*
X126210553Y-106920087D01*
X126277897Y-106920087D01*
X126378913Y-106953760D01*
X126547271Y-107122118D01*
X126580943Y-107223133D01*
X126580943Y-107290477D01*
X126547271Y-107391492D01*
X126345240Y-107593523D01*
X126244225Y-107627195D01*
X126176882Y-107627195D01*
X122675775Y-108064928D02*
X123012493Y-107728210D01*
X122810462Y-108334302D02*
X122339057Y-107391493D01*
X123281867Y-107862897D01*
X122844133Y-107021103D02*
X122844133Y-106953760D01*
X122877805Y-106852745D01*
X123046164Y-106684385D01*
X123147180Y-106650714D01*
X123214523Y-106650714D01*
X123315538Y-106684385D01*
X123382882Y-106751729D01*
X123450225Y-106886416D01*
X123450225Y-107694538D01*
X123887958Y-107256805D01*
X119881775Y-108064928D02*
X120218493Y-107728210D01*
X120016462Y-108334302D02*
X119545057Y-107391493D01*
X120487867Y-107862897D01*
X121093958Y-107256805D02*
X120689897Y-107660867D01*
X120891927Y-107458836D02*
X120184820Y-106751729D01*
X120218492Y-106920088D01*
X120218492Y-107054775D01*
X120184820Y-107155790D01*
X117087775Y-108064928D02*
X117424493Y-107728210D01*
X117222462Y-108334302D02*
X116751057Y-107391493D01*
X117693867Y-107862897D01*
X117357149Y-106785401D02*
X117424493Y-106718057D01*
X117525508Y-106684385D01*
X117592851Y-106684385D01*
X117693867Y-106718057D01*
X117862225Y-106819072D01*
X118030584Y-106987431D01*
X118131600Y-107155790D01*
X118165271Y-107256805D01*
X118165271Y-107324149D01*
X118131600Y-107425164D01*
X118064255Y-107492508D01*
X117963240Y-107526180D01*
X117895897Y-107526180D01*
X117794882Y-107492508D01*
X117626523Y-107391493D01*
X117458164Y-107223133D01*
X117357149Y-107054775D01*
X117323477Y-106953760D01*
X117323477Y-106886416D01*
X117357149Y-106785401D01*
X162696724Y-107882590D02*
X162615912Y-107909528D01*
X162535100Y-107990340D01*
X162481225Y-108098089D01*
X162481224Y-108205839D01*
X162508162Y-108286652D01*
X162588975Y-108421338D01*
X162669787Y-108502151D01*
X162804474Y-108582963D01*
X162885286Y-108609900D01*
X162993036Y-108609900D01*
X163100786Y-108556025D01*
X163154660Y-108502151D01*
X163208535Y-108394401D01*
X163208535Y-108340526D01*
X163019973Y-108151965D01*
X162912224Y-108259714D01*
X163504846Y-108151965D02*
X162939161Y-107586279D01*
X163154660Y-107370780D01*
X163235473Y-107343842D01*
X163289347Y-107343842D01*
X163370159Y-107370780D01*
X163450971Y-107451592D01*
X163477909Y-107532404D01*
X163477909Y-107586279D01*
X163450971Y-107667091D01*
X163235472Y-107882590D01*
X164070532Y-107586279D02*
X163504846Y-107020594D01*
X163881970Y-106643470D02*
X163989719Y-106535721D01*
X164070532Y-106508783D01*
X164178281Y-106508783D01*
X164312968Y-106589595D01*
X164501530Y-106778157D01*
X164582342Y-106912844D01*
X164582343Y-107020594D01*
X164555405Y-107101406D01*
X164447655Y-107209156D01*
X164366843Y-107236093D01*
X164259093Y-107236093D01*
X164124406Y-107155281D01*
X163935844Y-106966719D01*
X163855032Y-106832032D01*
X163855032Y-106724282D01*
X163881970Y-106643470D01*
X165228840Y-106427971D02*
X164905591Y-106751220D01*
X165067215Y-106589596D02*
X164501530Y-106023911D01*
X164528467Y-106158597D01*
X164528467Y-106266347D01*
X164501530Y-106347159D01*
X164851716Y-105673724D02*
X165201903Y-105323538D01*
X165228840Y-105727599D01*
X165309652Y-105646786D01*
X165390464Y-105619849D01*
X165444339Y-105619848D01*
X165525152Y-105646786D01*
X165659838Y-105781473D01*
X165686776Y-105862285D01*
X165686776Y-105916161D01*
X165659838Y-105996973D01*
X165498214Y-106158597D01*
X165417402Y-106185535D01*
X165363527Y-106185534D01*
X159775724Y-107882590D02*
X159694912Y-107909528D01*
X159614100Y-107990340D01*
X159560225Y-108098089D01*
X159560224Y-108205839D01*
X159587162Y-108286652D01*
X159667975Y-108421338D01*
X159748787Y-108502151D01*
X159883474Y-108582963D01*
X159964286Y-108609900D01*
X160072036Y-108609900D01*
X160179786Y-108556025D01*
X160233660Y-108502151D01*
X160287535Y-108394401D01*
X160287535Y-108340526D01*
X160098973Y-108151965D01*
X159991224Y-108259714D01*
X160583846Y-108151965D02*
X160018161Y-107586279D01*
X160233660Y-107370780D01*
X160314473Y-107343842D01*
X160368347Y-107343842D01*
X160449159Y-107370780D01*
X160529971Y-107451592D01*
X160556909Y-107532404D01*
X160556909Y-107586279D01*
X160529971Y-107667091D01*
X160314472Y-107882590D01*
X161149532Y-107586279D02*
X160583846Y-107020594D01*
X160960970Y-106643470D02*
X161068719Y-106535721D01*
X161149532Y-106508783D01*
X161257281Y-106508783D01*
X161391968Y-106589595D01*
X161580530Y-106778157D01*
X161661342Y-106912844D01*
X161661343Y-107020594D01*
X161634405Y-107101406D01*
X161526655Y-107209156D01*
X161445843Y-107236093D01*
X161338093Y-107236093D01*
X161203406Y-107155281D01*
X161014844Y-106966719D01*
X160934032Y-106832032D01*
X160934032Y-106724282D01*
X160960970Y-106643470D01*
X162307840Y-106427971D02*
X161984591Y-106751220D01*
X162146215Y-106589596D02*
X161580530Y-106023911D01*
X161607467Y-106158597D01*
X161607467Y-106266347D01*
X161580530Y-106347159D01*
X162011528Y-105700661D02*
X162011528Y-105646786D01*
X162038466Y-105565974D01*
X162173153Y-105431287D01*
X162253965Y-105404350D01*
X162307840Y-105404349D01*
X162388652Y-105431287D01*
X162442527Y-105485162D01*
X162496402Y-105592911D01*
X162496402Y-106239409D01*
X162846588Y-105889223D01*
X157251098Y-107867216D02*
X157170286Y-107894154D01*
X157089474Y-107974966D01*
X157035599Y-108082716D01*
X157035598Y-108190465D01*
X157062536Y-108271278D01*
X157143348Y-108405965D01*
X157224161Y-108486777D01*
X157358848Y-108567589D01*
X157439659Y-108594527D01*
X157547410Y-108594527D01*
X157655159Y-108540652D01*
X157709034Y-108486777D01*
X157762909Y-108379027D01*
X157762908Y-108325152D01*
X157574347Y-108136591D01*
X157466597Y-108244341D01*
X158059220Y-108136591D02*
X157493535Y-107570905D01*
X157709034Y-107355406D01*
X157789846Y-107328468D01*
X157843721Y-107328468D01*
X157924533Y-107355406D01*
X158005345Y-107436218D01*
X158032283Y-107517030D01*
X158032283Y-107570905D01*
X158005345Y-107651717D01*
X157789846Y-107867216D01*
X158624905Y-107570905D02*
X158059220Y-107005220D01*
X158436343Y-106628097D02*
X158544093Y-106520347D01*
X158624905Y-106493409D01*
X158732654Y-106493409D01*
X158867341Y-106574222D01*
X159055903Y-106762784D01*
X159136716Y-106897470D01*
X159136716Y-107005220D01*
X159109778Y-107086032D01*
X159002029Y-107193782D01*
X158921217Y-107220719D01*
X158813467Y-107220719D01*
X158678780Y-107139907D01*
X158490218Y-106951345D01*
X158409405Y-106816658D01*
X158409406Y-106708908D01*
X158436343Y-106628097D01*
X159163653Y-105900787D02*
X159055903Y-106008537D01*
X159028966Y-106089348D01*
X159028966Y-106143223D01*
X159055903Y-106277911D01*
X159136716Y-106412597D01*
X159352215Y-106628097D01*
X159433027Y-106655034D01*
X159486902Y-106655035D01*
X159567714Y-106628097D01*
X159675464Y-106520347D01*
X159702401Y-106439535D01*
X159702401Y-106385659D01*
X159675464Y-106304848D01*
X159540777Y-106170161D01*
X159459965Y-106143223D01*
X159406089Y-106143224D01*
X159325278Y-106170161D01*
X159217528Y-106277911D01*
X159190590Y-106358723D01*
X159190590Y-106412597D01*
X159217528Y-106493410D01*
X154457098Y-107867216D02*
X154376286Y-107894154D01*
X154295474Y-107974966D01*
X154241599Y-108082716D01*
X154241598Y-108190465D01*
X154268536Y-108271278D01*
X154349348Y-108405965D01*
X154430161Y-108486777D01*
X154564848Y-108567589D01*
X154645659Y-108594527D01*
X154753410Y-108594527D01*
X154861159Y-108540652D01*
X154915034Y-108486777D01*
X154968909Y-108379027D01*
X154968908Y-108325152D01*
X154780347Y-108136591D01*
X154672597Y-108244341D01*
X155265220Y-108136591D02*
X154699535Y-107570905D01*
X154915034Y-107355406D01*
X154995846Y-107328468D01*
X155049721Y-107328468D01*
X155130533Y-107355406D01*
X155211345Y-107436218D01*
X155238283Y-107517030D01*
X155238283Y-107570905D01*
X155211345Y-107651717D01*
X154995846Y-107867216D01*
X155830905Y-107570905D02*
X155265220Y-107005220D01*
X155642343Y-106628097D02*
X155750093Y-106520347D01*
X155830905Y-106493409D01*
X155938654Y-106493409D01*
X156073341Y-106574222D01*
X156261903Y-106762784D01*
X156342716Y-106897470D01*
X156342716Y-107005220D01*
X156315778Y-107086032D01*
X156208029Y-107193782D01*
X156127217Y-107220719D01*
X156019467Y-107220719D01*
X155884780Y-107139907D01*
X155696218Y-106951345D01*
X155615405Y-106816658D01*
X155615406Y-106708908D01*
X155642343Y-106628097D01*
X156396591Y-105873849D02*
X156127216Y-106143224D01*
X156369653Y-106439535D01*
X156369653Y-106385660D01*
X156396591Y-106304848D01*
X156531278Y-106170161D01*
X156612089Y-106143224D01*
X156665965Y-106143223D01*
X156746777Y-106170161D01*
X156881464Y-106304848D01*
X156908401Y-106385659D01*
X156908401Y-106439535D01*
X156881464Y-106520347D01*
X156746777Y-106655034D01*
X156665965Y-106681972D01*
X156612089Y-106681971D01*
X151663098Y-107867216D02*
X151582286Y-107894154D01*
X151501474Y-107974966D01*
X151447599Y-108082716D01*
X151447598Y-108190465D01*
X151474536Y-108271278D01*
X151555348Y-108405965D01*
X151636161Y-108486777D01*
X151770848Y-108567589D01*
X151851659Y-108594527D01*
X151959410Y-108594527D01*
X152067159Y-108540652D01*
X152121034Y-108486777D01*
X152174909Y-108379027D01*
X152174908Y-108325152D01*
X151986347Y-108136591D01*
X151878597Y-108244341D01*
X152471220Y-108136591D02*
X151905535Y-107570905D01*
X152121034Y-107355406D01*
X152201846Y-107328468D01*
X152255721Y-107328468D01*
X152336533Y-107355406D01*
X152417345Y-107436218D01*
X152444283Y-107517030D01*
X152444283Y-107570905D01*
X152417345Y-107651717D01*
X152201846Y-107867216D01*
X153036905Y-107570905D02*
X152471220Y-107005220D01*
X152848343Y-106628097D02*
X152956093Y-106520347D01*
X153036905Y-106493409D01*
X153144654Y-106493409D01*
X153279341Y-106574222D01*
X153467903Y-106762784D01*
X153548716Y-106897470D01*
X153548716Y-107005220D01*
X153521778Y-107086032D01*
X153414029Y-107193782D01*
X153333217Y-107220719D01*
X153225467Y-107220719D01*
X153090780Y-107139907D01*
X152902218Y-106951345D01*
X152821405Y-106816658D01*
X152821406Y-106708908D01*
X152848343Y-106628097D01*
X153764214Y-106089348D02*
X154141338Y-106466473D01*
X153414029Y-106008537D02*
X153683403Y-106547284D01*
X154033589Y-106197098D01*
X145670462Y-108266958D02*
X145805149Y-108199615D01*
X145973508Y-108031255D01*
X146007180Y-107930240D01*
X146007180Y-107862897D01*
X145973508Y-107761882D01*
X145906164Y-107694538D01*
X145805149Y-107660867D01*
X145737806Y-107660867D01*
X145636790Y-107694538D01*
X145468431Y-107795553D01*
X145367416Y-107829225D01*
X145300072Y-107829225D01*
X145199057Y-107795553D01*
X145131714Y-107728210D01*
X145098042Y-107627195D01*
X145098042Y-107559851D01*
X145131714Y-107458836D01*
X145300073Y-107290477D01*
X145434760Y-107223133D01*
X146242882Y-106819072D02*
X146714286Y-107290477D01*
X145805149Y-106718058D02*
X146141867Y-107391493D01*
X146579600Y-106953760D01*
X142876462Y-108266958D02*
X143011149Y-108199615D01*
X143179508Y-108031255D01*
X143213180Y-107930240D01*
X143213180Y-107862897D01*
X143179508Y-107761882D01*
X143112164Y-107694538D01*
X143011149Y-107660867D01*
X142943806Y-107660867D01*
X142842790Y-107694538D01*
X142674431Y-107795553D01*
X142573416Y-107829225D01*
X142506072Y-107829225D01*
X142405057Y-107795553D01*
X142337714Y-107728210D01*
X142304042Y-107627195D01*
X142304042Y-107559851D01*
X142337714Y-107458836D01*
X142506073Y-107290477D01*
X142640760Y-107223133D01*
X142842790Y-106953760D02*
X143280523Y-106516027D01*
X143314194Y-107021103D01*
X143415210Y-106920087D01*
X143516225Y-106886416D01*
X143583569Y-106886416D01*
X143684584Y-106920088D01*
X143852943Y-107088447D01*
X143886615Y-107189462D01*
X143886615Y-107256805D01*
X143852943Y-107357820D01*
X143650912Y-107559851D01*
X143549897Y-107593523D01*
X143482553Y-107593523D01*
X140082462Y-108266958D02*
X140217149Y-108199615D01*
X140385508Y-108031255D01*
X140419180Y-107930240D01*
X140419180Y-107862897D01*
X140385508Y-107761882D01*
X140318164Y-107694538D01*
X140217149Y-107660867D01*
X140149806Y-107660867D01*
X140048790Y-107694538D01*
X139880431Y-107795553D01*
X139779416Y-107829225D01*
X139712072Y-107829225D01*
X139611057Y-107795553D01*
X139543714Y-107728210D01*
X139510042Y-107627195D01*
X139510042Y-107559851D01*
X139543714Y-107458836D01*
X139712073Y-107290477D01*
X139846760Y-107223133D01*
X140149805Y-106987431D02*
X140149805Y-106920088D01*
X140183477Y-106819073D01*
X140351836Y-106650714D01*
X140452851Y-106617042D01*
X140520195Y-106617042D01*
X140621210Y-106650714D01*
X140688553Y-106718057D01*
X140755897Y-106852744D01*
X140755897Y-107660867D01*
X141193630Y-107223133D01*
X137288462Y-108266958D02*
X137423149Y-108199615D01*
X137591508Y-108031255D01*
X137625180Y-107930240D01*
X137625180Y-107862897D01*
X137591508Y-107761882D01*
X137524164Y-107694538D01*
X137423149Y-107660867D01*
X137355806Y-107660867D01*
X137254790Y-107694538D01*
X137086431Y-107795553D01*
X136985416Y-107829225D01*
X136918072Y-107829225D01*
X136817057Y-107795553D01*
X136749714Y-107728210D01*
X136716042Y-107627195D01*
X136716042Y-107559851D01*
X136749714Y-107458836D01*
X136918073Y-107290477D01*
X137052760Y-107223133D01*
X138399630Y-107223133D02*
X137995569Y-107627195D01*
X138197599Y-107425164D02*
X137490492Y-106718058D01*
X137524164Y-106886416D01*
X137524164Y-107021103D01*
X137490492Y-107122118D01*
X134748462Y-108266958D02*
X134883149Y-108199615D01*
X135051508Y-108031255D01*
X135085180Y-107930240D01*
X135085180Y-107862897D01*
X135051508Y-107761882D01*
X134984164Y-107694538D01*
X134883149Y-107660867D01*
X134815806Y-107660867D01*
X134714790Y-107694538D01*
X134546431Y-107795553D01*
X134445416Y-107829225D01*
X134378072Y-107829225D01*
X134277057Y-107795553D01*
X134209714Y-107728210D01*
X134176042Y-107627195D01*
X134176042Y-107559851D01*
X134209714Y-107458836D01*
X134378073Y-107290477D01*
X134512760Y-107223133D01*
X134916820Y-106751729D02*
X134984164Y-106684385D01*
X135085180Y-106650714D01*
X135152523Y-106650714D01*
X135253538Y-106684385D01*
X135421897Y-106785400D01*
X135590256Y-106953760D01*
X135691271Y-107122118D01*
X135724943Y-107223133D01*
X135724943Y-107290477D01*
X135691271Y-107391492D01*
X135623927Y-107458836D01*
X135522912Y-107492508D01*
X135455569Y-107492508D01*
X135354553Y-107458836D01*
X135186195Y-107357821D01*
X135017836Y-107189462D01*
X134916820Y-107021103D01*
X134883149Y-106920088D01*
X134883149Y-106852745D01*
X134916820Y-106751729D01*
X167429142Y-107840429D02*
X167429142Y-107240429D01*
X167686285Y-107297571D02*
X167714856Y-107269000D01*
X167771999Y-107240429D01*
X167914856Y-107240429D01*
X167971999Y-107269000D01*
X168000570Y-107297571D01*
X168029142Y-107354714D01*
X168029142Y-107411857D01*
X168000570Y-107497571D01*
X167657713Y-107840429D01*
X168029142Y-107840429D01*
X168629142Y-107783286D02*
X168600571Y-107811857D01*
X168514857Y-107840429D01*
X168457714Y-107840429D01*
X168371999Y-107811857D01*
X168314857Y-107754714D01*
X168286285Y-107697571D01*
X168257714Y-107583286D01*
X168257714Y-107497571D01*
X168286285Y-107383286D01*
X168314857Y-107326143D01*
X168371999Y-107269000D01*
X168457714Y-107240429D01*
X168514857Y-107240429D01*
X168600571Y-107269000D01*
X168629142Y-107297571D01*
X169343428Y-107611857D02*
X169800571Y-107611857D01*
X170486285Y-107240429D02*
X170857714Y-107240429D01*
X170657714Y-107469000D01*
X170743428Y-107469000D01*
X170800571Y-107497571D01*
X170829142Y-107526143D01*
X170857714Y-107583286D01*
X170857714Y-107726143D01*
X170829142Y-107783286D01*
X170800571Y-107811857D01*
X170743428Y-107840429D01*
X170572000Y-107840429D01*
X170514857Y-107811857D01*
X170486285Y-107783286D01*
X171029143Y-107240429D02*
X171229143Y-107840429D01*
X171429143Y-107240429D01*
X171572000Y-107240429D02*
X171943429Y-107240429D01*
X171743429Y-107469000D01*
X171829143Y-107469000D01*
X171886286Y-107497571D01*
X171914857Y-107526143D01*
X171943429Y-107583286D01*
X171943429Y-107726143D01*
X171914857Y-107783286D01*
X171886286Y-107811857D01*
X171829143Y-107840429D01*
X171657715Y-107840429D01*
X171600572Y-107811857D01*
X171572000Y-107783286D01*
X111125000Y-118491000D02*
X170053000Y-118491000D01*
X110617000Y-88519000D02*
X111125000Y-88519000D01*
X110617000Y-88519000D02*
G75*
G03X108077000Y-91313000I127000J-2667000D01*
G01*
X108077000Y-115443000D02*
X108077000Y-91313000D01*
X111125000Y-118491000D02*
X110871000Y-118491000D01*
X108077000Y-115443000D02*
G75*
G03X110871000Y-118491000I2921000J-127000D01*
G01*
X170053000Y-118491000D02*
G75*
G03X173101000Y-115443000I0J3048000D01*
G01*
X173101000Y-91440000D02*
X173101000Y-115443000D01*
X173101000Y-91440000D02*
G75*
G03X170180000Y-88519000I-2921000J0D01*
G01*
X111125000Y-88519000D02*
X170180000Y-88519000D01*
D12*
X155255000Y-104775000D02*
G75*
G03X155255000Y-104775000I-950000J0D01*
G01*
X139604000Y-99695000D02*
G75*
G03X139604000Y-99695000I-4090000J0D01*
G01*
X135514000Y-103745000D02*
X135514000Y-95645000D01*
X135474000Y-103745000D02*
X135474000Y-95645000D01*
X135434000Y-103745000D02*
X135434000Y-95645000D01*
X135394000Y-103744000D02*
X135394000Y-95646000D01*
X135354000Y-103742000D02*
X135354000Y-95648000D01*
X135314000Y-103741000D02*
X135314000Y-95649000D01*
X135274000Y-103738000D02*
X135274000Y-95652000D01*
X135234000Y-103736000D02*
X135234000Y-95654000D01*
X135194000Y-103733000D02*
X135194000Y-95657000D01*
X135154000Y-103730000D02*
X135154000Y-95660000D01*
X135114000Y-103726000D02*
X135114000Y-95664000D01*
X135074000Y-103722000D02*
X135074000Y-95668000D01*
X135034000Y-103717000D02*
X135034000Y-95673000D01*
X134994000Y-103712000D02*
X134994000Y-95678000D01*
X134954000Y-103707000D02*
X134954000Y-95683000D01*
X134914000Y-103701000D02*
X134914000Y-95689000D01*
X134874000Y-103695000D02*
X134874000Y-95695000D01*
X134834000Y-103689000D02*
X134834000Y-95701000D01*
X134793000Y-103682000D02*
X134793000Y-95708000D01*
X134753000Y-103674000D02*
X134753000Y-95716000D01*
X134713000Y-103666000D02*
X134713000Y-95724000D01*
X134673000Y-103658000D02*
X134673000Y-95732000D01*
X134633000Y-103650000D02*
X134633000Y-95740000D01*
X134593000Y-103641000D02*
X134593000Y-100675000D01*
X134593000Y-98715000D02*
X134593000Y-95749000D01*
X134553000Y-103631000D02*
X134553000Y-100675000D01*
X134553000Y-98715000D02*
X134553000Y-95759000D01*
X134513000Y-103621000D02*
X134513000Y-100675000D01*
X134513000Y-98715000D02*
X134513000Y-95769000D01*
X134473000Y-103611000D02*
X134473000Y-100675000D01*
X134473000Y-98715000D02*
X134473000Y-95779000D01*
X134433000Y-103600000D02*
X134433000Y-100675000D01*
X134433000Y-98715000D02*
X134433000Y-95790000D01*
X134393000Y-103589000D02*
X134393000Y-100675000D01*
X134393000Y-98715000D02*
X134393000Y-95801000D01*
X134353000Y-103578000D02*
X134353000Y-100675000D01*
X134353000Y-98715000D02*
X134353000Y-95812000D01*
X134313000Y-103565000D02*
X134313000Y-100675000D01*
X134313000Y-98715000D02*
X134313000Y-95825000D01*
X134273000Y-103553000D02*
X134273000Y-100675000D01*
X134273000Y-98715000D02*
X134273000Y-95837000D01*
X134233000Y-103540000D02*
X134233000Y-100675000D01*
X134233000Y-98715000D02*
X134233000Y-95850000D01*
X134193000Y-103527000D02*
X134193000Y-100675000D01*
X134193000Y-98715000D02*
X134193000Y-95863000D01*
X134153000Y-103513000D02*
X134153000Y-100675000D01*
X134153000Y-98715000D02*
X134153000Y-95877000D01*
X134113000Y-103498000D02*
X134113000Y-100675000D01*
X134113000Y-98715000D02*
X134113000Y-95892000D01*
X134073000Y-103484000D02*
X134073000Y-100675000D01*
X134073000Y-98715000D02*
X134073000Y-95906000D01*
X134033000Y-103468000D02*
X134033000Y-100675000D01*
X134033000Y-98715000D02*
X134033000Y-95922000D01*
X133993000Y-103453000D02*
X133993000Y-100675000D01*
X133993000Y-98715000D02*
X133993000Y-95937000D01*
X133953000Y-103436000D02*
X133953000Y-100675000D01*
X133953000Y-98715000D02*
X133953000Y-95954000D01*
X133913000Y-103420000D02*
X133913000Y-100675000D01*
X133913000Y-98715000D02*
X133913000Y-95970000D01*
X133873000Y-103402000D02*
X133873000Y-100675000D01*
X133873000Y-98715000D02*
X133873000Y-95988000D01*
X133833000Y-103385000D02*
X133833000Y-100675000D01*
X133833000Y-98715000D02*
X133833000Y-96005000D01*
X133793000Y-103366000D02*
X133793000Y-100675000D01*
X133793000Y-98715000D02*
X133793000Y-96024000D01*
X133753000Y-103347000D02*
X133753000Y-100675000D01*
X133753000Y-98715000D02*
X133753000Y-96043000D01*
X133713000Y-103328000D02*
X133713000Y-100675000D01*
X133713000Y-98715000D02*
X133713000Y-96062000D01*
X133673000Y-103308000D02*
X133673000Y-100675000D01*
X133673000Y-98715000D02*
X133673000Y-96082000D01*
X133633000Y-103288000D02*
X133633000Y-100675000D01*
X133633000Y-98715000D02*
X133633000Y-96102000D01*
X133593000Y-103267000D02*
X133593000Y-100675000D01*
X133593000Y-98715000D02*
X133593000Y-96123000D01*
X133553000Y-103245000D02*
X133553000Y-100675000D01*
X133553000Y-98715000D02*
X133553000Y-96145000D01*
X133513000Y-103223000D02*
X133513000Y-100675000D01*
X133513000Y-98715000D02*
X133513000Y-96167000D01*
X133473000Y-103200000D02*
X133473000Y-100675000D01*
X133473000Y-98715000D02*
X133473000Y-96190000D01*
X133433000Y-103177000D02*
X133433000Y-100675000D01*
X133433000Y-98715000D02*
X133433000Y-96213000D01*
X133393000Y-103153000D02*
X133393000Y-100675000D01*
X133393000Y-98715000D02*
X133393000Y-96237000D01*
X133353000Y-103129000D02*
X133353000Y-100675000D01*
X133353000Y-98715000D02*
X133353000Y-96261000D01*
X133313000Y-103103000D02*
X133313000Y-100675000D01*
X133313000Y-98715000D02*
X133313000Y-96287000D01*
X133273000Y-103078000D02*
X133273000Y-100675000D01*
X133273000Y-98715000D02*
X133273000Y-96312000D01*
X133233000Y-103051000D02*
X133233000Y-100675000D01*
X133233000Y-98715000D02*
X133233000Y-96339000D01*
X133193000Y-103024000D02*
X133193000Y-100675000D01*
X133193000Y-98715000D02*
X133193000Y-96366000D01*
X133153000Y-102996000D02*
X133153000Y-100675000D01*
X133153000Y-98715000D02*
X133153000Y-96394000D01*
X133113000Y-102967000D02*
X133113000Y-100675000D01*
X133113000Y-98715000D02*
X133113000Y-96423000D01*
X133073000Y-102938000D02*
X133073000Y-100675000D01*
X133073000Y-98715000D02*
X133073000Y-96452000D01*
X133033000Y-102908000D02*
X133033000Y-100675000D01*
X133033000Y-98715000D02*
X133033000Y-96482000D01*
X132993000Y-102877000D02*
X132993000Y-100675000D01*
X132993000Y-98715000D02*
X132993000Y-96513000D01*
X132953000Y-102845000D02*
X132953000Y-100675000D01*
X132953000Y-98715000D02*
X132953000Y-96545000D01*
X132913000Y-102813000D02*
X132913000Y-100675000D01*
X132913000Y-98715000D02*
X132913000Y-96577000D01*
X132873000Y-102779000D02*
X132873000Y-100675000D01*
X132873000Y-98715000D02*
X132873000Y-96611000D01*
X132833000Y-102745000D02*
X132833000Y-100675000D01*
X132833000Y-98715000D02*
X132833000Y-96645000D01*
X132793000Y-102710000D02*
X132793000Y-100675000D01*
X132793000Y-98715000D02*
X132793000Y-96680000D01*
X132753000Y-102674000D02*
X132753000Y-100675000D01*
X132753000Y-98715000D02*
X132753000Y-96716000D01*
X132713000Y-102637000D02*
X132713000Y-100675000D01*
X132713000Y-98715000D02*
X132713000Y-96753000D01*
X132673000Y-102599000D02*
X132673000Y-100675000D01*
X132673000Y-98715000D02*
X132673000Y-96791000D01*
X132633000Y-102560000D02*
X132633000Y-96830000D01*
X132593000Y-102519000D02*
X132593000Y-96871000D01*
X132553000Y-102478000D02*
X132553000Y-96912000D01*
X132513000Y-102435000D02*
X132513000Y-96955000D01*
X132473000Y-102392000D02*
X132473000Y-96998000D01*
X132433000Y-102347000D02*
X132433000Y-97043000D01*
X132393000Y-102300000D02*
X132393000Y-97090000D01*
X132353000Y-102252000D02*
X132353000Y-97138000D01*
X132313000Y-102203000D02*
X132313000Y-97187000D01*
X132273000Y-102152000D02*
X132273000Y-97238000D01*
X132233000Y-102099000D02*
X132233000Y-97291000D01*
X132193000Y-102044000D02*
X132193000Y-97346000D01*
X132153000Y-101988000D02*
X132153000Y-97402000D01*
X132113000Y-101929000D02*
X132113000Y-97461000D01*
X132073000Y-101868000D02*
X132073000Y-97522000D01*
X132033000Y-101804000D02*
X132033000Y-97586000D01*
X131993000Y-101738000D02*
X131993000Y-97652000D01*
X131953000Y-101669000D02*
X131953000Y-97721000D01*
X131913000Y-101597000D02*
X131913000Y-97793000D01*
X131873000Y-101521000D02*
X131873000Y-97869000D01*
X131833000Y-101440000D02*
X131833000Y-97950000D01*
X131793000Y-101355000D02*
X131793000Y-98035000D01*
X131753000Y-101265000D02*
X131753000Y-98125000D01*
X131713000Y-101168000D02*
X131713000Y-98222000D01*
X131673000Y-101064000D02*
X131673000Y-98326000D01*
X131633000Y-100949000D02*
X131633000Y-98441000D01*
X131593000Y-100822000D02*
X131593000Y-98568000D01*
X131553000Y-100678000D02*
X131553000Y-98712000D01*
X131513000Y-100509000D02*
X131513000Y-98881000D01*
X131473000Y-100293000D02*
X131473000Y-99097000D01*
X131433000Y-99941000D02*
X131433000Y-99449000D01*
X139614000Y-99695000D02*
X138414000Y-99695000D01*
X139014000Y-100345000D02*
X139014000Y-99045000D01*
X153559000Y-95770000D02*
X156759000Y-95770000D01*
X156759000Y-97270000D02*
X153559000Y-97270000D01*
X156759000Y-97270000D02*
X156759000Y-95770000D01*
X150562000Y-116519000D02*
X153222000Y-116519000D01*
X150562000Y-111379000D02*
X150562000Y-116519000D01*
X153222000Y-111379000D02*
X153222000Y-116519000D01*
X150562000Y-111379000D02*
X153222000Y-111379000D01*
X150562000Y-110109000D02*
X150562000Y-108779000D01*
X150562000Y-108779000D02*
X151892000Y-108779000D01*
X133417000Y-116519000D02*
X136077000Y-116519000D01*
X133417000Y-111379000D02*
X133417000Y-116519000D01*
X136077000Y-111379000D02*
X136077000Y-116519000D01*
X133417000Y-111379000D02*
X136077000Y-111379000D01*
X133417000Y-110109000D02*
X133417000Y-108779000D01*
X133417000Y-108779000D02*
X134747000Y-108779000D01*
X116145000Y-116519000D02*
X118805000Y-116519000D01*
X116145000Y-111379000D02*
X116145000Y-116519000D01*
X118805000Y-111379000D02*
X118805000Y-116519000D01*
X116145000Y-111379000D02*
X118805000Y-111379000D01*
X116145000Y-110109000D02*
X116145000Y-108779000D01*
X116145000Y-108779000D02*
X117475000Y-108779000D01*
X153356000Y-116519000D02*
X156016000Y-116519000D01*
X153356000Y-111379000D02*
X153356000Y-116519000D01*
X156016000Y-111379000D02*
X156016000Y-116519000D01*
X153356000Y-111379000D02*
X156016000Y-111379000D01*
X153356000Y-110109000D02*
X153356000Y-108779000D01*
X153356000Y-108779000D02*
X154686000Y-108779000D01*
X136211000Y-116519000D02*
X138871000Y-116519000D01*
X136211000Y-111379000D02*
X136211000Y-116519000D01*
X138871000Y-111379000D02*
X138871000Y-116519000D01*
X136211000Y-111379000D02*
X138871000Y-111379000D01*
X136211000Y-110109000D02*
X136211000Y-108779000D01*
X136211000Y-108779000D02*
X137541000Y-108779000D01*
X118939000Y-116519000D02*
X121599000Y-116519000D01*
X118939000Y-111379000D02*
X118939000Y-116519000D01*
X121599000Y-111379000D02*
X121599000Y-116519000D01*
X118939000Y-111379000D02*
X121599000Y-111379000D01*
X118939000Y-110109000D02*
X118939000Y-108779000D01*
X118939000Y-108779000D02*
X120269000Y-108779000D01*
X156150000Y-116519000D02*
X158810000Y-116519000D01*
X156150000Y-111379000D02*
X156150000Y-116519000D01*
X158810000Y-111379000D02*
X158810000Y-116519000D01*
X156150000Y-111379000D02*
X158810000Y-111379000D01*
X156150000Y-110109000D02*
X156150000Y-108779000D01*
X156150000Y-108779000D02*
X157480000Y-108779000D01*
X139005000Y-116519000D02*
X141665000Y-116519000D01*
X139005000Y-111379000D02*
X139005000Y-116519000D01*
X141665000Y-111379000D02*
X141665000Y-116519000D01*
X139005000Y-111379000D02*
X141665000Y-111379000D01*
X139005000Y-110109000D02*
X139005000Y-108779000D01*
X139005000Y-108779000D02*
X140335000Y-108779000D01*
X121733000Y-116519000D02*
X124393000Y-116519000D01*
X121733000Y-111379000D02*
X121733000Y-116519000D01*
X124393000Y-111379000D02*
X124393000Y-116519000D01*
X121733000Y-111379000D02*
X124393000Y-111379000D01*
X121733000Y-110109000D02*
X121733000Y-108779000D01*
X121733000Y-108779000D02*
X123063000Y-108779000D01*
X112505000Y-95287000D02*
X112505000Y-95737000D01*
X110655000Y-95287000D02*
X112505000Y-95287000D01*
X108105000Y-103087000D02*
X108355000Y-103087000D01*
X108105000Y-95287000D02*
X108355000Y-95287000D01*
X110655000Y-103087000D02*
X112505000Y-103087000D01*
X112505000Y-103087000D02*
X112505000Y-102637000D01*
X113055000Y-97487000D02*
X113055000Y-97937000D01*
X113055000Y-97487000D02*
X112605000Y-97487000D01*
X158944000Y-116519000D02*
X161604000Y-116519000D01*
X158944000Y-111379000D02*
X158944000Y-116519000D01*
X161604000Y-111379000D02*
X161604000Y-116519000D01*
X158944000Y-111379000D02*
X161604000Y-111379000D01*
X158944000Y-110109000D02*
X158944000Y-108779000D01*
X158944000Y-108779000D02*
X160274000Y-108779000D01*
X141799000Y-116519000D02*
X144459000Y-116519000D01*
X141799000Y-111379000D02*
X141799000Y-116519000D01*
X144459000Y-111379000D02*
X144459000Y-116519000D01*
X141799000Y-111379000D02*
X144459000Y-111379000D01*
X141799000Y-110109000D02*
X141799000Y-108779000D01*
X141799000Y-108779000D02*
X143129000Y-108779000D01*
X124527000Y-116519000D02*
X127187000Y-116519000D01*
X124527000Y-111379000D02*
X124527000Y-116519000D01*
X127187000Y-111379000D02*
X127187000Y-116519000D01*
X124527000Y-111379000D02*
X127187000Y-111379000D01*
X124527000Y-110109000D02*
X124527000Y-108779000D01*
X124527000Y-108779000D02*
X125857000Y-108779000D01*
X108398000Y-106493000D02*
X108398000Y-109153000D01*
X113538000Y-106493000D02*
X108398000Y-106493000D01*
X113538000Y-109153000D02*
X108398000Y-109153000D01*
X113538000Y-106493000D02*
X113538000Y-109153000D01*
X114808000Y-106493000D02*
X116138000Y-106493000D01*
X116138000Y-106493000D02*
X116138000Y-107823000D01*
X161738000Y-116519000D02*
X164398000Y-116519000D01*
X161738000Y-111379000D02*
X161738000Y-116519000D01*
X164398000Y-111379000D02*
X164398000Y-116519000D01*
X161738000Y-111379000D02*
X164398000Y-111379000D01*
X161738000Y-110109000D02*
X161738000Y-108779000D01*
X161738000Y-108779000D02*
X163068000Y-108779000D01*
X144593000Y-116519000D02*
X147253000Y-116519000D01*
X144593000Y-111379000D02*
X144593000Y-116519000D01*
X147253000Y-111379000D02*
X147253000Y-116519000D01*
X144593000Y-111379000D02*
X147253000Y-111379000D01*
X144593000Y-110109000D02*
X144593000Y-108779000D01*
X144593000Y-108779000D02*
X145923000Y-108779000D01*
X127194000Y-116519000D02*
X129854000Y-116519000D01*
X127194000Y-111379000D02*
X127194000Y-116519000D01*
X129854000Y-111379000D02*
X129854000Y-116519000D01*
X127194000Y-111379000D02*
X129854000Y-111379000D01*
X127194000Y-110109000D02*
X127194000Y-108779000D01*
X127194000Y-108779000D02*
X128524000Y-108779000D01*
X128585000Y-105664000D02*
G75*
G03X128585000Y-105664000I-950000J0D01*
G01*
X131506000Y-105664000D02*
G75*
G03X131506000Y-105664000I-950000J0D01*
G01*
X108398000Y-103826000D02*
X108398000Y-106486000D01*
X113538000Y-103826000D02*
X108398000Y-103826000D01*
X113538000Y-106486000D02*
X108398000Y-106486000D01*
X113538000Y-103826000D02*
X113538000Y-106486000D01*
X114808000Y-103826000D02*
X116138000Y-103826000D01*
X116138000Y-103826000D02*
X116138000Y-105156000D01*
X173863000Y-103767000D02*
X169513000Y-103767000D01*
X169513000Y-103767000D02*
X169513000Y-98767000D01*
X169513000Y-98767000D02*
X173863000Y-98767000D01*
X167663000Y-105067000D02*
X167663000Y-105417000D01*
X167663000Y-105417000D02*
X166063000Y-105417000D01*
X166063000Y-105417000D02*
X166063000Y-106317000D01*
X166063000Y-106317000D02*
X173863000Y-106317000D01*
X173863000Y-106317000D02*
X173863000Y-96217000D01*
X173863000Y-96217000D02*
X166063000Y-96217000D01*
X166063000Y-96217000D02*
X166063000Y-97117000D01*
X166063000Y-97117000D02*
X167663000Y-97117000D01*
X167663000Y-97117000D02*
X167663000Y-97467000D01*
X167663000Y-106317000D02*
X167663000Y-105417000D01*
X167663000Y-96217000D02*
X167663000Y-97117000D01*
X170013000Y-105567000D02*
X171613000Y-105567000D01*
X171613000Y-105567000D02*
X171613000Y-104567000D01*
X171613000Y-104567000D02*
X170013000Y-104567000D01*
X170013000Y-104567000D02*
X170013000Y-105567000D01*
X170013000Y-96967000D02*
X171613000Y-96967000D01*
X171613000Y-96967000D02*
X171613000Y-97967000D01*
X171613000Y-97967000D02*
X170013000Y-97967000D01*
X170013000Y-97967000D02*
X170013000Y-96967000D01*
X171613000Y-104567000D02*
X173863000Y-104567000D01*
X171613000Y-105067000D02*
X173863000Y-105067000D01*
X167663000Y-105067000D02*
X166463000Y-105067000D01*
X155255000Y-101854000D02*
G75*
G03X155255000Y-101854000I-950000J0D01*
G01*
X153959000Y-97545000D02*
X155159000Y-97545000D01*
X155159000Y-99305000D02*
X153959000Y-99305000D01*
X150758000Y-103089000D02*
X150758000Y-101889000D01*
X152518000Y-101889000D02*
X152518000Y-103089000D01*
D13*
X119893000Y-102278000D02*
X119918000Y-102278000D01*
X119893000Y-98128000D02*
X119998000Y-98128000D01*
X130043000Y-98128000D02*
X129938000Y-98128000D01*
X130043000Y-102278000D02*
X129938000Y-102278000D01*
X119893000Y-102278000D02*
X119893000Y-98128000D01*
X130043000Y-102278000D02*
X130043000Y-98128000D01*
X119918000Y-102278000D02*
X119918000Y-103653000D01*
X140313000Y-104814000D02*
X140538000Y-104814000D01*
X140313000Y-100164000D02*
X140638000Y-100164000D01*
X150263000Y-100164000D02*
X149938000Y-100164000D01*
X150263000Y-104814000D02*
X149938000Y-104814000D01*
X140313000Y-104814000D02*
X140313000Y-100164000D01*
X150263000Y-104814000D02*
X150263000Y-100164000D01*
X140538000Y-104814000D02*
X140538000Y-105889000D01*
X153820905Y-98672381D02*
X153820905Y-97672381D01*
X154059000Y-97672381D01*
X154201858Y-97720000D01*
X154297096Y-97815238D01*
X154344715Y-97910476D01*
X154392334Y-98100952D01*
X154392334Y-98243810D01*
X154344715Y-98434286D01*
X154297096Y-98529524D01*
X154201858Y-98624762D01*
X154059000Y-98672381D01*
X153820905Y-98672381D01*
X155344715Y-98672381D02*
X154773286Y-98672381D01*
X155059000Y-98672381D02*
X155059000Y-97672381D01*
X154963762Y-97815238D01*
X154868524Y-97910476D01*
X154773286Y-97958095D01*
M02*
