M48
;DRILL file {KiCad 4.0.7} date 07/08/18 22:21:12
;FORMAT={-:-/ absolute / inch / decimal}
FMAT,2
INCH,TZ
T1C0.013
T2C0.024
T3C0.030
T4C0.031
T5C0.033
T6C0.039
T7C0.040
T8C0.108
%
G90
G05
M72
T1
X4.375Y-4.32
X4.45Y-4.395
X4.48Y-3.73
X4.485Y-3.955
X4.51Y-4.
X4.515Y-3.785
X4.795Y-3.895
X4.8376Y-3.6323
X4.895Y-3.74
X5.02Y-3.8877
X5.0513Y-3.7326
X5.17Y-4.415
X5.2064Y-3.9136
X5.27Y-4.095
X5.33Y-3.805
X5.385Y-3.5722
X5.495Y-4.155
X5.58Y-3.982
X5.5812Y-3.8188
X5.655Y-4.085
X5.67Y-3.76
X5.695Y-4.065
X5.74Y-4.06
X5.775Y-4.08
X5.79Y-4.26
X5.81Y-3.775
X5.825Y-4.215
X5.835Y-3.83
X5.875Y-4.3
X5.875Y-4.48
X5.885Y-3.785
X5.955Y-3.86
X5.995Y-4.155
X6.055Y-3.945
X6.115Y-3.94
X6.15Y-4.115
X6.16Y-3.945
X6.18Y-4.045
X6.18Y-4.09
X6.185Y-4.215
X6.195Y-3.98
X6.2Y-3.8
X6.205Y-4.255
X6.335Y-4.25
X6.41Y-3.865
X6.41Y-3.945
X6.41Y-4.025
X6.41Y-4.105
X6.41Y-4.185
T3
X6.595Y-3.8688
X6.595Y-3.9475
X6.595Y-4.0263
X6.595Y-4.105
T4
X5.2604Y-3.925
X5.41Y-3.925
T5
X4.4175Y-3.8066
X4.4175Y-4.0034
T6
X4.32Y-4.14
X4.32Y-4.245
X4.42Y-4.14
X4.42Y-4.245
X4.52Y-4.14
X4.52Y-4.245
X4.625Y-4.335
X4.625Y-4.435
X4.625Y-4.535
X4.735Y-4.335
X4.735Y-4.435
X4.735Y-4.535
X4.845Y-4.335
X4.845Y-4.435
X4.845Y-4.535
X4.955Y-4.335
X4.955Y-4.435
X4.955Y-4.535
X5.06Y-4.335
X5.06Y-4.435
X5.06Y-4.535
X5.305Y-4.335
X5.305Y-4.435
X5.305Y-4.535
X5.415Y-4.335
X5.415Y-4.435
X5.415Y-4.535
X5.525Y-4.335
X5.525Y-4.435
X5.525Y-4.535
X5.635Y-4.335
X5.635Y-4.435
X5.635Y-4.535
X5.745Y-4.335
X5.745Y-4.435
X5.745Y-4.535
X5.98Y-4.335
X5.98Y-4.435
X5.98Y-4.535
X6.09Y-4.335
X6.09Y-4.435
X6.09Y-4.535
X6.2Y-4.335
X6.2Y-4.435
X6.2Y-4.535
X6.31Y-4.335
X6.31Y-4.435
X6.31Y-4.535
X6.42Y-4.335
X6.42Y-4.435
X6.42Y-4.535
T7
X4.585Y-3.5722
X4.585Y-3.6722
X4.685Y-3.5722
X4.685Y-3.6722
X4.785Y-3.5722
X4.785Y-3.6722
X4.885Y-3.5722
X4.885Y-3.6722
X4.985Y-3.5722
X4.985Y-3.6722
X5.085Y-3.5722
X5.085Y-3.6722
X5.185Y-3.5722
X5.185Y-3.6722
X5.285Y-3.5722
X5.285Y-3.6722
X5.385Y-3.5722
X5.385Y-3.6722
X5.485Y-3.5722
X5.485Y-3.6722
X5.585Y-3.5722
X5.585Y-3.6722
X5.685Y-3.5722
X5.685Y-3.6722
X5.785Y-3.5722
X5.785Y-3.6722
X5.885Y-3.5722
X5.885Y-3.6722
X5.985Y-3.5722
X5.985Y-3.6722
X6.085Y-3.5722
X6.085Y-3.6722
X6.185Y-3.5722
X6.185Y-3.6722
X6.285Y-3.5722
X6.285Y-3.6722
X6.385Y-3.5722
X6.385Y-3.6722
X6.485Y-3.5722
X6.485Y-3.6722
T8
X4.3933Y-3.6222
X4.3933Y-4.5278
X6.6767Y-3.6222
X6.6767Y-4.5278
T2
X4.2974Y-3.7672G85X4.325Y-3.7672
G05
X4.325Y-4.0428G85X4.2974Y-4.0428
G05
T0
M30
